<svg width="121" height="170" viewBox="0 0 121 170" fill="none" xmlns="http://www.w3.org/2000/svg">
<path d="M22.5406 46.6047C16.5867 52.3975 1.47689 68.729 0.100831 92.3434C-1.76524 124.395 22.4131 156.891 60.7279 170C98.7338 155.461 122.509 122.63 120.549 90.182C119.2 67.8563 106.05 52.0149 99.8011 45.43C74.0387 45.826 48.2896 46.2154 22.5406 46.6047Z" fill="#00B4D8"/>
<path d="M60.3251 36.2473C70.3345 36.2473 78.4487 28.1331 78.4487 18.1237C78.4487 8.11425 70.3345 0 60.3251 0C50.3157 0 42.2014 8.11425 42.2014 18.1237C42.2014 28.1331 50.3157 36.2473 60.3251 36.2473Z" fill="#00B4D8"/>
</svg>
