<svg width="27" height="34" viewBox="0 0 27 34" fill="none" xmlns="http://www.w3.org/2000/svg">
<path d="M25.9307 7.6V34H0V1H19.448L25.9307 7.6Z" fill="white"/>
<path d="M12.9653 16.4C15.9489 16.4 18.3676 13.9375 18.3676 10.9C18.3676 7.86241 15.9489 5.39997 12.9653 5.39997C9.98177 5.39997 7.56311 7.86241 7.56311 10.9C7.56311 13.9375 9.98177 16.4 12.9653 16.4Z" fill="#00B4D8"/>
<path d="M16.2067 9.80003H9.724V12H16.2067V9.80003Z" fill="white"/>
<path d="M14.0458 14.2V7.6H11.8849V14.2H14.0458Z" fill="white"/>
<path d="M25.9307 7.65H26.0499L25.9663 7.56496L19.4837 0.964963L19.398 0.877742V1V7.6V7.65H19.448H25.9307Z" fill="#00D4FE" stroke="white" stroke-width="0.1"/>
<path d="M7.56311 19.7H3.24133V21.9H7.56311V19.7Z" fill="#00B4D8"/>
<path d="M22.6893 19.7H9.724V21.9H22.6893V19.7Z" fill="#00B4D8"/>
<path d="M7.56311 24.1H3.24133V26.3H7.56311V24.1Z" fill="#00B4D8"/>
<path d="M22.6893 24.1H9.724V26.3H22.6893V24.1Z" fill="#00B4D8"/>
<path d="M7.56311 28.5H3.24133V30.7H7.56311V28.5Z" fill="#00B4D8"/>
<path d="M22.6893 28.5H9.724V30.7H22.6893V28.5Z" fill="#00B4D8"/>
</svg>
