<svg width="8" height="7" viewBox="0 0 8 7" fill="none" xmlns="http://www.w3.org/2000/svg">
<path d="M7.2 1.16667H6.8V7H7.2C7.64 7 8 6.65 8 6.22222V1.94444C8 1.51667 7.64 1.16667 7.2 1.16667ZM0 1.94444V6.22222C0 6.65 0.3596 7 0.8 7H1.2V1.16667H0.8C0.3596 1.16667 0 1.51667 0 1.94444ZM5.4 0.352333C5.1276 0.229444 4.6444 0 3.9924 0C3.3392 0 2.8724 0.229444 2.6 0.352333V1.16667H1.6V7H6.4V1.16667H5.4V0.352333ZM4.8 1.16667H3.2V0.647111C3.4136 0.557667 3.6312 0.466278 3.9924 0.466278C4.3532 0.466278 4.5868 0.557278 4.8 0.647111V1.16667Z" fill="white"/>
</svg>
