<svg width="161" height="47" viewBox="0 0 161 47" fill="none" xmlns="http://www.w3.org/2000/svg">
<path d="M34.464 10.896H39.504L28.944 36H24.432L19.92 24.672L15.408 36H10.896L0.288 10.896H5.328L13.392 30.864L16.944 21.6L12.624 10.944H17.088L19.92 18.768L22.704 10.944H27.168L22.896 21.6L26.448 30.864L34.464 10.896ZM40.5784 28.656C40.5784 27.056 41.0264 25.664 41.9224 24.48C42.8504 23.264 44.1144 22.336 45.7144 21.696C47.3144 21.024 49.1704 20.688 51.2824 20.688C52.4024 20.688 53.5384 20.768 54.6904 20.928C55.8744 21.088 56.9144 21.344 57.8104 21.696V20.112C57.8104 18.352 57.2824 16.976 56.2264 15.984C55.1704 14.992 53.6504 14.496 51.6664 14.496C50.2584 14.496 48.9304 14.752 47.6824 15.264C46.4344 15.744 45.1064 16.432 43.6984 17.328L41.9224 13.776C43.5864 12.656 45.2504 11.824 46.9144 11.28C48.6104 10.736 50.3864 10.464 52.2424 10.464C55.6024 10.464 58.2424 11.36 60.1624 13.152C62.1144 14.912 63.0904 17.424 63.0904 20.688V30.048C63.0904 30.656 63.1864 31.088 63.3784 31.344C63.6024 31.6 63.9704 31.744 64.4824 31.776V36C64.0024 36.096 63.5704 36.16 63.1864 36.192C62.8024 36.224 62.4824 36.24 62.2264 36.24C61.1064 36.24 60.2584 35.968 59.6824 35.424C59.1064 34.88 58.7704 34.24 58.6744 33.504L58.5304 32.064C57.4424 33.472 56.0504 34.56 54.3544 35.328C52.6584 36.096 50.9464 36.48 49.2184 36.48C47.5544 36.48 46.0664 36.144 44.7544 35.472C43.4424 34.768 42.4184 33.824 41.6824 32.64C40.9464 31.456 40.5784 30.128 40.5784 28.656ZM56.5624 30.192C56.9464 29.776 57.2504 29.36 57.4744 28.944C57.6984 28.528 57.8104 28.16 57.8104 27.84V24.96C56.9144 24.608 55.9704 24.352 54.9784 24.192C53.9864 24 53.0104 23.904 52.0504 23.904C50.1304 23.904 48.5624 24.288 47.3464 25.056C46.1624 25.824 45.5704 26.88 45.5704 28.224C45.5704 28.96 45.7624 29.664 46.1464 30.336C46.5624 31.008 47.1384 31.552 47.8744 31.968C48.6424 32.384 49.5864 32.592 50.7064 32.592C51.8584 32.592 52.9624 32.368 54.0184 31.92C55.0744 31.472 55.9224 30.896 56.5624 30.192ZM69.5441 0.959999H74.8241V28.752C74.8241 30.032 75.0161 30.848 75.4001 31.2C75.7841 31.552 76.2641 31.728 76.8401 31.728C77.4801 31.728 78.0721 31.664 78.6161 31.536C79.1921 31.408 79.6881 31.248 80.1041 31.056L80.8721 35.232C80.1041 35.552 79.1921 35.824 78.1361 36.048C77.0801 36.272 76.1361 36.384 75.3041 36.384C73.5121 36.384 72.1041 35.888 71.0801 34.896C70.0561 33.872 69.5441 32.464 69.5441 30.672V0.959999ZM83.6936 26.256V10.896H88.9736V25.2C88.9736 27.44 89.3736 29.136 90.1736 30.288C91.0056 31.408 92.2056 31.968 93.7736 31.968C94.7656 31.968 95.7256 31.76 96.6536 31.344C97.6136 30.928 98.4776 30.32 99.2456 29.52C100.046 28.688 100.686 27.696 101.166 26.544V10.896H106.446V30.048C106.446 30.656 106.558 31.088 106.782 31.344C107.006 31.6 107.374 31.744 107.886 31.776V36C107.342 36.096 106.894 36.16 106.542 36.192C106.19 36.224 105.854 36.24 105.534 36.24C104.574 36.24 103.774 35.984 103.134 35.472C102.494 34.928 102.126 34.24 102.03 33.408L101.934 30.912C100.814 32.736 99.3576 34.128 97.5656 35.088C95.7736 36.016 93.8056 36.48 91.6616 36.48C89.0376 36.48 87.0536 35.616 85.7096 33.888C84.3656 32.16 83.6936 29.616 83.6936 26.256ZM114.001 41.904C114.481 41.968 114.945 42.032 115.393 42.096C115.873 42.192 116.257 42.24 116.545 42.24C117.089 42.24 117.553 42.064 117.937 41.712C118.353 41.392 118.769 40.784 119.185 39.888C119.601 38.992 120.113 37.696 120.721 36L110.401 10.896H115.921L123.601 30.624L130.417 10.896H135.505L124.129 41.808C123.777 42.736 123.265 43.584 122.593 44.352C121.921 45.152 121.089 45.776 120.097 46.224C119.105 46.672 117.937 46.896 116.593 46.896C116.209 46.896 115.809 46.864 115.393 46.8C114.977 46.736 114.513 46.64 114.001 46.512V41.904ZM136.907 28.656C136.907 27.056 137.355 25.664 138.251 24.48C139.179 23.264 140.443 22.336 142.043 21.696C143.643 21.024 145.499 20.688 147.611 20.688C148.731 20.688 149.867 20.768 151.019 20.928C152.203 21.088 153.243 21.344 154.139 21.696V20.112C154.139 18.352 153.611 16.976 152.555 15.984C151.499 14.992 149.979 14.496 147.995 14.496C146.587 14.496 145.259 14.752 144.011 15.264C142.763 15.744 141.435 16.432 140.027 17.328L138.251 13.776C139.915 12.656 141.579 11.824 143.243 11.28C144.939 10.736 146.715 10.464 148.571 10.464C151.931 10.464 154.571 11.36 156.491 13.152C158.443 14.912 159.419 17.424 159.419 20.688V30.048C159.419 30.656 159.515 31.088 159.707 31.344C159.931 31.6 160.299 31.744 160.811 31.776V36C160.331 36.096 159.899 36.16 159.515 36.192C159.131 36.224 158.811 36.24 158.555 36.24C157.435 36.24 156.587 35.968 156.011 35.424C155.435 34.88 155.099 34.24 155.003 33.504L154.859 32.064C153.771 33.472 152.379 34.56 150.683 35.328C148.987 36.096 147.275 36.48 145.547 36.48C143.883 36.48 142.395 36.144 141.083 35.472C139.771 34.768 138.747 33.824 138.011 32.64C137.275 31.456 136.907 30.128 136.907 28.656ZM152.891 30.192C153.275 29.776 153.579 29.36 153.803 28.944C154.027 28.528 154.139 28.16 154.139 27.84V24.96C153.243 24.608 152.299 24.352 151.307 24.192C150.315 24 149.339 23.904 148.379 23.904C146.459 23.904 144.891 24.288 143.675 25.056C142.491 25.824 141.898 26.88 141.898 28.224C141.898 28.96 142.091 29.664 142.475 30.336C142.891 31.008 143.467 31.552 144.203 31.968C144.971 32.384 145.915 32.592 147.035 32.592C148.187 32.592 149.291 32.368 150.347 31.92C151.403 31.472 152.251 30.896 152.891 30.192Z" fill="#00B4D8"/>
</svg>
