<svg width="14" height="15" viewBox="0 0 14 15" fill="none" xmlns="http://www.w3.org/2000/svg">
<path d="M7.00289 0C3.1456 0.000212393 0.000290138 2.29962 5.03264e-09 5.12336C-9.57937e-05 6.85253 1.36752 8.09162 2.03679 9.0715C2.04512 9.08348 2.05406 9.09523 2.0636 9.10671L6.40876 14.4103C6.47321 14.4885 6.56418 14.5532 6.67284 14.5981C6.78151 14.6431 6.90419 14.6667 7.029 14.6667C7.1538 14.6667 7.27648 14.6431 7.38515 14.5981C7.49381 14.5532 7.58478 14.4885 7.64923 14.4103L11.9958 9.10671C12.0054 9.09523 12.0143 9.08348 12.0226 9.0715C12.7012 8.07799 13.9963 6.81578 14 5.12336C13.9997 2.29962 10.8601 0.000212393 7.00277 0H7.00289ZM7.00289 1.06132C10.0775 1.06149 12.5515 2.87259 12.5517 5.12336C12.5487 6.40465 11.4978 7.46588 10.7285 8.59002L7.02975 13.1066L3.32958 8.59831L3.32384 8.5901C2.54504 7.45259 1.44821 6.42935 1.44828 5.12344C1.44851 2.87266 3.92818 1.06157 7.00279 1.06139L7.00289 1.06132ZM7.00289 2.45398C4.99676 2.45398 3.3508 3.65477 3.3508 5.12336C3.35079 6.59195 4.99676 7.79171 7.00289 7.7917C9.00902 7.7917 10.6479 6.59195 10.6479 5.12336C10.6479 3.65477 9.00902 2.45398 7.00289 2.45398ZM7.00289 3.51428C8.22626 3.51428 9.19952 4.22779 9.19952 5.12336C9.19952 6.01893 8.22626 6.73554 7.00289 6.73555C5.77953 6.73555 4.8006 6.01893 4.80061 5.12336C4.80061 4.22779 5.77953 3.51428 7.00289 3.51428Z" fill="black"/>
</svg>
