<svg width="22" height="21" viewBox="0 0 22 21" fill="none" xmlns="http://www.w3.org/2000/svg">
<path d="M8.0076 18.8328V15.9194C8.00758 15.1784 8.67697 14.5763 9.50633 14.5713H12.5443C13.3776 14.5713 14.0532 15.1749 14.0532 15.9194V18.8419C14.053 19.471 14.615 19.9853 15.319 20H17.3443C19.3633 20 21 18.5376 21 16.7337V8.44594C20.9892 7.73629 20.6163 7.06988 19.9873 6.63638L13.0608 1.65104C11.8473 0.782988 10.1223 0.782988 8.90886 1.65104L2.01266 6.64543C1.38132 7.07717 1.00778 7.74468 1 8.45499V16.7337C1 18.5376 2.63671 20 4.6557 20H6.68101C7.40248 20 7.98734 19.4774 7.98734 18.8328" stroke="#929292" stroke-width="1.5" stroke-linecap="round" stroke-linejoin="round"/>
</svg>
