<svg width="294" height="30" viewBox="0 0 294 30" fill="none" xmlns="http://www.w3.org/2000/svg">
<g filter="url(#filter0_i_63_1967)">
<rect x="3" width="291" height="30" rx="15" fill="#FFF8F3"/>
</g>
<path d="M275.67 17.6638L273.261 15.2625C274.038 14.2726 274.46 13.0501 274.458 11.7917C274.458 10.6709 274.126 9.57532 273.503 8.64344C272.881 7.71156 271.996 6.98525 270.96 6.55635C269.925 6.12746 268.785 6.01524 267.686 6.23389C266.587 6.45254 265.577 6.99223 264.785 7.78473C263.992 8.57723 263.453 9.58693 263.234 10.6862C263.015 11.7854 263.127 12.9248 263.556 13.9602C263.985 14.9957 264.712 15.8807 265.643 16.5033C266.575 17.126 267.671 17.4583 268.792 17.4583C270.05 17.4599 271.273 17.0383 272.263 16.2613L274.664 18.6696C274.73 18.736 274.808 18.7887 274.894 18.8246C274.981 18.8606 275.073 18.8791 275.167 18.8791C275.26 18.8791 275.353 18.8606 275.439 18.8246C275.525 18.7887 275.604 18.736 275.67 18.6696C275.736 18.6037 275.789 18.5254 275.825 18.4391C275.861 18.3528 275.879 18.2602 275.879 18.1667C275.879 18.0732 275.861 17.9806 275.825 17.8943C275.789 17.8079 275.736 17.7296 275.67 17.6638ZM264.542 11.7917C264.542 10.9511 264.791 10.1294 265.258 9.4305C265.725 8.73159 266.389 8.18685 267.165 7.86518C267.942 7.54351 268.796 7.45934 269.621 7.62333C270.445 7.78732 271.202 8.19209 271.797 8.78647C272.391 9.38084 272.796 10.1381 272.96 10.9625C273.124 11.787 273.04 12.6415 272.718 13.4181C272.396 14.1947 271.852 14.8584 271.153 15.3254C270.454 15.7924 269.632 16.0417 268.792 16.0417C267.664 16.0417 266.583 15.5939 265.786 14.7969C264.989 13.9998 264.542 12.9188 264.542 11.7917Z" fill="#00B4D8"/>
<path d="M22.2801 12.76C22.2801 12.376 22.3461 11.998 22.4781 11.626C22.6161 11.248 22.8141 10.906 23.0721 10.6C23.3301 10.288 23.6451 10.039 24.0171 9.853C24.3891 9.667 24.8151 9.574 25.2951 9.574C25.8651 9.574 26.3481 9.706 26.7441 9.97C27.1401 10.228 27.4341 10.561 27.6261 10.969L27.4551 11.023C27.2931 10.711 27.0921 10.462 26.8521 10.276C26.6121 10.09 26.3541 9.958 26.0781 9.88C25.8081 9.796 25.5351 9.754 25.2591 9.754C24.8151 9.754 24.4191 9.841 24.0711 10.015C23.7231 10.189 23.4291 10.423 23.1891 10.717C22.9491 11.011 22.7661 11.338 22.6401 11.698C22.5201 12.052 22.4601 12.415 22.4601 12.787C22.4601 13.195 22.5321 13.585 22.6761 13.957C22.8201 14.323 23.0211 14.65 23.2791 14.938C23.5371 15.226 23.8371 15.454 24.1791 15.622C24.5211 15.79 24.8901 15.874 25.2861 15.874C25.5681 15.874 25.8561 15.826 26.1501 15.73C26.4441 15.634 26.7201 15.487 26.9781 15.289C27.2361 15.091 27.4461 14.836 27.6081 14.524L27.7791 14.569C27.6351 14.887 27.4251 15.157 27.1491 15.379C26.8731 15.601 26.5671 15.769 26.2311 15.883C25.9011 15.997 25.5741 16.054 25.2501 16.054C24.8181 16.054 24.4191 15.961 24.0531 15.775C23.6931 15.583 23.3781 15.331 23.1081 15.019C22.8441 14.701 22.6401 14.347 22.4961 13.957C22.3521 13.561 22.2801 13.162 22.2801 12.76ZM30.7605 16.09C30.4545 16.09 30.1665 16.027 29.8965 15.901C29.6265 15.775 29.3895 15.601 29.1855 15.379C28.9815 15.151 28.8225 14.893 28.7085 14.605C28.5945 14.311 28.5375 14.002 28.5375 13.678C28.5375 13.348 28.5945 13.039 28.7085 12.751C28.8285 12.457 28.9905 12.199 29.1945 11.977C29.3985 11.749 29.6355 11.572 29.9055 11.446C30.1755 11.32 30.4605 11.257 30.7605 11.257C31.0605 11.257 31.3455 11.32 31.6155 11.446C31.8855 11.572 32.1225 11.749 32.3265 11.977C32.5305 12.199 32.6895 12.457 32.8035 12.751C32.9235 13.039 32.9835 13.348 32.9835 13.678C32.9835 14.002 32.9265 14.311 32.8125 14.605C32.6985 14.893 32.5365 15.151 32.3265 15.379C32.1225 15.601 31.8855 15.775 31.6155 15.901C31.3515 16.027 31.0665 16.09 30.7605 16.09ZM28.7175 13.696C28.7175 14.098 28.8075 14.467 28.9875 14.803C29.1735 15.139 29.4195 15.409 29.7255 15.613C30.0375 15.811 30.3795 15.91 30.7515 15.91C31.1235 15.91 31.4655 15.808 31.7775 15.604C32.0895 15.4 32.3385 15.127 32.5245 14.785C32.7105 14.443 32.8035 14.071 32.8035 13.669C32.8035 13.267 32.7105 12.898 32.5245 12.562C32.3385 12.22 32.0895 11.947 31.7775 11.743C31.4715 11.539 31.1325 11.437 30.7605 11.437C30.3945 11.437 30.0555 11.542 29.7435 11.752C29.4315 11.956 29.1825 12.229 28.9965 12.571C28.8105 12.913 28.7175 13.288 28.7175 13.696ZM37.78 16H37.6V13.399C37.6 12.721 37.504 12.226 37.312 11.914C37.126 11.596 36.823 11.437 36.403 11.437C36.103 11.437 35.809 11.509 35.521 11.653C35.239 11.791 34.993 11.983 34.783 12.229C34.573 12.469 34.423 12.742 34.333 13.048V16H34.153V11.329H34.333V12.535C34.465 12.283 34.639 12.061 34.855 11.869C35.071 11.677 35.311 11.527 35.575 11.419C35.845 11.311 36.118 11.257 36.394 11.257C36.634 11.257 36.841 11.302 37.015 11.392C37.189 11.476 37.333 11.605 37.447 11.779C37.561 11.953 37.645 12.175 37.699 12.445C37.753 12.715 37.78 13.033 37.78 13.399V16ZM41.0159 15.784C41.0159 15.784 40.9769 15.808 40.8989 15.856C40.8269 15.898 40.7279 15.94 40.6019 15.982C40.4759 16.024 40.3289 16.045 40.1609 16.045C40.0169 16.045 39.8819 16.015 39.7559 15.955C39.6359 15.895 39.5369 15.811 39.4589 15.703C39.3869 15.595 39.3509 15.469 39.3509 15.325V11.509H38.6759V11.329H39.3509V9.7H39.5309V11.329H40.6559V11.509H39.5309V15.325C39.5429 15.499 39.6119 15.634 39.7379 15.73C39.8639 15.82 40.0049 15.865 40.1609 15.865C40.3709 15.865 40.5479 15.829 40.6919 15.757C40.8359 15.685 40.9109 15.646 40.9169 15.64L41.0159 15.784ZM43.6189 16.09C43.3129 16.09 43.0249 16.027 42.7549 15.901C42.4849 15.775 42.2479 15.601 42.0439 15.379C41.8399 15.151 41.6809 14.893 41.5669 14.605C41.4529 14.311 41.3959 14.002 41.3959 13.678C41.3959 13.348 41.4529 13.039 41.5669 12.751C41.6869 12.457 41.8489 12.199 42.0529 11.977C42.2569 11.749 42.4939 11.572 42.7639 11.446C43.0339 11.32 43.3189 11.257 43.6189 11.257C43.9189 11.257 44.2039 11.32 44.4739 11.446C44.7439 11.572 44.9809 11.749 45.1849 11.977C45.3889 12.199 45.5479 12.457 45.6619 12.751C45.7819 13.039 45.8419 13.348 45.8419 13.678C45.8419 14.002 45.7849 14.311 45.6709 14.605C45.5569 14.893 45.3949 15.151 45.1849 15.379C44.9809 15.601 44.7439 15.775 44.4739 15.901C44.2099 16.027 43.9249 16.09 43.6189 16.09ZM41.5759 13.696C41.5759 14.098 41.6659 14.467 41.8459 14.803C42.0319 15.139 42.2779 15.409 42.5839 15.613C42.8959 15.811 43.2379 15.91 43.6099 15.91C43.9819 15.91 44.3239 15.808 44.6359 15.604C44.9479 15.4 45.1969 15.127 45.3829 14.785C45.5689 14.443 45.6619 14.071 45.6619 13.669C45.6619 13.267 45.5689 12.898 45.3829 12.562C45.1969 12.22 44.9479 11.947 44.6359 11.743C44.3299 11.539 43.9909 11.437 43.6189 11.437C43.2529 11.437 42.9139 11.542 42.6019 11.752C42.2899 11.956 42.0409 12.229 41.8549 12.571C41.6689 12.913 41.5759 13.288 41.5759 13.696ZM50.6384 16H50.4584V13.399C50.4584 12.751 50.3474 12.262 50.1254 11.932C49.9094 11.602 49.5884 11.437 49.1624 11.437C48.8744 11.437 48.5924 11.509 48.3164 11.653C48.0464 11.791 47.8124 11.983 47.6144 12.229C47.4164 12.469 47.2754 12.742 47.1914 13.048V16H47.0114V9.43H47.1914V12.535C47.3834 12.145 47.6564 11.836 48.0104 11.608C48.3704 11.374 48.7514 11.257 49.1534 11.257C49.3994 11.257 49.6124 11.302 49.7924 11.392C49.9784 11.482 50.1344 11.62 50.2604 11.806C50.3864 11.986 50.4794 12.208 50.5394 12.472C50.6054 12.736 50.6384 13.045 50.6384 13.399V16ZM51.9652 11.923V11.347H52.1452V11.923H51.9652ZM51.9652 16V15.424H52.1452V16H51.9652ZM56.0057 16V9.61H60.1187V9.79H56.1857V12.634H59.5427V12.814H56.1857V16H56.0057ZM61.3388 9.43H61.5188V15.307C61.5188 15.481 61.5728 15.619 61.6808 15.721C61.7888 15.823 61.9328 15.874 62.1128 15.874C62.1788 15.874 62.2568 15.868 62.3468 15.856C62.4428 15.838 62.5298 15.817 62.6078 15.793L62.6708 15.937C62.5928 15.961 62.4908 15.985 62.3648 16.009C62.2388 16.033 62.1338 16.045 62.0498 16.045C61.8398 16.045 61.6688 15.979 61.5368 15.847C61.4048 15.709 61.3388 15.529 61.3388 15.307V9.43ZM63.3753 13.948V11.329H63.5553V13.948C63.5553 14.608 63.6633 15.1 63.8793 15.424C64.1013 15.748 64.4343 15.91 64.8783 15.91C65.1783 15.91 65.4663 15.841 65.7423 15.703C66.0183 15.565 66.2583 15.376 66.4623 15.136C66.6723 14.89 66.8223 14.611 66.9123 14.299V11.329H67.0923V15.64C67.0923 15.694 67.1043 15.739 67.1283 15.775C67.1583 15.805 67.1943 15.82 67.2363 15.82V16C67.2003 16 67.1733 16 67.1553 16C67.1373 15.994 67.1223 15.988 67.1103 15.982C67.0503 15.958 67.0023 15.916 66.9663 15.856C66.9303 15.79 66.9123 15.718 66.9123 15.64V14.812C66.7083 15.202 66.4233 15.514 66.0573 15.748C65.6913 15.976 65.2983 16.09 64.8783 16.09C64.3863 16.09 64.0113 15.91 63.7533 15.55C63.5013 15.19 63.3753 14.656 63.3753 13.948ZM68.9029 16.729L68.9929 16.09H68.9119V15.424H69.1459V16.09L69.0289 16.729H68.9029ZM72.8945 14.659C72.8945 14.395 72.9755 14.164 73.1375 13.966C73.3055 13.768 73.5335 13.612 73.8215 13.498C74.1095 13.384 74.4425 13.327 74.8205 13.327C75.0845 13.327 75.3545 13.351 75.6305 13.399C75.9125 13.441 76.1645 13.504 76.3865 13.588V13.057C76.3865 12.571 76.2455 12.181 75.9635 11.887C75.6875 11.587 75.3185 11.437 74.8565 11.437C74.6345 11.437 74.3915 11.488 74.1275 11.59C73.8695 11.686 73.6085 11.827 73.3445 12.013L73.2365 11.869C73.5365 11.665 73.8215 11.512 74.0915 11.41C74.3615 11.308 74.6165 11.257 74.8565 11.257C75.3785 11.257 75.7925 11.419 76.0985 11.743C76.4105 12.067 76.5665 12.505 76.5665 13.057V15.64C76.5665 15.7 76.5785 15.745 76.6025 15.775C76.6325 15.805 76.6685 15.82 76.7105 15.82V16C76.6745 16 76.6475 16 76.6295 16C76.6115 15.994 76.5965 15.988 76.5845 15.982C76.5245 15.958 76.4765 15.916 76.4405 15.856C76.4045 15.79 76.3865 15.718 76.3865 15.64V15.208C76.1705 15.484 75.8885 15.7 75.5405 15.856C75.1925 16.012 74.8145 16.09 74.4065 16.09C74.1245 16.09 73.8695 16.027 73.6415 15.901C73.4135 15.775 73.2305 15.604 73.0925 15.388C72.9605 15.166 72.8945 14.923 72.8945 14.659ZM76.2515 15.082C76.2995 15.016 76.3325 14.953 76.3505 14.893C76.3745 14.827 76.3865 14.767 76.3865 14.713V13.786C76.1465 13.69 75.8945 13.621 75.6305 13.579C75.3725 13.531 75.1025 13.507 74.8205 13.507C74.2985 13.507 73.8755 13.612 73.5515 13.822C73.2335 14.032 73.0745 14.311 73.0745 14.659C73.0745 14.893 73.1315 15.106 73.2455 15.298C73.3655 15.484 73.5275 15.634 73.7315 15.748C73.9355 15.856 74.1605 15.91 74.4065 15.91C74.8085 15.91 75.1745 15.835 75.5045 15.685C75.8405 15.535 76.0895 15.334 76.2515 15.082ZM78.0732 9.43H78.2532V15.307C78.2532 15.481 78.3072 15.619 78.4152 15.721C78.5232 15.823 78.6672 15.874 78.8472 15.874C78.9132 15.874 78.9912 15.868 79.0812 15.856C79.1772 15.838 79.2642 15.817 79.3422 15.793L79.4052 15.937C79.3272 15.961 79.2252 15.985 79.0992 16.009C78.9732 16.033 78.8682 16.045 78.7842 16.045C78.5742 16.045 78.4032 15.979 78.2712 15.847C78.1392 15.709 78.0732 15.529 78.0732 15.307V9.43ZM79.7587 14.659C79.7587 14.395 79.8397 14.164 80.0017 13.966C80.1697 13.768 80.3977 13.612 80.6857 13.498C80.9737 13.384 81.3067 13.327 81.6847 13.327C81.9487 13.327 82.2187 13.351 82.4947 13.399C82.7767 13.441 83.0287 13.504 83.2507 13.588V13.057C83.2507 12.571 83.1097 12.181 82.8277 11.887C82.5517 11.587 82.1827 11.437 81.7207 11.437C81.4987 11.437 81.2557 11.488 80.9917 11.59C80.7337 11.686 80.4727 11.827 80.2087 12.013L80.1007 11.869C80.4007 11.665 80.6857 11.512 80.9557 11.41C81.2257 11.308 81.4807 11.257 81.7207 11.257C82.2427 11.257 82.6567 11.419 82.9627 11.743C83.2747 12.067 83.4307 12.505 83.4307 13.057V15.64C83.4307 15.7 83.4427 15.745 83.4667 15.775C83.4967 15.805 83.5327 15.82 83.5747 15.82V16C83.5387 16 83.5117 16 83.4937 16C83.4757 15.994 83.4607 15.988 83.4487 15.982C83.3887 15.958 83.3407 15.916 83.3047 15.856C83.2687 15.79 83.2507 15.718 83.2507 15.64V15.208C83.0347 15.484 82.7527 15.7 82.4047 15.856C82.0567 16.012 81.6787 16.09 81.2707 16.09C80.9887 16.09 80.7337 16.027 80.5057 15.901C80.2777 15.775 80.0947 15.604 79.9567 15.388C79.8247 15.166 79.7587 14.923 79.7587 14.659ZM83.1157 15.082C83.1637 15.016 83.1967 14.953 83.2147 14.893C83.2387 14.827 83.2507 14.767 83.2507 14.713V13.786C83.0107 13.69 82.7587 13.621 82.4947 13.579C82.2367 13.531 81.9667 13.507 81.6847 13.507C81.1627 13.507 80.7397 13.612 80.4157 13.822C80.0977 14.032 79.9387 14.311 79.9387 14.659C79.9387 14.893 79.9957 15.106 80.1097 15.298C80.2297 15.484 80.3917 15.634 80.5957 15.748C80.7997 15.856 81.0247 15.91 81.2707 15.91C81.6727 15.91 82.0387 15.835 82.3687 15.685C82.7047 15.535 82.9537 15.334 83.1157 15.082ZM86.6663 15.784C86.6663 15.784 86.6273 15.808 86.5493 15.856C86.4773 15.898 86.3783 15.94 86.2523 15.982C86.1263 16.024 85.9793 16.045 85.8113 16.045C85.6673 16.045 85.5323 16.015 85.4063 15.955C85.2863 15.895 85.1873 15.811 85.1093 15.703C85.0373 15.595 85.0013 15.469 85.0013 15.325V11.509H84.3263V11.329H85.0013V9.7H85.1813V11.329H86.3063V11.509H85.1813V15.325C85.1933 15.499 85.2623 15.634 85.3883 15.73C85.5143 15.82 85.6553 15.865 85.8113 15.865C86.0213 15.865 86.1983 15.829 86.3423 15.757C86.4863 15.685 86.5613 15.646 86.5673 15.64L86.6663 15.784ZM93.6743 10.456C93.5483 10.318 93.4193 10.204 93.2873 10.114C93.1613 10.018 93.0263 9.943 92.8823 9.889C92.7443 9.835 92.5943 9.796 92.4323 9.772C92.2763 9.748 92.1023 9.736 91.9103 9.736C91.1843 9.736 90.6563 9.877 90.3263 10.159C90.0023 10.435 89.8403 10.804 89.8403 11.266C89.8403 11.572 89.9093 11.815 90.0473 11.995C90.1853 12.169 90.4013 12.31 90.6953 12.418C90.9953 12.52 91.3823 12.619 91.8563 12.715C92.3303 12.811 92.7413 12.922 93.0893 13.048C93.4373 13.168 93.7043 13.336 93.8903 13.552C94.0823 13.762 94.1783 14.056 94.1783 14.434C94.1783 14.692 94.1273 14.923 94.0253 15.127C93.9233 15.325 93.7733 15.493 93.5753 15.631C93.3833 15.763 93.1463 15.865 92.8643 15.937C92.5883 16.009 92.2763 16.045 91.9283 16.045C91.5863 16.045 91.2683 16.009 90.9743 15.937C90.6863 15.865 90.4163 15.757 90.1643 15.613C89.9123 15.463 89.6723 15.277 89.4443 15.055L89.5793 14.938C89.7413 15.106 89.9093 15.25 90.0833 15.37C90.2573 15.49 90.4403 15.589 90.6323 15.667C90.8303 15.745 91.0373 15.802 91.2533 15.838C91.4693 15.874 91.6973 15.892 91.9373 15.892C92.5733 15.892 93.0743 15.772 93.4403 15.532C93.8123 15.292 93.9983 14.935 93.9983 14.461C93.9983 14.143 93.9233 13.888 93.7733 13.696C93.6233 13.498 93.3893 13.339 93.0713 13.219C92.7593 13.093 92.3573 12.982 91.8653 12.886C91.3973 12.796 90.9983 12.697 90.6683 12.589C90.3383 12.475 90.0863 12.319 89.9123 12.121C89.7443 11.917 89.6603 11.638 89.6603 11.284C89.6603 10.912 89.7503 10.6 89.9303 10.348C90.1163 10.09 90.3773 9.895 90.7133 9.763C91.0493 9.631 91.4423 9.565 91.8923 9.565C92.1623 9.565 92.4083 9.592 92.6303 9.646C92.8583 9.694 93.0653 9.775 93.2513 9.889C93.4433 9.997 93.6233 10.144 93.7913 10.33L93.6743 10.456ZM101.081 11.329H101.279L99.2359 16H99.0739L97.9309 13.381L96.7879 16H96.6259L94.5829 11.329H94.7809L96.7069 15.739L97.8319 13.156L97.0489 11.338H97.2379L97.9309 12.922L98.6239 11.338H98.8129L98.0299 13.156L99.1549 15.739L101.081 11.329ZM101.74 14.659C101.74 14.395 101.821 14.164 101.983 13.966C102.151 13.768 102.379 13.612 102.667 13.498C102.955 13.384 103.288 13.327 103.666 13.327C103.93 13.327 104.2 13.351 104.476 13.399C104.758 13.441 105.01 13.504 105.232 13.588V13.057C105.232 12.571 105.091 12.181 104.809 11.887C104.533 11.587 104.164 11.437 103.702 11.437C103.48 11.437 103.237 11.488 102.973 11.59C102.715 11.686 102.454 11.827 102.19 12.013L102.082 11.869C102.382 11.665 102.667 11.512 102.937 11.41C103.207 11.308 103.462 11.257 103.702 11.257C104.224 11.257 104.638 11.419 104.944 11.743C105.256 12.067 105.412 12.505 105.412 13.057V15.64C105.412 15.7 105.424 15.745 105.448 15.775C105.478 15.805 105.514 15.82 105.556 15.82V16C105.52 16 105.493 16 105.475 16C105.457 15.994 105.442 15.988 105.43 15.982C105.37 15.958 105.322 15.916 105.286 15.856C105.25 15.79 105.232 15.718 105.232 15.64V15.208C105.016 15.484 104.734 15.7 104.386 15.856C104.038 16.012 103.66 16.09 103.252 16.09C102.97 16.09 102.715 16.027 102.487 15.901C102.259 15.775 102.076 15.604 101.938 15.388C101.806 15.166 101.74 14.923 101.74 14.659ZM105.097 15.082C105.145 15.016 105.178 14.953 105.196 14.893C105.22 14.827 105.232 14.767 105.232 14.713V13.786C104.992 13.69 104.74 13.621 104.476 13.579C104.218 13.531 103.948 13.507 103.666 13.507C103.144 13.507 102.721 13.612 102.397 13.822C102.079 14.032 101.92 14.311 101.92 14.659C101.92 14.893 101.977 15.106 102.091 15.298C102.211 15.484 102.373 15.634 102.577 15.748C102.781 15.856 103.006 15.91 103.252 15.91C103.654 15.91 104.02 15.835 104.35 15.685C104.686 15.535 104.935 15.334 105.097 15.082ZM108.872 16.09C108.506 16.09 108.155 15.988 107.819 15.784C107.489 15.574 107.231 15.322 107.045 15.028V16H106.865V9.43H107.045V12.418C107.285 12.082 107.561 11.806 107.873 11.59C108.185 11.368 108.545 11.257 108.953 11.257C109.295 11.257 109.598 11.329 109.862 11.473C110.132 11.611 110.36 11.8 110.546 12.04C110.738 12.274 110.882 12.535 110.978 12.823C111.074 13.105 111.122 13.39 111.122 13.678C111.122 13.996 111.065 14.299 110.951 14.587C110.837 14.875 110.678 15.133 110.474 15.361C110.27 15.583 110.03 15.76 109.754 15.892C109.484 16.024 109.19 16.09 108.872 16.09ZM108.872 15.91C109.172 15.91 109.448 15.847 109.7 15.721C109.952 15.595 110.171 15.424 110.357 15.208C110.543 14.992 110.687 14.752 110.789 14.488C110.891 14.224 110.942 13.954 110.942 13.678C110.942 13.294 110.858 12.931 110.69 12.589C110.522 12.247 110.288 11.971 109.988 11.761C109.694 11.545 109.349 11.437 108.953 11.437C108.659 11.437 108.389 11.503 108.143 11.635C107.897 11.761 107.681 11.926 107.495 12.13C107.315 12.334 107.165 12.556 107.045 12.796V14.497C107.057 14.689 107.123 14.872 107.243 15.046C107.363 15.214 107.516 15.364 107.702 15.496C107.888 15.622 108.083 15.724 108.287 15.802C108.497 15.874 108.692 15.91 108.872 15.91ZM116.549 9.61H116.711L119.492 16H119.294L118.295 13.714H114.956L113.957 16H113.759L116.549 9.61ZM118.214 13.534L116.63 9.871L115.028 13.534H118.214ZM124.045 16H123.865V13.399C123.865 12.721 123.769 12.226 123.577 11.914C123.391 11.596 123.088 11.437 122.668 11.437C122.368 11.437 122.074 11.509 121.786 11.653C121.504 11.791 121.258 11.983 121.048 12.229C120.838 12.469 120.688 12.742 120.598 13.048V16H120.418V11.329H120.598V12.535C120.73 12.283 120.904 12.061 121.12 11.869C121.336 11.677 121.576 11.527 121.84 11.419C122.11 11.311 122.383 11.257 122.659 11.257C122.899 11.257 123.106 11.302 123.28 11.392C123.454 11.476 123.598 11.605 123.712 11.779C123.826 11.953 123.91 12.175 123.964 12.445C124.018 12.715 124.045 13.033 124.045 13.399V16ZM127.281 15.784C127.281 15.784 127.242 15.808 127.164 15.856C127.092 15.898 126.993 15.94 126.867 15.982C126.741 16.024 126.594 16.045 126.426 16.045C126.282 16.045 126.147 16.015 126.021 15.955C125.901 15.895 125.802 15.811 125.724 15.703C125.652 15.595 125.616 15.469 125.616 15.325V11.509H124.941V11.329H125.616V9.7H125.796V11.329H126.921V11.509H125.796V15.325C125.808 15.499 125.877 15.634 126.003 15.73C126.129 15.82 126.27 15.865 126.426 15.865C126.636 15.865 126.813 15.829 126.957 15.757C127.101 15.685 127.176 15.646 127.182 15.64L127.281 15.784ZM128.117 16V11.329H128.297V16H128.117ZM128.117 10.123V9.43H128.297V10.123H128.117ZM131.721 16.09C131.397 16.09 131.097 16.021 130.821 15.883C130.545 15.745 130.305 15.562 130.101 15.334C129.903 15.1 129.747 14.842 129.633 14.56C129.525 14.272 129.471 13.978 129.471 13.678C129.471 13.366 129.522 13.066 129.624 12.778C129.732 12.484 129.882 12.223 130.074 11.995C130.266 11.767 130.494 11.587 130.758 11.455C131.028 11.323 131.322 11.257 131.64 11.257C132.066 11.257 132.435 11.371 132.747 11.599C133.059 11.827 133.326 12.1 133.548 12.418V11.329H133.728V16.198C133.728 16.606 133.629 16.945 133.431 17.215C133.239 17.485 132.984 17.683 132.666 17.809C132.354 17.941 132.021 18.007 131.667 18.007C131.115 18.007 130.683 17.902 130.371 17.692C130.059 17.488 129.816 17.221 129.642 16.891L129.813 16.837C130.005 17.185 130.266 17.437 130.596 17.593C130.932 17.749 131.289 17.827 131.667 17.827C132.009 17.827 132.321 17.764 132.603 17.638C132.891 17.518 133.119 17.335 133.287 17.089C133.461 16.849 133.548 16.552 133.548 16.198V15.028C133.35 15.34 133.083 15.595 132.747 15.793C132.417 15.991 132.075 16.09 131.721 16.09ZM131.721 15.91C131.943 15.91 132.159 15.868 132.369 15.784C132.579 15.7 132.771 15.589 132.945 15.451C133.119 15.307 133.26 15.151 133.368 14.983C133.476 14.815 133.536 14.647 133.548 14.479V12.796C133.452 12.532 133.302 12.298 133.098 12.094C132.9 11.89 132.675 11.731 132.423 11.617C132.171 11.497 131.91 11.437 131.64 11.437C131.328 11.437 131.046 11.503 130.794 11.635C130.548 11.767 130.341 11.944 130.173 12.166C130.005 12.382 129.876 12.622 129.786 12.886C129.696 13.15 129.651 13.414 129.651 13.678C129.651 13.972 129.702 14.254 129.804 14.524C129.912 14.788 130.062 15.025 130.254 15.235C130.446 15.445 130.665 15.61 130.911 15.73C131.163 15.85 131.433 15.91 131.721 15.91ZM137.144 16.09C136.838 16.09 136.547 16.027 136.271 15.901C136.001 15.769 135.761 15.592 135.551 15.37C135.347 15.142 135.185 14.881 135.065 14.587C134.951 14.287 134.894 13.969 134.894 13.633C134.894 13.195 134.993 12.796 135.191 12.436C135.389 12.076 135.653 11.791 135.983 11.581C136.319 11.365 136.691 11.257 137.099 11.257C137.513 11.257 137.888 11.365 138.224 11.581C138.566 11.797 138.839 12.088 139.043 12.454C139.247 12.814 139.349 13.219 139.349 13.669C139.349 13.687 139.349 13.705 139.349 13.723C139.349 13.735 139.349 13.75 139.349 13.768H135.074C135.104 14.17 135.215 14.533 135.407 14.857C135.599 15.181 135.848 15.439 136.154 15.631C136.46 15.817 136.793 15.91 137.153 15.91C137.513 15.91 137.849 15.82 138.161 15.64C138.473 15.454 138.695 15.217 138.827 14.929L138.998 14.974C138.914 15.184 138.776 15.376 138.584 15.55C138.398 15.718 138.179 15.85 137.927 15.946C137.675 16.042 137.414 16.09 137.144 16.09ZM135.074 13.588H139.16C139.136 13.168 139.031 12.799 138.845 12.481C138.659 12.157 138.416 11.902 138.116 11.716C137.816 11.53 137.48 11.437 137.108 11.437C136.742 11.437 136.409 11.53 136.109 11.716C135.809 11.902 135.566 12.157 135.38 12.481C135.2 12.805 135.098 13.174 135.074 13.588ZM144.049 16H143.869V13.399C143.869 12.721 143.773 12.226 143.581 11.914C143.395 11.596 143.092 11.437 142.672 11.437C142.372 11.437 142.078 11.509 141.79 11.653C141.508 11.791 141.262 11.983 141.052 12.229C140.842 12.469 140.692 12.742 140.602 13.048V16H140.422V11.329H140.602V12.535C140.734 12.283 140.908 12.061 141.124 11.869C141.34 11.677 141.58 11.527 141.844 11.419C142.114 11.311 142.387 11.257 142.663 11.257C142.903 11.257 143.11 11.302 143.284 11.392C143.458 11.476 143.602 11.605 143.716 11.779C143.83 11.953 143.914 12.175 143.968 12.445C144.022 12.715 144.049 13.033 144.049 13.399V16ZM153.986 16V10.006L151.151 14.74H151.007L148.172 10.006V16H147.992V9.61H148.136L151.079 14.524L154.022 9.61H154.166V16H153.986ZM155.362 14.659C155.362 14.395 155.443 14.164 155.605 13.966C155.773 13.768 156.001 13.612 156.289 13.498C156.577 13.384 156.91 13.327 157.288 13.327C157.552 13.327 157.822 13.351 158.098 13.399C158.38 13.441 158.632 13.504 158.854 13.588V13.057C158.854 12.571 158.713 12.181 158.431 11.887C158.155 11.587 157.786 11.437 157.324 11.437C157.102 11.437 156.859 11.488 156.595 11.59C156.337 11.686 156.076 11.827 155.812 12.013L155.704 11.869C156.004 11.665 156.289 11.512 156.559 11.41C156.829 11.308 157.084 11.257 157.324 11.257C157.846 11.257 158.26 11.419 158.566 11.743C158.878 12.067 159.034 12.505 159.034 13.057V15.64C159.034 15.7 159.046 15.745 159.07 15.775C159.1 15.805 159.136 15.82 159.178 15.82V16C159.142 16 159.115 16 159.097 16C159.079 15.994 159.064 15.988 159.052 15.982C158.992 15.958 158.944 15.916 158.908 15.856C158.872 15.79 158.854 15.718 158.854 15.64V15.208C158.638 15.484 158.356 15.7 158.008 15.856C157.66 16.012 157.282 16.09 156.874 16.09C156.592 16.09 156.337 16.027 156.109 15.901C155.881 15.775 155.698 15.604 155.56 15.388C155.428 15.166 155.362 14.923 155.362 14.659ZM158.719 15.082C158.767 15.016 158.8 14.953 158.818 14.893C158.842 14.827 158.854 14.767 158.854 14.713V13.786C158.614 13.69 158.362 13.621 158.098 13.579C157.84 13.531 157.57 13.507 157.288 13.507C156.766 13.507 156.343 13.612 156.019 13.822C155.701 14.032 155.542 14.311 155.542 14.659C155.542 14.893 155.599 15.106 155.713 15.298C155.833 15.484 155.995 15.634 156.199 15.748C156.403 15.856 156.628 15.91 156.874 15.91C157.276 15.91 157.642 15.835 157.972 15.685C158.308 15.535 158.557 15.334 158.719 15.082ZM164.114 16H163.934V13.399C163.934 12.721 163.838 12.226 163.646 11.914C163.46 11.596 163.157 11.437 162.737 11.437C162.437 11.437 162.143 11.509 161.855 11.653C161.573 11.791 161.327 11.983 161.117 12.229C160.907 12.469 160.757 12.742 160.667 13.048V16H160.487V11.329H160.667V12.535C160.799 12.283 160.973 12.061 161.189 11.869C161.405 11.677 161.645 11.527 161.909 11.419C162.179 11.311 162.452 11.257 162.728 11.257C162.968 11.257 163.175 11.302 163.349 11.392C163.523 11.476 163.667 11.605 163.781 11.779C163.895 11.953 163.979 12.175 164.033 12.445C164.087 12.715 164.114 13.033 164.114 13.399V16ZM165.234 13.678C165.234 13.246 165.327 12.847 165.513 12.481C165.705 12.115 165.963 11.821 166.287 11.599C166.617 11.371 166.989 11.257 167.403 11.257C167.829 11.257 168.207 11.374 168.537 11.608C168.867 11.836 169.125 12.106 169.311 12.418V9.43H169.491V15.64C169.491 15.694 169.503 15.739 169.527 15.775C169.557 15.805 169.593 15.82 169.635 15.82V16C169.581 16 169.542 15.994 169.518 15.982C169.452 15.952 169.401 15.907 169.365 15.847C169.329 15.781 169.311 15.712 169.311 15.64V15.028C169.113 15.34 168.846 15.595 168.51 15.793C168.18 15.991 167.838 16.09 167.484 16.09C167.16 16.09 166.86 16.021 166.584 15.883C166.308 15.745 166.068 15.562 165.864 15.334C165.666 15.1 165.51 14.842 165.396 14.56C165.288 14.272 165.234 13.978 165.234 13.678ZM169.311 14.479V12.796C169.221 12.544 169.074 12.316 168.87 12.112C168.666 11.908 168.432 11.746 168.168 11.626C167.91 11.5 167.655 11.437 167.403 11.437C167.097 11.437 166.821 11.5 166.575 11.626C166.335 11.752 166.128 11.923 165.954 12.139C165.78 12.355 165.645 12.595 165.549 12.859C165.459 13.123 165.414 13.396 165.414 13.678C165.414 13.972 165.465 14.254 165.567 14.524C165.675 14.788 165.825 15.025 166.017 15.235C166.209 15.445 166.428 15.61 166.674 15.73C166.926 15.85 167.196 15.91 167.484 15.91C167.664 15.91 167.856 15.874 168.06 15.802C168.27 15.724 168.468 15.619 168.654 15.487C168.84 15.349 168.993 15.196 169.113 15.028C169.233 14.854 169.299 14.671 169.311 14.479ZM171.007 16V11.329H171.187V16H171.007ZM171.007 10.123V9.43H171.187V10.123H171.007ZM174.702 11.509C174.264 11.527 173.883 11.674 173.559 11.95C173.235 12.22 173.01 12.586 172.884 13.048V16H172.704V11.329H172.884V12.535C173.046 12.205 173.262 11.935 173.532 11.725C173.808 11.509 174.099 11.383 174.405 11.347C174.465 11.341 174.519 11.338 174.567 11.338C174.621 11.332 174.666 11.329 174.702 11.329V11.509ZM175.613 16V11.329H175.793V16H175.613ZM175.613 10.123V9.43H175.793V10.123H175.613ZM177.597 16.729L177.687 16.09H177.606V15.424H177.84V16.09L177.723 16.729H177.597ZM185.819 10.456C185.693 10.318 185.564 10.204 185.432 10.114C185.306 10.018 185.171 9.943 185.027 9.889C184.889 9.835 184.739 9.796 184.577 9.772C184.421 9.748 184.247 9.736 184.055 9.736C183.329 9.736 182.801 9.877 182.471 10.159C182.147 10.435 181.985 10.804 181.985 11.266C181.985 11.572 182.054 11.815 182.192 11.995C182.33 12.169 182.546 12.31 182.84 12.418C183.14 12.52 183.527 12.619 184.001 12.715C184.475 12.811 184.886 12.922 185.234 13.048C185.582 13.168 185.849 13.336 186.035 13.552C186.227 13.762 186.323 14.056 186.323 14.434C186.323 14.692 186.272 14.923 186.17 15.127C186.068 15.325 185.918 15.493 185.72 15.631C185.528 15.763 185.291 15.865 185.009 15.937C184.733 16.009 184.421 16.045 184.073 16.045C183.731 16.045 183.413 16.009 183.119 15.937C182.831 15.865 182.561 15.757 182.309 15.613C182.057 15.463 181.817 15.277 181.589 15.055L181.724 14.938C181.886 15.106 182.054 15.25 182.228 15.37C182.402 15.49 182.585 15.589 182.777 15.667C182.975 15.745 183.182 15.802 183.398 15.838C183.614 15.874 183.842 15.892 184.082 15.892C184.718 15.892 185.219 15.772 185.585 15.532C185.957 15.292 186.143 14.935 186.143 14.461C186.143 14.143 186.068 13.888 185.918 13.696C185.768 13.498 185.534 13.339 185.216 13.219C184.904 13.093 184.502 12.982 184.01 12.886C183.542 12.796 183.143 12.697 182.813 12.589C182.483 12.475 182.231 12.319 182.057 12.121C181.889 11.917 181.805 11.638 181.805 11.284C181.805 10.912 181.895 10.6 182.075 10.348C182.261 10.09 182.522 9.895 182.858 9.763C183.194 9.631 183.587 9.565 184.037 9.565C184.307 9.565 184.553 9.592 184.775 9.646C185.003 9.694 185.21 9.775 185.396 9.889C185.588 9.997 185.768 10.144 185.936 10.33L185.819 10.456ZM187.003 14.659C187.003 14.395 187.084 14.164 187.246 13.966C187.414 13.768 187.642 13.612 187.93 13.498C188.218 13.384 188.551 13.327 188.929 13.327C189.193 13.327 189.463 13.351 189.739 13.399C190.021 13.441 190.273 13.504 190.495 13.588V13.057C190.495 12.571 190.354 12.181 190.072 11.887C189.796 11.587 189.427 11.437 188.965 11.437C188.743 11.437 188.5 11.488 188.236 11.59C187.978 11.686 187.717 11.827 187.453 12.013L187.345 11.869C187.645 11.665 187.93 11.512 188.2 11.41C188.47 11.308 188.725 11.257 188.965 11.257C189.487 11.257 189.901 11.419 190.207 11.743C190.519 12.067 190.675 12.505 190.675 13.057V15.64C190.675 15.7 190.687 15.745 190.711 15.775C190.741 15.805 190.777 15.82 190.819 15.82V16C190.783 16 190.756 16 190.738 16C190.72 15.994 190.705 15.988 190.693 15.982C190.633 15.958 190.585 15.916 190.549 15.856C190.513 15.79 190.495 15.718 190.495 15.64V15.208C190.279 15.484 189.997 15.7 189.649 15.856C189.301 16.012 188.923 16.09 188.515 16.09C188.233 16.09 187.978 16.027 187.75 15.901C187.522 15.775 187.339 15.604 187.201 15.388C187.069 15.166 187.003 14.923 187.003 14.659ZM190.36 15.082C190.408 15.016 190.441 14.953 190.459 14.893C190.483 14.827 190.495 14.767 190.495 14.713V13.786C190.255 13.69 190.003 13.621 189.739 13.579C189.481 13.531 189.211 13.507 188.929 13.507C188.407 13.507 187.984 13.612 187.66 13.822C187.342 14.032 187.183 14.311 187.183 14.659C187.183 14.893 187.24 15.106 187.354 15.298C187.474 15.484 187.636 15.634 187.84 15.748C188.044 15.856 188.269 15.91 188.515 15.91C188.917 15.91 189.283 15.835 189.613 15.685C189.949 15.535 190.198 15.334 190.36 15.082ZM192.182 9.43H192.362V15.307C192.362 15.481 192.416 15.619 192.524 15.721C192.632 15.823 192.776 15.874 192.956 15.874C193.022 15.874 193.1 15.868 193.19 15.856C193.286 15.838 193.373 15.817 193.451 15.793L193.514 15.937C193.436 15.961 193.334 15.985 193.208 16.009C193.082 16.033 192.977 16.045 192.893 16.045C192.683 16.045 192.512 15.979 192.38 15.847C192.248 15.709 192.182 15.529 192.182 15.307V9.43ZM196.18 16.09C195.874 16.09 195.583 16.027 195.307 15.901C195.037 15.769 194.797 15.592 194.587 15.37C194.383 15.142 194.221 14.881 194.101 14.587C193.987 14.287 193.93 13.969 193.93 13.633C193.93 13.195 194.029 12.796 194.227 12.436C194.425 12.076 194.689 11.791 195.019 11.581C195.355 11.365 195.727 11.257 196.135 11.257C196.549 11.257 196.924 11.365 197.26 11.581C197.602 11.797 197.875 12.088 198.079 12.454C198.283 12.814 198.385 13.219 198.385 13.669C198.385 13.687 198.385 13.705 198.385 13.723C198.385 13.735 198.385 13.75 198.385 13.768H194.11C194.14 14.17 194.251 14.533 194.443 14.857C194.635 15.181 194.884 15.439 195.19 15.631C195.496 15.817 195.829 15.91 196.189 15.91C196.549 15.91 196.885 15.82 197.197 15.64C197.509 15.454 197.731 15.217 197.863 14.929L198.034 14.974C197.95 15.184 197.812 15.376 197.62 15.55C197.434 15.718 197.215 15.85 196.963 15.946C196.711 16.042 196.45 16.09 196.18 16.09ZM194.11 13.588H198.196C198.172 13.168 198.067 12.799 197.881 12.481C197.695 12.157 197.452 11.902 197.152 11.716C196.852 11.53 196.516 11.437 196.144 11.437C195.778 11.437 195.445 11.53 195.145 11.716C194.845 11.902 194.602 12.157 194.416 12.481C194.236 12.805 194.134 13.174 194.11 13.588ZM201.546 16.09C201.132 16.09 200.76 15.976 200.43 15.748C200.106 15.514 199.842 15.241 199.638 14.929V17.917H199.458V11.329H199.638V12.319C199.836 12.007 200.1 11.752 200.43 11.554C200.766 11.356 201.111 11.257 201.465 11.257C201.795 11.257 202.095 11.326 202.365 11.464C202.641 11.602 202.878 11.788 203.076 12.022C203.28 12.25 203.436 12.508 203.544 12.796C203.658 13.084 203.715 13.378 203.715 13.678C203.715 14.104 203.625 14.5 203.445 14.866C203.265 15.232 203.013 15.529 202.689 15.757C202.365 15.979 201.984 16.09 201.546 16.09ZM201.546 15.91C201.852 15.91 202.125 15.847 202.365 15.721C202.611 15.595 202.821 15.424 202.995 15.208C203.169 14.992 203.301 14.752 203.391 14.488C203.487 14.224 203.535 13.954 203.535 13.678C203.535 13.384 203.481 13.105 203.373 12.841C203.271 12.571 203.124 12.331 202.932 12.121C202.74 11.911 202.518 11.746 202.266 11.626C202.02 11.5 201.753 11.437 201.465 11.437C201.285 11.437 201.09 11.476 200.88 11.554C200.676 11.632 200.481 11.74 200.295 11.878C200.109 12.01 199.956 12.163 199.836 12.337C199.716 12.505 199.65 12.682 199.638 12.868V14.551C199.752 14.803 199.905 15.031 200.097 15.235C200.289 15.439 200.508 15.604 200.754 15.73C201.006 15.85 201.27 15.91 201.546 15.91ZM209.918 16.045C209.474 16.045 209.066 15.952 208.694 15.766C208.328 15.58 208.01 15.331 207.74 15.019C207.476 14.707 207.269 14.359 207.119 13.975C206.975 13.591 206.903 13.201 206.903 12.805C206.903 12.391 206.972 11.992 207.11 11.608C207.254 11.218 207.455 10.87 207.713 10.564C207.977 10.258 208.286 10.015 208.64 9.835C208.994 9.655 209.384 9.565 209.81 9.565C210.47 9.565 210.989 9.697 211.367 9.961C211.751 10.219 212.045 10.552 212.249 10.96L212.078 11.014C211.838 10.564 211.523 10.24 211.133 10.042C210.749 9.844 210.308 9.745 209.81 9.745C209.39 9.745 209.012 9.832 208.676 10.006C208.34 10.18 208.052 10.414 207.812 10.708C207.578 11.002 207.398 11.332 207.272 11.698C207.146 12.058 207.083 12.427 207.083 12.805C207.083 13.207 207.155 13.591 207.299 13.957C207.449 14.323 207.653 14.65 207.911 14.938C208.169 15.226 208.469 15.454 208.811 15.622C209.153 15.784 209.522 15.865 209.918 15.865C210.362 15.865 210.782 15.76 211.178 15.55C211.574 15.334 211.958 14.992 212.33 14.524V14.776C211.646 15.622 210.842 16.045 209.918 16.045ZM212.222 13.138H210.719V12.958H212.402V16H212.222V13.138ZM213.3 14.659C213.3 14.395 213.381 14.164 213.543 13.966C213.711 13.768 213.939 13.612 214.227 13.498C214.515 13.384 214.848 13.327 215.226 13.327C215.49 13.327 215.76 13.351 216.036 13.399C216.318 13.441 216.57 13.504 216.792 13.588V13.057C216.792 12.571 216.651 12.181 216.369 11.887C216.093 11.587 215.724 11.437 215.262 11.437C215.04 11.437 214.797 11.488 214.533 11.59C214.275 11.686 214.014 11.827 213.75 12.013L213.642 11.869C213.942 11.665 214.227 11.512 214.497 11.41C214.767 11.308 215.022 11.257 215.262 11.257C215.784 11.257 216.198 11.419 216.504 11.743C216.816 12.067 216.972 12.505 216.972 13.057V15.64C216.972 15.7 216.984 15.745 217.008 15.775C217.038 15.805 217.074 15.82 217.116 15.82V16C217.08 16 217.053 16 217.035 16C217.017 15.994 217.002 15.988 216.99 15.982C216.93 15.958 216.882 15.916 216.846 15.856C216.81 15.79 216.792 15.718 216.792 15.64V15.208C216.576 15.484 216.294 15.7 215.946 15.856C215.598 16.012 215.22 16.09 214.812 16.09C214.53 16.09 214.275 16.027 214.047 15.901C213.819 15.775 213.636 15.604 213.498 15.388C213.366 15.166 213.3 14.923 213.3 14.659ZM216.657 15.082C216.705 15.016 216.738 14.953 216.756 14.893C216.78 14.827 216.792 14.767 216.792 14.713V13.786C216.552 13.69 216.3 13.621 216.036 13.579C215.778 13.531 215.508 13.507 215.226 13.507C214.704 13.507 214.281 13.612 213.957 13.822C213.639 14.032 213.48 14.311 213.48 14.659C213.48 14.893 213.537 15.106 213.651 15.298C213.771 15.484 213.933 15.634 214.137 15.748C214.341 15.856 214.566 15.91 214.812 15.91C215.214 15.91 215.58 15.835 215.91 15.685C216.246 15.535 216.495 15.334 216.657 15.082ZM220.207 15.784C220.207 15.784 220.168 15.808 220.09 15.856C220.018 15.898 219.919 15.94 219.793 15.982C219.667 16.024 219.52 16.045 219.352 16.045C219.208 16.045 219.073 16.015 218.947 15.955C218.827 15.895 218.728 15.811 218.65 15.703C218.578 15.595 218.542 15.469 218.542 15.325V11.509H217.867V11.329H218.542V9.7H218.722V11.329H219.847V11.509H218.722V15.325C218.734 15.499 218.803 15.634 218.929 15.73C219.055 15.82 219.196 15.865 219.352 15.865C219.562 15.865 219.739 15.829 219.883 15.757C220.027 15.685 220.102 15.646 220.108 15.64L220.207 15.784ZM220.639 14.659C220.639 14.395 220.72 14.164 220.882 13.966C221.05 13.768 221.278 13.612 221.566 13.498C221.854 13.384 222.187 13.327 222.565 13.327C222.829 13.327 223.099 13.351 223.375 13.399C223.657 13.441 223.909 13.504 224.131 13.588V13.057C224.131 12.571 223.99 12.181 223.708 11.887C223.432 11.587 223.063 11.437 222.601 11.437C222.379 11.437 222.136 11.488 221.872 11.59C221.614 11.686 221.353 11.827 221.089 12.013L220.981 11.869C221.281 11.665 221.566 11.512 221.836 11.41C222.106 11.308 222.361 11.257 222.601 11.257C223.123 11.257 223.537 11.419 223.843 11.743C224.155 12.067 224.311 12.505 224.311 13.057V15.64C224.311 15.7 224.323 15.745 224.347 15.775C224.377 15.805 224.413 15.82 224.455 15.82V16C224.419 16 224.392 16 224.374 16C224.356 15.994 224.341 15.988 224.329 15.982C224.269 15.958 224.221 15.916 224.185 15.856C224.149 15.79 224.131 15.718 224.131 15.64V15.208C223.915 15.484 223.633 15.7 223.285 15.856C222.937 16.012 222.559 16.09 222.151 16.09C221.869 16.09 221.614 16.027 221.386 15.901C221.158 15.775 220.975 15.604 220.837 15.388C220.705 15.166 220.639 14.923 220.639 14.659ZM223.996 15.082C224.044 15.016 224.077 14.953 224.095 14.893C224.119 14.827 224.131 14.767 224.131 14.713V13.786C223.891 13.69 223.639 13.621 223.375 13.579C223.117 13.531 222.847 13.507 222.565 13.507C222.043 13.507 221.62 13.612 221.296 13.822C220.978 14.032 220.819 14.311 220.819 14.659C220.819 14.893 220.876 15.106 220.99 15.298C221.11 15.484 221.272 15.634 221.476 15.748C221.68 15.856 221.905 15.91 222.151 15.91C222.553 15.91 222.919 15.835 223.249 15.685C223.585 15.535 223.834 15.334 223.996 15.082ZM225.817 9.43H225.997V15.307C225.997 15.481 226.051 15.619 226.159 15.721C226.267 15.823 226.411 15.874 226.591 15.874C226.657 15.874 226.735 15.868 226.825 15.856C226.921 15.838 227.008 15.817 227.086 15.793L227.149 15.937C227.071 15.961 226.969 15.985 226.843 16.009C226.717 16.033 226.612 16.045 226.528 16.045C226.318 16.045 226.147 15.979 226.015 15.847C225.883 15.709 225.817 15.529 225.817 15.307V9.43Z" fill="#0F0E0E"/>
<defs>
<filter id="filter0_i_63_1967" x="3" y="-1" width="291" height="31" filterUnits="userSpaceOnUse" color-interpolation-filters="sRGB">
<feFlood flood-opacity="0" result="BackgroundImageFix"/>
<feBlend mode="normal" in="SourceGraphic" in2="BackgroundImageFix" result="shape"/>
<feColorMatrix in="SourceAlpha" type="matrix" values="0 0 0 0 0 0 0 0 0 0 0 0 0 0 0 0 0 0 127 0" result="hardAlpha"/>
<feOffset dy="-1"/>
<feGaussianBlur stdDeviation="2"/>
<feComposite in2="hardAlpha" operator="arithmetic" k2="-1" k3="1"/>
<feColorMatrix type="matrix" values="0 0 0 0 0 0 0 0 0 0 0 0 0 0 0 0 0 0 0.25 0"/>
<feBlend mode="normal" in2="shape" result="effect1_innerShadow_63_1967"/>
</filter>
</defs>
</svg>
