<svg width="214" height="166" viewBox="0 0 214 166" fill="none" xmlns="http://www.w3.org/2000/svg">
<path d="M144.408 60.4668C160.105 60.4668 172.83 50.5961 172.83 38.4199C172.83 26.2438 160.105 16.373 144.408 16.373C128.711 16.373 115.986 26.2438 115.986 38.4199C115.986 50.5961 128.711 60.4668 144.408 60.4668Z" fill="#00B4D8"/>
<path d="M144.408 16.373C142.299 16.3741 140.196 16.5568 138.139 16.9179C144.428 18.0209 150.047 20.7502 154.073 24.6575C158.098 28.5649 160.291 33.4181 160.291 38.4199C160.291 43.4218 158.098 48.2749 154.073 52.1823C150.047 56.0897 144.428 58.819 138.139 59.9219C142.039 60.6062 146.081 60.6445 150.001 60.0342C153.922 59.424 157.632 58.1789 160.889 56.3804C164.147 54.5818 166.879 52.2703 168.906 49.5969C170.933 46.9235 172.211 43.9484 172.654 40.8659C173.098 37.7834 172.699 34.663 171.481 31.7085C170.264 28.7541 168.257 26.0321 165.591 23.7204C162.925 21.4087 159.661 19.5594 156.01 18.2934C152.36 17.0273 148.407 16.3729 144.408 16.373Z" fill="#00B4D8"/>
<path d="M31.5566 60.4668C47.2536 60.4668 59.9785 50.5961 59.9785 38.4199C59.9785 26.2438 47.2536 16.373 31.5566 16.373C15.8597 16.373 3.13477 26.2438 3.13477 38.4199C3.13477 50.5961 15.8597 60.4668 31.5566 60.4668Z" fill="#00B4D8"/>
<path d="M31.5566 16.373C29.4472 16.3741 27.3445 16.5568 25.2871 16.9179C31.5765 18.0209 37.1955 20.7502 41.221 24.6575C45.2466 28.5649 47.4394 33.4181 47.4394 38.4199C47.4394 43.4218 45.2466 48.2749 41.221 52.1823C37.1955 56.0897 31.5765 58.819 25.2871 59.9219C29.1871 60.6062 33.2293 60.6445 37.1497 60.0342C41.07 59.424 44.7802 58.1789 48.0378 56.3804C51.2955 54.5818 54.0272 52.2703 56.0546 49.5969C58.0819 46.9235 59.3592 43.9484 59.8029 40.8659C60.2467 37.7834 59.847 34.663 58.6299 31.7085C57.4128 28.7541 55.4057 26.0321 52.7398 23.7204C50.0738 21.4087 46.8091 19.5594 43.1589 18.2934C39.5087 17.0273 35.5551 16.3729 31.5566 16.373Z" fill="#00B4D8"/>
<path d="M87.9824 148.978C133.457 148.978 170.322 120.382 170.322 85.1074C170.322 49.8324 133.457 21.2363 87.9824 21.2363C42.5074 21.2363 5.64258 49.8324 5.64258 85.1074C5.64258 120.382 42.5074 148.978 87.9824 148.978Z" fill="#00B4D8"/>
<path d="M170.322 85.1074C170.322 86.696 170.248 88.2696 170.101 89.828C168.58 105.911 159.266 120.952 144.032 131.926C128.798 142.899 108.772 148.992 87.9824 148.978C85.8717 148.978 83.7818 148.918 81.7129 148.797C101.181 147.647 119.488 141.167 133.367 130.515C147.245 119.862 155.791 105.73 157.478 90.6418C157.679 88.8164 157.78 86.9716 157.783 85.1074C157.783 51.4697 124.258 23.9046 81.7129 21.4179C83.7818 21.2979 85.8717 21.2374 87.9824 21.2363C133.457 21.2363 170.322 49.8324 170.322 85.1074Z" fill="#00B4D8"/>
<path d="M87.9824 139.252C126.532 139.252 157.783 115.011 157.783 85.1074C157.783 55.2042 126.532 30.9629 87.9824 30.9629C49.4325 30.9629 18.1816 55.2042 18.1816 85.1074C18.1816 115.011 49.4325 139.252 87.9824 139.252Z" fill="#FFF8F3"/>
<path d="M157.783 85.1074C157.785 86.9591 157.663 88.8095 157.42 90.6515C154.824 110.37 138.523 126.993 116.049 134.68C107.205 137.703 97.6461 139.26 87.9824 139.252C49.4958 139.252 18.1816 114.961 18.1816 85.1074C18.1816 55.2533 49.4958 30.9629 87.9824 30.9629C126.469 30.9629 157.783 55.2533 157.783 85.1074Z" fill="#FFF8F3"/>
<path d="M87.9824 30.9629C85.8691 30.9629 83.779 31.0404 81.7129 31.1837C117.274 33.6513 145.244 56.8913 145.244 85.1074C145.244 113.323 117.274 136.564 81.7129 139.031C83.779 139.174 85.8691 139.252 87.9824 139.252C126.471 139.252 157.783 114.963 157.783 85.1074C157.783 55.2521 126.471 30.9629 87.9824 30.9629Z" fill="#F2F2F2"/>
<path d="M170.101 89.8279C168.964 101.709 163.568 113.108 154.522 122.736C145.476 132.365 133.141 139.841 118.908 144.319C118.265 142.948 117.718 141.551 117.27 140.134C116.704 138.339 116.296 136.517 116.049 134.68C138.523 126.993 154.824 110.37 157.42 90.6514C157.441 90.6482 157.457 90.6449 157.478 90.6417C160.987 90.0803 164.561 89.7978 168.145 89.7987C168.801 89.7987 169.453 89.8085 170.101 89.8279Z" fill="#00B4D8"/>
<path d="M157.42 90.6516C154.824 110.371 138.523 126.993 116.049 134.68C114.7 124.672 118.183 114.63 125.824 106.498C133.466 98.3652 144.723 92.7193 157.42 90.6516Z" fill="#F2F2F2"/>
<path d="M168.145 163.568C191.739 163.568 210.865 148.732 210.865 130.43C210.865 112.128 191.739 97.2914 168.145 97.2914C144.551 97.2914 125.424 112.128 125.424 130.43C125.424 148.732 144.551 163.568 168.145 163.568Z" fill="#00B4D8"/>
<path d="M168.145 97.2916C166.046 97.2917 163.951 97.4107 161.875 97.6478C172.008 98.8146 181.264 102.767 187.954 108.784C194.645 114.802 198.326 122.483 198.326 130.43C198.326 138.376 194.645 146.058 187.954 152.076C181.264 158.093 172.008 162.045 161.875 163.212C167.686 163.881 173.613 163.612 179.285 162.424C184.957 161.235 190.251 159.152 194.838 156.304C199.425 153.457 203.206 149.906 205.943 145.873C208.681 141.841 210.317 137.414 210.749 132.869C211.181 128.324 210.401 123.759 208.455 119.459C206.51 115.159 203.443 111.216 199.444 107.877C195.446 104.538 190.602 101.875 185.217 100.053C179.831 98.2319 174.02 97.2918 168.145 97.2916Z" fill="#00B4D8"/>
<path d="M160.223 124.285L170.997 115.927C172.037 115.12 173.272 114.48 174.632 114.043C175.991 113.606 177.448 113.382 178.919 113.382C180.391 113.382 181.848 113.606 183.207 114.043C184.566 114.48 185.801 115.12 186.842 115.927C188.943 117.557 190.123 119.767 190.123 122.072C190.123 124.377 188.943 126.588 186.842 128.218L176.067 136.575L160.223 124.285Z" fill="#FF6666"/>
<path d="M176.067 136.575L186.841 128.218C187.882 127.411 188.707 126.452 189.27 125.398C189.833 124.344 190.123 123.214 190.123 122.072C190.123 120.931 189.833 119.801 189.27 118.746C188.707 117.692 187.882 116.734 186.841 115.927V115.927C185.422 114.825 183.646 114.04 181.701 113.653C179.756 113.266 177.712 113.292 175.784 113.728C177.594 114.135 179.241 114.892 180.572 115.927V115.927C181.612 116.734 182.437 117.692 183 118.746C183.563 119.801 183.853 120.931 183.853 122.072C183.853 123.214 183.563 124.344 183 125.398C182.437 126.452 181.612 127.411 180.572 128.218L172.932 134.144L176.067 136.575Z" fill="#FF4E4E"/>
<path d="M149.448 132.642C148.408 133.449 147.583 134.407 147.02 135.462C146.457 136.516 146.167 137.646 146.167 138.788C146.167 139.929 146.457 141.059 147.02 142.114C147.583 143.168 148.408 144.126 149.448 144.933C150.489 145.74 151.724 146.38 153.083 146.817C154.442 147.254 155.899 147.479 157.371 147.479C158.842 147.479 160.299 147.254 161.658 146.817C163.017 146.38 164.253 145.74 165.293 144.933L176.067 136.575L160.223 124.285L149.448 132.642Z" fill="#FBFBFB"/>
<path d="M172.932 134.144L159.023 144.933C157.692 145.968 156.045 146.725 154.236 147.132C154.454 147.181 154.674 147.224 154.895 147.263C154.935 147.27 154.976 147.276 155.016 147.283C155.225 147.318 155.436 147.349 155.647 147.374C155.661 147.376 155.675 147.378 155.689 147.38C155.921 147.407 156.154 147.428 156.388 147.444C156.413 147.446 156.438 147.447 156.464 147.448C156.666 147.461 156.869 147.469 157.072 147.473C157.116 147.474 157.159 147.475 157.202 147.475C157.658 147.481 158.113 147.465 158.566 147.427C158.609 147.424 158.652 147.419 158.695 147.415C158.883 147.398 159.07 147.377 159.256 147.353C159.302 147.347 159.347 147.341 159.393 147.335C159.618 147.303 159.842 147.267 160.064 147.224L160.073 147.223C160.286 147.182 160.497 147.135 160.707 147.084C160.761 147.071 160.814 147.057 160.868 147.044C161.042 146.999 161.216 146.952 161.388 146.9C161.431 146.888 161.474 146.876 161.516 146.863C161.726 146.798 161.933 146.729 162.138 146.654C162.175 146.64 162.212 146.625 162.25 146.611C162.417 146.548 162.583 146.482 162.747 146.412C162.803 146.388 162.859 146.364 162.915 146.34C163.083 146.265 163.25 146.187 163.414 146.106C163.444 146.091 163.475 146.077 163.505 146.062C163.695 145.965 163.882 145.862 164.066 145.756C164.113 145.728 164.16 145.699 164.207 145.671C164.348 145.586 164.487 145.499 164.624 145.408C164.675 145.375 164.726 145.341 164.776 145.307C164.952 145.187 165.125 145.063 165.293 144.933L176.067 136.575L172.932 134.144Z" fill="#EEEEEE"/>
<path d="M87.9824 89.3223C91.445 89.3223 94.2519 87.1449 94.2519 84.459C94.2519 81.7731 91.445 79.5957 87.9824 79.5957C84.5199 79.5957 81.7129 81.7731 81.7129 84.459C81.7129 87.1449 84.5199 89.3223 87.9824 89.3223Z" fill="#00B4D8"/>
<path d="M168.78 114.207L147.232 130.923C144.546 133.009 143.039 135.837 143.041 138.786C143.042 141.734 144.553 144.561 147.24 146.646C149.928 148.73 153.572 149.902 157.373 149.903C161.174 149.905 164.82 148.735 167.509 146.653L189.058 129.937C190.389 128.904 191.446 127.678 192.166 126.329C192.887 124.979 193.258 123.533 193.258 122.072C193.258 120.612 192.887 119.165 192.166 117.816C191.446 116.466 190.39 115.24 189.058 114.207C187.727 113.175 186.146 112.355 184.406 111.796C182.667 111.237 180.802 110.95 178.919 110.95C177.036 110.95 175.172 111.237 173.432 111.796C171.692 112.355 170.112 113.174 168.78 114.207H168.78ZM163.076 143.213C162.327 143.796 161.438 144.258 160.458 144.574C159.479 144.889 158.429 145.052 157.369 145.052C156.308 145.053 155.258 144.891 154.278 144.577C153.298 144.262 152.408 143.801 151.658 143.219C150.908 142.638 150.313 141.947 149.908 141.187C149.502 140.427 149.294 139.612 149.294 138.79C149.295 137.967 149.505 137.152 149.911 136.393C150.318 135.633 150.914 134.943 151.665 134.362L160.222 127.724L171.634 136.575L163.076 143.213ZM184.625 126.498L176.067 133.136L164.656 124.285L173.213 117.646C173.963 117.065 174.852 116.604 175.831 116.29C176.81 115.975 177.859 115.813 178.919 115.813C179.979 115.813 181.028 115.975 182.007 116.29C182.986 116.604 183.875 117.065 184.625 117.646C185.374 118.228 185.968 118.918 186.374 119.677C186.779 120.436 186.988 121.25 186.988 122.072C186.988 122.894 186.779 123.708 186.374 124.468C185.968 125.227 185.374 125.917 184.625 126.498H184.625ZM87.9825 50.2539C88.8139 50.2539 89.6112 49.9977 90.1991 49.5417C90.7869 49.0857 91.1172 48.4672 91.1172 47.8222V40.6894C91.1172 40.0445 90.787 39.426 90.1991 38.97C89.6112 38.514 88.8139 38.2578 87.9825 38.2578C87.1511 38.2578 86.3537 38.514 85.7658 38.97C85.178 39.426 84.8477 40.0445 84.8477 40.6894V47.8222C84.8477 48.4672 85.178 49.0857 85.7659 49.5417C86.3537 49.9977 87.1511 50.2539 87.9825 50.2539ZM172.501 95.0215C173.136 91.7397 173.455 88.4259 173.457 85.1074C173.471 75.3139 170.67 65.6413 165.259 56.7927C170.865 52.9689 174.54 47.7257 175.628 41.997C176.716 36.2682 175.148 30.4257 171.202 25.5101L174.865 23.0862C175.497 22.6674 175.888 22.0712 175.953 21.4286C176.018 20.786 175.752 20.1496 175.213 19.6593C174.673 19.1689 173.905 18.8648 173.077 18.8136C172.249 18.7625 171.428 18.9685 170.795 19.3865L167.369 21.654C164.245 19.0738 160.436 17.0504 156.206 15.7237C151.975 14.397 147.424 13.7987 142.866 13.9701C138.308 14.1414 133.852 15.0784 129.807 16.7162C125.761 18.3541 122.223 20.6537 119.435 23.4562C110.405 20.6771 100.826 19.1204 91.1172 18.8539V4.86328H99.2676C100.099 4.86328 100.896 4.60709 101.484 4.15107C102.072 3.69505 102.402 3.07655 102.402 2.43164C102.402 1.78673 102.072 1.16823 101.484 0.712211C100.896 0.25619 100.099 0 99.2676 0L76.6973 0C75.8659 0 75.0686 0.25619 74.4807 0.712211C73.8928 1.16823 73.5625 1.78673 73.5625 2.43164C73.5625 3.07655 73.8928 3.69505 74.4807 4.15107C75.0686 4.60709 75.8659 4.86328 76.6973 4.86328H84.8477V18.8539C75.1385 19.1204 65.5603 20.6771 56.5298 23.4563C53.7422 20.6537 50.2035 18.3541 46.1581 16.7163C42.1127 15.0784 37.6571 14.1414 33.0992 13.9701C28.5412 13.7987 23.9897 14.397 19.7591 15.7237C15.5284 17.0504 11.7196 19.0737 8.59567 21.654L5.16958 19.3865C4.85641 19.1792 4.49368 19.0218 4.10209 18.9233C3.71051 18.8247 3.29774 18.787 2.88735 18.8122C2.05853 18.8631 1.28974 19.1674 0.75009 19.658C0.482883 19.9009 0.279977 20.1823 0.152955 20.486C0.0259332 20.7898 -0.022716 21.11 0.00978499 21.4283C0.0754236 22.0712 0.46762 22.6676 1.10009 23.0862L4.76242 25.5101C1.64494 29.3815 -0.0053939 33.8553 6.7969e-05 38.4199C0.0118129 41.8948 0.971946 45.3283 2.8173 48.4947C4.66265 51.661 7.3514 54.4884 10.7066 56.7907C5.29514 65.6398 2.49432 75.3132 2.50788 85.1074C2.50788 113.153 25.0732 137.186 56.8591 146.859L42.4502 162.132C41.9592 162.653 41.7548 163.303 41.8819 163.94C42.0091 164.578 42.4575 165.15 43.1284 165.531C43.7993 165.911 44.6378 166.07 45.4594 165.971C46.281 165.873 47.0185 165.525 47.5095 165.004L63.0515 148.53C79.3022 152.371 96.6598 152.37 112.909 148.526L128.455 165.005C128.946 165.525 129.684 165.873 130.506 165.971C131.327 166.07 132.166 165.911 132.837 165.531C133.507 165.15 133.956 164.578 134.083 163.94C134.21 163.303 134.006 162.653 133.515 162.132L119.112 146.866C121.461 146.155 123.766 145.362 126.027 144.488C129.225 150.254 134.334 155.261 140.834 159C147.333 162.739 154.993 165.077 163.035 165.776C171.076 166.476 179.213 165.513 186.619 162.984C194.026 160.455 200.437 156.451 205.203 151.378C209.969 146.305 212.92 140.345 213.755 134.101C214.59 127.858 213.281 121.554 209.96 115.83C206.638 110.106 201.423 105.166 194.844 101.512C188.265 97.8568 180.557 95.6177 172.501 95.0215L172.501 95.0215ZM144.408 18.8047C149.414 18.8042 154.307 19.9563 158.468 22.1151C162.629 24.2738 165.87 27.342 167.781 30.931C169.692 34.5199 170.186 38.468 169.201 42.2751C168.217 46.0822 165.798 49.577 162.25 52.3165C153.698 40.7163 140.855 31.3739 125.383 25.4981C127.752 23.392 130.677 21.7047 133.959 20.55C137.241 19.3953 140.804 18.8002 144.408 18.8047ZM6.2696 38.4199C6.26968 34.4296 7.83859 30.5343 10.7669 27.2537C13.6953 23.9731 17.8438 21.4633 22.6589 20.0592C27.474 18.6551 32.7266 18.4235 37.7158 19.3953C42.7049 20.3671 47.1934 22.4961 50.5821 25.4982C35.11 31.3739 22.2671 40.716 13.7151 52.3159C11.3446 50.5004 9.465 48.3362 8.18651 45.9501C6.90802 43.564 6.25632 41.0039 6.2696 38.4199ZM87.9825 146.547C44.3086 146.547 8.77741 118.985 8.77741 85.1074C8.77741 51.2296 44.3086 23.668 87.9825 23.668C131.656 23.668 167.188 51.2296 167.188 85.1074C167.187 88.3852 166.852 91.6578 166.185 94.8945C164.005 94.9655 161.834 95.1573 159.69 95.4684C160.507 92.0512 160.918 88.5829 160.918 85.1074C160.918 53.9112 128.199 28.5312 87.9825 28.5312C47.7656 28.5312 15.0469 53.9112 15.0469 85.1074C15.0469 116.304 47.7656 141.684 87.9825 141.684C100.088 141.687 112.004 139.345 122.646 134.869C122.919 136.557 123.348 138.227 123.931 139.867C112.793 144.257 100.476 146.546 87.9825 146.547ZM122.309 129.414C111.951 134.263 100.081 136.824 87.9825 136.82C51.2227 136.82 21.3165 113.622 21.3165 85.1074C21.3165 56.5928 51.2227 33.3945 87.9825 33.3945C124.742 33.3945 154.648 56.5928 154.648 85.1074C154.648 89.0721 154.06 93.0236 152.897 96.8842C144.165 99.2824 136.572 103.672 131.113 109.477C125.654 115.283 122.586 122.232 122.309 129.414ZM168.145 161.137C160.315 161.137 152.662 159.336 146.152 155.962C139.642 152.588 134.568 147.792 131.572 142.181C128.576 136.57 127.792 130.396 129.319 124.439C130.847 118.483 134.617 113.011 140.153 108.717C145.689 104.423 152.743 101.498 160.422 100.313C168.101 99.1284 176.06 99.7365 183.293 102.061C190.527 104.385 196.709 108.32 201.059 113.37C205.409 118.42 207.73 124.357 207.73 130.43C207.719 138.571 203.544 146.376 196.123 152.133C188.702 157.889 178.64 161.128 168.145 161.137ZM111.753 82.0273H96.8476C96.4339 81.1194 95.7925 80.2839 94.9604 79.5692C94.1283 78.8546 93.122 78.2748 91.9996 77.8633C90.8771 77.4519 89.6608 77.2169 88.4206 77.172C87.1805 77.1271 85.9412 77.2731 84.7742 77.6016L65.3261 59.247C64.7982 58.7488 64.0367 58.4337 63.2093 58.3709C62.3819 58.3082 61.5562 58.503 60.9139 58.9125C60.2716 59.322 59.8654 59.9126 59.7845 60.5545C59.7036 61.1963 59.9548 61.8368 60.4827 62.335L79.9326 80.6913C79.2529 81.5647 78.817 82.5391 78.6531 83.5514C78.4892 84.5637 78.6009 85.5914 78.981 86.5681C79.3611 87.5448 80.0011 88.4488 80.8597 89.2216C81.7184 89.9945 82.7765 90.619 83.9657 91.0549C85.1549 91.4907 86.4487 91.7282 87.7636 91.7519C89.0785 91.7756 90.3852 91.5851 91.5993 91.1927C92.8133 90.8002 93.9077 90.2145 94.8117 89.4735C95.7158 88.7325 96.4093 87.8525 96.8476 86.8906H111.753C112.585 86.8906 113.382 86.6344 113.97 86.1784C114.558 85.7224 114.888 85.1039 114.888 84.459C114.888 83.814 114.558 83.1955 113.97 82.7395C113.382 82.2835 112.585 82.0273 111.753 82.0273H111.753ZM87.9825 86.8906C87.3625 86.8906 86.7564 86.748 86.2409 86.4808C85.7254 86.2136 85.3236 85.8338 85.0863 85.3895C84.8491 84.9452 84.787 84.4563 84.9079 83.9846C85.0289 83.5129 85.3274 83.0796 85.7658 82.7395C86.2043 82.3995 86.7628 82.1679 87.3709 82.074C87.979 81.9802 88.6093 82.0284 89.1821 82.2124C89.7549 82.3965 90.2445 82.7081 90.5889 83.108C90.9334 83.5079 91.1172 83.978 91.1172 84.459C91.1163 85.1036 90.7858 85.7217 90.1981 86.1776C89.6104 86.6335 88.8136 86.8899 87.9825 86.8906ZM145.244 87.539C146.076 87.539 146.873 87.2828 147.461 86.8268C148.049 86.3708 148.379 85.7523 148.379 85.1074C148.379 84.4625 148.049 83.844 147.461 83.388C146.873 82.9319 146.076 82.6758 145.244 82.6758H136.049C135.217 82.6758 134.42 82.9319 133.832 83.388C133.244 83.844 132.914 84.4625 132.914 85.1074C132.914 85.7523 133.244 86.3708 133.832 86.8268C134.42 87.2828 135.217 87.539 136.049 87.539H145.244ZM87.9825 119.961C87.5708 119.961 87.1632 120.024 86.7828 120.146C86.4025 120.268 86.0569 120.447 85.7658 120.673C85.4747 120.899 85.2438 121.167 85.0863 121.462C84.9288 121.757 84.8477 122.073 84.8477 122.393V129.525C84.8477 130.17 85.178 130.789 85.7658 131.245C86.3537 131.701 87.1511 131.957 87.9825 131.957C88.8139 131.957 89.6112 131.701 90.1991 131.245C90.787 130.789 91.1172 130.17 91.1172 129.525V122.393C91.1172 122.073 91.0362 121.757 90.8786 121.462C90.7211 121.167 90.4902 120.899 90.1991 120.673C89.908 120.447 89.5624 120.268 89.1821 120.146C88.8018 120.024 88.3941 119.961 87.9825 119.961ZM39.9161 82.6758H30.7208C29.8894 82.6758 29.092 82.9319 28.5041 83.388C27.9163 83.844 27.586 84.4625 27.586 85.1074C27.586 85.7523 27.9163 86.3708 28.5041 86.8268C29.092 87.2828 29.8894 87.539 30.7208 87.539H39.9161C40.7475 87.539 41.5448 87.2828 42.1327 86.8268C42.7206 86.3708 43.0508 85.7523 43.0508 85.1074C43.0508 84.4625 42.7206 83.844 42.1327 83.388C41.5448 82.9319 40.7475 82.6758 39.9161 82.6758Z" fill="#313440"/>
</svg>
