<svg width="90" height="70" viewBox="0 0 90 70" fill="none" xmlns="http://www.w3.org/2000/svg">
<path d="M11.0912 58.3442H1.40625V50.5703H88.5937V58.3442H76.2891H11.0912ZM64.4238 58.3442H22.9948H64.4238Z" fill="#CDCCCD"/>
<path d="M40.7811 14.0844V11.7012C40.7811 10.2657 42.0355 9.10995 43.5936 9.10995C45.1518 9.10995 46.4061 10.2657 46.4061 11.7012V14.0844" fill="#EC7BB0"/>
<path d="M54.4618 19.5405H67.4999C72.9534 19.5405 77.3437 23.5855 77.3437 28.61V33.7271V37.614H81.5624C85.4578 37.614 88.5937 40.5032 88.5937 44.0922V50.6105L54.6527 50.6365L54.4618 19.5405Z" fill="#00B4D8"/>
<path d="M54.8438 14.2922H1.40625V50.57H54.8438V14.2922Z" fill="#00B4D8"/>
<path d="M16.875 68.709C20.7583 68.709 23.9062 65.8086 23.9062 62.2308C23.9062 58.653 20.7583 55.7526 16.875 55.7526C12.9917 55.7526 9.84375 58.653 9.84375 62.2308C9.84375 65.8086 12.9917 68.709 16.875 68.709Z" fill="#8A7988"/>
<path d="M70.3125 68.709C74.1958 68.709 77.3438 65.8086 77.3438 62.2308C77.3438 58.653 74.1958 55.7526 70.3125 55.7526C66.4292 55.7526 63.2812 58.653 63.2812 62.2308C63.2812 65.8086 66.4292 68.709 70.3125 68.709Z" fill="#8A7988"/>
<path fill-rule="evenodd" clip-rule="evenodd" d="M71.7188 34.942H60.4688V24.6576H61.8915H66.0938C69.5117 24.6576 71.7353 26.6704 71.7353 29.8167V33.5401L71.7188 34.942Z" fill="#92D9F7"/>
<path d="M16.875 63.5264C17.6517 63.5264 18.2812 62.9463 18.2812 62.2308C18.2812 61.5152 17.6517 60.9351 16.875 60.9351C16.0983 60.9351 15.4688 61.5152 15.4688 62.2308C15.4688 62.9463 16.0983 63.5264 16.875 63.5264Z" fill="#62355C"/>
<path d="M70.3125 63.5264C71.0892 63.5264 71.7188 62.9463 71.7188 62.2308C71.7188 61.5152 71.0892 60.9351 70.3125 60.9351C69.5358 60.9351 68.9062 61.5152 68.9062 62.2308C68.9062 62.9463 69.5358 63.5264 70.3125 63.5264Z" fill="#62355C"/>
<path d="M26.7188 24.6576V29.8401H21.0938V35.0227H26.7188V40.2052H32.3438V35.0227H37.9688V29.8401H32.3438V24.6576H26.7188Z" fill="#EC7BB0"/>
<path d="M43.5718 0.000158412C43.3871 0.00281236 43.2048 0.0389543 43.0353 0.10652C42.8658 0.174086 42.7124 0.271783 42.5838 0.393974C42.4553 0.516165 42.3541 0.660418 42.2861 0.81863C42.2181 0.976843 42.1846 1.14589 42.1875 1.31604V3.90731C42.1849 4.079 42.2193 4.24943 42.2888 4.40876C42.3583 4.56808 42.4614 4.71312 42.5923 4.83539C42.7231 4.95766 42.879 5.05476 43.051 5.12103C43.2229 5.18729 43.4074 5.22138 43.5938 5.22138C43.7801 5.22138 43.9646 5.18729 44.1365 5.12103C44.3085 5.05476 44.4644 4.95766 44.5952 4.83539C44.7261 4.71312 44.8292 4.56808 44.8987 4.40876C44.9682 4.24943 45.0026 4.079 45 3.90731V1.31604C45.0029 1.14249 44.968 0.970175 44.8973 0.809299C44.8266 0.648423 44.7215 0.502238 44.5883 0.379502C44.4551 0.256767 44.2964 0.159984 44.1218 0.0948165C43.9472 0.0296488 43.7601 -0.00255642 43.5718 0.000158412ZM35.9528 3.36072C35.6722 3.35976 35.3977 3.43611 35.1647 3.58C34.9316 3.7239 34.7506 3.92876 34.6448 4.1682C34.5391 4.40763 34.5135 4.67071 34.5714 4.92364C34.6292 5.17658 34.7679 5.40783 34.9695 5.58759L36.958 7.41971C37.0876 7.544 37.2428 7.64324 37.4145 7.71159C37.5862 7.77993 37.771 7.81598 37.9581 7.81771C38.1452 7.81944 38.3307 7.78679 38.5039 7.72163C38.6771 7.65648 38.8344 7.56016 38.9667 7.43829C39.099 7.31642 39.2035 7.17145 39.2742 7.01189C39.345 6.85233 39.3804 6.68137 39.3786 6.50903C39.3767 6.33668 39.3375 6.16644 39.2633 6.00822C39.1892 5.85 39.0814 5.70699 38.9465 5.58759L36.958 3.75548C36.8275 3.63122 36.6713 3.53227 36.4987 3.46447C36.326 3.39667 36.1404 3.36139 35.9528 3.36072ZM51.1963 3.36072C50.8306 3.37142 50.4837 3.51304 50.2295 3.75548L48.241 5.58759C48.1061 5.70699 47.9983 5.85 47.9242 6.00822C47.85 6.16644 47.8108 6.33668 47.8089 6.50903C47.8071 6.68137 47.8425 6.85233 47.9133 7.01189C47.984 7.17145 48.0885 7.31642 48.2208 7.43829C48.3531 7.56016 48.5104 7.65648 48.6836 7.72163C48.8568 7.78679 49.0423 7.81944 49.2294 7.81771C49.4165 7.81598 49.6013 7.77993 49.773 7.71159C49.9447 7.64324 50.0999 7.544 50.2295 7.41971L52.218 5.58759C52.4222 5.40576 52.5619 5.17123 52.6187 4.91487C52.6754 4.6585 52.6466 4.39227 52.5361 4.15127C52.4255 3.91028 52.2383 3.70578 51.9991 3.56466C51.76 3.42355 51.4801 3.35246 51.1963 3.36072ZM43.5938 7.80941C41.2809 7.80941 39.375 9.56552 39.375 11.6963V12.992H1.40625C1.0333 12.992 0.675616 13.1285 0.411901 13.3715C0.148187 13.6144 3.72893e-05 13.944 0 14.2876V50.5654V58.3393C3.7267e-05 58.6829 0.148187 59.0123 0.411901 59.2553C0.675616 59.4983 1.0333 59.6349 1.40625 59.6349H8.95935C8.64221 60.4504 8.4375 61.313 8.4375 62.2262C8.4375 66.5044 12.2318 70 16.875 70C21.5182 70 25.3125 66.5044 25.3125 62.2262C25.3125 61.313 25.1078 60.4504 24.7906 59.6349H62.3969C62.0797 60.4504 61.875 61.313 61.875 62.2262C61.875 66.5044 65.6693 70 70.3125 70C74.9557 70 78.75 66.5044 78.75 62.2262C78.75 61.313 78.5453 60.4504 78.2281 59.6349H88.5938C88.9667 59.6349 89.3244 59.4983 89.5881 59.2553C89.8518 59.0123 90 58.6829 90 58.3393V50.5654V44.0873C90 39.8031 86.2125 36.3134 81.5625 36.3134H78.75V33.7222V28.6054C78.75 22.8857 73.7082 18.2403 67.5 18.2403H56.25V14.2876C56.25 13.944 56.1018 13.6144 55.8381 13.3715C55.5744 13.1285 55.2167 12.992 54.8438 12.992H47.8125V11.6963C47.8125 9.56552 45.9066 7.80941 43.5938 7.80941ZM43.5938 10.4007C44.3971 10.4007 45 10.9563 45 11.6963V12.992H42.1875V11.6963C42.1875 10.9563 42.7904 10.4007 43.5938 10.4007ZM2.8125 15.5832H53.4375V49.2698H2.8125V46.6785H7.05322C7.23957 46.681 7.42455 46.6492 7.59748 46.5852C7.7704 46.5212 7.92782 46.4261 8.06053 46.3056C8.19324 46.185 8.29858 46.0414 8.37051 45.883C8.44244 45.7246 8.47951 45.5546 8.47951 45.3829C8.47951 45.2112 8.44244 45.0412 8.37051 44.8828C8.29858 44.7244 8.19324 44.5807 8.06053 44.4602C7.92782 44.3396 7.7704 44.2446 7.59748 44.1806C7.42455 44.1165 7.23957 44.0848 7.05322 44.0873H2.8125V15.5832ZM56.25 20.8316H67.5C72.1987 20.8316 75.9375 24.2764 75.9375 28.6054V33.7222V38.9047H81.5625C84.7031 38.9047 87.1875 41.1938 87.1875 44.0873H82.9468C82.7604 44.0848 82.5754 44.1165 82.4025 44.1806C82.2296 44.2446 82.0722 44.3396 81.9395 44.4602C81.8068 44.5807 81.7014 44.7244 81.6295 44.8828C81.5576 45.0412 81.5205 45.2112 81.5205 45.3829C81.5205 45.5546 81.5576 45.7246 81.6295 45.883C81.7014 46.0414 81.8068 46.185 81.9395 46.3056C82.0722 46.4261 82.2296 46.5212 82.4025 46.5852C82.5754 46.6492 82.7604 46.681 82.9468 46.6785H87.1875V49.2698H56.25V20.8316ZM26.7188 23.3571C26.3458 23.3571 25.9881 23.4937 25.7244 23.7366C25.4607 23.9796 25.3125 24.3091 25.3125 24.6527V28.5396H21.0938C20.7208 28.5396 20.3631 28.6762 20.0994 28.9192C19.8357 29.1622 19.6875 29.4916 19.6875 29.8352V35.0178C19.6875 35.3614 19.8357 35.6909 20.0994 35.9338C20.3631 36.1768 20.7208 36.3134 21.0938 36.3134H25.3125V40.2003C25.3125 40.544 25.4607 40.8734 25.7244 41.1164C25.9881 41.3594 26.3458 41.4959 26.7188 41.496H32.3438C32.7167 41.4959 33.0744 41.3594 33.3381 41.1164C33.6018 40.8734 33.75 40.544 33.75 40.2003V36.3134H37.9688C38.3417 36.3134 38.6994 36.1768 38.9631 35.9338C39.2268 35.6909 39.375 35.3614 39.375 35.0178V29.8352C39.375 29.4916 39.2268 29.1622 38.9631 28.9192C38.6994 28.6762 38.3417 28.5396 37.9688 28.5396H33.75V24.6527C33.75 24.3091 33.6018 23.9796 33.3381 23.7366C33.0744 23.4937 32.7167 23.3571 32.3438 23.3571H26.7188ZM59.0625 23.3571V36.2325H73.1085L73.1254 34.952L73.1423 33.545V29.815C73.1423 27.9607 72.4608 26.2952 71.1867 25.1335C69.9127 23.9716 68.1031 23.3571 66.0945 23.3571H61.8923H59.0633H59.0625ZM28.125 25.9483H30.9375V29.8352C30.9375 30.1789 31.0857 30.5083 31.3494 30.7513C31.6131 30.9943 31.9708 31.1308 32.3438 31.1309H36.5625V33.7222H32.3438C31.9708 33.7222 31.6131 33.8588 31.3494 34.1017C31.0857 34.3447 30.9375 34.6742 30.9375 35.0178V38.9047H28.125V35.0178C28.125 34.6742 27.9768 34.3447 27.7131 34.1017C27.4494 33.8588 27.0917 33.7222 26.7188 33.7222H22.5V31.1309H26.7188C27.0917 31.1308 27.4494 30.9943 27.7131 30.7513C27.9768 30.5083 28.125 30.1789 28.125 29.8352V25.9483ZM61.875 25.9483H61.8919H66.0941C67.5035 25.9483 68.5165 26.3445 69.2088 26.9757C69.901 27.607 70.3294 28.523 70.3294 29.815V33.5298V33.6412H61.8754V25.9483H61.875ZM60.4688 38.9047C60.2824 38.9023 60.0974 38.934 59.9245 38.998C59.7515 39.062 59.5941 39.1571 59.4614 39.2776C59.3287 39.3982 59.2233 39.5418 59.1514 39.7002C59.0795 39.8586 59.0425 40.0286 59.0425 40.2003C59.0425 40.372 59.0795 40.542 59.1514 40.7004C59.2233 40.8588 59.3287 41.0025 59.4614 41.123C59.5941 41.2436 59.7515 41.3386 59.9245 41.4027C60.0974 41.4667 60.2824 41.4984 60.4688 41.496H63.2812C63.4676 41.4984 63.6526 41.4667 63.8255 41.4027C63.9985 41.3386 64.1559 41.2436 64.2886 41.123C64.4213 41.0025 64.5266 40.8588 64.5986 40.7004C64.6705 40.542 64.7075 40.372 64.7075 40.2003C64.7075 40.0286 64.6705 39.8586 64.5986 39.7002C64.5266 39.5418 64.4213 39.3982 64.2886 39.2776C64.1559 39.1571 63.9985 39.062 63.8255 38.998C63.6526 38.934 63.4676 38.9023 63.2812 38.9047H60.4688ZM2.8125 51.8611H54.8438H87.1875V55.7885V57.0436H76.5472C75.0006 55.4664 72.789 54.4524 70.3125 54.4524C67.836 54.4524 65.6244 55.4664 64.0778 57.0436H23.1097C21.5631 55.4664 19.3515 54.4524 16.875 54.4524C14.3985 54.4524 12.1869 55.4664 10.6403 57.0436H2.8125V51.8611ZM16.875 57.0436C19.9983 57.0436 22.5 59.3486 22.5 62.2262C22.5 65.1038 19.9983 67.4087 16.875 67.4087C13.7517 67.4087 11.25 65.1038 11.25 62.2262C11.25 59.3486 13.7517 57.0436 16.875 57.0436ZM70.3125 57.0436C73.4358 57.0436 75.9375 59.3486 75.9375 62.2262C75.9375 65.1038 73.4358 67.4087 70.3125 67.4087C67.1892 67.4087 64.6875 65.1038 64.6875 62.2262C64.6875 59.3486 67.1892 57.0436 70.3125 57.0436Z" fill="#62355C"/>
</svg>
