<svg width="30" height="9" viewBox="0 0 30 9" fill="none" xmlns="http://www.w3.org/2000/svg">
<path d="M3.04761 0.61H3.44361L6.14361 7H5.65761L4.76661 4.894H1.71561L0.824613 7H0.329613L3.04761 0.61ZM4.64061 4.516L3.24561 1.168L1.82361 4.516H4.64061ZM9.26486 7.09C8.86286 7.09 8.50286 6.985 8.18486 6.775C7.87286 6.559 7.62086 6.298 7.42886 5.992V8.917H6.97886V2.32H7.39286V3.256C7.58486 2.956 7.83986 2.713 8.15786 2.527C8.47586 2.335 8.81186 2.239 9.16586 2.239C9.49586 2.239 9.79586 2.308 10.0659 2.446C10.3359 2.578 10.5699 2.761 10.7679 2.995C10.9719 3.223 11.1279 3.481 11.2359 3.769C11.3499 4.057 11.4069 4.357 11.4069 4.669C11.4069 5.101 11.3169 5.503 11.1369 5.875C10.9569 6.241 10.7049 6.535 10.3809 6.757C10.0629 6.979 9.69086 7.09 9.26486 7.09ZM9.15686 6.685C9.43286 6.685 9.67886 6.628 9.89486 6.514C10.1169 6.4 10.3059 6.247 10.4619 6.055C10.6179 5.863 10.7379 5.647 10.8219 5.407C10.9059 5.167 10.9479 4.921 10.9479 4.669C10.9479 4.399 10.8999 4.144 10.8039 3.904C10.7079 3.658 10.5729 3.442 10.3989 3.256C10.2309 3.07 10.0329 2.923 9.80486 2.815C9.58286 2.701 9.33986 2.644 9.07586 2.644C8.91386 2.644 8.73986 2.677 8.55386 2.743C8.37386 2.809 8.19986 2.902 8.03186 3.022C7.86986 3.142 7.73486 3.28 7.62686 3.436C7.51886 3.586 7.45286 3.742 7.42886 3.904V5.443C7.53686 5.671 7.67486 5.881 7.84286 6.073C8.01686 6.259 8.21786 6.409 8.44586 6.523C8.67386 6.631 8.91086 6.685 9.15686 6.685ZM14.4516 7.09C14.1216 7.09 13.8156 7.027 13.5336 6.901C13.2576 6.775 13.0176 6.601 12.8136 6.379C12.6096 6.151 12.4506 5.89 12.3366 5.596C12.2226 5.302 12.1656 4.993 12.1656 4.669C12.1656 4.339 12.2226 4.03 12.3366 3.742C12.4506 3.448 12.6096 3.19 12.8136 2.968C13.0236 2.74 13.2666 2.563 13.5426 2.437C13.8246 2.305 14.1276 2.239 14.4516 2.239C14.7756 2.239 15.0756 2.305 15.3516 2.437C15.6276 2.563 15.8706 2.74 16.0806 2.968C16.2906 3.19 16.4526 3.448 16.5666 3.742C16.6806 4.03 16.7376 4.339 16.7376 4.669C16.7376 4.993 16.6806 5.302 16.5666 5.596C16.4526 5.89 16.2906 6.151 16.0806 6.379C15.8766 6.601 15.6336 6.775 15.3516 6.901C15.0756 7.027 14.7756 7.09 14.4516 7.09ZM12.6156 4.687C12.6156 5.053 12.6966 5.389 12.8586 5.695C13.0266 5.995 13.2486 6.235 13.5246 6.415C13.8006 6.595 14.1066 6.685 14.4426 6.685C14.7786 6.685 15.0846 6.595 15.3606 6.415C15.6426 6.229 15.8646 5.983 16.0266 5.677C16.1946 5.365 16.2786 5.026 16.2786 4.66C16.2786 4.294 16.1946 3.958 16.0266 3.652C15.8646 3.346 15.6426 3.103 15.3606 2.923C15.0846 2.737 14.7816 2.644 14.4516 2.644C14.1156 2.644 13.8096 2.737 13.5336 2.923C13.2576 3.109 13.0356 3.355 12.8676 3.661C12.6996 3.967 12.6156 4.309 12.6156 4.687ZM19.8422 6.775C19.8122 6.787 19.7522 6.817 19.6622 6.865C19.5722 6.913 19.4582 6.958 19.3202 7C19.1822 7.036 19.0292 7.054 18.8612 7.054C18.6992 7.054 18.5462 7.024 18.4022 6.964C18.2642 6.898 18.1532 6.802 18.0692 6.676C17.9852 6.55 17.9432 6.397 17.9432 6.217V2.689H17.2862V2.32H17.9432V0.718H18.3932V2.32H19.4822V2.689H18.3932V6.109C18.4052 6.283 18.4682 6.415 18.5822 6.505C18.6962 6.589 18.8282 6.631 18.9782 6.631C19.1642 6.631 19.3262 6.601 19.4642 6.541C19.6022 6.475 19.6832 6.433 19.7072 6.415L19.8422 6.775ZM22.5382 7.09C22.2082 7.09 21.9022 7.027 21.6202 6.901C21.3382 6.769 21.0922 6.592 20.8822 6.37C20.6782 6.142 20.5162 5.881 20.3962 5.587C20.2822 5.287 20.2252 4.972 20.2252 4.642C20.2252 4.198 20.3242 3.796 20.5222 3.436C20.7202 3.076 20.9932 2.788 21.3412 2.572C21.6892 2.35 22.0792 2.239 22.5112 2.239C22.9552 2.239 23.3482 2.35 23.6902 2.572C24.0322 2.794 24.3022 3.088 24.5002 3.454C24.7042 3.814 24.8062 4.21 24.8062 4.642C24.8062 4.678 24.8062 4.714 24.8062 4.75C24.8062 4.786 24.8032 4.816 24.7972 4.84H20.6932C20.7172 5.194 20.8162 5.515 20.9902 5.803C21.1642 6.091 21.3862 6.319 21.6562 6.487C21.9322 6.649 22.2322 6.73 22.5562 6.73C22.8802 6.73 23.1862 6.646 23.4742 6.478C23.7622 6.31 23.9632 6.094 24.0772 5.83L24.4732 5.938C24.3832 6.16 24.2392 6.358 24.0412 6.532C23.8492 6.706 23.6212 6.844 23.3572 6.946C23.0992 7.042 22.8262 7.09 22.5382 7.09ZM20.6752 4.489H24.3742C24.3502 4.123 24.2542 3.799 24.0862 3.517C23.9182 3.235 23.6962 3.013 23.4202 2.851C23.1502 2.689 22.8502 2.608 22.5202 2.608C22.1902 2.608 21.8902 2.689 21.6202 2.851C21.3502 3.013 21.1312 3.235 20.9632 3.517C20.7952 3.799 20.6992 4.123 20.6752 4.489ZM29.1802 7L27.3532 4.498L26.2462 5.515V7H25.7962V0.43H26.2462V5.011L29.0992 2.329H29.6122L27.6592 4.228L29.6752 7H29.1802Z" fill="black"/>
</svg>
