<svg width="90" height="70" viewBox="0 0 90 70" fill="none" xmlns="http://www.w3.org/2000/svg">
<path d="M64.9021 62.4604C64.8298 62.1816 64.6356 61.9316 64.3533 61.7538C64.0709 61.5761 63.7183 61.4819 63.3568 61.4876H29.361C28.9995 61.4819 28.6468 61.5761 28.3645 61.7538C28.0821 61.9316 27.8879 62.1816 27.8157 62.4604L26.2704 68.5405C26.224 68.7192 26.2293 68.9039 26.2859 69.0808C26.3425 69.2577 26.4489 69.4223 26.5973 69.5625C26.7457 69.7026 26.9323 69.8147 27.1432 69.8904C27.3541 69.9661 27.5839 70.0034 27.8157 69.9997H64.9021C65.1338 70.0034 65.3637 69.9661 65.5746 69.8904C65.7855 69.8147 65.9721 69.7026 66.1205 69.5625C66.2689 69.4223 66.3753 69.2577 66.4319 69.0808C66.4885 68.9039 66.4938 68.7192 66.4473 68.5405L64.9021 62.4604Z" fill="url(#paint0_linear_20_410)"/>
<path d="M83.4453 1.35536C81.0548 0.282828 78.2964 -0.171071 75.5601 0.0578791C72.8238 0.286829 70.2483 1.18704 68.1979 2.63115C66.1475 4.07526 64.726 5.99016 64.1346 8.10495C63.5431 10.2197 63.8116 12.4273 64.9021 14.4154L48.1205 34.0542C47.9609 34.2398 47.8695 34.4565 47.8566 34.6803C47.8436 34.9042 47.9095 35.1266 48.047 35.3228C48.1845 35.5191 48.3882 35.6816 48.6357 35.7925C48.8832 35.9034 49.1648 35.9583 49.4494 35.9512L67.9926 35.6472C68.277 35.6431 68.5544 35.5774 68.7943 35.4572C69.0342 35.3371 69.2274 35.1672 69.3525 34.9662L78.3614 20.5685C81.1048 20.3205 83.6792 19.3985 85.7186 17.9333C87.758 16.4681 89.1587 14.5344 89.7216 12.4069C90.2846 10.2794 89.9811 8.06646 88.8544 6.08248C87.7276 4.09849 85.835 2.44443 83.4453 1.35536Z" fill="url(#paint1_linear_20_410)"/>
<path d="M83.4453 33.5191H1.54617C1.13634 33.5191 0.743298 33.6472 0.453504 33.8753C0.163711 34.1033 0.000906268 34.4126 0.000906268 34.7351V38.3832C-0.0110436 38.6577 0.0954762 38.9274 0.303117 39.1482C0.510758 39.369 0.807285 39.528 1.1444 39.5992L7.72724 40.9733V43.4054C7.74359 48.8463 10.4996 54.0604 15.3915 57.9055C20.2835 61.7506 26.9126 63.9132 33.8268 63.9196H58.891C65.8105 63.9132 72.4443 61.7473 77.3371 57.8969C82.23 54.0466 84.9824 48.8262 84.9906 43.381V34.7351C84.9906 34.4126 84.8278 34.1033 84.538 33.8753C84.2482 33.6472 83.8551 33.5191 83.4453 33.5191Z" fill="url(#paint2_linear_20_410)"/>
<path d="M27.893 14.4397C20.7847 8.84605 3.33868 9.83103 2.59695 9.87967C2.39093 9.89182 2.1901 9.93635 2.00634 10.0106C1.82257 10.0849 1.65959 10.1874 1.52705 10.3121C1.39451 10.4369 1.29509 10.5812 1.23467 10.7367C1.17426 10.8922 1.15407 11.0556 1.17531 11.2173C1.25257 11.7037 2.92146 23.1465 12.5948 27.9133C15.9216 29.6781 19.8183 30.6609 23.8289 30.7466C26.6632 30.8092 29.448 30.1527 31.7716 28.8739C32.0222 28.7188 32.2058 28.5064 32.297 28.2659C32.4515 27.9376 35.1403 20.1429 27.893 14.4397Z" fill="url(#paint3_linear_20_410)"/>
<path d="M55.8932 5.93976C55.8447 5.78098 55.7561 5.6315 55.6327 5.50025C55.5092 5.36899 55.3534 5.25866 55.1746 5.17581C54.9958 5.09296 54.7976 5.03931 54.5918 5.01805C54.3861 4.99679 54.177 5.00836 53.9771 5.05207C53.4208 5.17367 40.2396 8.09212 36.8555 13.7466C33.4714 19.4011 38.0763 24.7881 38.2771 25.007C38.4657 25.2112 38.7303 25.3642 39.0343 25.4447C39.8927 25.6404 40.7832 25.7347 41.6767 25.7244C44.3964 25.7244 48.8313 24.934 53.0653 20.6901C58.6283 15.1329 56.0168 6.31673 55.8932 5.93976Z" fill="url(#paint4_linear_20_410)"/>
<path d="M83.4453 1.35536C81.0548 0.282828 78.2964 -0.171071 75.5601 0.0578791C72.8238 0.286829 70.2483 1.18704 68.1979 2.63115C66.1475 4.07526 64.726 5.99016 64.1345 8.10495C63.5431 10.2197 63.8116 12.4273 64.9021 14.4154L48.5686 33.5191H1.54617C1.13634 33.5191 0.743298 33.6472 0.453504 33.8753C0.163711 34.1033 0.000906268 34.4126 0.000906268 34.7351V38.3832C-0.0110436 38.6577 0.0954762 38.9274 0.303117 39.1482C0.510758 39.369 0.807285 39.528 1.1444 39.5992L7.72724 40.9733V43.4054C7.74545 47.9955 9.71477 52.4489 13.3216 56.0563C16.9284 59.6637 21.9654 62.2177 27.6303 63.3116L26.2704 68.5405C26.224 68.7192 26.2293 68.9039 26.2859 69.0808C26.3425 69.2577 26.4489 69.4223 26.5973 69.5625C26.7457 69.7026 26.9323 69.8147 27.1432 69.8904C27.3541 69.9661 27.5839 70.0034 27.8157 69.9997H64.9021C65.1339 70.0034 65.3637 69.9661 65.5746 69.8904C65.7855 69.8147 65.9721 69.7026 66.1205 69.5625C66.2689 69.4223 66.3753 69.2577 66.4319 69.0808C66.4885 68.9039 66.4938 68.7192 66.4474 68.5405L65.1184 63.3116C70.7827 62.2121 75.8165 59.6524 79.4179 56.0405C83.0192 52.4286 84.9809 47.9721 84.9906 43.3811V34.7351C84.9906 34.4126 84.8278 34.1033 84.538 33.8753C84.2482 33.6472 83.8551 33.5191 83.4453 33.5191H70.2796L78.3768 20.5685C81.1191 20.3185 83.6916 19.3949 85.7289 17.9289C87.7661 16.4629 89.1647 14.529 89.7258 12.4019C90.2869 10.2749 89.9821 8.06272 88.8547 6.07972C87.7273 4.09672 85.8345 2.44367 83.4453 1.35536ZM62.0897 63.9196L63.0169 67.5677H29.7009L30.6281 63.9196H62.0897ZM81.9 43.3811C81.8918 48.1812 79.4651 52.783 75.1518 56.1772C70.8385 59.5715 64.9909 61.4812 58.891 61.4876H33.8268C27.7269 61.4812 21.8792 59.5715 17.566 56.1772C13.2527 52.783 10.8259 48.1812 10.8178 43.3811V40.037C10.8297 39.7625 10.7232 39.4928 10.5156 39.272C10.3079 39.0512 10.0114 38.8922 9.67427 38.821L3.09144 37.459V35.9512H81.9V43.3811ZM85.5778 14.2573C84.7315 15.4148 83.5238 16.3831 82.0689 17.0704C80.614 17.7578 78.9602 18.1415 77.2642 18.1851C76.9852 18.1935 76.7143 18.2613 76.4803 18.3812C76.2463 18.5011 76.0579 18.6687 75.9353 18.8661L66.8337 33.5191H52.2927L67.8999 15.1937C68.0475 15.0142 68.1323 14.8073 68.1459 14.5938C68.1594 14.3803 68.1012 14.1678 67.9772 13.9777C67.1704 12.7599 66.7807 11.3977 66.8465 10.0253C66.9124 8.65293 67.4315 7.31774 68.3527 6.15131C69.2739 4.98487 70.5655 4.02745 72.1 3.37339C73.6346 2.71933 75.3593 2.3912 77.104 2.42134C78.8488 2.45147 80.5535 2.83884 82.0501 3.54525C83.5467 4.25167 84.7836 5.25276 85.6389 6.44988C86.4942 7.647 86.9384 8.99883 86.9277 10.3722C86.9169 11.7455 86.4517 13.0929 85.5778 14.2817V14.2573Z" fill="url(#paint5_linear_20_410)"/>
<path d="M12.5948 27.9133C18.2196 30.6736 25.2351 31.9505 30.9217 29.3117C31.8643 30.1264 32.7606 30.9533 33.5795 31.8167L36.052 30.3575C34.9798 29.2345 33.8239 28.1625 32.5906 27.1472C33.1575 24.8916 33.0327 22.5621 32.2265 20.3521C31.4202 18.142 29.9558 16.1152 27.9548 14.4397C20.8465 8.84605 3.40049 9.83103 2.65877 9.87967C2.45275 9.89182 2.25192 9.93635 2.06815 10.0106C1.88438 10.0849 1.72141 10.1874 1.58886 10.3121C1.45632 10.4369 1.3569 10.5812 1.29649 10.7367C1.23607 10.8922 1.21588 11.0556 1.23712 11.2173C1.25257 11.7037 2.92146 23.1465 12.5948 27.9133ZM25.6987 16.1543C27.1333 17.3207 28.2394 18.7119 28.945 20.2372C29.6506 21.7626 29.9398 23.3878 29.7936 25.007C24.6033 21.2786 18.9023 18.0158 12.7957 15.2788L11.3277 17.419C17.5942 20.2325 23.4186 23.616 28.681 27.4998C26.5331 28.3145 21.4338 29.3968 14.2174 25.846C7.58817 22.5749 5.22391 15.2788 4.51309 12.2388C8.91709 12.1415 20.7538 12.2631 25.6987 16.1543Z" fill="url(#paint6_linear_20_410)"/>
<path d="M39.1425 27.7795C39.4206 27.062 39.7606 26.3446 40.1315 25.6271C44.0564 26.1136 48.8931 24.861 53.0653 20.6901C58.6283 15.1329 56.0168 6.31673 55.8932 5.93976C55.8447 5.78098 55.7561 5.6315 55.6327 5.50025C55.5092 5.36899 55.3534 5.25866 55.1746 5.17581C54.9958 5.09296 54.7976 5.03931 54.5918 5.01805C54.3861 4.99679 54.177 5.00836 53.9771 5.05207C53.4208 5.17367 40.2396 8.09212 36.8555 13.7466C35.9282 15.396 35.5105 17.1947 35.6368 18.9955C35.763 20.7964 36.4296 22.548 37.5818 24.1071C37.0473 25.0719 36.5779 26.0583 36.1756 27.062L39.1425 27.7795ZM39.6524 14.7802C41.6613 11.424 49.0322 8.89469 53.189 7.80027C53.6525 10.2323 54.147 15.6801 50.6393 19.1944C47.1315 22.7087 43.4229 23.341 41.4759 23.2924C43.9694 19.5547 46.9916 16.0506 50.4848 12.8468L48.1669 11.2416C44.7813 14.334 41.8235 17.701 39.3434 21.2859C38.3469 19.1708 38.458 16.8309 39.6524 14.7802Z" fill="url(#paint7_linear_20_410)"/>
<defs>
<linearGradient id="paint0_linear_20_410" x1="46.3589" y1="61.4876" x2="46.3589" y2="69.9997" gradientUnits="userSpaceOnUse">
<stop stop-color="#00B4D8"/>
<stop offset="1" stop-color="#B3B3B3"/>
</linearGradient>
<linearGradient id="paint1_linear_20_410" x1="1479.44" y1="654.322" x2="2629.08" y2="654.322" gradientUnits="userSpaceOnUse">
<stop stop-color="#00B4D8"/>
<stop offset="1" stop-color="#B3B3B3"/>
</linearGradient>
<linearGradient id="paint2_linear_20_410" x1="2592.21" y1="975.935" x2="2592.21" y2="1735.95" gradientUnits="userSpaceOnUse">
<stop stop-color="#00B4D8"/>
<stop offset="1" stop-color="#B3B3B3"/>
</linearGradient>
<linearGradient id="paint3_linear_20_410" x1="17.0297" y1="30.7466" x2="17.0297" y2="9.78239" gradientUnits="userSpaceOnUse">
<stop stop-color="#009E77"/>
<stop offset="1" stop-color="#00D291"/>
</linearGradient>
<linearGradient id="paint4_linear_20_410" x1="724.883" y1="514.45" x2="724.883" y2="161.632" gradientUnits="userSpaceOnUse">
<stop stop-color="#009E77"/>
<stop offset="1" stop-color="#00D291"/>
</linearGradient>
<linearGradient id="paint5_linear_20_410" x1="0.000906268" y1="34.9783" x2="90.0127" y2="34.9783" gradientUnits="userSpaceOnUse">
<stop stop-color="#000406"/>
<stop offset="1" stop-color="#001521"/>
</linearGradient>
<linearGradient id="paint6_linear_20_410" x1="132.164" y1="462.347" x2="918.119" y2="462.347" gradientUnits="userSpaceOnUse">
<stop stop-color="#000406"/>
<stop offset="1" stop-color="#001521"/>
</linearGradient>
<linearGradient id="paint7_linear_20_410" x1="581.976" y1="390.307" x2="867.966" y2="390.307" gradientUnits="userSpaceOnUse">
<stop stop-color="#000406"/>
<stop offset="1" stop-color="#001521"/>
</linearGradient>
</defs>
</svg>
