<svg width="97" height="10" viewBox="0 0 97 10" fill="none" xmlns="http://www.w3.org/2000/svg">
<path d="M0.205438 3.76C0.205438 3.376 0.271438 2.998 0.403438 2.626C0.541438 2.248 0.739438 1.906 0.997438 1.6C1.25544 1.288 1.57044 1.039 1.94244 0.853C2.31444 0.667 2.74044 0.574 3.22044 0.574C3.79044 0.574 4.27344 0.706 4.66944 0.97C5.06544 1.228 5.35944 1.561 5.55144 1.969L5.38044 2.023C5.21844 1.711 5.01744 1.462 4.77744 1.276C4.53744 1.09 4.27944 0.958 4.00344 0.88C3.73344 0.796 3.46044 0.754 3.18444 0.754C2.74044 0.754 2.34444 0.841 1.99644 1.015C1.64844 1.189 1.35444 1.423 1.11444 1.717C0.874438 2.011 0.691438 2.338 0.565438 2.698C0.445438 3.052 0.385438 3.415 0.385438 3.787C0.385438 4.195 0.457438 4.585 0.601438 4.957C0.745438 5.323 0.946438 5.65 1.20444 5.938C1.46244 6.226 1.76244 6.454 2.10444 6.622C2.44644 6.79 2.81544 6.874 3.21144 6.874C3.49344 6.874 3.78144 6.826 4.07544 6.73C4.36944 6.634 4.64544 6.487 4.90344 6.289C5.16144 6.091 5.37144 5.836 5.53344 5.524L5.70444 5.569C5.56044 5.887 5.35044 6.157 5.07444 6.379C4.79844 6.601 4.49244 6.769 4.15644 6.883C3.82644 6.997 3.49944 7.054 3.17544 7.054C2.74344 7.054 2.34444 6.961 1.97844 6.775C1.61844 6.583 1.30344 6.331 1.03344 6.019C0.769438 5.701 0.565438 5.347 0.421438 4.957C0.277438 4.561 0.205438 4.162 0.205438 3.76ZM6.39983 5.659C6.39983 5.395 6.48083 5.164 6.64283 4.966C6.81083 4.768 7.03883 4.612 7.32683 4.498C7.61483 4.384 7.94783 4.327 8.32583 4.327C8.58983 4.327 8.85983 4.351 9.13583 4.399C9.41783 4.441 9.66983 4.504 9.89183 4.588V4.057C9.89183 3.571 9.75083 3.181 9.46883 2.887C9.19283 2.587 8.82383 2.437 8.36183 2.437C8.13983 2.437 7.89683 2.488 7.63283 2.59C7.37483 2.686 7.11383 2.827 6.84983 3.013L6.74183 2.869C7.04183 2.665 7.32683 2.512 7.59683 2.41C7.86683 2.308 8.12183 2.257 8.36183 2.257C8.88383 2.257 9.29783 2.419 9.60383 2.743C9.91583 3.067 10.0718 3.505 10.0718 4.057V6.64C10.0718 6.7 10.0838 6.745 10.1078 6.775C10.1378 6.805 10.1738 6.82 10.2158 6.82V7C10.1798 7 10.1528 7 10.1348 7C10.1168 6.994 10.1018 6.988 10.0898 6.982C10.0298 6.958 9.98183 6.916 9.94583 6.856C9.90983 6.79 9.89183 6.718 9.89183 6.64V6.208C9.67583 6.484 9.39383 6.7 9.04583 6.856C8.69783 7.012 8.31983 7.09 7.91183 7.09C7.62983 7.09 7.37483 7.027 7.14683 6.901C6.91883 6.775 6.73583 6.604 6.59783 6.388C6.46583 6.166 6.39983 5.923 6.39983 5.659ZM9.75683 6.082C9.80483 6.016 9.83783 5.953 9.85583 5.893C9.87983 5.827 9.89183 5.767 9.89183 5.713V4.786C9.65183 4.69 9.39983 4.621 9.13583 4.579C8.87783 4.531 8.60783 4.507 8.32583 4.507C7.80383 4.507 7.38083 4.612 7.05683 4.822C6.73883 5.032 6.57983 5.311 6.57983 5.659C6.57983 5.893 6.63683 6.106 6.75083 6.298C6.87083 6.484 7.03283 6.634 7.23683 6.748C7.44083 6.856 7.66583 6.91 7.91183 6.91C8.31383 6.91 8.67983 6.835 9.00983 6.685C9.34583 6.535 9.59483 6.334 9.75683 6.082ZM13.5226 2.509C13.0846 2.527 12.7036 2.674 12.3796 2.95C12.0556 3.22 11.8306 3.586 11.7046 4.048V7H11.5246V2.329H11.7046V3.535C11.8666 3.205 12.0826 2.935 12.3526 2.725C12.6286 2.509 12.9196 2.383 13.2256 2.347C13.2856 2.341 13.3396 2.338 13.3876 2.338C13.4416 2.332 13.4866 2.329 13.5226 2.329V2.509ZM14.4337 7V2.329H14.6137V7H14.4337ZM14.4337 1.123V0.43H14.6137V1.123H14.4337ZM18.6178 8.827C18.7198 8.827 18.8068 8.821 18.8788 8.809C18.9568 8.803 19.0108 8.779 19.0408 8.737C19.0648 8.707 19.0978 8.647 19.1398 8.557C19.1818 8.473 19.2538 8.311 19.3558 8.071C19.4638 7.831 19.6198 7.474 19.8238 7L17.6548 2.329H17.8528L19.9138 6.775L21.8668 2.329H22.0648L19.2838 8.674C19.2598 8.728 19.2328 8.773 19.2028 8.809C19.1728 8.851 19.1398 8.884 19.1038 8.908C19.0738 8.932 19.0348 8.95 18.9868 8.962C18.9328 8.974 18.8728 8.983 18.8068 8.989C18.7468 9.001 18.6838 9.007 18.6178 9.007V8.827ZM22.5278 5.659C22.5278 5.395 22.6088 5.164 22.7708 4.966C22.9388 4.768 23.1668 4.612 23.4548 4.498C23.7428 4.384 24.0758 4.327 24.4538 4.327C24.7178 4.327 24.9878 4.351 25.2638 4.399C25.5458 4.441 25.7978 4.504 26.0198 4.588V4.057C26.0198 3.571 25.8788 3.181 25.5968 2.887C25.3208 2.587 24.9518 2.437 24.4898 2.437C24.2678 2.437 24.0248 2.488 23.7608 2.59C23.5028 2.686 23.2418 2.827 22.9778 3.013L22.8698 2.869C23.1698 2.665 23.4548 2.512 23.7248 2.41C23.9948 2.308 24.2498 2.257 24.4898 2.257C25.0118 2.257 25.4258 2.419 25.7318 2.743C26.0438 3.067 26.1998 3.505 26.1998 4.057V6.64C26.1998 6.7 26.2118 6.745 26.2358 6.775C26.2658 6.805 26.3018 6.82 26.3438 6.82V7C26.3078 7 26.2808 7 26.2628 7C26.2448 6.994 26.2298 6.988 26.2178 6.982C26.1578 6.958 26.1098 6.916 26.0738 6.856C26.0378 6.79 26.0198 6.718 26.0198 6.64V6.208C25.8038 6.484 25.5218 6.7 25.1738 6.856C24.8258 7.012 24.4478 7.09 24.0398 7.09C23.7578 7.09 23.5028 7.027 23.2748 6.901C23.0468 6.775 22.8638 6.604 22.7258 6.388C22.5938 6.166 22.5278 5.923 22.5278 5.659ZM25.8848 6.082C25.9328 6.016 25.9658 5.953 25.9838 5.893C26.0078 5.827 26.0198 5.767 26.0198 5.713V4.786C25.7798 4.69 25.5278 4.621 25.2638 4.579C25.0058 4.531 24.7358 4.507 24.4538 4.507C23.9318 4.507 23.5088 4.612 23.1848 4.822C22.8668 5.032 22.7078 5.311 22.7078 5.659C22.7078 5.893 22.7648 6.106 22.8788 6.298C22.9988 6.484 23.1608 6.634 23.3648 6.748C23.5688 6.856 23.7938 6.91 24.0398 6.91C24.4418 6.91 24.8078 6.835 25.1378 6.685C25.4738 6.535 25.7228 6.334 25.8848 6.082ZM31.2795 7H31.0995V4.399C31.0995 3.721 31.0035 3.226 30.8115 2.914C30.6255 2.596 30.3225 2.437 29.9025 2.437C29.6025 2.437 29.3085 2.509 29.0205 2.653C28.7385 2.791 28.4925 2.983 28.2825 3.229C28.0725 3.469 27.9225 3.742 27.8325 4.048V7H27.6525V2.329H27.8325V3.535C27.9645 3.283 28.1385 3.061 28.3545 2.869C28.5705 2.677 28.8105 2.527 29.0745 2.419C29.3445 2.311 29.6175 2.257 29.8935 2.257C30.1335 2.257 30.3405 2.302 30.5145 2.392C30.6885 2.476 30.8325 2.605 30.9465 2.779C31.0605 2.953 31.1445 3.175 31.1985 3.445C31.2525 3.715 31.2795 4.033 31.2795 4.399V7ZM34.6494 7.09C34.3254 7.09 34.0254 7.021 33.7494 6.883C33.4734 6.745 33.2334 6.562 33.0294 6.334C32.8314 6.1 32.6754 5.842 32.5614 5.56C32.4534 5.272 32.3994 4.978 32.3994 4.678C32.3994 4.366 32.4504 4.066 32.5524 3.778C32.6604 3.484 32.8104 3.223 33.0024 2.995C33.1944 2.767 33.4224 2.587 33.6864 2.455C33.9564 2.323 34.2504 2.257 34.5684 2.257C34.9944 2.257 35.3634 2.371 35.6754 2.599C35.9874 2.827 36.2544 3.1 36.4764 3.418V2.329H36.6564V7.198C36.6564 7.606 36.5574 7.945 36.3594 8.215C36.1674 8.485 35.9124 8.683 35.5944 8.809C35.2824 8.941 34.9494 9.007 34.5954 9.007C34.0434 9.007 33.6114 8.902 33.2994 8.692C32.9874 8.488 32.7444 8.221 32.5704 7.891L32.7414 7.837C32.9334 8.185 33.1944 8.437 33.5244 8.593C33.8604 8.749 34.2174 8.827 34.5954 8.827C34.9374 8.827 35.2494 8.764 35.5314 8.638C35.8194 8.518 36.0474 8.335 36.2154 8.089C36.3894 7.849 36.4764 7.552 36.4764 7.198V6.028C36.2784 6.34 36.0114 6.595 35.6754 6.793C35.3454 6.991 35.0034 7.09 34.6494 7.09ZM34.6494 6.91C34.8714 6.91 35.0874 6.868 35.2974 6.784C35.5074 6.7 35.6994 6.589 35.8734 6.451C36.0474 6.307 36.1884 6.151 36.2964 5.983C36.4044 5.815 36.4644 5.647 36.4764 5.479V3.796C36.3804 3.532 36.2304 3.298 36.0264 3.094C35.8284 2.89 35.6034 2.731 35.3514 2.617C35.0994 2.497 34.8384 2.437 34.5684 2.437C34.2564 2.437 33.9744 2.503 33.7224 2.635C33.4764 2.767 33.2694 2.944 33.1014 3.166C32.9334 3.382 32.8044 3.622 32.7144 3.886C32.6244 4.15 32.5794 4.414 32.5794 4.678C32.5794 4.972 32.6304 5.254 32.7324 5.524C32.8404 5.788 32.9904 6.025 33.1824 6.235C33.3744 6.445 33.5934 6.61 33.8394 6.73C34.0914 6.85 34.3614 6.91 34.6494 6.91ZM40.1059 5.659C40.1059 5.395 40.1869 5.164 40.3489 4.966C40.5169 4.768 40.7449 4.612 41.0329 4.498C41.3209 4.384 41.6539 4.327 42.0319 4.327C42.2959 4.327 42.5659 4.351 42.8419 4.399C43.1239 4.441 43.3759 4.504 43.5979 4.588V4.057C43.5979 3.571 43.4569 3.181 43.1749 2.887C42.8989 2.587 42.5299 2.437 42.0679 2.437C41.8459 2.437 41.6029 2.488 41.3389 2.59C41.0809 2.686 40.8199 2.827 40.5559 3.013L40.4479 2.869C40.7479 2.665 41.0329 2.512 41.3029 2.41C41.5729 2.308 41.8279 2.257 42.0679 2.257C42.5899 2.257 43.0039 2.419 43.3099 2.743C43.6219 3.067 43.7779 3.505 43.7779 4.057V6.64C43.7779 6.7 43.7899 6.745 43.8139 6.775C43.8439 6.805 43.8799 6.82 43.9219 6.82V7C43.8859 7 43.8589 7 43.8409 7C43.8229 6.994 43.8079 6.988 43.7959 6.982C43.7359 6.958 43.6879 6.916 43.6519 6.856C43.6159 6.79 43.5979 6.718 43.5979 6.64V6.208C43.3819 6.484 43.0999 6.7 42.7519 6.856C42.4039 7.012 42.0259 7.09 41.6179 7.09C41.3359 7.09 41.0809 7.027 40.8529 6.901C40.6249 6.775 40.4419 6.604 40.3039 6.388C40.1719 6.166 40.1059 5.923 40.1059 5.659ZM43.4629 6.082C43.5109 6.016 43.5439 5.953 43.5619 5.893C43.5859 5.827 43.5979 5.767 43.5979 5.713V4.786C43.3579 4.69 43.1059 4.621 42.8419 4.579C42.5839 4.531 42.3139 4.507 42.0319 4.507C41.5099 4.507 41.0869 4.612 40.7629 4.822C40.4449 5.032 40.2859 5.311 40.2859 5.659C40.2859 5.893 40.3429 6.106 40.4569 6.298C40.5769 6.484 40.7389 6.634 40.9429 6.748C41.1469 6.856 41.3719 6.91 41.6179 6.91C42.0199 6.91 42.3859 6.835 42.7159 6.685C43.0519 6.535 43.3009 6.334 43.4629 6.082ZM48.8576 7H48.6776V4.399C48.6776 3.721 48.5816 3.226 48.3896 2.914C48.2036 2.596 47.9006 2.437 47.4806 2.437C47.1806 2.437 46.8866 2.509 46.5986 2.653C46.3166 2.791 46.0706 2.983 45.8606 3.229C45.6506 3.469 45.5006 3.742 45.4106 4.048V7H45.2306V2.329H45.4106V3.535C45.5426 3.283 45.7166 3.061 45.9326 2.869C46.1486 2.677 46.3886 2.527 46.6526 2.419C46.9226 2.311 47.1956 2.257 47.4716 2.257C47.7116 2.257 47.9186 2.302 48.0926 2.392C48.2666 2.476 48.4106 2.605 48.5246 2.779C48.6386 2.953 48.7226 3.175 48.7766 3.445C48.8306 3.715 48.8576 4.033 48.8576 4.399V7ZM49.9775 4.678C49.9775 4.246 50.0705 3.847 50.2565 3.481C50.4485 3.115 50.7065 2.821 51.0305 2.599C51.3605 2.371 51.7325 2.257 52.1465 2.257C52.5725 2.257 52.9505 2.374 53.2805 2.608C53.6105 2.836 53.8685 3.106 54.0545 3.418V0.43H54.2345V6.64C54.2345 6.694 54.2465 6.739 54.2705 6.775C54.3005 6.805 54.3365 6.82 54.3785 6.82V7C54.3245 7 54.2855 6.994 54.2615 6.982C54.1955 6.952 54.1445 6.907 54.1085 6.847C54.0725 6.781 54.0545 6.712 54.0545 6.64V6.028C53.8565 6.34 53.5895 6.595 53.2535 6.793C52.9235 6.991 52.5815 7.09 52.2275 7.09C51.9035 7.09 51.6035 7.021 51.3275 6.883C51.0515 6.745 50.8115 6.562 50.6075 6.334C50.4095 6.1 50.2535 5.842 50.1395 5.56C50.0315 5.272 49.9775 4.978 49.9775 4.678ZM54.0545 5.479V3.796C53.9645 3.544 53.8175 3.316 53.6135 3.112C53.4095 2.908 53.1755 2.746 52.9115 2.626C52.6535 2.5 52.3985 2.437 52.1465 2.437C51.8405 2.437 51.5645 2.5 51.3185 2.626C51.0785 2.752 50.8715 2.923 50.6975 3.139C50.5235 3.355 50.3885 3.595 50.2925 3.859C50.2025 4.123 50.1575 4.396 50.1575 4.678C50.1575 4.972 50.2085 5.254 50.3105 5.524C50.4185 5.788 50.5685 6.025 50.7605 6.235C50.9525 6.445 51.1715 6.61 51.4175 6.73C51.6695 6.85 51.9395 6.91 52.2275 6.91C52.4075 6.91 52.5995 6.874 52.8035 6.802C53.0135 6.724 53.2115 6.619 53.3975 6.487C53.5835 6.349 53.7365 6.196 53.8565 6.028C53.9765 5.854 54.0425 5.671 54.0545 5.479ZM55.3461 5.659C55.3461 5.395 55.4271 5.164 55.5891 4.966C55.7571 4.768 55.9851 4.612 56.2731 4.498C56.5611 4.384 56.8941 4.327 57.2721 4.327C57.5361 4.327 57.8061 4.351 58.0821 4.399C58.3641 4.441 58.6161 4.504 58.8381 4.588V4.057C58.8381 3.571 58.6971 3.181 58.4151 2.887C58.1391 2.587 57.7701 2.437 57.3081 2.437C57.0861 2.437 56.8431 2.488 56.5791 2.59C56.3211 2.686 56.0601 2.827 55.7961 3.013L55.6881 2.869C55.9881 2.665 56.2731 2.512 56.5431 2.41C56.8131 2.308 57.0681 2.257 57.3081 2.257C57.8301 2.257 58.2441 2.419 58.5501 2.743C58.8621 3.067 59.0181 3.505 59.0181 4.057V6.64C59.0181 6.7 59.0301 6.745 59.0541 6.775C59.0841 6.805 59.1201 6.82 59.1621 6.82V7C59.1261 7 59.0991 7 59.0811 7C59.0631 6.994 59.0481 6.988 59.0361 6.982C58.9761 6.958 58.9281 6.916 58.8921 6.856C58.8561 6.79 58.8381 6.718 58.8381 6.64V6.208C58.6221 6.484 58.3401 6.7 57.9921 6.856C57.6441 7.012 57.2661 7.09 56.8581 7.09C56.5761 7.09 56.3211 7.027 56.0931 6.901C55.8651 6.775 55.6821 6.604 55.5441 6.388C55.4121 6.166 55.3461 5.923 55.3461 5.659ZM58.7031 6.082C58.7511 6.016 58.7841 5.953 58.8021 5.893C58.8261 5.827 58.8381 5.767 58.8381 5.713V4.786C58.5981 4.69 58.3461 4.621 58.0821 4.579C57.8241 4.531 57.5541 4.507 57.2721 4.507C56.7501 4.507 56.3271 4.612 56.0031 4.822C55.6851 5.032 55.5261 5.311 55.5261 5.659C55.5261 5.893 55.5831 6.106 55.6971 6.298C55.8171 6.484 55.9791 6.634 56.1831 6.748C56.3871 6.856 56.6121 6.91 56.8581 6.91C57.2601 6.91 57.6261 6.835 57.9561 6.685C58.2921 6.535 58.5411 6.334 58.7031 6.082ZM64.9055 7.09C64.4915 7.09 64.1195 6.976 63.7895 6.748C63.4655 6.514 63.2015 6.241 62.9975 5.929V8.917H62.8175V2.329H62.9975V3.319C63.1955 3.007 63.4595 2.752 63.7895 2.554C64.1255 2.356 64.4705 2.257 64.8245 2.257C65.1545 2.257 65.4545 2.326 65.7245 2.464C66.0005 2.602 66.2375 2.788 66.4355 3.022C66.6395 3.25 66.7955 3.508 66.9035 3.796C67.0175 4.084 67.0745 4.378 67.0745 4.678C67.0745 5.104 66.9845 5.5 66.8045 5.866C66.6245 6.232 66.3725 6.529 66.0485 6.757C65.7245 6.979 65.3435 7.09 64.9055 7.09ZM64.9055 6.91C65.2115 6.91 65.4845 6.847 65.7245 6.721C65.9705 6.595 66.1805 6.424 66.3545 6.208C66.5285 5.992 66.6605 5.752 66.7505 5.488C66.8465 5.224 66.8945 4.954 66.8945 4.678C66.8945 4.384 66.8405 4.105 66.7325 3.841C66.6305 3.571 66.4835 3.331 66.2915 3.121C66.0995 2.911 65.8775 2.746 65.6255 2.626C65.3795 2.5 65.1125 2.437 64.8245 2.437C64.6445 2.437 64.4495 2.476 64.2395 2.554C64.0355 2.632 63.8405 2.74 63.6545 2.878C63.4685 3.01 63.3155 3.163 63.1955 3.337C63.0755 3.505 63.0095 3.682 62.9975 3.868V5.551C63.1115 5.803 63.2645 6.031 63.4565 6.235C63.6485 6.439 63.8675 6.604 64.1135 6.73C64.3655 6.85 64.6295 6.91 64.9055 6.91ZM70.1484 7.09C69.8424 7.09 69.5514 7.027 69.2754 6.901C69.0054 6.769 68.7654 6.592 68.5554 6.37C68.3514 6.142 68.1894 5.881 68.0694 5.587C67.9554 5.287 67.8984 4.969 67.8984 4.633C67.8984 4.195 67.9974 3.796 68.1954 3.436C68.3934 3.076 68.6574 2.791 68.9874 2.581C69.3234 2.365 69.6954 2.257 70.1034 2.257C70.5174 2.257 70.8924 2.365 71.2284 2.581C71.5704 2.797 71.8434 3.088 72.0474 3.454C72.2514 3.814 72.3534 4.219 72.3534 4.669C72.3534 4.687 72.3534 4.705 72.3534 4.723C72.3534 4.735 72.3534 4.75 72.3534 4.768H68.0784C68.1084 5.17 68.2194 5.533 68.4114 5.857C68.6034 6.181 68.8524 6.439 69.1584 6.631C69.4644 6.817 69.7974 6.91 70.1574 6.91C70.5174 6.91 70.8534 6.82 71.1654 6.64C71.4774 6.454 71.6994 6.217 71.8314 5.929L72.0024 5.974C71.9184 6.184 71.7804 6.376 71.5884 6.55C71.4024 6.718 71.1834 6.85 70.9314 6.946C70.6794 7.042 70.4184 7.09 70.1484 7.09ZM68.0784 4.588H72.1644C72.1404 4.168 72.0354 3.799 71.8494 3.481C71.6634 3.157 71.4204 2.902 71.1204 2.716C70.8204 2.53 70.4844 2.437 70.1124 2.437C69.7464 2.437 69.4134 2.53 69.1134 2.716C68.8134 2.902 68.5704 3.157 68.3844 3.481C68.2044 3.805 68.1024 4.174 68.0784 4.588ZM75.4239 2.509C74.9859 2.527 74.6049 2.674 74.2809 2.95C73.9569 3.22 73.7319 3.586 73.6059 4.048V7H73.4259V2.329H73.6059V3.535C73.7679 3.205 73.9839 2.935 74.2539 2.725C74.5299 2.509 74.8209 2.383 75.1269 2.347C75.1869 2.341 75.2409 2.338 75.2889 2.338C75.3429 2.332 75.3879 2.329 75.4239 2.329V2.509ZM76.3891 0.43H76.5691V6.307C76.5691 6.481 76.6231 6.619 76.7311 6.721C76.8391 6.823 76.9831 6.874 77.1631 6.874C77.2291 6.874 77.3071 6.868 77.3971 6.856C77.4931 6.838 77.5801 6.817 77.6581 6.793L77.7211 6.937C77.6431 6.961 77.5411 6.985 77.4151 7.009C77.2891 7.033 77.1841 7.045 77.1001 7.045C76.8901 7.045 76.7191 6.979 76.5871 6.847C76.4551 6.709 76.3891 6.529 76.3891 6.307V0.43ZM78.4256 4.948V2.329H78.6056V4.948C78.6056 5.608 78.7136 6.1 78.9296 6.424C79.1516 6.748 79.4846 6.91 79.9286 6.91C80.2286 6.91 80.5166 6.841 80.7926 6.703C81.0686 6.565 81.3086 6.376 81.5126 6.136C81.7226 5.89 81.8726 5.611 81.9626 5.299V2.329H82.1426V6.64C82.1426 6.694 82.1546 6.739 82.1786 6.775C82.2086 6.805 82.2446 6.82 82.2866 6.82V7C82.2506 7 82.2236 7 82.2056 7C82.1876 6.994 82.1726 6.988 82.1606 6.982C82.1006 6.958 82.0526 6.916 82.0166 6.856C81.9806 6.79 81.9626 6.718 81.9626 6.64V5.812C81.7586 6.202 81.4736 6.514 81.1076 6.748C80.7416 6.976 80.3486 7.09 79.9286 7.09C79.4366 7.09 79.0616 6.91 78.8036 6.55C78.5516 6.19 78.4256 5.656 78.4256 4.948ZM87.1032 7L85.1142 4.327L83.8452 5.479V7H83.6652V0.43H83.8452V5.236L87.0312 2.347H87.2742L85.2492 4.201L87.3192 7H87.1032ZM87.769 5.659C87.769 5.395 87.85 5.164 88.012 4.966C88.18 4.768 88.408 4.612 88.696 4.498C88.984 4.384 89.317 4.327 89.695 4.327C89.959 4.327 90.229 4.351 90.505 4.399C90.787 4.441 91.039 4.504 91.261 4.588V4.057C91.261 3.571 91.12 3.181 90.838 2.887C90.562 2.587 90.193 2.437 89.731 2.437C89.509 2.437 89.266 2.488 89.002 2.59C88.744 2.686 88.483 2.827 88.219 3.013L88.111 2.869C88.411 2.665 88.696 2.512 88.966 2.41C89.236 2.308 89.491 2.257 89.731 2.257C90.253 2.257 90.667 2.419 90.973 2.743C91.285 3.067 91.441 3.505 91.441 4.057V6.64C91.441 6.7 91.453 6.745 91.477 6.775C91.507 6.805 91.543 6.82 91.585 6.82V7C91.549 7 91.522 7 91.504 7C91.486 6.994 91.471 6.988 91.459 6.982C91.399 6.958 91.351 6.916 91.315 6.856C91.279 6.79 91.261 6.718 91.261 6.64V6.208C91.045 6.484 90.763 6.7 90.415 6.856C90.067 7.012 89.689 7.09 89.281 7.09C88.999 7.09 88.744 7.027 88.516 6.901C88.288 6.775 88.105 6.604 87.967 6.388C87.835 6.166 87.769 5.923 87.769 5.659ZM91.126 6.082C91.174 6.016 91.207 5.953 91.225 5.893C91.249 5.827 91.261 5.767 91.261 5.713V4.786C91.021 4.69 90.769 4.621 90.505 4.579C90.247 4.531 89.977 4.507 89.695 4.507C89.173 4.507 88.75 4.612 88.426 4.822C88.108 5.032 87.949 5.311 87.949 5.659C87.949 5.893 88.006 6.106 88.12 6.298C88.24 6.484 88.402 6.634 88.606 6.748C88.81 6.856 89.035 6.91 89.281 6.91C89.683 6.91 90.049 6.835 90.379 6.685C90.715 6.535 90.964 6.334 91.126 6.082ZM96.5207 7H96.3407V4.399C96.3407 3.721 96.2447 3.226 96.0527 2.914C95.8667 2.596 95.5637 2.437 95.1437 2.437C94.8437 2.437 94.5497 2.509 94.2617 2.653C93.9797 2.791 93.7337 2.983 93.5237 3.229C93.3137 3.469 93.1637 3.742 93.0737 4.048V7H92.8937V2.329H93.0737V3.535C93.2057 3.283 93.3797 3.061 93.5957 2.869C93.8117 2.677 94.0517 2.527 94.3157 2.419C94.5857 2.311 94.8587 2.257 95.1347 2.257C95.3747 2.257 95.5817 2.302 95.7557 2.392C95.9297 2.476 96.0737 2.605 96.1877 2.779C96.3017 2.953 96.3857 3.175 96.4397 3.445C96.4937 3.715 96.5207 4.033 96.5207 4.399V7Z" fill="black"/>
</svg>
