<svg width="36" height="9" viewBox="0 0 36 9" fill="none" xmlns="http://www.w3.org/2000/svg">
<path d="M0.330082 3.76C0.330082 3.376 0.396082 2.998 0.528082 2.626C0.666082 2.248 0.864082 1.906 1.12208 1.6C1.38008 1.288 1.69508 1.039 2.06708 0.853C2.44508 0.667 2.87408 0.574 3.35408 0.574C3.92408 0.574 4.41008 0.706 4.81208 0.97C5.21408 1.228 5.51408 1.561 5.71208 1.969L5.33408 2.185C5.18408 1.891 4.99808 1.657 4.77608 1.483C4.56008 1.309 4.32608 1.186 4.07408 1.114C3.82208 1.036 3.57008 0.997 3.31808 0.997C2.91608 0.997 2.55608 1.078 2.23808 1.24C1.92608 1.402 1.66208 1.618 1.44608 1.888C1.23008 2.158 1.06508 2.458 0.951082 2.788C0.843082 3.118 0.789082 3.451 0.789082 3.787C0.789082 4.165 0.855082 4.525 0.987082 4.867C1.11908 5.203 1.29908 5.503 1.52708 5.767C1.76108 6.031 2.03108 6.241 2.33708 6.397C2.64908 6.553 2.98508 6.631 3.34508 6.631C3.60308 6.631 3.86408 6.589 4.12808 6.505C4.39808 6.415 4.65008 6.28 4.88408 6.1C5.11808 5.914 5.30708 5.674 5.45108 5.38L5.84708 5.569C5.70908 5.887 5.50208 6.157 5.22608 6.379C4.95008 6.601 4.64408 6.769 4.30808 6.883C3.97208 6.997 3.63908 7.054 3.30908 7.054C2.87708 7.054 2.47808 6.961 2.11208 6.775C1.74608 6.583 1.42808 6.331 1.15808 6.019C0.894082 5.701 0.690082 5.347 0.546082 4.957C0.402082 4.561 0.330082 4.162 0.330082 3.76ZM8.81195 7.09C8.48195 7.09 8.17595 7.027 7.89395 6.901C7.61795 6.775 7.37795 6.601 7.17395 6.379C6.96995 6.151 6.81095 5.89 6.69695 5.596C6.58295 5.302 6.52595 4.993 6.52595 4.669C6.52595 4.339 6.58295 4.03 6.69695 3.742C6.81095 3.448 6.96995 3.19 7.17395 2.968C7.38395 2.74 7.62695 2.563 7.90295 2.437C8.18495 2.305 8.48795 2.239 8.81195 2.239C9.13595 2.239 9.43595 2.305 9.71195 2.437C9.98795 2.563 10.2309 2.74 10.4409 2.968C10.6509 3.19 10.8129 3.448 10.9269 3.742C11.0409 4.03 11.0979 4.339 11.0979 4.669C11.0979 4.993 11.0409 5.302 10.9269 5.596C10.8129 5.89 10.6509 6.151 10.4409 6.379C10.2369 6.601 9.99395 6.775 9.71195 6.901C9.43595 7.027 9.13595 7.09 8.81195 7.09ZM6.97595 4.687C6.97595 5.053 7.05695 5.389 7.21895 5.695C7.38695 5.995 7.60895 6.235 7.88495 6.415C8.16095 6.595 8.46695 6.685 8.80295 6.685C9.13895 6.685 9.44495 6.595 9.72095 6.415C10.0029 6.229 10.2249 5.983 10.3869 5.677C10.5549 5.365 10.6389 5.026 10.6389 4.66C10.6389 4.294 10.5549 3.958 10.3869 3.652C10.2249 3.346 10.0029 3.103 9.72095 2.923C9.44495 2.737 9.14195 2.644 8.81195 2.644C8.47595 2.644 8.16995 2.737 7.89395 2.923C7.61795 3.109 7.39595 3.355 7.22795 3.661C7.05995 3.967 6.97595 4.309 6.97595 4.687ZM13.4491 7L11.4961 2.32H11.9731L13.6921 6.523L15.4201 2.32H15.8701L13.9171 7H13.4491ZM16.764 7V2.32H17.214V7H16.764ZM16.764 1.258V0.43H17.214V1.258H16.764ZM18.3033 4.669C18.3033 4.231 18.3963 3.829 18.5823 3.463C18.7683 3.097 19.0233 2.803 19.3473 2.581C19.6713 2.353 20.0403 2.239 20.4543 2.239C20.8623 2.239 21.2223 2.347 21.5343 2.563C21.8523 2.779 22.1013 3.037 22.2813 3.337V0.43H22.7313V6.406C22.7313 6.478 22.7463 6.532 22.7763 6.568C22.8123 6.604 22.8603 6.625 22.9203 6.631V7C22.8243 7.012 22.7523 7.015 22.7043 7.009C22.5963 6.991 22.5063 6.94 22.4343 6.856C22.3623 6.772 22.3263 6.682 22.3263 6.586V6.064C22.1343 6.376 21.8763 6.625 21.5523 6.811C21.2283 6.997 20.8953 7.09 20.5533 7.09C20.2293 7.09 19.9293 7.024 19.6533 6.892C19.3773 6.754 19.1373 6.571 18.9333 6.343C18.7353 6.115 18.5793 5.857 18.4653 5.569C18.3573 5.281 18.3033 4.981 18.3033 4.669ZM22.2813 5.425V3.886C22.1973 3.658 22.0623 3.451 21.8763 3.265C21.6903 3.073 21.4803 2.923 21.2463 2.815C21.0123 2.701 20.7813 2.644 20.5533 2.644C20.2833 2.644 20.0373 2.701 19.8153 2.815C19.5993 2.929 19.4103 3.082 19.2483 3.274C19.0923 3.466 18.9723 3.685 18.8883 3.931C18.8043 4.171 18.7623 4.42 18.7623 4.678C18.7623 4.942 18.8103 5.197 18.9063 5.443C19.0023 5.683 19.1343 5.899 19.3023 6.091C19.4763 6.277 19.6743 6.424 19.8963 6.532C20.1243 6.634 20.3703 6.685 20.6343 6.685C20.7963 6.685 20.9673 6.652 21.1473 6.586C21.3333 6.52 21.5073 6.43 21.6693 6.316C21.8373 6.196 21.9753 6.061 22.0833 5.911C22.1973 5.755 22.2633 5.593 22.2813 5.425ZM24.0654 4.759V4.345H26.6574V4.759H24.0654ZM30.628 6.586V7H27.757V6.586H29.035V2.428C28.981 2.5 28.897 2.578 28.783 2.662C28.669 2.746 28.54 2.827 28.396 2.905C28.252 2.983 28.105 3.046 27.955 3.094C27.805 3.142 27.67 3.166 27.55 3.166V2.716C27.7 2.716 27.856 2.677 28.018 2.599C28.186 2.515 28.345 2.422 28.495 2.32C28.645 2.212 28.768 2.113 28.864 2.023C28.966 1.933 29.023 1.879 29.035 1.861H29.485V6.586H30.628ZM31.1518 4.048C31.1518 4.45 31.2478 4.816 31.4398 5.146C31.6378 5.47 31.9018 5.731 32.2318 5.929C32.5618 6.127 32.9308 6.226 33.3388 6.226C33.6268 6.226 33.8968 6.172 34.1488 6.064C34.4008 5.956 34.6228 5.803 34.8148 5.605C35.0068 5.407 35.1448 5.182 35.2288 4.93C35.2288 5.578 35.1508 6.13 34.9948 6.586C34.8388 7.036 34.6198 7.381 34.3378 7.621C34.0558 7.861 33.7258 7.981 33.3478 7.981C32.9938 7.981 32.6728 7.882 32.3848 7.684C32.0968 7.486 31.8928 7.225 31.7728 6.901L31.4578 7.144C31.6198 7.528 31.8688 7.831 32.2048 8.053C32.5408 8.275 32.9218 8.386 33.3478 8.386C33.8098 8.386 34.2148 8.245 34.5628 7.963C34.9108 7.681 35.1808 7.252 35.3728 6.676C35.5708 6.094 35.6698 5.356 35.6698 4.462C35.6698 3.922 35.5708 3.46 35.3728 3.076C35.1808 2.686 34.9138 2.386 34.5718 2.176C34.2298 1.966 33.8368 1.861 33.3928 1.861C32.9788 1.861 32.6008 1.96 32.2588 2.158C31.9168 2.35 31.6468 2.614 31.4488 2.95C31.2508 3.28 31.1518 3.646 31.1518 4.048ZM33.3838 2.266C33.7078 2.266 34.0048 2.347 34.2748 2.509C34.5508 2.671 34.7698 2.887 34.9318 3.157C35.0998 3.427 35.1838 3.724 35.1838 4.048C35.1838 4.372 35.1028 4.672 34.9408 4.948C34.7788 5.218 34.5598 5.434 34.2838 5.596C34.0138 5.758 33.7138 5.839 33.3838 5.839C33.0598 5.839 32.7598 5.758 32.4838 5.596C32.2138 5.434 31.9948 5.218 31.8268 4.948C31.6648 4.672 31.5838 4.372 31.5838 4.048C31.5838 3.718 31.6648 3.421 31.8268 3.157C31.9888 2.887 32.2048 2.671 32.4748 2.509C32.7508 2.347 33.0538 2.266 33.3838 2.266Z" fill="black"/>
</svg>
