<svg width="47" height="10" viewBox="0 0 47 10" fill="none" xmlns="http://www.w3.org/2000/svg">
<path d="M4.35474 6.586V7H0.0977422V0.61H4.27374V1.024H0.556742V3.535H3.80574V3.931H0.556742V6.586H4.35474ZM12.2968 7H11.8468V4.39C11.8468 3.796 11.7538 3.358 11.5678 3.076C11.3878 2.794 11.1088 2.653 10.7308 2.653C10.3468 2.653 10.0048 2.791 9.70475 3.067C9.41075 3.337 9.20375 3.685 9.08375 4.111V7H8.63375V4.39C8.63375 3.79 8.54375 3.352 8.36375 3.076C8.18375 2.794 7.90475 2.653 7.52675 2.653C7.14275 2.653 6.80075 2.788 6.50075 3.058C6.20675 3.322 5.99675 3.67 5.87075 4.102V7H5.42075V2.32H5.84375V3.436C6.04175 3.052 6.29675 2.758 6.60875 2.554C6.92075 2.344 7.26275 2.239 7.63475 2.239C8.02475 2.239 8.34275 2.356 8.58875 2.59C8.84075 2.818 8.99075 3.124 9.03875 3.508C9.26075 3.088 9.52475 2.773 9.83075 2.563C10.1368 2.347 10.4848 2.239 10.8748 2.239C11.1328 2.239 11.3488 2.287 11.5228 2.383C11.7028 2.473 11.8498 2.608 11.9638 2.788C12.0838 2.962 12.1678 3.178 12.2158 3.436C12.2698 3.694 12.2968 3.985 12.2968 4.309V7ZM15.6451 7.09C15.3151 7.09 15.0091 7.027 14.7271 6.901C14.4451 6.769 14.1991 6.592 13.9891 6.37C13.7851 6.142 13.6231 5.881 13.5031 5.587C13.3891 5.287 13.3321 4.972 13.3321 4.642C13.3321 4.198 13.4311 3.796 13.6291 3.436C13.8271 3.076 14.1001 2.788 14.4481 2.572C14.7961 2.35 15.1861 2.239 15.6181 2.239C16.0621 2.239 16.4551 2.35 16.7971 2.572C17.1391 2.794 17.4091 3.088 17.6071 3.454C17.8111 3.814 17.9131 4.21 17.9131 4.642C17.9131 4.678 17.9131 4.714 17.9131 4.75C17.9131 4.786 17.9101 4.816 17.9041 4.84H13.8001C13.8241 5.194 13.9231 5.515 14.0971 5.803C14.2711 6.091 14.4931 6.319 14.7631 6.487C15.0391 6.649 15.3391 6.73 15.6631 6.73C15.9871 6.73 16.2931 6.646 16.5811 6.478C16.8691 6.31 17.0701 6.094 17.1841 5.83L17.5801 5.938C17.4901 6.16 17.3461 6.358 17.1481 6.532C16.9561 6.706 16.7281 6.844 16.4641 6.946C16.2061 7.042 15.9331 7.09 15.6451 7.09ZM13.7821 4.489H17.4811C17.4571 4.123 17.3611 3.799 17.1931 3.517C17.0251 3.235 16.8031 3.013 16.5271 2.851C16.2571 2.689 15.9571 2.608 15.6271 2.608C15.2971 2.608 14.9971 2.689 14.7271 2.851C14.4571 3.013 14.2381 3.235 14.0701 3.517C13.9021 3.799 13.8061 4.123 13.7821 4.489ZM21.1172 2.725C20.6972 2.737 20.3282 2.863 20.0102 3.103C19.6982 3.337 19.4792 3.661 19.3532 4.075V7H18.9032V2.32H19.3352V3.472C19.4972 3.142 19.7132 2.875 19.9832 2.671C20.2532 2.461 20.5382 2.341 20.8382 2.311C20.8982 2.305 20.9522 2.302 21.0002 2.302C21.0482 2.302 21.0872 2.302 21.1172 2.302V2.725ZM23.6936 7.072C23.3756 7.072 23.0786 7.006 22.8026 6.874C22.5326 6.742 22.2986 6.562 22.1006 6.334C21.9086 6.1 21.7556 5.842 21.6416 5.56C21.5336 5.272 21.4796 4.975 21.4796 4.669C21.4796 4.351 21.5306 4.045 21.6326 3.751C21.7406 3.457 21.8906 3.199 22.0826 2.977C22.2806 2.749 22.5116 2.569 22.7756 2.437C23.0396 2.305 23.3336 2.239 23.6576 2.239C24.0656 2.239 24.4196 2.347 24.7196 2.563C25.0256 2.773 25.2836 3.031 25.4936 3.337V2.32H25.9076V7.09C25.9076 7.51 25.8056 7.864 25.6016 8.152C25.3976 8.44 25.1276 8.653 24.7916 8.791C24.4556 8.935 24.0926 9.007 23.7026 9.007C23.1566 9.007 22.7216 8.908 22.3976 8.71C22.0796 8.512 21.8216 8.251 21.6236 7.927L21.9296 7.72C22.1156 8.032 22.3676 8.263 22.6856 8.413C23.0036 8.563 23.3426 8.638 23.7026 8.638C24.0206 8.638 24.3116 8.578 24.5756 8.458C24.8456 8.344 25.0586 8.17 25.2146 7.936C25.3766 7.708 25.4576 7.426 25.4576 7.09V6.064C25.2716 6.37 25.0166 6.616 24.6926 6.802C24.3746 6.982 24.0416 7.072 23.6936 7.072ZM23.8016 6.685C23.9996 6.685 24.1916 6.649 24.3776 6.577C24.5636 6.505 24.7346 6.409 24.8906 6.289C25.0466 6.163 25.1756 6.025 25.2776 5.875C25.3796 5.725 25.4396 5.575 25.4576 5.425V3.886C25.3676 3.646 25.2296 3.433 25.0436 3.247C24.8636 3.055 24.6596 2.908 24.4316 2.806C24.2036 2.698 23.9696 2.644 23.7296 2.644C23.4476 2.644 23.1956 2.704 22.9736 2.824C22.7516 2.944 22.5626 3.103 22.4066 3.301C22.2566 3.493 22.1396 3.712 22.0556 3.958C21.9776 4.198 21.9386 4.438 21.9386 4.678C21.9386 4.948 21.9866 5.203 22.0826 5.443C22.1786 5.683 22.3106 5.899 22.4786 6.091C22.6526 6.277 22.8506 6.424 23.0726 6.532C23.3006 6.634 23.5436 6.685 23.8016 6.685ZM29.3033 7.09C28.9733 7.09 28.6673 7.027 28.3853 6.901C28.1033 6.769 27.8573 6.592 27.6473 6.37C27.4433 6.142 27.2813 5.881 27.1613 5.587C27.0473 5.287 26.9903 4.972 26.9903 4.642C26.9903 4.198 27.0893 3.796 27.2873 3.436C27.4853 3.076 27.7583 2.788 28.1063 2.572C28.4543 2.35 28.8443 2.239 29.2763 2.239C29.7203 2.239 30.1133 2.35 30.4553 2.572C30.7973 2.794 31.0673 3.088 31.2653 3.454C31.4693 3.814 31.5713 4.21 31.5713 4.642C31.5713 4.678 31.5713 4.714 31.5713 4.75C31.5713 4.786 31.5683 4.816 31.5623 4.84H27.4583C27.4823 5.194 27.5813 5.515 27.7553 5.803C27.9293 6.091 28.1513 6.319 28.4213 6.487C28.6973 6.649 28.9973 6.73 29.3213 6.73C29.6453 6.73 29.9513 6.646 30.2393 6.478C30.5273 6.31 30.7283 6.094 30.8423 5.83L31.2383 5.938C31.1483 6.16 31.0043 6.358 30.8063 6.532C30.6143 6.706 30.3863 6.844 30.1223 6.946C29.8643 7.042 29.5913 7.09 29.3033 7.09ZM27.4403 4.489H31.1393C31.1153 4.123 31.0193 3.799 30.8513 3.517C30.6833 3.235 30.4613 3.013 30.1853 2.851C29.9153 2.689 29.6153 2.608 29.2853 2.608C28.9553 2.608 28.6553 2.689 28.3853 2.851C28.1153 3.013 27.8963 3.235 27.7283 3.517C27.5603 3.799 27.4643 4.123 27.4403 4.489ZM36.3864 7H35.9364V4.39C35.9364 3.79 35.8494 3.352 35.6754 3.076C35.5074 2.794 35.2374 2.653 34.8654 2.653C34.6014 2.653 34.3404 2.716 34.0824 2.842C33.8304 2.968 33.6084 3.142 33.4164 3.364C33.2304 3.58 33.0954 3.826 33.0114 4.102V7H32.5614V2.32H32.9844V3.436C33.1104 3.196 33.2784 2.989 33.4884 2.815C33.6984 2.635 33.9324 2.494 34.1904 2.392C34.4484 2.29 34.7154 2.239 34.9914 2.239C35.2494 2.239 35.4654 2.287 35.6394 2.383C35.8194 2.473 35.9634 2.605 36.0714 2.779C36.1854 2.953 36.2664 3.169 36.3144 3.427C36.3624 3.685 36.3864 3.979 36.3864 4.309V7ZM39.7359 7.09C39.4119 7.09 39.1089 7.027 38.8269 6.901C38.5449 6.769 38.2989 6.592 38.0889 6.37C37.8789 6.142 37.7139 5.881 37.5939 5.587C37.4799 5.293 37.4229 4.978 37.4229 4.642C37.4229 4.192 37.5219 3.787 37.7199 3.427C37.9179 3.067 38.1909 2.779 38.5389 2.563C38.8869 2.347 39.2829 2.239 39.7269 2.239C40.1529 2.239 40.5279 2.338 40.8519 2.536C41.1759 2.728 41.4189 2.992 41.5809 3.328L41.1399 3.472C41.0019 3.214 40.8039 3.013 40.5459 2.869C40.2939 2.719 40.0149 2.644 39.7089 2.644C39.3669 2.644 39.0579 2.731 38.7819 2.905C38.5059 3.079 38.2839 3.319 38.1159 3.625C37.9539 3.925 37.8729 4.264 37.8729 4.642C37.8729 5.014 37.9569 5.356 38.1249 5.668C38.2929 5.98 38.5149 6.229 38.7909 6.415C39.0729 6.595 39.3819 6.685 39.7179 6.685C39.9339 6.685 40.1439 6.646 40.3479 6.568C40.5579 6.484 40.7379 6.376 40.8879 6.244C41.0439 6.112 41.1459 5.971 41.1939 5.821L41.6349 5.947C41.5569 6.169 41.4219 6.367 41.2299 6.541C41.0379 6.709 40.8129 6.844 40.5549 6.946C40.3029 7.042 40.0299 7.09 39.7359 7.09ZM42.8959 8.584C42.9919 8.59 43.0759 8.59 43.1479 8.584C43.2259 8.584 43.2829 8.572 43.3189 8.548C43.3729 8.53 43.4269 8.482 43.4809 8.404C43.5409 8.332 43.6189 8.185 43.7149 7.963C43.8109 7.747 43.9459 7.426 44.1199 7L42.0319 2.32H42.5089L44.3629 6.523L46.0819 2.32H46.5409L43.9759 8.476C43.9399 8.572 43.8889 8.656 43.8229 8.728C43.7629 8.806 43.6879 8.866 43.5979 8.908C43.5079 8.956 43.3999 8.983 43.2739 8.989C43.2199 8.995 43.1629 8.998 43.1029 8.998C43.0429 9.004 42.9739 9.004 42.8959 8.998V8.584Z" fill="black"/>
</svg>
