<svg width="428" height="26" viewBox="0 0 428 26" fill="none" xmlns="http://www.w3.org/2000/svg">
<path d="M384.167 11H394.083C394.393 11 394.689 11.1229 394.908 11.3417C395.127 11.5605 395.25 11.8572 395.25 12.1667V16.25C395.25 16.5594 395.127 16.8562 394.908 17.0749C394.689 17.2937 394.393 17.4167 394.083 17.4167H384.167C383.857 17.4167 383.56 17.2937 383.342 17.0749C383.123 16.8562 383 16.5594 383 16.25V12.1667C383 11.8572 383.123 11.5605 383.342 11.3417C383.56 11.1229 383.857 11 384.167 11Z" fill="white"/>
<path d="M394.667 13.0481C394.314 13.3141 394.083 13.7323 394.083 14.2083C394.083 14.6843 394.314 15.102 394.667 15.3686V13.0481ZM395.833 12.7792V15.6369C396.163 15.5697 396.459 15.3908 396.671 15.1304C396.884 14.87 397 14.5442 397 14.208C397 13.8719 396.884 13.5461 396.671 13.2857C396.459 13.0253 396.163 12.8464 395.833 12.7792Z" fill="white"/>
<path d="M384.167 11H394.083C394.393 11 394.689 11.1229 394.908 11.3417C395.127 11.5605 395.25 11.8572 395.25 12.1667V16.25C395.25 16.5594 395.127 16.8562 394.908 17.0749C394.689 17.2937 394.393 17.4167 394.083 17.4167H384.167C383.857 17.4167 383.56 17.2937 383.342 17.0749C383.123 16.8562 383 16.5594 383 16.25V12.1667C383 11.8572 383.123 11.5605 383.342 11.3417C383.56 11.1229 383.857 11 384.167 11Z" fill="white"/>
<path d="M394.667 13.0481C394.314 13.3141 394.083 13.7323 394.083 14.2083C394.083 14.6843 394.314 15.102 394.667 15.3686V13.0481ZM395.833 12.7792V15.6369C396.163 15.5697 396.459 15.3908 396.671 15.1304C396.884 14.87 397 14.5442 397 14.208C397 13.8719 396.884 13.5461 396.671 13.2857C396.459 13.0253 396.163 12.8464 395.833 12.7792Z" fill="white"/>
<path fill-rule="evenodd" clip-rule="evenodd" d="M366 14.0294C366 13.7372 365.701 13.5 365.333 13.5H363.667C363.299 13.5 363 13.7372 363 14.0294V17.4706C363 17.7628 363.299 18 363.667 18H365.333C365.701 18 366 17.7628 366 17.4706V14.0294ZM369.667 12.4412C369.667 12.1489 369.368 11.9118 369 11.9118H367.333C366.965 11.9118 366.667 12.1489 366.667 12.4412V17.4706C366.667 17.7628 366.965 18 367.333 18H369C369.368 18 369.667 17.7628 369.667 17.4706V12.4412ZM373.333 10.8529C373.333 10.5607 373.035 10.3235 372.667 10.3235H371C370.632 10.3235 370.333 10.5607 370.333 10.8529V17.4706C370.333 17.7628 370.632 18 371 18H372.667C373.035 18 373.333 17.7628 373.333 17.4706V10.8529ZM377 9.52941C377 9.23718 376.701 9 376.333 9H374.667C374.299 9 374 9.23718 374 9.52941V17.4706C374 17.7628 374.299 18 374.667 18H376.333C376.701 18 377 17.7628 377 17.4706V9.52941Z" fill="white"/>
<path d="M353.242 17.6569C353.34 17.5528 353.417 17.429 353.47 17.2928C353.523 17.1565 353.55 17.0104 353.55 16.8629C353.55 16.7153 353.523 16.5692 353.47 16.433C353.417 16.2967 353.34 16.173 353.242 16.0689C353.145 15.9641 353.03 15.8809 352.902 15.8241C352.775 15.7672 352.639 15.738 352.501 15.7378C352.363 15.7377 352.226 15.7668 352.099 15.8235C351.972 15.8801 351.856 15.9631 351.759 16.0677C351.659 16.1714 351.579 16.2954 351.524 16.4325C351.469 16.5697 351.44 16.7171 351.439 16.8664C351.438 17.0156 351.464 17.1636 351.517 17.3017C351.57 17.4398 351.647 17.5653 351.746 17.6708C351.844 17.7763 351.962 17.8598 352.09 17.9163C352.219 17.9728 352.358 18.0013 352.497 18C352.636 17.9987 352.774 17.9677 352.902 17.9088C353.03 17.8499 353.146 17.7642 353.242 17.6569ZM356.951 13.2193C356.813 13.2196 356.677 13.1906 356.55 13.1341C356.422 13.0776 356.307 12.9946 356.21 12.89C354.164 10.699 350.837 10.6996 348.791 12.89C348.594 13.1008 348.328 13.2192 348.049 13.2192C347.771 13.2192 347.504 13.1008 347.307 12.89C347.111 12.6792 347 12.3933 347 12.0951C347 11.797 347.111 11.5111 347.307 11.3003C350.171 8.23324 354.829 8.23324 357.692 11.3003C357.839 11.4574 357.939 11.6576 357.98 11.8756C358.02 12.0937 358 12.3197 357.92 12.5251C357.841 12.7305 357.707 12.9061 357.534 13.0297C357.362 13.1533 357.159 13.2192 356.951 13.2193ZM350.275 15.603C350.068 15.603 349.865 15.537 349.692 15.4135C349.52 15.29 349.385 15.1145 349.306 14.9092C349.227 14.7039 349.206 14.4779 349.246 14.26C349.287 14.042 349.387 13.8417 349.533 13.6846C351.169 11.9319 353.831 11.9319 355.467 13.6846C355.664 13.8954 355.775 14.1813 355.775 14.4794C355.775 14.7776 355.664 15.0635 355.467 15.2743C355.271 15.4851 355.004 15.6035 354.725 15.6035C354.447 15.6035 354.18 15.4851 353.983 15.2743C353.59 14.8534 353.056 14.6171 352.5 14.6171C351.944 14.6171 351.41 14.8534 351.016 15.2743C350.919 15.3787 350.803 15.4616 350.676 15.518C350.549 15.5744 350.413 15.6033 350.275 15.603Z" fill="white"/>
<path d="M26.8003 15.109V16H23.3623V15.109H24.6403V11.968C24.5863 12.04 24.5023 12.115 24.3883 12.193C24.2743 12.271 24.1453 12.346 24.0013 12.418C23.8633 12.484 23.7223 12.538 23.5783 12.58C23.4343 12.622 23.3023 12.643 23.1823 12.643V11.716C23.3023 11.716 23.4403 11.68 23.5963 11.608C23.7523 11.536 23.9053 11.452 24.0553 11.356C24.2113 11.254 24.3433 11.158 24.4513 11.068C24.5593 10.972 24.6223 10.903 24.6403 10.861H25.6573V15.109H26.8003ZM32.0807 13.363C32.0807 13.891 31.9787 14.362 31.7747 14.776C31.5767 15.184 31.3037 15.505 30.9557 15.739C30.6137 15.973 30.2207 16.09 29.7767 16.09C29.3387 16.09 28.9457 15.973 28.5977 15.739C28.2497 15.505 27.9737 15.184 27.7697 14.776C27.5717 14.362 27.4727 13.891 27.4727 13.363C27.4727 12.835 27.5717 12.367 27.7697 11.959C27.9737 11.545 28.2497 11.221 28.5977 10.987C28.9457 10.747 29.3387 10.627 29.7767 10.627C30.2207 10.627 30.6137 10.747 30.9557 10.987C31.3037 11.221 31.5767 11.545 31.7747 11.959C31.9787 12.367 32.0807 12.835 32.0807 13.363ZM31.0727 13.363C31.0727 13.003 31.0187 12.688 30.9107 12.418C30.8027 12.142 30.6497 11.929 30.4517 11.779C30.2537 11.623 30.0287 11.545 29.7767 11.545C29.5187 11.545 29.2907 11.623 29.0927 11.779C28.8947 11.929 28.7387 12.142 28.6247 12.418C28.5167 12.688 28.4627 13.003 28.4627 13.363C28.4627 13.723 28.5167 14.038 28.6247 14.308C28.7387 14.578 28.8947 14.791 29.0927 14.947C29.2907 15.097 29.5187 15.172 29.7767 15.172C30.0287 15.172 30.2507 15.097 30.4427 14.947C30.6407 14.791 30.7937 14.578 30.9017 14.308C31.0157 14.038 31.0727 13.723 31.0727 13.363ZM33.091 16V14.848H33.91V16H33.091ZM39.525 13.363C39.525 13.891 39.423 14.362 39.219 14.776C39.021 15.184 38.748 15.505 38.4 15.739C38.058 15.973 37.665 16.09 37.221 16.09C36.783 16.09 36.39 15.973 36.042 15.739C35.694 15.505 35.418 15.184 35.214 14.776C35.016 14.362 34.917 13.891 34.917 13.363C34.917 12.835 35.016 12.367 35.214 11.959C35.418 11.545 35.694 11.221 36.042 10.987C36.39 10.747 36.783 10.627 37.221 10.627C37.665 10.627 38.058 10.747 38.4 10.987C38.748 11.221 39.021 11.545 39.219 11.959C39.423 12.367 39.525 12.835 39.525 13.363ZM38.517 13.363C38.517 13.003 38.463 12.688 38.355 12.418C38.247 12.142 38.094 11.929 37.896 11.779C37.698 11.623 37.473 11.545 37.221 11.545C36.963 11.545 36.735 11.623 36.537 11.779C36.339 11.929 36.183 12.142 36.069 12.418C35.961 12.688 35.907 13.003 35.907 13.363C35.907 13.723 35.961 14.038 36.069 14.308C36.183 14.578 36.339 14.791 36.537 14.947C36.735 15.097 36.963 15.172 37.221 15.172C37.473 15.172 37.695 15.097 37.887 14.947C38.085 14.791 38.238 14.578 38.346 14.308C38.46 14.038 38.517 13.723 38.517 13.363ZM44.0093 15.109V16H40.5713V15.109H41.8493V11.968C41.7953 12.04 41.7113 12.115 41.5973 12.193C41.4833 12.271 41.3543 12.346 41.2103 12.418C41.0723 12.484 40.9313 12.538 40.7873 12.58C40.6433 12.622 40.5113 12.643 40.3913 12.643V11.716C40.5113 11.716 40.6493 11.68 40.8053 11.608C40.9613 11.536 41.1143 11.452 41.2643 11.356C41.4203 11.254 41.5523 11.158 41.6603 11.068C41.7683 10.972 41.8313 10.903 41.8493 10.861H42.8663V15.109H44.0093Z" fill="white"/>
</svg>
