<svg width="127" height="28" viewBox="0 0 127 28" fill="none" xmlns="http://www.w3.org/2000/svg">
<path d="M17.47 0.699999V22H15.4V12.04H2.77V22H0.67V0.699999H2.77V10.18H15.4V0.699999H17.47ZM20.992 17.5C20.992 16.52 21.272 15.68 21.832 14.98C22.392 14.26 23.162 13.71 24.142 13.33C25.142 12.93 26.292 12.73 27.592 12.73C28.352 12.73 29.142 12.79 29.962 12.91C30.782 13.03 31.512 13.21 32.152 13.45V12.13C32.152 10.81 31.762 9.76 30.982 8.98C30.202 8.2 29.122 7.81 27.742 7.81C26.902 7.81 26.072 7.97 25.252 8.29C24.452 8.59 23.612 9.04 22.732 9.64L21.952 8.2C22.972 7.5 23.972 6.98 24.952 6.64C25.932 6.28 26.932 6.1 27.952 6.1C29.872 6.1 31.392 6.65 32.512 7.75C33.632 8.85 34.192 10.37 34.192 12.31V19.54C34.192 19.82 34.252 20.03 34.372 20.17C34.492 20.29 34.682 20.36 34.942 20.38V22C34.722 22.02 34.532 22.04 34.372 22.06C34.212 22.08 34.092 22.08 34.012 22.06C33.512 22.04 33.132 21.88 32.872 21.58C32.612 21.28 32.472 20.96 32.452 20.62L32.422 19.48C31.722 20.38 30.812 21.08 29.692 21.58C28.572 22.06 27.432 22.3 26.272 22.3C25.272 22.3 24.362 22.09 23.542 21.67C22.742 21.23 22.112 20.65 21.652 19.93C21.212 19.19 20.992 18.38 20.992 17.5ZM31.462 18.7C31.682 18.42 31.852 18.15 31.972 17.89C32.092 17.63 32.152 17.4 32.152 17.2V14.92C31.472 14.66 30.762 14.46 30.022 14.32C29.302 14.18 28.572 14.11 27.832 14.11C26.372 14.11 25.192 14.4 24.292 14.98C23.392 15.56 22.942 16.35 22.942 17.35C22.942 17.93 23.092 18.48 23.392 19C23.692 19.5 24.132 19.92 24.712 20.26C25.292 20.58 25.972 20.74 26.752 20.74C27.732 20.74 28.642 20.55 29.482 20.17C30.342 19.79 31.002 19.3 31.462 18.7ZM38.6896 0.0999994H40.7296V18.46C40.7296 19.24 40.8696 19.75 41.1496 19.99C41.4296 20.23 41.7696 20.35 42.1696 20.35C42.5296 20.35 42.8896 20.31 43.2496 20.23C43.6096 20.15 43.9196 20.07 44.1796 19.99L44.5396 21.64C44.1596 21.8 43.6896 21.93 43.1296 22.03C42.5896 22.13 42.1196 22.18 41.7196 22.18C40.7996 22.18 40.0596 21.91 39.4996 21.37C38.9596 20.83 38.6896 20.09 38.6896 19.15V0.0999994ZM46.8634 0.0999994H48.9034V18.46C48.9034 19.24 49.0434 19.75 49.3234 19.99C49.6034 20.23 49.9434 20.35 50.3434 20.35C50.7034 20.35 51.0634 20.31 51.4234 20.23C51.7834 20.15 52.0934 20.07 52.3534 19.99L52.7134 21.64C52.3334 21.8 51.8634 21.93 51.3034 22.03C50.7634 22.13 50.2934 22.18 49.8934 22.18C48.9734 22.18 48.2334 21.91 47.6734 21.37C47.1334 20.83 46.8634 20.09 46.8634 19.15V0.0999994ZM61.6073 22.3C60.4873 22.3 59.4473 22.09 58.4873 21.67C57.5473 21.23 56.7273 20.64 56.0273 19.9C55.3473 19.14 54.8173 18.28 54.4373 17.32C54.0573 16.34 53.8673 15.31 53.8673 14.23C53.8673 13.11 54.0573 12.07 54.4373 11.11C54.8173 10.13 55.3573 9.27 56.0573 8.53C56.7573 7.77 57.5773 7.18 58.5173 6.76C59.4773 6.32 60.5173 6.1 61.6373 6.1C62.7573 6.1 63.7873 6.32 64.7273 6.76C65.6673 7.18 66.4873 7.77 67.1873 8.53C67.8873 9.27 68.4273 10.13 68.8073 11.11C69.1873 12.07 69.3773 13.11 69.3773 14.23C69.3773 15.31 69.1873 16.34 68.8073 17.32C68.4273 18.28 67.8873 19.14 67.1873 19.9C66.5073 20.64 65.6873 21.23 64.7273 21.67C63.7873 22.09 62.7473 22.3 61.6073 22.3ZM55.9373 14.26C55.9373 15.42 56.1873 16.48 56.6873 17.44C57.2073 18.38 57.8973 19.13 58.7573 19.69C59.6173 20.23 60.5673 20.5 61.6073 20.5C62.6473 20.5 63.5973 20.22 64.4573 19.66C65.3173 19.1 66.0073 18.34 66.5273 17.38C67.0473 16.4 67.3073 15.34 67.3073 14.2C67.3073 13.04 67.0473 11.98 66.5273 11.02C66.0073 10.06 65.3173 9.3 64.4573 8.74C63.5973 8.18 62.6473 7.9 61.6073 7.9C60.5673 7.9 59.6173 8.19 58.7573 8.77C57.9173 9.35 57.2373 10.12 56.7173 11.08C56.1973 12.02 55.9373 13.08 55.9373 14.26ZM86.518 0.699999H88.288L97.138 22H94.918L92.158 15.34H82.588L79.858 22H77.608L86.518 0.699999ZM91.678 13.69L87.388 3.16L83.038 13.69H91.678ZM97.4315 27.43C96.7715 27.43 96.1515 27.34 95.5715 27.16C94.9715 26.98 94.4515 26.68 94.0115 26.26L95.0015 24.88C95.3015 25.16 95.6515 25.35 96.0515 25.45C96.4315 25.55 96.8115 25.6 97.1915 25.6C97.6715 25.6 98.1215 25.48 98.5415 25.24C98.9615 25 99.3015 24.66 99.5615 24.22C99.8415 23.8 99.9815 23.33 99.9815 22.81V6.37H102.021V22.69C102.021 23.61 101.801 24.43 101.361 25.15C100.921 25.87 100.351 26.43 99.6515 26.83C98.9515 27.23 98.2115 27.43 97.4315 27.43ZM99.9815 3.1V0.0999994H102.021V3.1H99.9815ZM106.51 22V6.37H108.55V22H106.51ZM106.51 3.1V0.0999994H108.55V3.1H106.51ZM124.203 22L118.413 13.99L115.083 17.11V22H113.043V0.0999994H115.083V14.92L123.933 6.4H126.183L119.793 12.79L126.423 22H124.203Z" fill="white"/>
</svg>
