<svg width="71" height="8" viewBox="0 0 71 8" fill="none" xmlns="http://www.w3.org/2000/svg">
<path d="M0.0215703 7V0.61H0.48057V4.489L4.20657 0.61H4.73757L2.08257 3.409L4.87257 7H4.34157L1.77657 3.697L0.48057 5.029V7H0.0215703ZM7.29779 7.09C6.96779 7.09 6.66179 7.027 6.37979 6.901C6.10379 6.775 5.86379 6.601 5.65979 6.379C5.45579 6.151 5.29679 5.89 5.18279 5.596C5.06879 5.302 5.01179 4.993 5.01179 4.669C5.01179 4.339 5.06879 4.03 5.18279 3.742C5.29679 3.448 5.45579 3.19 5.65979 2.968C5.86979 2.74 6.11279 2.563 6.38879 2.437C6.67079 2.305 6.97379 2.239 7.29779 2.239C7.62179 2.239 7.92179 2.305 8.19779 2.437C8.47379 2.563 8.71679 2.74 8.92679 2.968C9.13679 3.19 9.29879 3.448 9.41279 3.742C9.52679 4.03 9.58379 4.339 9.58379 4.669C9.58379 4.993 9.52679 5.302 9.41279 5.596C9.29879 5.89 9.13679 6.151 8.92679 6.379C8.72279 6.601 8.47979 6.775 8.19779 6.901C7.92179 7.027 7.62179 7.09 7.29779 7.09ZM5.46179 4.687C5.46179 5.053 5.54279 5.389 5.70479 5.695C5.87279 5.995 6.09479 6.235 6.37079 6.415C6.64679 6.595 6.95279 6.685 7.28879 6.685C7.62479 6.685 7.93079 6.595 8.20679 6.415C8.48879 6.229 8.71079 5.983 8.87279 5.677C9.04079 5.365 9.12479 5.026 9.12479 4.66C9.12479 4.294 9.04079 3.958 8.87279 3.652C8.71079 3.346 8.48879 3.103 8.20679 2.923C7.93079 2.737 7.62779 2.644 7.29779 2.644C6.96179 2.644 6.65579 2.737 6.37979 2.923C6.10379 3.109 5.88179 3.355 5.71379 3.661C5.54579 3.967 5.46179 4.309 5.46179 4.687ZM14.487 7H14.037V4.39C14.037 3.79 13.95 3.352 13.776 3.076C13.608 2.794 13.338 2.653 12.966 2.653C12.702 2.653 12.441 2.716 12.183 2.842C11.931 2.968 11.709 3.142 11.517 3.364C11.331 3.58 11.196 3.826 11.112 4.102V7H10.662V2.32H11.085V3.436C11.211 3.196 11.379 2.989 11.589 2.815C11.799 2.635 12.033 2.494 12.291 2.392C12.549 2.29 12.816 2.239 13.092 2.239C13.35 2.239 13.566 2.287 13.74 2.383C13.92 2.473 14.064 2.605 14.172 2.779C14.286 2.953 14.367 3.169 14.415 3.427C14.463 3.685 14.487 3.979 14.487 4.309V7ZM17.3235 7.09C16.9515 7.09 16.6065 7.027 16.2885 6.901C15.9705 6.775 15.6915 6.583 15.4515 6.325L15.6585 6.01C15.9165 6.256 16.1775 6.436 16.4415 6.55C16.7055 6.658 16.9935 6.712 17.3055 6.712C17.7075 6.712 18.0315 6.628 18.2775 6.46C18.5295 6.292 18.6555 6.058 18.6555 5.758C18.6555 5.554 18.5955 5.398 18.4755 5.29C18.3615 5.176 18.1935 5.086 17.9715 5.02C17.7555 4.948 17.4915 4.873 17.1795 4.795C16.8615 4.711 16.5915 4.624 16.3695 4.534C16.1535 4.444 15.9915 4.327 15.8835 4.183C15.7755 4.039 15.7215 3.844 15.7215 3.598C15.7215 3.292 15.7965 3.04 15.9465 2.842C16.1025 2.638 16.3095 2.488 16.5675 2.392C16.8315 2.29 17.1225 2.239 17.4405 2.239C17.8065 2.239 18.1245 2.299 18.3945 2.419C18.6705 2.539 18.8805 2.698 19.0245 2.896L18.7815 3.184C18.6315 2.992 18.4365 2.851 18.1965 2.761C17.9565 2.665 17.6925 2.617 17.4045 2.617C17.1885 2.617 16.9845 2.647 16.7925 2.707C16.6005 2.767 16.4445 2.866 16.3245 3.004C16.2105 3.136 16.1535 3.316 16.1535 3.544C16.1535 3.724 16.1955 3.865 16.2795 3.967C16.3695 4.069 16.5015 4.153 16.6755 4.219C16.8495 4.279 17.0655 4.345 17.3235 4.417C17.6895 4.507 18.0045 4.6 18.2685 4.696C18.5325 4.792 18.7365 4.918 18.8805 5.074C19.0245 5.224 19.0965 5.437 19.0965 5.713C19.0965 6.139 18.9345 6.475 18.6105 6.721C18.2865 6.967 17.8575 7.09 17.3235 7.09ZM20.1091 5.02V2.32H20.5591V4.957C20.5591 5.539 20.6551 5.974 20.8471 6.262C21.0451 6.544 21.3421 6.685 21.7381 6.685C22.0021 6.685 22.2541 6.628 22.4941 6.514C22.7401 6.394 22.9561 6.229 23.1421 6.019C23.3281 5.803 23.4661 5.554 23.5561 5.272V2.32H24.0061V6.406C24.0061 6.478 24.0211 6.532 24.0511 6.568C24.0871 6.604 24.1351 6.625 24.1951 6.631V7C24.1351 7.006 24.0871 7.009 24.0511 7.009C24.0211 7.009 23.9941 7.006 23.9701 7C23.8681 6.988 23.7841 6.946 23.7181 6.874C23.6521 6.796 23.6161 6.703 23.6101 6.595L23.6011 5.893C23.3971 6.265 23.1151 6.559 22.7551 6.775C22.4011 6.985 22.0171 7.09 21.6031 7.09C21.1111 7.09 20.7391 6.916 20.4871 6.568C20.2351 6.22 20.1091 5.704 20.1091 5.02ZM25.4724 0.43H25.9314V6.073C25.9314 6.289 25.9764 6.439 26.0664 6.523C26.1564 6.601 26.2734 6.64 26.4174 6.64C26.5134 6.64 26.6124 6.631 26.7144 6.613C26.8164 6.595 26.9064 6.571 26.9844 6.541L27.0744 6.91C26.9724 6.946 26.8464 6.979 26.6964 7.009C26.5464 7.039 26.4174 7.054 26.3094 7.054C26.0574 7.054 25.8534 6.979 25.6974 6.829C25.5474 6.673 25.4724 6.466 25.4724 6.208V0.43ZM29.8535 6.775C29.8235 6.787 29.7635 6.817 29.6735 6.865C29.5835 6.913 29.4695 6.958 29.3315 7C29.1935 7.036 29.0405 7.054 28.8725 7.054C28.7105 7.054 28.5575 7.024 28.4135 6.964C28.2755 6.898 28.1645 6.802 28.0805 6.676C27.9965 6.55 27.9545 6.397 27.9545 6.217V2.689H27.2975V2.32H27.9545V0.718H28.4045V2.32H29.4935V2.689H28.4045V6.109C28.4165 6.283 28.4795 6.415 28.5935 6.505C28.7075 6.589 28.8395 6.631 28.9895 6.631C29.1755 6.631 29.3375 6.601 29.4755 6.541C29.6135 6.475 29.6945 6.433 29.7185 6.415L29.8535 6.775ZM30.2613 5.65C30.2613 5.368 30.3453 5.125 30.5133 4.921C30.6813 4.711 30.9123 4.549 31.2063 4.435C31.5003 4.315 31.8393 4.255 32.2233 4.255C32.4633 4.255 32.7123 4.276 32.9703 4.318C33.2283 4.36 33.4593 4.417 33.6633 4.489V4.048C33.6633 3.616 33.5373 3.271 33.2853 3.013C33.0393 2.755 32.6973 2.626 32.2593 2.626C32.0253 2.626 31.7823 2.674 31.5303 2.77C31.2783 2.866 31.0203 3.004 30.7563 3.184L30.5673 2.86C30.8733 2.656 31.1673 2.503 31.4493 2.401C31.7373 2.293 32.0223 2.239 32.3043 2.239C32.8623 2.239 33.3033 2.404 33.6273 2.734C33.9513 3.064 34.1133 3.514 34.1133 4.084V6.406C34.1133 6.478 34.1283 6.532 34.1583 6.568C34.1943 6.604 34.2453 6.625 34.3113 6.631V7C34.2573 7.006 34.2123 7.009 34.1763 7.009C34.1403 7.009 34.1103 7.009 34.0863 7.009C33.9723 6.991 33.8823 6.943 33.8163 6.865C33.7563 6.787 33.7233 6.7 33.7173 6.604V6.235C33.5013 6.505 33.2223 6.715 32.8803 6.865C32.5443 7.015 32.1903 7.09 31.8183 7.09C31.5243 7.09 31.2573 7.027 31.0173 6.901C30.7833 6.775 30.5973 6.604 30.4593 6.388C30.3273 6.166 30.2613 5.92 30.2613 5.65ZM33.4833 6.037C33.5433 5.959 33.5883 5.884 33.6183 5.812C33.6483 5.74 33.6633 5.674 33.6633 5.614V4.84C33.4473 4.756 33.2223 4.693 32.9883 4.651C32.7543 4.609 32.5143 4.588 32.2683 4.588C31.8003 4.588 31.4193 4.681 31.1253 4.867C30.8373 5.053 30.6933 5.305 30.6933 5.623C30.6933 5.821 30.7443 6.004 30.8463 6.172C30.9483 6.34 31.0893 6.475 31.2693 6.577C31.4553 6.679 31.6683 6.73 31.9083 6.73C32.2443 6.73 32.5533 6.667 32.8353 6.541C33.1233 6.409 33.3393 6.241 33.4833 6.037ZM36.9583 7.09C36.5863 7.09 36.2413 7.027 35.9233 6.901C35.6053 6.775 35.3263 6.583 35.0863 6.325L35.2933 6.01C35.5513 6.256 35.8123 6.436 36.0763 6.55C36.3403 6.658 36.6283 6.712 36.9403 6.712C37.3423 6.712 37.6663 6.628 37.9123 6.46C38.1643 6.292 38.2903 6.058 38.2903 5.758C38.2903 5.554 38.2303 5.398 38.1103 5.29C37.9963 5.176 37.8283 5.086 37.6063 5.02C37.3903 4.948 37.1263 4.873 36.8143 4.795C36.4963 4.711 36.2263 4.624 36.0043 4.534C35.7883 4.444 35.6263 4.327 35.5183 4.183C35.4103 4.039 35.3563 3.844 35.3563 3.598C35.3563 3.292 35.4313 3.04 35.5813 2.842C35.7373 2.638 35.9443 2.488 36.2023 2.392C36.4663 2.29 36.7573 2.239 37.0753 2.239C37.4413 2.239 37.7593 2.299 38.0293 2.419C38.3053 2.539 38.5153 2.698 38.6593 2.896L38.4163 3.184C38.2663 2.992 38.0713 2.851 37.8313 2.761C37.5913 2.665 37.3273 2.617 37.0393 2.617C36.8233 2.617 36.6193 2.647 36.4273 2.707C36.2353 2.767 36.0793 2.866 35.9593 3.004C35.8453 3.136 35.7883 3.316 35.7883 3.544C35.7883 3.724 35.8303 3.865 35.9143 3.967C36.0043 4.069 36.1363 4.153 36.3103 4.219C36.4843 4.279 36.7003 4.345 36.9583 4.417C37.3243 4.507 37.6393 4.6 37.9033 4.696C38.1673 4.792 38.3713 4.918 38.5153 5.074C38.6593 5.224 38.7313 5.437 38.7313 5.713C38.7313 6.139 38.5693 6.475 38.2453 6.721C37.9213 6.967 37.4923 7.09 36.9583 7.09ZM39.7889 7V2.32H40.2389V7H39.7889ZM39.7889 1.258V0.43H40.2389V1.258H39.7889ZM44.0987 7V0.61H46.2227C46.9007 0.61 47.4617 0.754 47.9057 1.042C48.3557 1.324 48.6917 1.708 48.9137 2.194C49.1417 2.674 49.2557 3.208 49.2557 3.796C49.2557 4.444 49.1327 5.008 48.8867 5.488C48.6407 5.968 48.2897 6.34 47.8337 6.604C47.3777 6.868 46.8407 7 46.2227 7H44.0987ZM48.7967 3.796C48.7967 3.262 48.6947 2.785 48.4907 2.365C48.2927 1.945 48.0017 1.618 47.6177 1.384C47.2397 1.144 46.7747 1.024 46.2227 1.024H44.5577V6.586H46.2227C46.7807 6.586 47.2517 6.463 47.6357 6.217C48.0197 5.971 48.3077 5.638 48.4997 5.218C48.6977 4.792 48.7967 4.318 48.7967 3.796ZM52.3417 7.09C52.0117 7.09 51.7057 7.027 51.4237 6.901C51.1477 6.775 50.9077 6.601 50.7037 6.379C50.4997 6.151 50.3407 5.89 50.2267 5.596C50.1127 5.302 50.0557 4.993 50.0557 4.669C50.0557 4.339 50.1127 4.03 50.2267 3.742C50.3407 3.448 50.4997 3.19 50.7037 2.968C50.9137 2.74 51.1567 2.563 51.4327 2.437C51.7147 2.305 52.0177 2.239 52.3417 2.239C52.6657 2.239 52.9657 2.305 53.2417 2.437C53.5177 2.563 53.7607 2.74 53.9707 2.968C54.1807 3.19 54.3427 3.448 54.4567 3.742C54.5707 4.03 54.6277 4.339 54.6277 4.669C54.6277 4.993 54.5707 5.302 54.4567 5.596C54.3427 5.89 54.1807 6.151 53.9707 6.379C53.7667 6.601 53.5237 6.775 53.2417 6.901C52.9657 7.027 52.6657 7.09 52.3417 7.09ZM50.5057 4.687C50.5057 5.053 50.5867 5.389 50.7487 5.695C50.9167 5.995 51.1387 6.235 51.4147 6.415C51.6907 6.595 51.9967 6.685 52.3327 6.685C52.6687 6.685 52.9747 6.595 53.2507 6.415C53.5327 6.229 53.7547 5.983 53.9167 5.677C54.0847 5.365 54.1687 5.026 54.1687 4.66C54.1687 4.294 54.0847 3.958 53.9167 3.652C53.7547 3.346 53.5327 3.103 53.2507 2.923C52.9747 2.737 52.6717 2.644 52.3417 2.644C52.0057 2.644 51.6997 2.737 51.4237 2.923C51.1477 3.109 50.9257 3.355 50.7577 3.661C50.5897 3.967 50.5057 4.309 50.5057 4.687ZM59.0899 7L57.2629 4.498L56.1559 5.515V7H55.7059V0.43H56.1559V5.011L59.0089 2.329H59.5219L57.5689 4.228L59.5849 7H59.0899ZM62.4961 6.775C62.4661 6.787 62.4061 6.817 62.3161 6.865C62.2261 6.913 62.1121 6.958 61.9741 7C61.8361 7.036 61.6831 7.054 61.5151 7.054C61.3531 7.054 61.2001 7.024 61.0561 6.964C60.9181 6.898 60.8071 6.802 60.7231 6.676C60.6391 6.55 60.5971 6.397 60.5971 6.217V2.689H59.9401V2.32H60.5971V0.718H61.0471V2.32H62.1361V2.689H61.0471V6.109C61.0591 6.283 61.1221 6.415 61.2361 6.505C61.3501 6.589 61.4821 6.631 61.6321 6.631C61.8181 6.631 61.9801 6.601 62.1181 6.541C62.2561 6.475 62.3371 6.433 62.3611 6.415L62.4961 6.775ZM65.192 7.09C64.862 7.09 64.556 7.027 64.274 6.901C63.992 6.769 63.746 6.592 63.536 6.37C63.332 6.142 63.17 5.881 63.05 5.587C62.936 5.287 62.879 4.972 62.879 4.642C62.879 4.198 62.978 3.796 63.176 3.436C63.374 3.076 63.647 2.788 63.995 2.572C64.343 2.35 64.733 2.239 65.165 2.239C65.609 2.239 66.002 2.35 66.344 2.572C66.686 2.794 66.956 3.088 67.154 3.454C67.358 3.814 67.46 4.21 67.46 4.642C67.46 4.678 67.46 4.714 67.46 4.75C67.46 4.786 67.457 4.816 67.451 4.84H63.347C63.371 5.194 63.47 5.515 63.644 5.803C63.818 6.091 64.04 6.319 64.31 6.487C64.586 6.649 64.886 6.73 65.21 6.73C65.534 6.73 65.84 6.646 66.128 6.478C66.416 6.31 66.617 6.094 66.731 5.83L67.127 5.938C67.037 6.16 66.893 6.358 66.695 6.532C66.503 6.706 66.275 6.844 66.011 6.946C65.753 7.042 65.48 7.09 65.192 7.09ZM63.329 4.489H67.028C67.004 4.123 66.908 3.799 66.74 3.517C66.572 3.235 66.35 3.013 66.074 2.851C65.804 2.689 65.504 2.608 65.174 2.608C64.844 2.608 64.544 2.689 64.274 2.851C64.004 3.013 63.785 3.235 63.617 3.517C63.449 3.799 63.353 4.123 63.329 4.489ZM70.664 2.725C70.244 2.737 69.875 2.863 69.557 3.103C69.245 3.337 69.026 3.661 68.9 4.075V7H68.45V2.32H68.882V3.472C69.044 3.142 69.26 2.875 69.53 2.671C69.8 2.461 70.085 2.341 70.385 2.311C70.445 2.305 70.499 2.302 70.547 2.302C70.595 2.302 70.634 2.302 70.664 2.302V2.725Z" fill="black"/>
</svg>
