<svg width="353" height="30" viewBox="0 0 353 30" fill="none" xmlns="http://www.w3.org/2000/svg">
<path d="M1.335 11V0.349999H2.385V10.07H8.535V11H1.335ZM13.0243 11.15C12.4643 11.15 11.9443 11.045 11.4643 10.835C10.9943 10.615 10.5843 10.32 10.2343 9.95C9.89434 9.57 9.62934 9.14 9.43934 8.66C9.24934 8.17 9.15434 7.655 9.15434 7.115C9.15434 6.555 9.24934 6.035 9.43934 5.555C9.62934 5.065 9.89934 4.635 10.2493 4.265C10.5993 3.885 11.0093 3.59 11.4793 3.38C11.9593 3.16 12.4793 3.05 13.0393 3.05C13.5993 3.05 14.1143 3.16 14.5843 3.38C15.0543 3.59 15.4643 3.885 15.8143 4.265C16.1643 4.635 16.4343 5.065 16.6243 5.555C16.8143 6.035 16.9093 6.555 16.9093 7.115C16.9093 7.655 16.8143 8.17 16.6243 8.66C16.4343 9.14 16.1643 9.57 15.8143 9.95C15.4743 10.32 15.0643 10.615 14.5843 10.835C14.1143 11.045 13.5943 11.15 13.0243 11.15ZM10.1893 7.13C10.1893 7.71 10.3143 8.24 10.5643 8.72C10.8243 9.19 11.1693 9.565 11.5993 9.845C12.0293 10.115 12.5043 10.25 13.0243 10.25C13.5443 10.25 14.0193 10.11 14.4493 9.83C14.8793 9.55 15.2243 9.17 15.4843 8.69C15.7443 8.2 15.8743 7.67 15.8743 7.1C15.8743 6.52 15.7443 5.99 15.4843 5.51C15.2243 5.03 14.8793 4.65 14.4493 4.37C14.0193 4.09 13.5443 3.95 13.0243 3.95C12.5043 3.95 12.0293 4.095 11.5993 4.385C11.1793 4.675 10.8393 5.06 10.5793 5.54C10.3193 6.01 10.1893 6.54 10.1893 7.13ZM22.5152 4.085C21.8352 4.105 21.2352 4.295 20.7152 4.655C20.2052 5.015 19.8452 5.51 19.6352 6.14V11H18.6152V3.185H19.5752V5.06C19.8452 4.51 20.2002 4.065 20.6402 3.725C21.0902 3.385 21.5652 3.195 22.0652 3.155C22.1652 3.145 22.2502 3.14 22.3202 3.14C22.4002 3.14 22.4652 3.145 22.5152 3.155V4.085ZM27 11.15C26.44 11.15 25.92 11.045 25.44 10.835C24.96 10.615 24.545 10.32 24.195 9.95C23.845 9.57 23.57 9.135 23.37 8.645C23.18 8.155 23.085 7.63 23.085 7.07C23.085 6.34 23.25 5.67 23.58 5.06C23.92 4.45 24.385 3.965 24.975 3.605C25.565 3.235 26.235 3.05 26.985 3.05C27.755 3.05 28.425 3.235 28.995 3.605C29.575 3.975 30.03 4.465 30.36 5.075C30.69 5.675 30.855 6.335 30.855 7.055C30.855 7.135 30.855 7.215 30.855 7.295C30.855 7.365 30.85 7.42 30.84 7.46H24.15C24.2 8.02 24.355 8.52 24.615 8.96C24.885 9.39 25.23 9.735 25.65 9.995C26.08 10.245 26.545 10.37 27.045 10.37C27.555 10.37 28.035 10.24 28.485 9.98C28.945 9.72 29.265 9.38 29.445 8.96L30.33 9.2C30.17 9.57 29.925 9.905 29.595 10.205C29.265 10.505 28.875 10.74 28.425 10.91C27.985 11.07 27.51 11.15 27 11.15ZM24.12 6.725H29.895C29.855 6.155 29.7 5.655 29.43 5.225C29.17 4.795 28.825 4.46 28.395 4.22C27.975 3.97 27.51 3.845 27 3.845C26.49 3.845 26.025 3.97 25.605 4.22C25.185 4.46 24.84 4.8 24.57 5.24C24.31 5.67 24.16 6.165 24.12 6.725ZM44.0537 11H43.0337V6.635C43.0337 5.725 42.8887 5.055 42.5987 4.625C42.3087 4.195 41.8787 3.98 41.3087 3.98C40.7187 3.98 40.1887 4.19 39.7187 4.61C39.2587 5.03 38.9337 5.57 38.7437 6.23V11H37.7237V6.635C37.7237 5.715 37.5837 5.045 37.3037 4.625C37.0237 4.195 36.5937 3.98 36.0137 3.98C35.4337 3.98 34.9087 4.185 34.4387 4.595C33.9687 5.005 33.6387 5.545 33.4487 6.215V11H32.4287V3.185H33.3587V4.955C33.6887 4.345 34.1087 3.875 34.6187 3.545C35.1387 3.215 35.7137 3.05 36.3437 3.05C36.9937 3.05 37.5187 3.235 37.9187 3.605C38.3187 3.975 38.5637 4.46 38.6537 5.06C39.0137 4.4 39.4437 3.9 39.9437 3.56C40.4537 3.22 41.0287 3.05 41.6687 3.05C42.1087 3.05 42.4787 3.13 42.7787 3.29C43.0887 3.45 43.3337 3.68 43.5137 3.98C43.7037 4.27 43.8387 4.625 43.9187 5.045C44.0087 5.455 44.0537 5.915 44.0537 6.425V11ZM50.0361 11V3.185H51.0561V11H50.0361ZM50.0361 1.55V0.0499997H51.0561V1.55H50.0361ZM57.2927 11.15C56.6427 11.15 56.0577 10.98 55.5377 10.64C55.0277 10.3 54.6227 9.88 54.3227 9.38V14.195H53.3027V3.185H54.2177V4.7C54.5277 4.21 54.9427 3.815 55.4627 3.515C55.9827 3.205 56.5377 3.05 57.1277 3.05C57.6677 3.05 58.1627 3.165 58.6127 3.395C59.0627 3.615 59.4527 3.915 59.7827 4.295C60.1127 4.675 60.3677 5.11 60.5477 5.6C60.7377 6.08 60.8327 6.58 60.8327 7.1C60.8327 7.83 60.6827 8.505 60.3827 9.125C60.0927 9.735 59.6827 10.225 59.1527 10.595C58.6227 10.965 58.0027 11.15 57.2927 11.15ZM57.0077 10.25C57.4377 10.25 57.8227 10.165 58.1627 9.995C58.5027 9.815 58.7927 9.575 59.0327 9.275C59.2827 8.975 59.4727 8.64 59.6027 8.27C59.7327 7.89 59.7977 7.5 59.7977 7.1C59.7977 6.68 59.7227 6.28 59.5727 5.9C59.4327 5.52 59.2277 5.185 58.9577 4.895C58.6877 4.605 58.3777 4.375 58.0277 4.205C57.6777 4.035 57.2977 3.95 56.8877 3.95C56.6277 3.95 56.3577 4 56.0777 4.1C55.7977 4.2 55.5277 4.345 55.2677 4.535C55.0177 4.715 54.8077 4.92 54.6377 5.15C54.4677 5.38 54.3627 5.625 54.3227 5.885V8.285C54.4827 8.655 54.6977 8.99 54.9677 9.29C55.2377 9.58 55.5477 9.815 55.8977 9.995C56.2577 10.165 56.6277 10.25 57.0077 10.25ZM65.1255 11.15C64.4855 11.15 63.8905 11.045 63.3405 10.835C62.7905 10.625 62.3155 10.305 61.9155 9.875L62.3355 9.155C62.7755 9.565 63.2155 9.865 63.6555 10.055C64.1055 10.235 64.5805 10.325 65.0805 10.325C65.6905 10.325 66.1855 10.205 66.5655 9.965C66.9455 9.715 67.1355 9.36 67.1355 8.9C67.1355 8.59 67.0405 8.355 66.8505 8.195C66.6705 8.025 66.4055 7.89 66.0555 7.79C65.7155 7.68 65.3055 7.565 64.8255 7.445C64.2855 7.295 63.8305 7.14 63.4605 6.98C63.1005 6.81 62.8255 6.6 62.6355 6.35C62.4555 6.09 62.3655 5.755 62.3655 5.345C62.3655 4.835 62.4905 4.415 62.7405 4.085C63.0005 3.745 63.3505 3.49 63.7905 3.32C64.2405 3.14 64.7405 3.05 65.2905 3.05C65.8905 3.05 66.4205 3.145 66.8805 3.335C67.3405 3.525 67.7155 3.79 68.0055 4.13L67.5105 4.82C67.2305 4.5 66.8955 4.265 66.5055 4.115C66.1255 3.955 65.7005 3.875 65.2305 3.875C64.9105 3.875 64.6055 3.92 64.3155 4.01C64.0255 4.09 63.7855 4.23 63.5955 4.43C63.4155 4.62 63.3255 4.885 63.3255 5.225C63.3255 5.505 63.3955 5.725 63.5355 5.885C63.6755 6.035 63.8855 6.165 64.1655 6.275C64.4455 6.375 64.7905 6.485 65.2005 6.605C65.7905 6.765 66.3055 6.93 66.7455 7.1C67.1855 7.26 67.5255 7.47 67.7655 7.73C68.0055 7.99 68.1255 8.355 68.1255 8.825C68.1255 9.555 67.8505 10.125 67.3005 10.535C66.7505 10.945 66.0255 11.15 65.1255 11.15ZM69.7365 7.775V3.185H70.7565V7.595C70.7565 8.485 70.9065 9.15 71.2065 9.59C71.5165 10.03 71.9715 10.25 72.5715 10.25C72.9715 10.25 73.3565 10.165 73.7265 9.995C74.1065 9.815 74.4415 9.565 74.7315 9.245C75.0215 8.915 75.2415 8.535 75.3915 8.105V3.185H76.4115V9.77C76.4115 9.91 76.4415 10.015 76.5015 10.085C76.5615 10.145 76.6515 10.18 76.7715 10.19V11C76.6515 11.01 76.5565 11.015 76.4865 11.015C76.4165 11.025 76.3515 11.03 76.2915 11.03C76.0915 11.01 75.9165 10.93 75.7665 10.79C75.6265 10.65 75.5515 10.48 75.5415 10.28L75.5115 9.23C75.1715 9.83 74.7065 10.3 74.1165 10.64C73.5365 10.98 72.9065 11.15 72.2265 11.15C71.4065 11.15 70.7865 10.865 70.3665 10.295C69.9465 9.725 69.7365 8.885 69.7365 7.775ZM90.3428 11H89.3228V6.635C89.3228 5.725 89.1778 5.055 88.8878 4.625C88.5978 4.195 88.1678 3.98 87.5978 3.98C87.0078 3.98 86.4778 4.19 86.0078 4.61C85.5478 5.03 85.2228 5.57 85.0328 6.23V11H84.0128V6.635C84.0128 5.715 83.8728 5.045 83.5928 4.625C83.3128 4.195 82.8828 3.98 82.3028 3.98C81.7228 3.98 81.1978 4.185 80.7278 4.595C80.2578 5.005 79.9278 5.545 79.7378 6.215V11H78.7178V3.185H79.6478V4.955C79.9778 4.345 80.3978 3.875 80.9078 3.545C81.4278 3.215 82.0028 3.05 82.6328 3.05C83.2828 3.05 83.8078 3.235 84.2078 3.605C84.6078 3.975 84.8528 4.46 84.9428 5.06C85.3028 4.4 85.7328 3.9 86.2328 3.56C86.7428 3.22 87.3178 3.05 87.9578 3.05C88.3978 3.05 88.7678 3.13 89.0678 3.29C89.3778 3.45 89.6228 3.68 89.8028 3.98C89.9928 4.27 90.1278 4.625 90.2078 5.045C90.2978 5.455 90.3428 5.915 90.3428 6.425V11ZM95.8002 7.115C95.8002 6.375 95.9502 5.7 96.2502 5.09C96.5602 4.47 96.9852 3.975 97.5252 3.605C98.0652 3.235 98.6802 3.05 99.3702 3.05C100.02 3.05 100.6 3.225 101.11 3.575C101.63 3.915 102.035 4.33 102.325 4.82V0.0499997H103.345V9.77C103.345 9.91 103.375 10.015 103.435 10.085C103.495 10.145 103.585 10.18 103.705 10.19V11C103.505 11.03 103.35 11.04 103.24 11.03C103.03 11.02 102.845 10.935 102.685 10.775C102.525 10.615 102.445 10.44 102.445 10.25V9.485C102.135 9.995 101.715 10.4 101.185 10.7C100.655 11 100.105 11.15 99.5352 11.15C98.9952 11.15 98.4952 11.04 98.0352 10.82C97.5852 10.6 97.1902 10.3 96.8502 9.92C96.5202 9.54 96.2602 9.11 96.0702 8.63C95.8902 8.14 95.8002 7.635 95.8002 7.115ZM102.325 8.315V5.9C102.195 5.54 101.985 5.215 101.695 4.925C101.405 4.625 101.075 4.39 100.705 4.22C100.345 4.04 99.9852 3.95 99.6252 3.95C99.2052 3.95 98.8252 4.04 98.4852 4.22C98.1452 4.39 97.8502 4.625 97.6002 4.925C97.3602 5.225 97.1752 5.565 97.0452 5.945C96.9152 6.325 96.8502 6.715 96.8502 7.115C96.8502 7.535 96.9202 7.935 97.0602 8.315C97.2102 8.695 97.4202 9.035 97.6902 9.335C97.9602 9.625 98.2702 9.85 98.6202 10.01C98.9702 10.17 99.3502 10.25 99.7602 10.25C100.02 10.25 100.29 10.2 100.57 10.1C100.85 10 101.115 9.865 101.365 9.695C101.625 9.515 101.84 9.305 102.01 9.065C102.18 8.825 102.285 8.575 102.325 8.315ZM108.986 11.15C108.426 11.15 107.906 11.045 107.426 10.835C106.956 10.615 106.546 10.32 106.196 9.95C105.856 9.57 105.591 9.14 105.401 8.66C105.211 8.17 105.116 7.655 105.116 7.115C105.116 6.555 105.211 6.035 105.401 5.555C105.591 5.065 105.861 4.635 106.211 4.265C106.561 3.885 106.971 3.59 107.441 3.38C107.921 3.16 108.441 3.05 109.001 3.05C109.561 3.05 110.076 3.16 110.546 3.38C111.016 3.59 111.426 3.885 111.776 4.265C112.126 4.635 112.396 5.065 112.586 5.555C112.776 6.035 112.871 6.555 112.871 7.115C112.871 7.655 112.776 8.17 112.586 8.66C112.396 9.14 112.126 9.57 111.776 9.95C111.436 10.32 111.026 10.615 110.546 10.835C110.076 11.045 109.556 11.15 108.986 11.15ZM106.151 7.13C106.151 7.71 106.276 8.24 106.526 8.72C106.786 9.19 107.131 9.565 107.561 9.845C107.991 10.115 108.466 10.25 108.986 10.25C109.506 10.25 109.981 10.11 110.411 9.83C110.841 9.55 111.186 9.17 111.446 8.69C111.706 8.2 111.836 7.67 111.836 7.1C111.836 6.52 111.706 5.99 111.446 5.51C111.186 5.03 110.841 4.65 110.411 4.37C109.981 4.09 109.506 3.95 108.986 3.95C108.466 3.95 107.991 4.095 107.561 4.385C107.141 4.675 106.801 5.06 106.541 5.54C106.281 6.01 106.151 6.54 106.151 7.13ZM114.622 0.0499997H115.642V9.23C115.642 9.62 115.712 9.875 115.852 9.995C115.992 10.115 116.162 10.175 116.362 10.175C116.542 10.175 116.722 10.155 116.902 10.115C117.082 10.075 117.237 10.035 117.367 9.995L117.547 10.82C117.357 10.9 117.122 10.965 116.842 11.015C116.572 11.065 116.337 11.09 116.137 11.09C115.677 11.09 115.307 10.955 115.027 10.685C114.757 10.415 114.622 10.045 114.622 9.575V0.0499997ZM121.994 11.15C121.434 11.15 120.914 11.045 120.434 10.835C119.964 10.615 119.554 10.32 119.204 9.95C118.864 9.57 118.599 9.14 118.409 8.66C118.219 8.17 118.124 7.655 118.124 7.115C118.124 6.555 118.219 6.035 118.409 5.555C118.599 5.065 118.869 4.635 119.219 4.265C119.569 3.885 119.979 3.59 120.449 3.38C120.929 3.16 121.449 3.05 122.009 3.05C122.569 3.05 123.084 3.16 123.554 3.38C124.024 3.59 124.434 3.885 124.784 4.265C125.134 4.635 125.404 5.065 125.594 5.555C125.784 6.035 125.879 6.555 125.879 7.115C125.879 7.655 125.784 8.17 125.594 8.66C125.404 9.14 125.134 9.57 124.784 9.95C124.444 10.32 124.034 10.615 123.554 10.835C123.084 11.045 122.564 11.15 121.994 11.15ZM119.159 7.13C119.159 7.71 119.284 8.24 119.534 8.72C119.794 9.19 120.139 9.565 120.569 9.845C120.999 10.115 121.474 10.25 121.994 10.25C122.514 10.25 122.989 10.11 123.419 9.83C123.849 9.55 124.194 9.17 124.454 8.69C124.714 8.2 124.844 7.67 124.844 7.1C124.844 6.52 124.714 5.99 124.454 5.51C124.194 5.03 123.849 4.65 123.419 4.37C122.989 4.09 122.514 3.95 121.994 3.95C121.474 3.95 120.999 4.095 120.569 4.385C120.149 4.675 119.809 5.06 119.549 5.54C119.289 6.01 119.159 6.54 119.159 7.13ZM131.485 4.085C130.805 4.105 130.205 4.295 129.685 4.655C129.175 5.015 128.815 5.51 128.605 6.14V11H127.585V3.185H128.545V5.06C128.815 4.51 129.17 4.065 129.61 3.725C130.06 3.385 130.535 3.195 131.035 3.155C131.135 3.145 131.22 3.14 131.29 3.14C131.37 3.14 131.435 3.145 131.485 3.155V4.085ZM138.88 11.15C138.24 11.15 137.645 11.045 137.095 10.835C136.545 10.625 136.07 10.305 135.67 9.875L136.09 9.155C136.53 9.565 136.97 9.865 137.41 10.055C137.86 10.235 138.335 10.325 138.835 10.325C139.445 10.325 139.94 10.205 140.32 9.965C140.7 9.715 140.89 9.36 140.89 8.9C140.89 8.59 140.795 8.355 140.605 8.195C140.425 8.025 140.16 7.89 139.81 7.79C139.47 7.68 139.06 7.565 138.58 7.445C138.04 7.295 137.585 7.14 137.215 6.98C136.855 6.81 136.58 6.6 136.39 6.35C136.21 6.09 136.12 5.755 136.12 5.345C136.12 4.835 136.245 4.415 136.495 4.085C136.755 3.745 137.105 3.49 137.545 3.32C137.995 3.14 138.495 3.05 139.045 3.05C139.645 3.05 140.175 3.145 140.635 3.335C141.095 3.525 141.47 3.79 141.76 4.13L141.265 4.82C140.985 4.5 140.65 4.265 140.26 4.115C139.88 3.955 139.455 3.875 138.985 3.875C138.665 3.875 138.36 3.92 138.07 4.01C137.78 4.09 137.54 4.23 137.35 4.43C137.17 4.62 137.08 4.885 137.08 5.225C137.08 5.505 137.15 5.725 137.29 5.885C137.43 6.035 137.64 6.165 137.92 6.275C138.2 6.375 138.545 6.485 138.955 6.605C139.545 6.765 140.06 6.93 140.5 7.1C140.94 7.26 141.28 7.47 141.52 7.73C141.76 7.99 141.88 8.355 141.88 8.825C141.88 9.555 141.605 10.125 141.055 10.535C140.505 10.945 139.78 11.15 138.88 11.15ZM143.566 11V3.185H144.586V11H143.566ZM143.566 1.55V0.0499997H144.586V1.55H143.566ZM150.583 10.625C150.503 10.655 150.378 10.71 150.208 10.79C150.038 10.87 149.833 10.94 149.593 11C149.353 11.06 149.093 11.09 148.813 11.09C148.523 11.09 148.248 11.035 147.988 10.925C147.738 10.815 147.538 10.65 147.388 10.43C147.238 10.2 147.163 9.92 147.163 9.59V3.995H146.083V3.185H147.163V0.545H148.183V3.185H149.983V3.995H148.183V9.305C148.203 9.585 148.303 9.795 148.483 9.935C148.673 10.075 148.888 10.145 149.128 10.145C149.408 10.145 149.663 10.1 149.893 10.01C150.123 9.91 150.263 9.84 150.313 9.8L150.583 10.625ZM155.051 8.75C155.051 8.26 155.191 7.84 155.471 7.49C155.751 7.13 156.136 6.855 156.626 6.665C157.126 6.465 157.701 6.365 158.351 6.365C158.731 6.365 159.126 6.395 159.536 6.455C159.946 6.515 160.311 6.605 160.631 6.725V6.065C160.631 5.405 160.436 4.88 160.046 4.49C159.656 4.1 159.116 3.905 158.426 3.905C158.006 3.905 157.591 3.985 157.181 4.145C156.781 4.295 156.361 4.52 155.921 4.82L155.531 4.1C156.041 3.75 156.541 3.49 157.031 3.32C157.521 3.14 158.021 3.05 158.531 3.05C159.491 3.05 160.251 3.325 160.811 3.875C161.371 4.425 161.651 5.185 161.651 6.155V9.77C161.651 9.91 161.681 10.015 161.741 10.085C161.801 10.145 161.896 10.18 162.026 10.19V11C161.916 11.01 161.821 11.02 161.741 11.03C161.661 11.04 161.601 11.04 161.561 11.03C161.311 11.02 161.121 10.94 160.991 10.79C160.861 10.64 160.791 10.48 160.781 10.31L160.766 9.74C160.416 10.19 159.961 10.54 159.401 10.79C158.841 11.03 158.271 11.15 157.691 11.15C157.191 11.15 156.736 11.045 156.326 10.835C155.926 10.615 155.611 10.325 155.381 9.965C155.161 9.595 155.051 9.19 155.051 8.75ZM160.286 9.35C160.396 9.21 160.481 9.075 160.541 8.945C160.601 8.815 160.631 8.7 160.631 8.6V7.46C160.291 7.33 159.936 7.23 159.566 7.16C159.206 7.09 158.841 7.055 158.471 7.055C157.741 7.055 157.151 7.2 156.701 7.49C156.251 7.78 156.026 8.175 156.026 8.675C156.026 8.965 156.101 9.24 156.251 9.5C156.401 9.75 156.621 9.96 156.911 10.13C157.201 10.29 157.541 10.37 157.931 10.37C158.421 10.37 158.876 10.275 159.296 10.085C159.726 9.895 160.056 9.65 160.286 9.35ZM175.479 11H174.459V6.635C174.459 5.725 174.314 5.055 174.024 4.625C173.734 4.195 173.304 3.98 172.734 3.98C172.144 3.98 171.614 4.19 171.144 4.61C170.684 5.03 170.359 5.57 170.169 6.23V11H169.149V6.635C169.149 5.715 169.009 5.045 168.729 4.625C168.449 4.195 168.019 3.98 167.439 3.98C166.859 3.98 166.334 4.185 165.864 4.595C165.394 5.005 165.064 5.545 164.874 6.215V11H163.854V3.185H164.784V4.955C165.114 4.345 165.534 3.875 166.044 3.545C166.564 3.215 167.139 3.05 167.769 3.05C168.419 3.05 168.944 3.235 169.344 3.605C169.744 3.975 169.989 4.46 170.079 5.06C170.439 4.4 170.869 3.9 171.369 3.56C171.879 3.22 172.454 3.05 173.094 3.05C173.534 3.05 173.904 3.13 174.204 3.29C174.514 3.45 174.759 3.68 174.939 3.98C175.129 4.27 175.264 4.625 175.344 5.045C175.434 5.455 175.479 5.915 175.479 6.425V11ZM181.014 11.15C180.454 11.15 179.934 11.045 179.454 10.835C178.974 10.615 178.559 10.32 178.209 9.95C177.859 9.57 177.584 9.135 177.384 8.645C177.194 8.155 177.099 7.63 177.099 7.07C177.099 6.34 177.264 5.67 177.594 5.06C177.934 4.45 178.399 3.965 178.989 3.605C179.579 3.235 180.249 3.05 180.999 3.05C181.769 3.05 182.439 3.235 183.009 3.605C183.589 3.975 184.044 4.465 184.374 5.075C184.704 5.675 184.869 6.335 184.869 7.055C184.869 7.135 184.869 7.215 184.869 7.295C184.869 7.365 184.864 7.42 184.854 7.46H178.164C178.214 8.02 178.369 8.52 178.629 8.96C178.899 9.39 179.244 9.735 179.664 9.995C180.094 10.245 180.559 10.37 181.059 10.37C181.569 10.37 182.049 10.24 182.499 9.98C182.959 9.72 183.279 9.38 183.459 8.96L184.344 9.2C184.184 9.57 183.939 9.905 183.609 10.205C183.279 10.505 182.889 10.74 182.439 10.91C181.999 11.07 181.524 11.15 181.014 11.15ZM178.134 6.725H183.909C183.869 6.155 183.714 5.655 183.444 5.225C183.184 4.795 182.839 4.46 182.409 4.22C181.989 3.97 181.524 3.845 181.014 3.845C180.504 3.845 180.039 3.97 179.619 4.22C179.199 4.46 178.854 4.8 178.584 5.24C178.324 5.67 178.174 6.165 178.134 6.725ZM190.119 10.625C190.039 10.655 189.914 10.71 189.744 10.79C189.574 10.87 189.369 10.94 189.129 11C188.889 11.06 188.629 11.09 188.349 11.09C188.059 11.09 187.784 11.035 187.524 10.925C187.274 10.815 187.074 10.65 186.924 10.43C186.774 10.2 186.699 9.92 186.699 9.59V3.995H185.619V3.185H186.699V0.545H187.719V3.185H189.519V3.995H187.719V9.305C187.739 9.585 187.839 9.795 188.019 9.935C188.209 10.075 188.424 10.145 188.664 10.145C188.944 10.145 189.199 10.1 189.429 10.01C189.659 9.91 189.799 9.84 189.849 9.8L190.119 10.625ZM191.559 12.215L191.814 10.955H191.469V9.53H192.459V10.955L192.084 12.215H191.559ZM201.976 11.15C201.406 11.15 200.881 11.045 200.401 10.835C199.931 10.615 199.516 10.315 199.156 9.935C198.806 9.555 198.531 9.12 198.331 8.63C198.141 8.14 198.046 7.62 198.046 7.07C198.046 6.33 198.211 5.655 198.541 5.045C198.871 4.435 199.331 3.95 199.921 3.59C200.511 3.23 201.191 3.05 201.961 3.05C202.691 3.05 203.336 3.22 203.896 3.56C204.456 3.89 204.871 4.34 205.141 4.91L204.151 5.225C203.931 4.825 203.621 4.515 203.221 4.295C202.831 4.065 202.396 3.95 201.916 3.95C201.396 3.95 200.921 4.085 200.491 4.355C200.061 4.625 199.716 4.995 199.456 5.465C199.206 5.935 199.081 6.47 199.081 7.07C199.081 7.66 199.211 8.195 199.471 8.675C199.731 9.155 200.076 9.54 200.506 9.83C200.936 10.11 201.411 10.25 201.931 10.25C202.271 10.25 202.596 10.19 202.906 10.07C203.226 9.95 203.501 9.79 203.731 9.59C203.971 9.38 204.131 9.155 204.211 8.915L205.216 9.215C205.076 9.585 204.841 9.92 204.511 10.22C204.191 10.51 203.811 10.74 203.371 10.91C202.941 11.07 202.476 11.15 201.976 11.15ZM210.075 11.15C209.515 11.15 208.995 11.045 208.515 10.835C208.045 10.615 207.635 10.32 207.285 9.95C206.945 9.57 206.68 9.14 206.49 8.66C206.3 8.17 206.205 7.655 206.205 7.115C206.205 6.555 206.3 6.035 206.49 5.555C206.68 5.065 206.95 4.635 207.3 4.265C207.65 3.885 208.06 3.59 208.53 3.38C209.01 3.16 209.53 3.05 210.09 3.05C210.65 3.05 211.165 3.16 211.635 3.38C212.105 3.59 212.515 3.885 212.865 4.265C213.215 4.635 213.485 5.065 213.675 5.555C213.865 6.035 213.96 6.555 213.96 7.115C213.96 7.655 213.865 8.17 213.675 8.66C213.485 9.14 213.215 9.57 212.865 9.95C212.525 10.32 212.115 10.615 211.635 10.835C211.165 11.045 210.645 11.15 210.075 11.15ZM207.24 7.13C207.24 7.71 207.365 8.24 207.615 8.72C207.875 9.19 208.22 9.565 208.65 9.845C209.08 10.115 209.555 10.25 210.075 10.25C210.595 10.25 211.07 10.11 211.5 9.83C211.93 9.55 212.275 9.17 212.535 8.69C212.795 8.2 212.925 7.67 212.925 7.1C212.925 6.52 212.795 5.99 212.535 5.51C212.275 5.03 211.93 4.65 211.5 4.37C211.07 4.09 210.595 3.95 210.075 3.95C209.555 3.95 209.08 4.095 208.65 4.385C208.23 4.675 207.89 5.06 207.63 5.54C207.37 6.01 207.24 6.54 207.24 7.13ZM222.236 11H221.216V6.635C221.216 5.715 221.081 5.045 220.811 4.625C220.541 4.195 220.116 3.98 219.536 3.98C219.136 3.98 218.741 4.08 218.351 4.28C217.961 4.47 217.616 4.735 217.316 5.075C217.026 5.405 216.816 5.785 216.686 6.215V11H215.666V3.185H216.596V4.955C216.806 4.575 217.081 4.245 217.421 3.965C217.761 3.675 218.146 3.45 218.576 3.29C219.006 3.13 219.451 3.05 219.911 3.05C220.341 3.05 220.706 3.13 221.006 3.29C221.306 3.45 221.546 3.68 221.726 3.98C221.906 4.27 222.036 4.625 222.116 5.045C222.196 5.455 222.236 5.915 222.236 6.425V11ZM226.976 11.15C226.336 11.15 225.741 11.045 225.191 10.835C224.641 10.625 224.166 10.305 223.766 9.875L224.186 9.155C224.626 9.565 225.066 9.865 225.506 10.055C225.956 10.235 226.431 10.325 226.931 10.325C227.541 10.325 228.036 10.205 228.416 9.965C228.796 9.715 228.986 9.36 228.986 8.9C228.986 8.59 228.891 8.355 228.701 8.195C228.521 8.025 228.256 7.89 227.906 7.79C227.566 7.68 227.156 7.565 226.676 7.445C226.136 7.295 225.681 7.14 225.311 6.98C224.951 6.81 224.676 6.6 224.486 6.35C224.306 6.09 224.216 5.755 224.216 5.345C224.216 4.835 224.341 4.415 224.591 4.085C224.851 3.745 225.201 3.49 225.641 3.32C226.091 3.14 226.591 3.05 227.141 3.05C227.741 3.05 228.271 3.145 228.731 3.335C229.191 3.525 229.566 3.79 229.856 4.13L229.361 4.82C229.081 4.5 228.746 4.265 228.356 4.115C227.976 3.955 227.551 3.875 227.081 3.875C226.761 3.875 226.456 3.92 226.166 4.01C225.876 4.09 225.636 4.23 225.446 4.43C225.266 4.62 225.176 4.885 225.176 5.225C225.176 5.505 225.246 5.725 225.386 5.885C225.526 6.035 225.736 6.165 226.016 6.275C226.296 6.375 226.641 6.485 227.051 6.605C227.641 6.765 228.156 6.93 228.596 7.1C229.036 7.26 229.376 7.47 229.616 7.73C229.856 7.99 229.976 8.355 229.976 8.825C229.976 9.555 229.701 10.125 229.151 10.535C228.601 10.945 227.876 11.15 226.976 11.15ZM235.037 11.15C234.477 11.15 233.957 11.045 233.477 10.835C232.997 10.615 232.582 10.32 232.232 9.95C231.882 9.57 231.607 9.135 231.407 8.645C231.217 8.155 231.122 7.63 231.122 7.07C231.122 6.34 231.287 5.67 231.617 5.06C231.957 4.45 232.422 3.965 233.012 3.605C233.602 3.235 234.272 3.05 235.022 3.05C235.792 3.05 236.462 3.235 237.032 3.605C237.612 3.975 238.067 4.465 238.397 5.075C238.727 5.675 238.892 6.335 238.892 7.055C238.892 7.135 238.892 7.215 238.892 7.295C238.892 7.365 238.887 7.42 238.877 7.46H232.187C232.237 8.02 232.392 8.52 232.652 8.96C232.922 9.39 233.267 9.735 233.687 9.995C234.117 10.245 234.582 10.37 235.082 10.37C235.592 10.37 236.072 10.24 236.522 9.98C236.982 9.72 237.302 9.38 237.482 8.96L238.367 9.2C238.207 9.57 237.962 9.905 237.632 10.205C237.302 10.505 236.912 10.74 236.462 10.91C236.022 11.07 235.547 11.15 235.037 11.15ZM232.157 6.725H237.932C237.892 6.155 237.737 5.655 237.467 5.225C237.207 4.795 236.862 4.46 236.432 4.22C236.012 3.97 235.547 3.845 235.037 3.845C234.527 3.845 234.062 3.97 233.642 4.22C233.222 4.46 232.877 4.8 232.607 5.24C232.347 5.67 232.197 6.165 232.157 6.725ZM243.856 11.15C243.286 11.15 242.761 11.045 242.281 10.835C241.811 10.615 241.396 10.315 241.036 9.935C240.686 9.555 240.411 9.12 240.211 8.63C240.021 8.14 239.926 7.62 239.926 7.07C239.926 6.33 240.091 5.655 240.421 5.045C240.751 4.435 241.211 3.95 241.801 3.59C242.391 3.23 243.071 3.05 243.841 3.05C244.571 3.05 245.216 3.22 245.776 3.56C246.336 3.89 246.751 4.34 247.021 4.91L246.031 5.225C245.811 4.825 245.501 4.515 245.101 4.295C244.711 4.065 244.276 3.95 243.796 3.95C243.276 3.95 242.801 4.085 242.371 4.355C241.941 4.625 241.596 4.995 241.336 5.465C241.086 5.935 240.961 6.47 240.961 7.07C240.961 7.66 241.091 8.195 241.351 8.675C241.611 9.155 241.956 9.54 242.386 9.83C242.816 10.11 243.291 10.25 243.811 10.25C244.151 10.25 244.476 10.19 244.786 10.07C245.106 9.95 245.381 9.79 245.611 9.59C245.851 9.38 246.011 9.155 246.091 8.915L247.096 9.215C246.956 9.585 246.721 9.92 246.391 10.22C246.071 10.51 245.691 10.74 245.251 10.91C244.821 11.07 244.356 11.15 243.856 11.15ZM252.448 10.625C252.368 10.655 252.243 10.71 252.073 10.79C251.903 10.87 251.698 10.94 251.458 11C251.218 11.06 250.958 11.09 250.678 11.09C250.388 11.09 250.113 11.035 249.853 10.925C249.603 10.815 249.403 10.65 249.253 10.43C249.103 10.2 249.028 9.92 249.028 9.59V3.995H247.948V3.185H249.028V0.545H250.048V3.185H251.848V3.995H250.048V9.305C250.068 9.585 250.168 9.795 250.348 9.935C250.538 10.075 250.753 10.145 250.993 10.145C251.273 10.145 251.528 10.1 251.758 10.01C251.988 9.91 252.128 9.84 252.178 9.8L252.448 10.625ZM256.966 11.15C256.406 11.15 255.886 11.045 255.406 10.835C254.926 10.615 254.511 10.32 254.161 9.95C253.811 9.57 253.536 9.135 253.336 8.645C253.146 8.155 253.051 7.63 253.051 7.07C253.051 6.34 253.216 5.67 253.546 5.06C253.886 4.45 254.351 3.965 254.941 3.605C255.531 3.235 256.201 3.05 256.951 3.05C257.721 3.05 258.391 3.235 258.961 3.605C259.541 3.975 259.996 4.465 260.326 5.075C260.656 5.675 260.821 6.335 260.821 7.055C260.821 7.135 260.821 7.215 260.821 7.295C260.821 7.365 260.816 7.42 260.806 7.46H254.116C254.166 8.02 254.321 8.52 254.581 8.96C254.851 9.39 255.196 9.735 255.616 9.995C256.046 10.245 256.511 10.37 257.011 10.37C257.521 10.37 258.001 10.24 258.451 9.98C258.911 9.72 259.231 9.38 259.411 8.96L260.296 9.2C260.136 9.57 259.891 9.905 259.561 10.205C259.231 10.505 258.841 10.74 258.391 10.91C257.951 11.07 257.476 11.15 256.966 11.15ZM254.086 6.725H259.861C259.821 6.155 259.666 5.655 259.396 5.225C259.136 4.795 258.791 4.46 258.361 4.22C257.941 3.97 257.476 3.845 256.966 3.845C256.456 3.845 255.991 3.97 255.571 4.22C255.151 4.46 254.806 4.8 254.536 5.24C254.276 5.67 254.126 6.165 254.086 6.725ZM266.071 10.625C265.991 10.655 265.866 10.71 265.696 10.79C265.526 10.87 265.321 10.94 265.081 11C264.841 11.06 264.581 11.09 264.301 11.09C264.011 11.09 263.736 11.035 263.476 10.925C263.226 10.815 263.026 10.65 262.876 10.43C262.726 10.2 262.651 9.92 262.651 9.59V3.995H261.571V3.185H262.651V0.545H263.671V3.185H265.471V3.995H263.671V9.305C263.691 9.585 263.791 9.795 263.971 9.935C264.161 10.075 264.376 10.145 264.616 10.145C264.896 10.145 265.151 10.1 265.381 10.01C265.611 9.91 265.751 9.84 265.801 9.8L266.071 10.625ZM267.271 7.775V3.185H268.291V7.595C268.291 8.485 268.441 9.15 268.741 9.59C269.051 10.03 269.506 10.25 270.106 10.25C270.506 10.25 270.891 10.165 271.261 9.995C271.641 9.815 271.976 9.565 272.266 9.245C272.556 8.915 272.776 8.535 272.926 8.105V3.185H273.946V9.77C273.946 9.91 273.976 10.015 274.036 10.085C274.096 10.145 274.186 10.18 274.306 10.19V11C274.186 11.01 274.091 11.015 274.021 11.015C273.951 11.025 273.886 11.03 273.826 11.03C273.626 11.01 273.451 10.93 273.301 10.79C273.161 10.65 273.086 10.48 273.076 10.28L273.046 9.23C272.706 9.83 272.241 10.3 271.651 10.64C271.071 10.98 270.441 11.15 269.761 11.15C268.941 11.15 268.321 10.865 267.901 10.295C267.481 9.725 267.271 8.885 267.271 7.775ZM280.152 4.085C279.472 4.105 278.872 4.295 278.352 4.655C277.842 5.015 277.482 5.51 277.272 6.14V11H276.252V3.185H277.212V5.06C277.482 4.51 277.837 4.065 278.277 3.725C278.727 3.385 279.202 3.195 279.702 3.155C279.802 3.145 279.887 3.14 279.957 3.14C280.037 3.14 280.102 3.145 280.152 3.155V4.085ZM284.352 8.75C284.352 8.26 284.492 7.84 284.772 7.49C285.052 7.13 285.437 6.855 285.927 6.665C286.427 6.465 287.002 6.365 287.652 6.365C288.032 6.365 288.427 6.395 288.837 6.455C289.247 6.515 289.612 6.605 289.932 6.725V6.065C289.932 5.405 289.737 4.88 289.347 4.49C288.957 4.1 288.417 3.905 287.727 3.905C287.307 3.905 286.892 3.985 286.482 4.145C286.082 4.295 285.662 4.52 285.222 4.82L284.832 4.1C285.342 3.75 285.842 3.49 286.332 3.32C286.822 3.14 287.322 3.05 287.832 3.05C288.792 3.05 289.552 3.325 290.112 3.875C290.672 4.425 290.952 5.185 290.952 6.155V9.77C290.952 9.91 290.982 10.015 291.042 10.085C291.102 10.145 291.197 10.18 291.327 10.19V11C291.217 11.01 291.122 11.02 291.042 11.03C290.962 11.04 290.902 11.04 290.862 11.03C290.612 11.02 290.422 10.94 290.292 10.79C290.162 10.64 290.092 10.48 290.082 10.31L290.067 9.74C289.717 10.19 289.262 10.54 288.702 10.79C288.142 11.03 287.572 11.15 286.992 11.15C286.492 11.15 286.037 11.045 285.627 10.835C285.227 10.615 284.912 10.325 284.682 9.965C284.462 9.595 284.352 9.19 284.352 8.75ZM289.587 9.35C289.697 9.21 289.782 9.075 289.842 8.945C289.902 8.815 289.932 8.7 289.932 8.6V7.46C289.592 7.33 289.237 7.23 288.867 7.16C288.507 7.09 288.142 7.055 287.772 7.055C287.042 7.055 286.452 7.2 286.002 7.49C285.552 7.78 285.327 8.175 285.327 8.675C285.327 8.965 285.402 9.24 285.552 9.5C285.702 9.75 285.922 9.96 286.212 10.13C286.502 10.29 286.842 10.37 287.232 10.37C287.722 10.37 288.177 10.275 288.597 10.085C289.027 9.895 289.357 9.65 289.587 9.35ZM292.631 7.115C292.631 6.375 292.781 5.7 293.081 5.09C293.391 4.47 293.816 3.975 294.356 3.605C294.896 3.235 295.511 3.05 296.201 3.05C296.851 3.05 297.431 3.225 297.941 3.575C298.461 3.915 298.866 4.33 299.156 4.82V0.0499997H300.176V9.77C300.176 9.91 300.206 10.015 300.266 10.085C300.326 10.145 300.416 10.18 300.536 10.19V11C300.336 11.03 300.181 11.04 300.071 11.03C299.861 11.02 299.676 10.935 299.516 10.775C299.356 10.615 299.276 10.44 299.276 10.25V9.485C298.966 9.995 298.546 10.4 298.016 10.7C297.486 11 296.936 11.15 296.366 11.15C295.826 11.15 295.326 11.04 294.866 10.82C294.416 10.6 294.021 10.3 293.681 9.92C293.351 9.54 293.091 9.11 292.901 8.63C292.721 8.14 292.631 7.635 292.631 7.115ZM299.156 8.315V5.9C299.026 5.54 298.816 5.215 298.526 4.925C298.236 4.625 297.906 4.39 297.536 4.22C297.176 4.04 296.816 3.95 296.456 3.95C296.036 3.95 295.656 4.04 295.316 4.22C294.976 4.39 294.681 4.625 294.431 4.925C294.191 5.225 294.006 5.565 293.876 5.945C293.746 6.325 293.681 6.715 293.681 7.115C293.681 7.535 293.751 7.935 293.891 8.315C294.041 8.695 294.251 9.035 294.521 9.335C294.791 9.625 295.101 9.85 295.451 10.01C295.801 10.17 296.181 10.25 296.591 10.25C296.851 10.25 297.121 10.2 297.401 10.1C297.681 10 297.946 9.865 298.196 9.695C298.456 9.515 298.671 9.305 298.841 9.065C299.011 8.825 299.116 8.575 299.156 8.315ZM302.487 11V3.185H303.507V11H302.487ZM302.487 1.55V0.0499997H303.507V1.55H302.487ZM309.744 11.15C309.094 11.15 308.509 10.98 307.989 10.64C307.479 10.3 307.074 9.88 306.774 9.38V14.195H305.754V3.185H306.669V4.7C306.979 4.21 307.394 3.815 307.914 3.515C308.434 3.205 308.989 3.05 309.579 3.05C310.119 3.05 310.614 3.165 311.064 3.395C311.514 3.615 311.904 3.915 312.234 4.295C312.564 4.675 312.819 5.11 312.999 5.6C313.189 6.08 313.284 6.58 313.284 7.1C313.284 7.83 313.134 8.505 312.834 9.125C312.544 9.735 312.134 10.225 311.604 10.595C311.074 10.965 310.454 11.15 309.744 11.15ZM309.459 10.25C309.889 10.25 310.274 10.165 310.614 9.995C310.954 9.815 311.244 9.575 311.484 9.275C311.734 8.975 311.924 8.64 312.054 8.27C312.184 7.89 312.249 7.5 312.249 7.1C312.249 6.68 312.174 6.28 312.024 5.9C311.884 5.52 311.679 5.185 311.409 4.895C311.139 4.605 310.829 4.375 310.479 4.205C310.129 4.035 309.749 3.95 309.339 3.95C309.079 3.95 308.809 4 308.529 4.1C308.249 4.2 307.979 4.345 307.719 4.535C307.469 4.715 307.259 4.92 307.089 5.15C306.919 5.38 306.814 5.625 306.774 5.885V8.285C306.934 8.655 307.149 8.99 307.419 9.29C307.689 9.58 307.999 9.815 308.349 9.995C308.709 10.165 309.079 10.25 309.459 10.25ZM315.012 11V3.185H316.032V11H315.012ZM315.012 1.55V0.0499997H316.032V1.55H315.012ZM320.843 11.15C320.203 11.15 319.608 11.045 319.058 10.835C318.508 10.625 318.033 10.305 317.633 9.875L318.053 9.155C318.493 9.565 318.933 9.865 319.373 10.055C319.823 10.235 320.298 10.325 320.798 10.325C321.408 10.325 321.903 10.205 322.283 9.965C322.663 9.715 322.853 9.36 322.853 8.9C322.853 8.59 322.758 8.355 322.568 8.195C322.388 8.025 322.123 7.89 321.773 7.79C321.433 7.68 321.023 7.565 320.543 7.445C320.003 7.295 319.548 7.14 319.178 6.98C318.818 6.81 318.543 6.6 318.353 6.35C318.173 6.09 318.083 5.755 318.083 5.345C318.083 4.835 318.208 4.415 318.458 4.085C318.718 3.745 319.068 3.49 319.508 3.32C319.958 3.14 320.458 3.05 321.008 3.05C321.608 3.05 322.138 3.145 322.598 3.335C323.058 3.525 323.433 3.79 323.723 4.13L323.228 4.82C322.948 4.5 322.613 4.265 322.223 4.115C321.843 3.955 321.418 3.875 320.948 3.875C320.628 3.875 320.323 3.92 320.033 4.01C319.743 4.09 319.503 4.23 319.313 4.43C319.133 4.62 319.043 4.885 319.043 5.225C319.043 5.505 319.113 5.725 319.253 5.885C319.393 6.035 319.603 6.165 319.883 6.275C320.163 6.375 320.508 6.485 320.918 6.605C321.508 6.765 322.023 6.93 322.463 7.1C322.903 7.26 323.243 7.47 323.483 7.73C323.723 7.99 323.843 8.355 323.843 8.825C323.843 9.555 323.568 10.125 323.018 10.535C322.468 10.945 321.743 11.15 320.843 11.15ZM328.919 11.15C328.349 11.15 327.824 11.045 327.344 10.835C326.874 10.615 326.459 10.315 326.099 9.935C325.749 9.555 325.474 9.12 325.274 8.63C325.084 8.14 324.989 7.62 324.989 7.07C324.989 6.33 325.154 5.655 325.484 5.045C325.814 4.435 326.274 3.95 326.864 3.59C327.454 3.23 328.134 3.05 328.904 3.05C329.634 3.05 330.279 3.22 330.839 3.56C331.399 3.89 331.814 4.34 332.084 4.91L331.094 5.225C330.874 4.825 330.564 4.515 330.164 4.295C329.774 4.065 329.339 3.95 328.859 3.95C328.339 3.95 327.864 4.085 327.434 4.355C327.004 4.625 326.659 4.995 326.399 5.465C326.149 5.935 326.024 6.47 326.024 7.07C326.024 7.66 326.154 8.195 326.414 8.675C326.674 9.155 327.019 9.54 327.449 9.83C327.879 10.11 328.354 10.25 328.874 10.25C329.214 10.25 329.539 10.19 329.849 10.07C330.169 9.95 330.444 9.79 330.674 9.59C330.914 9.38 331.074 9.155 331.154 8.915L332.159 9.215C332.019 9.585 331.784 9.92 331.454 10.22C331.134 10.51 330.754 10.74 330.314 10.91C329.884 11.07 329.419 11.15 328.919 11.15ZM333.762 11V3.185H334.782V11H333.762ZM333.762 1.55V0.0499997H334.782V1.55H333.762ZM343.598 11H342.578V6.635C342.578 5.715 342.443 5.045 342.173 4.625C341.903 4.195 341.478 3.98 340.898 3.98C340.498 3.98 340.103 4.08 339.713 4.28C339.323 4.47 338.978 4.735 338.678 5.075C338.388 5.405 338.178 5.785 338.048 6.215V11H337.028V3.185H337.958V4.955C338.168 4.575 338.443 4.245 338.783 3.965C339.123 3.675 339.508 3.45 339.938 3.29C340.368 3.13 340.813 3.05 341.273 3.05C341.703 3.05 342.068 3.13 342.368 3.29C342.668 3.45 342.908 3.68 343.088 3.98C343.268 4.27 343.398 4.625 343.478 5.045C343.558 5.455 343.598 5.915 343.598 6.425V11ZM348.908 11.105C348.378 11.105 347.888 10.995 347.438 10.775C346.988 10.555 346.598 10.26 346.268 9.89C345.948 9.51 345.698 9.08 345.518 8.6C345.338 8.12 345.248 7.625 345.248 7.115C345.248 6.565 345.333 6.05 345.503 5.57C345.683 5.08 345.933 4.645 346.253 4.265C346.583 3.885 346.968 3.59 347.408 3.38C347.848 3.16 348.338 3.05 348.878 3.05C349.548 3.05 350.128 3.22 350.618 3.56C351.118 3.9 351.538 4.32 351.878 4.82V3.185H352.793V11.03C352.793 11.75 352.618 12.355 352.268 12.845C351.928 13.345 351.463 13.72 350.873 13.97C350.293 14.22 349.658 14.345 348.968 14.345C348.078 14.345 347.358 14.185 346.808 13.865C346.258 13.545 345.808 13.115 345.458 12.575L346.088 12.08C346.398 12.57 346.808 12.935 347.318 13.175C347.838 13.415 348.388 13.535 348.968 13.535C349.478 13.535 349.943 13.44 350.363 13.25C350.793 13.07 351.133 12.795 351.383 12.425C351.643 12.055 351.773 11.59 351.773 11.03V9.485C351.473 9.975 351.063 10.37 350.543 10.67C350.023 10.96 349.478 11.105 348.908 11.105ZM349.193 10.25C349.503 10.25 349.798 10.195 350.078 10.085C350.368 9.975 350.633 9.83 350.873 9.65C351.113 9.46 351.313 9.25 351.473 9.02C351.633 8.79 351.733 8.555 351.773 8.315V5.9C351.623 5.52 351.408 5.185 351.128 4.895C350.848 4.595 350.528 4.365 350.168 4.205C349.818 4.035 349.453 3.95 349.073 3.95C348.633 3.95 348.238 4.045 347.888 4.235C347.548 4.415 347.258 4.66 347.018 4.97C346.788 5.27 346.608 5.61 346.478 5.99C346.348 6.37 346.283 6.75 346.283 7.13C346.283 7.55 346.358 7.95 346.508 8.33C346.658 8.7 346.863 9.035 347.123 9.335C347.393 9.625 347.703 9.85 348.053 10.01C348.413 10.17 348.793 10.25 349.193 10.25ZM4.5 29.15C3.94 29.15 3.42 29.045 2.94 28.835C2.46 28.615 2.045 28.32 1.695 27.95C1.345 27.57 1.07 27.135 0.87 26.645C0.68 26.155 0.585 25.63 0.585 25.07C0.585 24.34 0.75 23.67 1.08 23.06C1.42 22.45 1.885 21.965 2.475 21.605C3.065 21.235 3.735 21.05 4.485 21.05C5.255 21.05 5.925 21.235 6.495 21.605C7.075 21.975 7.53 22.465 7.86 23.075C8.19 23.675 8.355 24.335 8.355 25.055C8.355 25.135 8.355 25.215 8.355 25.295C8.355 25.365 8.35 25.42 8.34 25.46H1.65C1.7 26.02 1.855 26.52 2.115 26.96C2.385 27.39 2.73 27.735 3.15 27.995C3.58 28.245 4.045 28.37 4.545 28.37C5.055 28.37 5.535 28.24 5.985 27.98C6.445 27.72 6.765 27.38 6.945 26.96L7.83 27.2C7.67 27.57 7.425 27.905 7.095 28.205C6.765 28.505 6.375 28.74 5.925 28.91C5.485 29.07 5.01 29.15 4.5 29.15ZM1.62 24.725H7.395C7.355 24.155 7.2 23.655 6.93 23.225C6.67 22.795 6.325 22.46 5.895 22.22C5.475 21.97 5.01 21.845 4.5 21.845C3.99 21.845 3.525 21.97 3.105 22.22C2.685 22.46 2.34 22.8 2.07 23.24C1.81 23.67 1.66 24.165 1.62 24.725ZM9.97371 18.05H10.9937V27.23C10.9937 27.62 11.0637 27.875 11.2037 27.995C11.3437 28.115 11.5137 28.175 11.7137 28.175C11.8937 28.175 12.0737 28.155 12.2537 28.115C12.4337 28.075 12.5887 28.035 12.7187 27.995L12.8987 28.82C12.7087 28.9 12.4737 28.965 12.1937 29.015C11.9237 29.065 11.6887 29.09 11.4887 29.09C11.0287 29.09 10.6587 28.955 10.3787 28.685C10.1087 28.415 9.97371 28.045 9.97371 27.575V18.05ZM14.0156 29V21.185H15.0356V29H14.0156ZM14.0156 19.55V18.05H15.0356V19.55H14.0156ZM21.0322 28.625C20.9522 28.655 20.8272 28.71 20.6572 28.79C20.4872 28.87 20.2822 28.94 20.0422 29C19.8022 29.06 19.5422 29.09 19.2622 29.09C18.9722 29.09 18.6972 29.035 18.4372 28.925C18.1872 28.815 17.9872 28.65 17.8372 28.43C17.6872 28.2 17.6122 27.92 17.6122 27.59V21.995H16.5322V21.185H17.6122V18.545H18.6322V21.185H20.4322V21.995H18.6322V27.305C18.6522 27.585 18.7522 27.795 18.9322 27.935C19.1222 28.075 19.3372 28.145 19.5772 28.145C19.8572 28.145 20.1122 28.1 20.3422 28.01C20.5722 27.91 20.7122 27.84 20.7622 27.8L21.0322 28.625ZM22.1566 29V27.53H23.0416V29H22.1566Z" fill="white"/>
</svg>
