<svg width="91" height="9" viewBox="0 0 91 9" fill="none" xmlns="http://www.w3.org/2000/svg">
<path d="M0.801 7V0.61H1.431V6.442H5.121V7H0.801ZM7.8146 7.09C7.4786 7.09 7.1666 7.027 6.8786 6.901C6.5966 6.769 6.3506 6.592 6.1406 6.37C5.9366 6.142 5.7776 5.884 5.6636 5.596C5.5496 5.302 5.4926 4.993 5.4926 4.669C5.4926 4.333 5.5496 4.021 5.6636 3.733C5.7776 3.439 5.9396 3.181 6.1496 2.959C6.3596 2.731 6.6056 2.554 6.8876 2.428C7.1756 2.296 7.4876 2.23 7.8236 2.23C8.1596 2.23 8.4686 2.296 8.7506 2.428C9.0326 2.554 9.2786 2.731 9.4886 2.959C9.6986 3.181 9.8606 3.439 9.9746 3.733C10.0886 4.021 10.1456 4.333 10.1456 4.669C10.1456 4.993 10.0886 5.302 9.9746 5.596C9.8606 5.884 9.6986 6.142 9.4886 6.37C9.2846 6.592 9.0386 6.769 8.7506 6.901C8.4686 7.027 8.1566 7.09 7.8146 7.09ZM6.1136 4.678C6.1136 5.026 6.1886 5.344 6.3386 5.632C6.4946 5.914 6.7016 6.139 6.9596 6.307C7.2176 6.469 7.5026 6.55 7.8146 6.55C8.1266 6.55 8.4116 6.466 8.6696 6.298C8.9276 6.13 9.1346 5.902 9.2906 5.614C9.4466 5.32 9.5246 5.002 9.5246 4.66C9.5246 4.312 9.4466 3.994 9.2906 3.706C9.1346 3.418 8.9276 3.19 8.6696 3.022C8.4116 2.854 8.1266 2.77 7.8146 2.77C7.5026 2.77 7.2176 2.857 6.9596 3.031C6.7076 3.205 6.5036 3.436 6.3476 3.724C6.1916 4.006 6.1136 4.324 6.1136 4.678ZM13.5091 2.851C13.1011 2.863 12.7411 2.977 12.4291 3.193C12.1231 3.409 11.9071 3.706 11.7811 4.084V7H11.1691V2.311H11.7451V3.436C11.9071 3.106 12.1201 2.839 12.3841 2.635C12.6541 2.431 12.9391 2.317 13.2391 2.293C13.2991 2.287 13.3501 2.284 13.3921 2.284C13.4401 2.284 13.4791 2.287 13.5091 2.293V2.851ZM16.2 7.09C15.864 7.09 15.552 7.027 15.264 6.901C14.976 6.769 14.727 6.592 14.517 6.37C14.307 6.142 14.142 5.881 14.022 5.587C13.908 5.293 13.851 4.978 13.851 4.642C13.851 4.204 13.95 3.802 14.148 3.436C14.352 3.07 14.631 2.779 14.985 2.563C15.339 2.341 15.741 2.23 16.191 2.23C16.653 2.23 17.055 2.341 17.397 2.563C17.745 2.785 18.018 3.079 18.216 3.445C18.414 3.805 18.513 4.201 18.513 4.633C18.513 4.681 18.513 4.729 18.513 4.777C18.513 4.819 18.51 4.852 18.504 4.876H14.49C14.52 5.212 14.613 5.512 14.769 5.776C14.931 6.034 15.138 6.241 15.39 6.397C15.648 6.547 15.927 6.622 16.227 6.622C16.533 6.622 16.821 6.544 17.091 6.388C17.367 6.232 17.559 6.028 17.667 5.776L18.198 5.92C18.102 6.142 17.955 6.343 17.757 6.523C17.559 6.703 17.325 6.844 17.055 6.946C16.791 7.042 16.506 7.09 16.2 7.09ZM14.472 4.435H17.937C17.913 4.093 17.82 3.793 17.658 3.535C17.502 3.277 17.295 3.076 17.037 2.932C16.785 2.782 16.506 2.707 16.2 2.707C15.894 2.707 15.615 2.782 15.363 2.932C15.111 3.076 14.904 3.28 14.742 3.544C14.586 3.802 14.496 4.099 14.472 4.435ZM26.4322 7H25.8202V4.381C25.8202 3.835 25.7332 3.433 25.5592 3.175C25.3852 2.917 25.1272 2.788 24.7852 2.788C24.4312 2.788 24.1132 2.914 23.8312 3.166C23.5552 3.418 23.3602 3.742 23.2462 4.138V7H22.6342V4.381C22.6342 3.829 22.5502 3.427 22.3822 3.175C22.2142 2.917 21.9562 2.788 21.6082 2.788C21.2602 2.788 20.9452 2.911 20.6632 3.157C20.3812 3.403 20.1832 3.727 20.0692 4.129V7H19.4572V2.311H20.0152V3.373C20.2132 3.007 20.4652 2.725 20.7712 2.527C21.0832 2.329 21.4282 2.23 21.8062 2.23C22.1962 2.23 22.5112 2.341 22.7512 2.563C22.9912 2.785 23.1382 3.076 23.1922 3.436C23.4082 3.04 23.6662 2.74 23.9662 2.536C24.2722 2.332 24.6172 2.23 25.0012 2.23C25.2652 2.23 25.4872 2.278 25.6672 2.374C25.8532 2.47 26.0002 2.608 26.1082 2.788C26.2222 2.962 26.3032 3.175 26.3512 3.427C26.4052 3.673 26.4322 3.949 26.4322 4.255V7ZM30.0217 7V2.311H30.6337V7H30.0217ZM30.0217 1.33V0.43H30.6337V1.33H30.0217ZM34.3756 7.09C33.9856 7.09 33.6346 6.988 33.3226 6.784C33.0166 6.58 32.7736 6.328 32.5936 6.028V8.917H31.9816V2.311H32.5306V3.22C32.7166 2.926 32.9656 2.689 33.2776 2.509C33.5896 2.323 33.9226 2.23 34.2766 2.23C34.6006 2.23 34.8976 2.299 35.1676 2.437C35.4376 2.569 35.6716 2.749 35.8696 2.977C36.0676 3.205 36.2206 3.466 36.3286 3.76C36.4426 4.048 36.4996 4.348 36.4996 4.66C36.4996 5.098 36.4096 5.503 36.2296 5.875C36.0556 6.241 35.8096 6.535 35.4916 6.757C35.1736 6.979 34.8016 7.09 34.3756 7.09ZM34.2046 6.55C34.4626 6.55 34.6936 6.499 34.8976 6.397C35.1016 6.289 35.2756 6.145 35.4196 5.965C35.5696 5.785 35.6836 5.584 35.7616 5.362C35.8396 5.134 35.8786 4.9 35.8786 4.66C35.8786 4.408 35.8336 4.168 35.7436 3.94C35.6596 3.712 35.5366 3.511 35.3746 3.337C35.2126 3.163 35.0266 3.025 34.8166 2.923C34.6066 2.821 34.3786 2.77 34.1326 2.77C33.9766 2.77 33.8146 2.8 33.6466 2.86C33.4786 2.92 33.3166 3.007 33.1606 3.121C33.0106 3.229 32.8846 3.352 32.7826 3.49C32.6806 3.628 32.6176 3.775 32.5936 3.931V5.371C32.6896 5.593 32.8186 5.794 32.9806 5.974C33.1426 6.148 33.3286 6.289 33.5386 6.397C33.7546 6.499 33.9766 6.55 34.2046 6.55ZM39.0753 7.09C38.6913 7.09 38.3343 7.027 38.0043 6.901C37.6743 6.775 37.3893 6.583 37.1493 6.325L37.4013 5.893C37.6653 6.139 37.9293 6.319 38.1933 6.433C38.4633 6.541 38.7483 6.595 39.0483 6.595C39.4143 6.595 39.7113 6.523 39.9393 6.379C40.1673 6.229 40.2813 6.016 40.2813 5.74C40.2813 5.554 40.2243 5.413 40.1103 5.317C40.0023 5.215 39.8433 5.134 39.6333 5.074C39.4293 5.008 39.1833 4.939 38.8953 4.867C38.5713 4.777 38.2983 4.684 38.0763 4.588C37.8603 4.486 37.6953 4.36 37.5813 4.21C37.4733 4.054 37.4193 3.853 37.4193 3.607C37.4193 3.301 37.4943 3.049 37.6443 2.851C37.8003 2.647 38.0103 2.494 38.2743 2.392C38.5443 2.284 38.8443 2.23 39.1743 2.23C39.5343 2.23 39.8523 2.287 40.1283 2.401C40.4043 2.515 40.6293 2.674 40.8033 2.878L40.5063 3.292C40.3383 3.1 40.1373 2.959 39.9033 2.869C39.6753 2.773 39.4203 2.725 39.1383 2.725C38.9463 2.725 38.7633 2.752 38.5893 2.806C38.4153 2.854 38.2713 2.938 38.1573 3.058C38.0493 3.172 37.9953 3.331 37.9953 3.535C37.9953 3.703 38.0373 3.835 38.1213 3.931C38.2053 4.021 38.3313 4.099 38.4993 4.165C38.6673 4.225 38.8743 4.291 39.1203 4.363C39.4743 4.459 39.7833 4.558 40.0473 4.66C40.3113 4.756 40.5153 4.882 40.6593 5.038C40.8033 5.194 40.8753 5.413 40.8753 5.695C40.8753 6.133 40.7103 6.475 40.3803 6.721C40.0503 6.967 39.6153 7.09 39.0753 7.09ZM41.8419 5.065V2.311H42.4539V4.957C42.4539 5.491 42.5439 5.89 42.7239 6.154C42.9099 6.418 43.1829 6.55 43.5429 6.55C43.7829 6.55 44.0139 6.499 44.2359 6.397C44.4639 6.289 44.6649 6.139 44.8389 5.947C45.0129 5.749 45.1449 5.521 45.2349 5.263V2.311H45.8469V6.262C45.8469 6.346 45.8649 6.409 45.9009 6.451C45.9369 6.487 45.9909 6.508 46.0629 6.514V7C45.9909 7.006 45.9339 7.009 45.8919 7.009C45.8499 7.015 45.8109 7.018 45.7749 7.018C45.6549 7.006 45.5499 6.958 45.4599 6.874C45.3759 6.79 45.3309 6.688 45.3249 6.568L45.3069 5.938C45.1029 6.298 44.8239 6.58 44.4699 6.784C44.1219 6.988 43.7439 7.09 43.3359 7.09C42.8439 7.09 42.4719 6.919 42.2199 6.577C41.9679 6.235 41.8419 5.731 41.8419 5.065ZM54.2057 7H53.5937V4.381C53.5937 3.835 53.5067 3.433 53.3327 3.175C53.1587 2.917 52.9007 2.788 52.5587 2.788C52.2047 2.788 51.8867 2.914 51.6047 3.166C51.3287 3.418 51.1337 3.742 51.0197 4.138V7H50.4077V4.381C50.4077 3.829 50.3237 3.427 50.1557 3.175C49.9877 2.917 49.7297 2.788 49.3817 2.788C49.0337 2.788 48.7187 2.911 48.4367 3.157C48.1547 3.403 47.9567 3.727 47.8427 4.129V7H47.2307V2.311H47.7887V3.373C47.9867 3.007 48.2387 2.725 48.5447 2.527C48.8567 2.329 49.2017 2.23 49.5797 2.23C49.9697 2.23 50.2847 2.341 50.5247 2.563C50.7647 2.785 50.9117 3.076 50.9657 3.436C51.1817 3.04 51.4397 2.74 51.7397 2.536C52.0457 2.332 52.3907 2.23 52.7747 2.23C53.0387 2.23 53.2607 2.278 53.4407 2.374C53.6267 2.47 53.7737 2.608 53.8817 2.788C53.9957 2.962 54.0767 3.175 54.1247 3.427C54.1787 3.673 54.2057 3.949 54.2057 4.255V7ZM57.4801 4.669C57.4801 4.225 57.5701 3.82 57.7501 3.454C57.9361 3.082 58.1911 2.785 58.5151 2.563C58.8391 2.341 59.2081 2.23 59.6221 2.23C60.0121 2.23 60.3601 2.335 60.6661 2.545C60.9781 2.749 61.2211 2.998 61.3951 3.292V0.43H62.0071V6.262C62.0071 6.346 62.0251 6.409 62.0611 6.451C62.0971 6.487 62.1511 6.508 62.2231 6.514V7C62.1031 7.018 62.0101 7.024 61.9441 7.018C61.8181 7.012 61.7071 6.961 61.6111 6.865C61.5151 6.769 61.4671 6.664 61.4671 6.55V6.091C61.2811 6.397 61.0291 6.64 60.7111 6.82C60.3931 7 60.0631 7.09 59.7211 7.09C59.3971 7.09 59.0971 7.024 58.8211 6.892C58.5511 6.76 58.3141 6.58 58.1101 6.352C57.9121 6.124 57.7561 5.866 57.6421 5.578C57.5341 5.284 57.4801 4.981 57.4801 4.669ZM61.3951 5.389V3.94C61.3171 3.724 61.1911 3.529 61.0171 3.355C60.8431 3.175 60.6451 3.034 60.4231 2.932C60.2071 2.824 59.9911 2.77 59.7751 2.77C59.5231 2.77 59.2951 2.824 59.0911 2.932C58.8871 3.034 58.7101 3.175 58.5601 3.355C58.4161 3.535 58.3051 3.739 58.2271 3.967C58.1491 4.195 58.1101 4.429 58.1101 4.669C58.1101 4.921 58.1521 5.161 58.2361 5.389C58.3261 5.617 58.4521 5.821 58.6141 6.001C58.7761 6.175 58.9621 6.31 59.1721 6.406C59.3821 6.502 59.6101 6.55 59.8561 6.55C60.0121 6.55 60.1741 6.52 60.3421 6.46C60.5101 6.4 60.6691 6.319 60.8191 6.217C60.9751 6.109 61.1041 5.983 61.2061 5.839C61.3081 5.695 61.3711 5.545 61.3951 5.389ZM65.3918 7.09C65.0558 7.09 64.7438 7.027 64.4558 6.901C64.1738 6.769 63.9278 6.592 63.7178 6.37C63.5138 6.142 63.3548 5.884 63.2408 5.596C63.1268 5.302 63.0698 4.993 63.0698 4.669C63.0698 4.333 63.1268 4.021 63.2408 3.733C63.3548 3.439 63.5168 3.181 63.7268 2.959C63.9368 2.731 64.1828 2.554 64.4648 2.428C64.7528 2.296 65.0648 2.23 65.4008 2.23C65.7368 2.23 66.0458 2.296 66.3278 2.428C66.6098 2.554 66.8558 2.731 67.0658 2.959C67.2758 3.181 67.4378 3.439 67.5518 3.733C67.6658 4.021 67.7228 4.333 67.7228 4.669C67.7228 4.993 67.6658 5.302 67.5518 5.596C67.4378 5.884 67.2758 6.142 67.0658 6.37C66.8618 6.592 66.6158 6.769 66.3278 6.901C66.0458 7.027 65.7338 7.09 65.3918 7.09ZM63.6908 4.678C63.6908 5.026 63.7658 5.344 63.9158 5.632C64.0718 5.914 64.2788 6.139 64.5368 6.307C64.7948 6.469 65.0798 6.55 65.3918 6.55C65.7038 6.55 65.9888 6.466 66.2468 6.298C66.5048 6.13 66.7118 5.902 66.8678 5.614C67.0238 5.32 67.1018 5.002 67.1018 4.66C67.1018 4.312 67.0238 3.994 66.8678 3.706C66.7118 3.418 66.5048 3.19 66.2468 3.022C65.9888 2.854 65.7038 2.77 65.3918 2.77C65.0798 2.77 64.7948 2.857 64.5368 3.031C64.2848 3.205 64.0808 3.436 63.9248 3.724C63.7688 4.006 63.6908 4.324 63.6908 4.678ZM68.7733 0.43H69.3853V5.938C69.3853 6.172 69.4273 6.325 69.5113 6.397C69.5953 6.469 69.6973 6.505 69.8173 6.505C69.9253 6.505 70.0333 6.493 70.1413 6.469C70.2493 6.445 70.3423 6.421 70.4203 6.397L70.5283 6.892C70.4143 6.94 70.2733 6.979 70.1053 7.009C69.9433 7.039 69.8023 7.054 69.6823 7.054C69.4063 7.054 69.1843 6.973 69.0163 6.811C68.8543 6.649 68.7733 6.427 68.7733 6.145V0.43ZM73.1964 7.09C72.8604 7.09 72.5484 7.027 72.2604 6.901C71.9784 6.769 71.7324 6.592 71.5224 6.37C71.3184 6.142 71.1594 5.884 71.0454 5.596C70.9314 5.302 70.8744 4.993 70.8744 4.669C70.8744 4.333 70.9314 4.021 71.0454 3.733C71.1594 3.439 71.3214 3.181 71.5314 2.959C71.7414 2.731 71.9874 2.554 72.2694 2.428C72.5574 2.296 72.8694 2.23 73.2054 2.23C73.5414 2.23 73.8504 2.296 74.1324 2.428C74.4144 2.554 74.6604 2.731 74.8704 2.959C75.0804 3.181 75.2424 3.439 75.3564 3.733C75.4704 4.021 75.5274 4.333 75.5274 4.669C75.5274 4.993 75.4704 5.302 75.3564 5.596C75.2424 5.884 75.0804 6.142 74.8704 6.37C74.6664 6.592 74.4204 6.769 74.1324 6.901C73.8504 7.027 73.5384 7.09 73.1964 7.09ZM71.4954 4.678C71.4954 5.026 71.5704 5.344 71.7204 5.632C71.8764 5.914 72.0834 6.139 72.3414 6.307C72.5994 6.469 72.8844 6.55 73.1964 6.55C73.5084 6.55 73.7934 6.466 74.0514 6.298C74.3094 6.13 74.5164 5.902 74.6724 5.614C74.8284 5.32 74.9064 5.002 74.9064 4.66C74.9064 4.312 74.8284 3.994 74.6724 3.706C74.5164 3.418 74.3094 3.19 74.0514 3.022C73.7934 2.854 73.5084 2.77 73.1964 2.77C72.8844 2.77 72.5994 2.857 72.3414 3.031C72.0894 3.205 71.8854 3.436 71.7294 3.724C71.5734 4.006 71.4954 4.324 71.4954 4.678ZM78.891 2.851C78.483 2.863 78.123 2.977 77.811 3.193C77.505 3.409 77.289 3.706 77.163 4.084V7H76.551V2.311H77.127V3.436C77.289 3.106 77.502 2.839 77.766 2.635C78.036 2.431 78.321 2.317 78.621 2.293C78.681 2.287 78.732 2.284 78.774 2.284C78.822 2.284 78.861 2.287 78.891 2.293V2.851ZM83.3283 7.09C82.9443 7.09 82.5873 7.027 82.2573 6.901C81.9273 6.775 81.6423 6.583 81.4023 6.325L81.6543 5.893C81.9183 6.139 82.1823 6.319 82.4463 6.433C82.7163 6.541 83.0013 6.595 83.3013 6.595C83.6673 6.595 83.9643 6.523 84.1923 6.379C84.4203 6.229 84.5343 6.016 84.5343 5.74C84.5343 5.554 84.4773 5.413 84.3633 5.317C84.2553 5.215 84.0963 5.134 83.8863 5.074C83.6823 5.008 83.4363 4.939 83.1483 4.867C82.8243 4.777 82.5513 4.684 82.3293 4.588C82.1133 4.486 81.9483 4.36 81.8343 4.21C81.7263 4.054 81.6723 3.853 81.6723 3.607C81.6723 3.301 81.7473 3.049 81.8973 2.851C82.0533 2.647 82.2633 2.494 82.5273 2.392C82.7973 2.284 83.0973 2.23 83.4273 2.23C83.7873 2.23 84.1053 2.287 84.3813 2.401C84.6573 2.515 84.8823 2.674 85.0563 2.878L84.7593 3.292C84.5913 3.1 84.3903 2.959 84.1563 2.869C83.9283 2.773 83.6733 2.725 83.3913 2.725C83.1993 2.725 83.0163 2.752 82.8423 2.806C82.6683 2.854 82.5243 2.938 82.4103 3.058C82.3023 3.172 82.2483 3.331 82.2483 3.535C82.2483 3.703 82.2903 3.835 82.3743 3.931C82.4583 4.021 82.5843 4.099 82.7523 4.165C82.9203 4.225 83.1273 4.291 83.3733 4.363C83.7273 4.459 84.0363 4.558 84.3003 4.66C84.5643 4.756 84.7683 4.882 84.9123 5.038C85.0563 5.194 85.1283 5.413 85.1283 5.695C85.1283 6.133 84.9633 6.475 84.6333 6.721C84.3033 6.967 83.8683 7.09 83.3283 7.09ZM86.1398 7V2.311H86.7518V7H86.1398ZM86.1398 1.33V0.43H86.7518V1.33H86.1398ZM90.3498 6.775C90.3018 6.793 90.2268 6.826 90.1248 6.874C90.0228 6.922 89.8998 6.964 89.7558 7C89.6118 7.036 89.4558 7.054 89.2878 7.054C89.1138 7.054 88.9488 7.021 88.7928 6.955C88.6428 6.889 88.5228 6.79 88.4328 6.658C88.3428 6.52 88.2978 6.352 88.2978 6.154V2.797H87.6498V2.311H88.2978V0.727H88.9098V2.311H89.9898V2.797H88.9098V5.983C88.9218 6.151 88.9818 6.277 89.0898 6.361C89.2038 6.445 89.3328 6.487 89.4768 6.487C89.6448 6.487 89.7978 6.46 89.9358 6.406C90.0738 6.346 90.1578 6.304 90.1878 6.28L90.3498 6.775Z" fill="white"/>
</svg>
