<svg width="13" height="21" viewBox="0 0 13 21" fill="none" xmlns="http://www.w3.org/2000/svg">
<path d="M6.01313 0C2.70101 0.000295138 0.000249131 3.19552 4.32134e-09 7.11935C-8.22545e-05 9.52218 1.17424 11.244 1.74892 12.6056C1.75607 12.6223 1.76374 12.6386 1.77194 12.6546L5.50297 20.0243C5.55831 20.133 5.63642 20.2229 5.72973 20.2854C5.82304 20.3478 5.92838 20.3806 6.03554 20.3806C6.1427 20.3806 6.24804 20.3478 6.34135 20.2854C6.43466 20.2229 6.51277 20.133 6.56811 20.0243L10.3004 12.6546C10.3086 12.6386 10.3162 12.6223 10.3234 12.6056C10.9061 11.2251 12.0181 9.47111 12.0213 7.11935C12.021 3.19552 9.32514 0.000295138 6.01302 0H6.01313ZM6.01313 1.47479C8.65319 1.47503 10.7775 3.99171 10.7777 7.11935C10.7751 8.89981 9.87277 10.3745 9.21218 11.9366L6.03619 18.2128L2.85899 11.9481L2.85406 11.9367C2.18534 10.356 1.24353 8.93414 1.24359 7.11946C1.24379 3.99181 3.37298 1.47514 6.01304 1.4749L6.01313 1.47479ZM6.01313 3.41002C4.29053 3.41002 2.87721 5.07862 2.87721 7.11935C2.8772 9.16008 4.29053 10.8272 6.01313 10.8272C7.73572 10.8272 9.14296 9.16008 9.14296 7.11935C9.14296 5.07862 7.73572 3.41002 6.01313 3.41002ZM6.01313 4.88339C7.06358 4.88339 7.89929 5.87488 7.89929 7.11935C7.89929 8.36382 7.06359 9.35961 6.01313 9.35962C4.96267 9.35962 4.1221 8.36382 4.1221 7.11935C4.1221 5.87488 4.96267 4.88339 6.01313 4.88339Z" fill="white"/>
</svg>
