<svg width="64" height="10" viewBox="0 0 64 10" fill="none" xmlns="http://www.w3.org/2000/svg">
<path d="M0.849207 7V0.61H3.47721C3.74721 0.61 3.99321 0.667 4.21521 0.781C4.44321 0.895 4.64121 1.048 4.80921 1.24C4.97721 1.426 5.10621 1.636 5.19621 1.87C5.29221 2.104 5.34021 2.344 5.34021 2.59C5.34021 2.932 5.26221 3.256 5.10621 3.562C4.95621 3.862 4.74621 4.108 4.47621 4.3C4.21221 4.492 3.89721 4.588 3.53121 4.588H1.30821V7H0.849207ZM1.30821 4.165H3.51321C3.79521 4.165 4.03821 4.09 4.24221 3.94C4.44621 3.79 4.60221 3.595 4.71021 3.355C4.81821 3.115 4.87221 2.86 4.87221 2.59C4.87221 2.308 4.80621 2.05 4.67421 1.816C4.54821 1.576 4.37721 1.384 4.16121 1.24C3.95121 1.096 3.71721 1.024 3.45921 1.024H1.30821V4.165ZM8.21395 7.09C7.88395 7.09 7.57795 7.027 7.29595 6.901C7.01395 6.769 6.76795 6.592 6.55795 6.37C6.35395 6.142 6.19195 5.881 6.07195 5.587C5.95795 5.287 5.90095 4.972 5.90095 4.642C5.90095 4.198 5.99995 3.796 6.19795 3.436C6.39595 3.076 6.66895 2.788 7.01695 2.572C7.36495 2.35 7.75495 2.239 8.18695 2.239C8.63095 2.239 9.02395 2.35 9.36595 2.572C9.70795 2.794 9.97795 3.088 10.1759 3.454C10.3799 3.814 10.4819 4.21 10.4819 4.642C10.4819 4.678 10.4819 4.714 10.4819 4.75C10.4819 4.786 10.4789 4.816 10.4729 4.84H6.36895C6.39295 5.194 6.49195 5.515 6.66595 5.803C6.83995 6.091 7.06195 6.319 7.33195 6.487C7.60795 6.649 7.90795 6.73 8.23195 6.73C8.55595 6.73 8.86195 6.646 9.14995 6.478C9.43795 6.31 9.63895 6.094 9.75295 5.83L10.1489 5.938C10.0589 6.16 9.91495 6.358 9.71695 6.532C9.52495 6.706 9.29695 6.844 9.03295 6.946C8.77495 7.042 8.50195 7.09 8.21395 7.09ZM6.35095 4.489H10.0499C10.0259 4.123 9.92995 3.799 9.76195 3.517C9.59395 3.235 9.37195 3.013 9.09595 2.851C8.82595 2.689 8.52595 2.608 8.19595 2.608C7.86595 2.608 7.56595 2.689 7.29595 2.851C7.02595 3.013 6.80695 3.235 6.63895 3.517C6.47095 3.799 6.37495 4.123 6.35095 4.489ZM15.297 7H14.847V4.39C14.847 3.79 14.76 3.352 14.586 3.076C14.418 2.794 14.148 2.653 13.776 2.653C13.512 2.653 13.251 2.716 12.993 2.842C12.741 2.968 12.519 3.142 12.327 3.364C12.141 3.58 12.006 3.826 11.922 4.102V7H11.472V2.32H11.895V3.436C12.021 3.196 12.189 2.989 12.399 2.815C12.609 2.635 12.843 2.494 13.101 2.392C13.359 2.29 13.626 2.239 13.902 2.239C14.16 2.239 14.376 2.287 14.55 2.383C14.73 2.473 14.874 2.605 14.982 2.779C15.096 2.953 15.177 3.169 15.225 3.427C15.273 3.685 15.297 3.979 15.297 4.309V7ZM18.5476 7.072C18.2296 7.072 17.9326 7.006 17.6566 6.874C17.3866 6.742 17.1526 6.562 16.9546 6.334C16.7626 6.1 16.6096 5.842 16.4956 5.56C16.3876 5.272 16.3336 4.975 16.3336 4.669C16.3336 4.351 16.3846 4.045 16.4866 3.751C16.5946 3.457 16.7446 3.199 16.9366 2.977C17.1346 2.749 17.3656 2.569 17.6296 2.437C17.8936 2.305 18.1876 2.239 18.5116 2.239C18.9196 2.239 19.2736 2.347 19.5736 2.563C19.8796 2.773 20.1376 3.031 20.3476 3.337V2.32H20.7616V7.09C20.7616 7.51 20.6596 7.864 20.4556 8.152C20.2516 8.44 19.9816 8.653 19.6456 8.791C19.3096 8.935 18.9466 9.007 18.5566 9.007C18.0106 9.007 17.5756 8.908 17.2516 8.71C16.9336 8.512 16.6756 8.251 16.4776 7.927L16.7836 7.72C16.9696 8.032 17.2216 8.263 17.5396 8.413C17.8576 8.563 18.1966 8.638 18.5566 8.638C18.8746 8.638 19.1656 8.578 19.4296 8.458C19.6996 8.344 19.9126 8.17 20.0686 7.936C20.2306 7.708 20.3116 7.426 20.3116 7.09V6.064C20.1256 6.37 19.8706 6.616 19.5466 6.802C19.2286 6.982 18.8956 7.072 18.5476 7.072ZM18.6556 6.685C18.8536 6.685 19.0456 6.649 19.2316 6.577C19.4176 6.505 19.5886 6.409 19.7446 6.289C19.9006 6.163 20.0296 6.025 20.1316 5.875C20.2336 5.725 20.2936 5.575 20.3116 5.425V3.886C20.2216 3.646 20.0836 3.433 19.8976 3.247C19.7176 3.055 19.5136 2.908 19.2856 2.806C19.0576 2.698 18.8236 2.644 18.5836 2.644C18.3016 2.644 18.0496 2.704 17.8276 2.824C17.6056 2.944 17.4166 3.103 17.2606 3.301C17.1106 3.493 16.9936 3.712 16.9096 3.958C16.8316 4.198 16.7926 4.438 16.7926 4.678C16.7926 4.948 16.8406 5.203 16.9366 5.443C17.0326 5.683 17.1646 5.899 17.3326 6.091C17.5066 6.277 17.7046 6.424 17.9266 6.532C18.1546 6.634 18.3976 6.685 18.6556 6.685ZM22.1683 7V2.32H22.6183V7H22.1683ZM22.1683 1.258V0.43H22.6183V1.258H22.1683ZM27.8566 7H27.4066V4.39C27.4066 3.79 27.3196 3.352 27.1456 3.076C26.9776 2.794 26.7076 2.653 26.3356 2.653C26.0716 2.653 25.8106 2.716 25.5526 2.842C25.3006 2.968 25.0786 3.142 24.8866 3.364C24.7006 3.58 24.5656 3.826 24.4816 4.102V7H24.0316V2.32H24.4546V3.436C24.5806 3.196 24.7486 2.989 24.9586 2.815C25.1686 2.635 25.4026 2.494 25.6606 2.392C25.9186 2.29 26.1856 2.239 26.4616 2.239C26.7196 2.239 26.9356 2.287 27.1096 2.383C27.2896 2.473 27.4336 2.605 27.5416 2.779C27.6556 2.953 27.7366 3.169 27.7846 3.427C27.8326 3.685 27.8566 3.979 27.8566 4.309V7ZM31.1071 7.072C30.7891 7.072 30.4921 7.006 30.2161 6.874C29.9461 6.742 29.7121 6.562 29.5141 6.334C29.3221 6.1 29.1691 5.842 29.0551 5.56C28.9471 5.272 28.8931 4.975 28.8931 4.669C28.8931 4.351 28.9441 4.045 29.0461 3.751C29.1541 3.457 29.3041 3.199 29.4961 2.977C29.6941 2.749 29.9251 2.569 30.1891 2.437C30.4531 2.305 30.7471 2.239 31.0711 2.239C31.4791 2.239 31.8331 2.347 32.1331 2.563C32.4391 2.773 32.6971 3.031 32.9071 3.337V2.32H33.3211V7.09C33.3211 7.51 33.2191 7.864 33.0151 8.152C32.8111 8.44 32.5411 8.653 32.2051 8.791C31.8691 8.935 31.5061 9.007 31.1161 9.007C30.5701 9.007 30.1351 8.908 29.8111 8.71C29.4931 8.512 29.2351 8.251 29.0371 7.927L29.3431 7.72C29.5291 8.032 29.7811 8.263 30.0991 8.413C30.4171 8.563 30.7561 8.638 31.1161 8.638C31.4341 8.638 31.7251 8.578 31.9891 8.458C32.2591 8.344 32.4721 8.17 32.6281 7.936C32.7901 7.708 32.8711 7.426 32.8711 7.09V6.064C32.6851 6.37 32.4301 6.616 32.1061 6.802C31.7881 6.982 31.4551 7.072 31.1071 7.072ZM31.2151 6.685C31.4131 6.685 31.6051 6.649 31.7911 6.577C31.9771 6.505 32.1481 6.409 32.3041 6.289C32.4601 6.163 32.5891 6.025 32.6911 5.875C32.7931 5.725 32.8531 5.575 32.8711 5.425V3.886C32.7811 3.646 32.6431 3.433 32.4571 3.247C32.2771 3.055 32.0731 2.908 31.8451 2.806C31.6171 2.698 31.3831 2.644 31.1431 2.644C30.8611 2.644 30.6091 2.704 30.3871 2.824C30.1651 2.944 29.9761 3.103 29.8201 3.301C29.6701 3.493 29.5531 3.712 29.4691 3.958C29.3911 4.198 29.3521 4.438 29.3521 4.678C29.3521 4.948 29.4001 5.203 29.4961 5.443C29.5921 5.683 29.7241 5.899 29.8921 6.091C30.0661 6.277 30.2641 6.424 30.4861 6.532C30.7141 6.634 30.9571 6.685 31.2151 6.685ZM34.3409 5.65C34.3409 5.368 34.4249 5.125 34.5929 4.921C34.7609 4.711 34.9919 4.549 35.2859 4.435C35.5799 4.315 35.9189 4.255 36.3029 4.255C36.5429 4.255 36.7919 4.276 37.0499 4.318C37.3079 4.36 37.5389 4.417 37.7429 4.489V4.048C37.7429 3.616 37.6169 3.271 37.3649 3.013C37.1189 2.755 36.7769 2.626 36.3389 2.626C36.1049 2.626 35.8619 2.674 35.6099 2.77C35.3579 2.866 35.0999 3.004 34.8359 3.184L34.6469 2.86C34.9529 2.656 35.2469 2.503 35.5289 2.401C35.8169 2.293 36.1019 2.239 36.3839 2.239C36.9419 2.239 37.3829 2.404 37.7069 2.734C38.0309 3.064 38.1929 3.514 38.1929 4.084V6.406C38.1929 6.478 38.2079 6.532 38.2379 6.568C38.2739 6.604 38.3249 6.625 38.3909 6.631V7C38.3369 7.006 38.2919 7.009 38.2559 7.009C38.2199 7.009 38.1899 7.009 38.1659 7.009C38.0519 6.991 37.9619 6.943 37.8959 6.865C37.8359 6.787 37.8029 6.7 37.7969 6.604V6.235C37.5809 6.505 37.3019 6.715 36.9599 6.865C36.6239 7.015 36.2699 7.09 35.8979 7.09C35.6039 7.09 35.3369 7.027 35.0969 6.901C34.8629 6.775 34.6769 6.604 34.5389 6.388C34.4069 6.166 34.3409 5.92 34.3409 5.65ZM37.5629 6.037C37.6229 5.959 37.6679 5.884 37.6979 5.812C37.7279 5.74 37.7429 5.674 37.7429 5.614V4.84C37.5269 4.756 37.3019 4.693 37.0679 4.651C36.8339 4.609 36.5939 4.588 36.3479 4.588C35.8799 4.588 35.4989 4.681 35.2049 4.867C34.9169 5.053 34.7729 5.305 34.7729 5.623C34.7729 5.821 34.8239 6.004 34.9259 6.172C35.0279 6.34 35.1689 6.475 35.3489 6.577C35.5349 6.679 35.7479 6.73 35.9879 6.73C36.3239 6.73 36.6329 6.667 36.9149 6.541C37.2029 6.409 37.4189 6.241 37.5629 6.037ZM41.6147 6.775C41.5847 6.787 41.5247 6.817 41.4347 6.865C41.3447 6.913 41.2307 6.958 41.0927 7C40.9547 7.036 40.8017 7.054 40.6337 7.054C40.4717 7.054 40.3187 7.024 40.1747 6.964C40.0367 6.898 39.9257 6.802 39.8417 6.676C39.7577 6.55 39.7157 6.397 39.7157 6.217V2.689H39.0587V2.32H39.7157V0.718H40.1657V2.32H41.2547V2.689H40.1657V6.109C40.1777 6.283 40.2407 6.415 40.3547 6.505C40.4687 6.589 40.6007 6.631 40.7507 6.631C40.9367 6.631 41.0987 6.601 41.2367 6.541C41.3747 6.475 41.4557 6.433 41.4797 6.415L41.6147 6.775ZM47.403 7.045C46.959 7.045 46.554 6.955 46.188 6.775C45.822 6.589 45.507 6.343 45.243 6.037C44.979 5.731 44.775 5.386 44.631 5.002C44.487 4.612 44.415 4.213 44.415 3.805C44.415 3.379 44.49 2.974 44.64 2.59C44.79 2.2 45 1.855 45.27 1.555C45.546 1.249 45.864 1.009 46.224 0.834999C46.59 0.655 46.986 0.565 47.412 0.565C47.862 0.565 48.267 0.658 48.627 0.844C48.993 1.03 49.308 1.279 49.572 1.591C49.836 1.903 50.04 2.251 50.184 2.635C50.328 3.019 50.4 3.409 50.4 3.805C50.4 4.237 50.325 4.648 50.175 5.038C50.025 5.422 49.812 5.767 49.536 6.073C49.266 6.373 48.948 6.61 48.582 6.784C48.222 6.958 47.829 7.045 47.403 7.045ZM44.874 3.805C44.874 4.171 44.937 4.522 45.063 4.858C45.189 5.194 45.363 5.494 45.585 5.758C45.813 6.022 46.08 6.232 46.386 6.388C46.698 6.544 47.04 6.622 47.412 6.622C47.79 6.622 48.135 6.541 48.447 6.379C48.759 6.217 49.026 6.001 49.248 5.731C49.47 5.461 49.638 5.161 49.752 4.831C49.872 4.495 49.932 4.153 49.932 3.805C49.932 3.439 49.869 3.088 49.743 2.752C49.623 2.416 49.449 2.116 49.221 1.852C48.993 1.588 48.723 1.378 48.411 1.222C48.105 1.066 47.772 0.988 47.412 0.988C47.028 0.988 46.68 1.069 46.368 1.231C46.056 1.393 45.789 1.609 45.567 1.879C45.351 2.149 45.18 2.452 45.054 2.788C44.934 3.118 44.874 3.457 44.874 3.805ZM53.6844 7.09C53.3184 7.09 52.9764 6.994 52.6584 6.802C52.3404 6.604 52.0914 6.358 51.9114 6.064V7H51.4974V0.43H51.9474V3.337C52.1694 3.013 52.4304 2.749 52.7304 2.545C53.0364 2.341 53.3874 2.239 53.7834 2.239C54.1194 2.239 54.4164 2.308 54.6744 2.446C54.9384 2.584 55.1634 2.77 55.3494 3.004C55.5354 3.238 55.6764 3.499 55.7724 3.787C55.8744 4.075 55.9254 4.372 55.9254 4.678C55.9254 4.996 55.8684 5.302 55.7544 5.596C55.6404 5.884 55.4814 6.142 55.2774 6.37C55.0734 6.592 54.8364 6.769 54.5664 6.901C54.2964 7.027 54.0024 7.09 53.6844 7.09ZM53.5944 6.685C53.8704 6.685 54.1224 6.631 54.3504 6.523C54.5784 6.409 54.7734 6.256 54.9354 6.064C55.1034 5.872 55.2324 5.656 55.3224 5.416C55.4184 5.176 55.4664 4.93 55.4664 4.678C55.4664 4.324 55.3914 3.994 55.2414 3.688C55.0914 3.376 54.8814 3.124 54.6114 2.932C54.3414 2.74 54.0294 2.644 53.6754 2.644C53.4114 2.644 53.1684 2.704 52.9464 2.824C52.7244 2.938 52.5294 3.088 52.3614 3.274C52.1994 3.46 52.0614 3.664 51.9474 3.886V5.434C51.9714 5.608 52.0374 5.773 52.1454 5.929C52.2534 6.079 52.3884 6.211 52.5504 6.325C52.7184 6.433 52.8924 6.52 53.0724 6.586C53.2584 6.652 53.4324 6.685 53.5944 6.685ZM56.6212 5.65C56.6212 5.368 56.7052 5.125 56.8732 4.921C57.0412 4.711 57.2722 4.549 57.5662 4.435C57.8602 4.315 58.1992 4.255 58.5832 4.255C58.8232 4.255 59.0722 4.276 59.3302 4.318C59.5882 4.36 59.8192 4.417 60.0232 4.489V4.048C60.0232 3.616 59.8972 3.271 59.6452 3.013C59.3992 2.755 59.0572 2.626 58.6192 2.626C58.3852 2.626 58.1422 2.674 57.8902 2.77C57.6382 2.866 57.3802 3.004 57.1162 3.184L56.9272 2.86C57.2332 2.656 57.5272 2.503 57.8092 2.401C58.0972 2.293 58.3822 2.239 58.6642 2.239C59.2222 2.239 59.6632 2.404 59.9872 2.734C60.3112 3.064 60.4732 3.514 60.4732 4.084V6.406C60.4732 6.478 60.4882 6.532 60.5182 6.568C60.5542 6.604 60.6052 6.625 60.6712 6.631V7C60.6172 7.006 60.5722 7.009 60.5362 7.009C60.5002 7.009 60.4702 7.009 60.4462 7.009C60.3322 6.991 60.2422 6.943 60.1762 6.865C60.1162 6.787 60.0832 6.7 60.0772 6.604V6.235C59.8612 6.505 59.5822 6.715 59.2402 6.865C58.9042 7.015 58.5502 7.09 58.1782 7.09C57.8842 7.09 57.6172 7.027 57.3772 6.901C57.1432 6.775 56.9572 6.604 56.8192 6.388C56.6872 6.166 56.6212 5.92 56.6212 5.65ZM59.8432 6.037C59.9032 5.959 59.9482 5.884 59.9782 5.812C60.0082 5.74 60.0232 5.674 60.0232 5.614V4.84C59.8072 4.756 59.5822 4.693 59.3482 4.651C59.1142 4.609 58.8742 4.588 58.6282 4.588C58.1602 4.588 57.7792 4.681 57.4852 4.867C57.1972 5.053 57.0532 5.305 57.0532 5.623C57.0532 5.821 57.1042 6.004 57.2062 6.172C57.3082 6.34 57.4492 6.475 57.6292 6.577C57.8152 6.679 58.0282 6.73 58.2682 6.73C58.6042 6.73 58.9132 6.667 59.1952 6.541C59.4832 6.409 59.6992 6.241 59.8432 6.037ZM63.895 6.775C63.865 6.787 63.805 6.817 63.715 6.865C63.625 6.913 63.511 6.958 63.373 7C63.235 7.036 63.082 7.054 62.914 7.054C62.752 7.054 62.599 7.024 62.455 6.964C62.317 6.898 62.206 6.802 62.122 6.676C62.038 6.55 61.996 6.397 61.996 6.217V2.689H61.339V2.32H61.996V0.718H62.446V2.32H63.535V2.689H62.446V6.109C62.458 6.283 62.521 6.415 62.635 6.505C62.749 6.589 62.881 6.631 63.031 6.631C63.217 6.631 63.379 6.601 63.517 6.541C63.655 6.475 63.736 6.433 63.76 6.415L63.895 6.775Z" fill="black"/>
</svg>
