<svg width="51" height="8" viewBox="0 0 51 8" fill="none" xmlns="http://www.w3.org/2000/svg">
<path d="M0.155359 7V0.61H2.81036C3.08636 0.61 3.33536 0.667 3.55736 0.781C3.78536 0.895 3.98036 1.048 4.14236 1.24C4.31036 1.426 4.43936 1.636 4.52936 1.87C4.62536 2.104 4.67336 2.344 4.67336 2.59C4.67336 2.908 4.61036 3.205 4.48436 3.481C4.35836 3.757 4.18136 3.988 3.95336 4.174C3.73136 4.36 3.47036 4.474 3.17036 4.516L4.76336 7H4.23236L2.68436 4.588H0.614359V7H0.155359ZM0.614359 4.165H2.85536C3.13136 4.165 3.37136 4.09 3.57536 3.94C3.77936 3.79 3.93536 3.595 4.04336 3.355C4.15736 3.115 4.21436 2.86 4.21436 2.59C4.21436 2.314 4.14836 2.059 4.01636 1.825C3.89036 1.585 3.71936 1.393 3.50336 1.249C3.29336 1.099 3.05636 1.024 2.79236 1.024H0.614359V4.165ZM5.75856 5.02V2.32H6.20856V4.957C6.20856 5.539 6.30456 5.974 6.49656 6.262C6.69456 6.544 6.99156 6.685 7.38756 6.685C7.65156 6.685 7.90356 6.628 8.14356 6.514C8.38956 6.394 8.60556 6.229 8.79156 6.019C8.97756 5.803 9.11556 5.554 9.20556 5.272V2.32H9.65556V6.406C9.65556 6.478 9.67056 6.532 9.70056 6.568C9.73656 6.604 9.78456 6.625 9.84456 6.631V7C9.78456 7.006 9.73656 7.009 9.70056 7.009C9.67056 7.009 9.64356 7.006 9.61956 7C9.51756 6.988 9.43356 6.946 9.36756 6.874C9.30156 6.796 9.26556 6.703 9.25956 6.595L9.25056 5.893C9.04656 6.265 8.76456 6.559 8.40456 6.775C8.05056 6.985 7.66656 7.09 7.25256 7.09C6.76056 7.09 6.38856 6.916 6.13656 6.568C5.88456 6.22 5.75856 5.704 5.75856 5.02ZM17.9618 7H17.5118V4.39C17.5118 3.796 17.4188 3.358 17.2328 3.076C17.0528 2.794 16.7738 2.653 16.3958 2.653C16.0118 2.653 15.6698 2.791 15.3698 3.067C15.0758 3.337 14.8688 3.685 14.7488 4.111V7H14.2988V4.39C14.2988 3.79 14.2088 3.352 14.0288 3.076C13.8488 2.794 13.5698 2.653 13.1918 2.653C12.8078 2.653 12.4658 2.788 12.1658 3.058C11.8718 3.322 11.6618 3.67 11.5358 4.102V7H11.0858V2.32H11.5088V3.436C11.7068 3.052 11.9618 2.758 12.2738 2.554C12.5858 2.344 12.9278 2.239 13.2998 2.239C13.6898 2.239 14.0078 2.356 14.2538 2.59C14.5058 2.818 14.6558 3.124 14.7038 3.508C14.9258 3.088 15.1898 2.773 15.4958 2.563C15.8018 2.347 16.1498 2.239 16.5398 2.239C16.7978 2.239 17.0138 2.287 17.1878 2.383C17.3678 2.473 17.5148 2.608 17.6288 2.788C17.7488 2.962 17.8328 3.178 17.8808 3.436C17.9348 3.694 17.9618 3.985 17.9618 4.309V7ZM18.9341 5.65C18.9341 5.368 19.0181 5.125 19.1861 4.921C19.3541 4.711 19.5851 4.549 19.8791 4.435C20.1731 4.315 20.5121 4.255 20.8961 4.255C21.1361 4.255 21.3851 4.276 21.6431 4.318C21.9011 4.36 22.1321 4.417 22.3361 4.489V4.048C22.3361 3.616 22.2101 3.271 21.9581 3.013C21.7121 2.755 21.3701 2.626 20.9321 2.626C20.6981 2.626 20.4551 2.674 20.2031 2.77C19.9511 2.866 19.6931 3.004 19.4291 3.184L19.2401 2.86C19.5461 2.656 19.8401 2.503 20.1221 2.401C20.4101 2.293 20.6951 2.239 20.9771 2.239C21.5351 2.239 21.9761 2.404 22.3001 2.734C22.6241 3.064 22.7861 3.514 22.7861 4.084V6.406C22.7861 6.478 22.8011 6.532 22.8311 6.568C22.8671 6.604 22.9181 6.625 22.9841 6.631V7C22.9301 7.006 22.8851 7.009 22.8491 7.009C22.8131 7.009 22.7831 7.009 22.7591 7.009C22.6451 6.991 22.5551 6.943 22.4891 6.865C22.4291 6.787 22.3961 6.7 22.3901 6.604V6.235C22.1741 6.505 21.8951 6.715 21.5531 6.865C21.2171 7.015 20.8631 7.09 20.4911 7.09C20.1971 7.09 19.9301 7.027 19.6901 6.901C19.4561 6.775 19.2701 6.604 19.1321 6.388C19.0001 6.166 18.9341 5.92 18.9341 5.65ZM22.1561 6.037C22.2161 5.959 22.2611 5.884 22.2911 5.812C22.3211 5.74 22.3361 5.674 22.3361 5.614V4.84C22.1201 4.756 21.8951 4.693 21.6611 4.651C21.4271 4.609 21.1871 4.588 20.9411 4.588C20.4731 4.588 20.0921 4.681 19.7981 4.867C19.5101 5.053 19.3661 5.305 19.3661 5.623C19.3661 5.821 19.4171 6.004 19.5191 6.172C19.6211 6.34 19.7621 6.475 19.9421 6.577C20.1281 6.679 20.3411 6.73 20.5811 6.73C20.9171 6.73 21.2261 6.667 21.5081 6.541C21.7961 6.409 22.0121 6.241 22.1561 6.037ZM27.9801 7H27.5301V4.39C27.5301 3.814 27.4311 3.382 27.2331 3.094C27.0351 2.8 26.7471 2.653 26.3691 2.653C26.1231 2.653 25.8771 2.716 25.6311 2.842C25.3851 2.968 25.1721 3.142 24.9921 3.364C24.8121 3.58 24.6831 3.826 24.6051 4.102V7H24.1551V0.43H24.6051V3.436C24.7971 3.07 25.0641 2.779 25.4061 2.563C25.7481 2.347 26.1111 2.239 26.4951 2.239C26.7591 2.239 26.9841 2.287 27.1701 2.383C27.3561 2.479 27.5091 2.617 27.6291 2.797C27.7491 2.977 27.8361 3.193 27.8901 3.445C27.9501 3.697 27.9801 3.985 27.9801 4.309V7ZM35.5042 1.672C35.4022 1.558 35.2882 1.459 35.1622 1.375C35.0362 1.285 34.9012 1.213 34.7572 1.159C34.6132 1.099 34.4572 1.054 34.2892 1.024C34.1212 0.994 33.9412 0.979 33.7492 0.979C33.1252 0.979 32.6692 1.099 32.3812 1.339C32.0992 1.573 31.9582 1.891 31.9582 2.293C31.9582 2.563 32.0212 2.779 32.1472 2.941C32.2792 3.097 32.4832 3.223 32.7592 3.319C33.0352 3.415 33.3922 3.508 33.8302 3.598C34.2922 3.694 34.6912 3.808 35.0272 3.94C35.3632 4.066 35.6212 4.24 35.8012 4.462C35.9872 4.684 36.0802 4.984 36.0802 5.362C36.0802 5.644 36.0262 5.893 35.9182 6.109C35.8102 6.319 35.6542 6.493 35.4502 6.631C35.2462 6.769 35.0032 6.874 34.7212 6.946C34.4452 7.018 34.1362 7.054 33.7942 7.054C33.4642 7.054 33.1492 7.018 32.8492 6.946C32.5492 6.874 32.2672 6.769 32.0032 6.631C31.7392 6.493 31.4932 6.316 31.2652 6.1L31.5082 5.731C31.6402 5.875 31.7872 6.004 31.9492 6.118C32.1172 6.226 32.2972 6.319 32.4892 6.397C32.6872 6.475 32.8972 6.538 33.1192 6.586C33.3412 6.628 33.5722 6.649 33.8122 6.649C34.3702 6.649 34.8052 6.547 35.1172 6.343C35.4352 6.133 35.5942 5.824 35.5942 5.416C35.5942 5.134 35.5222 4.906 35.3782 4.732C35.2342 4.558 35.0122 4.417 34.7122 4.309C34.4122 4.195 34.0372 4.09 33.5872 3.994C33.1372 3.898 32.7532 3.79 32.4352 3.67C32.1232 3.55 31.8862 3.388 31.7242 3.184C31.5682 2.98 31.4902 2.704 31.4902 2.356C31.4902 1.972 31.5832 1.648 31.7692 1.384C31.9612 1.114 32.2282 0.91 32.5702 0.772C32.9122 0.634 33.3052 0.565 33.7492 0.565C34.0252 0.565 34.2802 0.592 34.5142 0.646C34.7542 0.7 34.9732 0.784 35.1712 0.898C35.3752 1.006 35.5642 1.144 35.7382 1.312L35.5042 1.672ZM36.7144 5.65C36.7144 5.368 36.7984 5.125 36.9664 4.921C37.1344 4.711 37.3654 4.549 37.6594 4.435C37.9534 4.315 38.2924 4.255 38.6764 4.255C38.9164 4.255 39.1654 4.276 39.4234 4.318C39.6814 4.36 39.9124 4.417 40.1164 4.489V4.048C40.1164 3.616 39.9904 3.271 39.7384 3.013C39.4924 2.755 39.1504 2.626 38.7124 2.626C38.4784 2.626 38.2354 2.674 37.9834 2.77C37.7314 2.866 37.4734 3.004 37.2094 3.184L37.0204 2.86C37.3264 2.656 37.6204 2.503 37.9024 2.401C38.1904 2.293 38.4754 2.239 38.7574 2.239C39.3154 2.239 39.7564 2.404 40.0804 2.734C40.4044 3.064 40.5664 3.514 40.5664 4.084V6.406C40.5664 6.478 40.5814 6.532 40.6114 6.568C40.6474 6.604 40.6984 6.625 40.7644 6.631V7C40.7104 7.006 40.6654 7.009 40.6294 7.009C40.5934 7.009 40.5634 7.009 40.5394 7.009C40.4254 6.991 40.3354 6.943 40.2694 6.865C40.2094 6.787 40.1764 6.7 40.1704 6.604V6.235C39.9544 6.505 39.6754 6.715 39.3334 6.865C38.9974 7.015 38.6434 7.09 38.2714 7.09C37.9774 7.09 37.7104 7.027 37.4704 6.901C37.2364 6.775 37.0504 6.604 36.9124 6.388C36.7804 6.166 36.7144 5.92 36.7144 5.65ZM39.9364 6.037C39.9964 5.959 40.0414 5.884 40.0714 5.812C40.1014 5.74 40.1164 5.674 40.1164 5.614V4.84C39.9004 4.756 39.6754 4.693 39.4414 4.651C39.2074 4.609 38.9674 4.588 38.7214 4.588C38.2534 4.588 37.8724 4.681 37.5784 4.867C37.2904 5.053 37.1464 5.305 37.1464 5.623C37.1464 5.821 37.1974 6.004 37.2994 6.172C37.4014 6.34 37.5424 6.475 37.7224 6.577C37.9084 6.679 38.1214 6.73 38.3614 6.73C38.6974 6.73 39.0064 6.667 39.2884 6.541C39.5764 6.409 39.7924 6.241 39.9364 6.037ZM45.3194 7L43.4924 4.498L42.3854 5.515V7H41.9354V0.43H42.3854V5.011L45.2384 2.329H45.7514L43.7984 4.228L45.8144 7H45.3194ZM46.6375 7V2.32H47.0875V7H46.6375ZM46.6375 1.258V0.43H47.0875V1.258H46.6375ZM50.5888 6.775C50.5588 6.787 50.4988 6.817 50.4088 6.865C50.3188 6.913 50.2048 6.958 50.0668 7C49.9288 7.036 49.7758 7.054 49.6078 7.054C49.4458 7.054 49.2928 7.024 49.1488 6.964C49.0108 6.898 48.8998 6.802 48.8158 6.676C48.7318 6.55 48.6898 6.397 48.6898 6.217V2.689H48.0328V2.32H48.6898V0.718H49.1398V2.32H50.2288V2.689H49.1398V6.109C49.1518 6.283 49.2148 6.415 49.3288 6.505C49.4428 6.589 49.5748 6.631 49.7248 6.631C49.9108 6.631 50.0728 6.601 50.2108 6.541C50.3488 6.475 50.4298 6.433 50.4538 6.415L50.5888 6.775Z" fill="black"/>
</svg>
