<svg width="3" height="3" viewBox="0 0 3 3" fill="none" xmlns="http://www.w3.org/2000/svg">
<path d="M2.61465 2.395V3H0.584648V2.395H1.29465V0.88C1.26465 0.92 1.21798 0.961667 1.15465 1.005C1.09132 1.045 1.01965 1.08333 0.939648 1.12C0.859648 1.15667 0.779648 1.18667 0.699648 1.21C0.619648 1.23333 0.547982 1.245 0.484648 1.245V0.62C0.544648 0.62 0.616315 0.601667 0.699648 0.565C0.786315 0.525 0.871315 0.478333 0.954648 0.425C1.04132 0.371667 1.11465 0.32 1.17465 0.27C1.23798 0.216667 1.27798 0.175 1.29465 0.145H1.97965V2.395H2.61465Z" fill="#FFF8F3"/>
</svg>
