<svg width="288" height="234" viewBox="0 0 288 234" fill="none" xmlns="http://www.w3.org/2000/svg">
<path opacity="0.5" d="M2.62 41.4899C2.10667 41.4899 1.64667 41.3733 1.24 41.1399C0.833333 40.9133 0.523333 40.6033 0.31 40.2099L0.97 39.5799C1.15667 39.8666 1.39667 40.0933 1.69 40.2599C1.98333 40.4333 2.29667 40.5199 2.63 40.5199C2.90333 40.5199 3.14667 40.4599 3.36 40.3399C3.57333 40.2266 3.74 40.0666 3.86 39.8599C3.98667 39.6466 4.05 39.4033 4.05 39.1299C4.05 38.8633 3.99 38.6299 3.87 38.4299C3.75 38.2233 3.59 38.0666 3.39 37.9599C3.19 37.8466 2.96 37.7899 2.7 37.7899C2.44667 37.7899 2.21 37.8466 1.99 37.9599C1.77 38.0733 1.59 38.2333 1.45 38.4399H0.48L1.29 34.2899H4.76V35.2999H2.09L1.73 37.2399C1.84333 37.1199 1.99667 37.0233 2.19 36.9499C2.38333 36.8699 2.60333 36.8299 2.85 36.8299C3.29667 36.8299 3.69333 36.9299 4.04 37.1299C4.39333 37.3233 4.67 37.5899 4.87 37.9299C5.07667 38.2699 5.18 38.6633 5.18 39.1099C5.18 39.5833 5.06667 39.9966 4.84 40.3499C4.61333 40.7099 4.30667 40.9899 3.92 41.1899C3.53333 41.3899 3.1 41.4899 2.62 41.4899ZM11.1378 37.0699C11.1378 37.6566 11.0245 38.1799 10.7978 38.6399C10.5778 39.0933 10.2745 39.4499 9.88781 39.7099C9.50781 39.9699 9.07115 40.0999 8.57781 40.0999C8.09115 40.0999 7.65448 39.9699 7.26781 39.7099C6.88115 39.4499 6.57448 39.0933 6.34781 38.6399C6.12781 38.1799 6.01781 37.6566 6.01781 37.0699C6.01781 36.4833 6.12781 35.9633 6.34781 35.5099C6.57448 35.0499 6.88115 34.6899 7.26781 34.4299C7.65448 34.1633 8.09115 34.0299 8.57781 34.0299C9.07115 34.0299 9.50781 34.1633 9.88781 34.4299C10.2745 34.6899 10.5778 35.0499 10.7978 35.5099C11.0245 35.9633 11.1378 36.4833 11.1378 37.0699ZM10.0178 37.0699C10.0178 36.6699 9.95781 36.3199 9.83781 36.0199C9.71781 35.7133 9.54781 35.4766 9.32781 35.3099C9.10781 35.1366 8.85781 35.0499 8.57781 35.0499C8.29115 35.0499 8.03781 35.1366 7.81781 35.3099C7.59781 35.4766 7.42448 35.7133 7.29781 36.0199C7.17781 36.3199 7.11781 36.6699 7.11781 37.0699C7.11781 37.4699 7.17781 37.8199 7.29781 38.1199C7.42448 38.4199 7.59781 38.6566 7.81781 38.8299C8.03781 38.9966 8.29115 39.0799 8.57781 39.0799C8.85781 39.0799 9.10448 38.9966 9.31781 38.8299C9.53781 38.6566 9.70781 38.4199 9.82781 38.1199C9.95448 37.8199 10.0178 37.4699 10.0178 37.0699ZM12.2604 39.9999V38.7199H13.1704V39.9999H12.2604ZM19.4093 37.0699C19.4093 37.6566 19.296 38.1799 19.0693 38.6399C18.8493 39.0933 18.546 39.4499 18.1593 39.7099C17.7793 39.9699 17.3426 40.0999 16.8493 40.0999C16.3626 40.0999 15.926 39.9699 15.5393 39.7099C15.1526 39.4499 14.846 39.0933 14.6193 38.6399C14.3993 38.1799 14.2893 37.6566 14.2893 37.0699C14.2893 36.4833 14.3993 35.9633 14.6193 35.5099C14.846 35.0499 15.1526 34.6899 15.5393 34.4299C15.926 34.1633 16.3626 34.0299 16.8493 34.0299C17.3426 34.0299 17.7793 34.1633 18.1593 34.4299C18.546 34.6899 18.8493 35.0499 19.0693 35.5099C19.296 35.9633 19.4093 36.4833 19.4093 37.0699ZM18.2893 37.0699C18.2893 36.6699 18.2293 36.3199 18.1093 36.0199C17.9893 35.7133 17.8193 35.4766 17.5993 35.3099C17.3793 35.1366 17.1293 35.0499 16.8493 35.0499C16.5626 35.0499 16.3093 35.1366 16.0893 35.3099C15.8693 35.4766 15.696 35.7133 15.5693 36.0199C15.4493 36.3199 15.3893 36.6699 15.3893 37.0699C15.3893 37.4699 15.4493 37.8199 15.5693 38.1199C15.696 38.4199 15.8693 38.6566 16.0893 38.8299C16.3093 38.9966 16.5626 39.0799 16.8493 39.0799C17.1293 39.0799 17.376 38.9966 17.5893 38.8299C17.8093 38.6566 17.9793 38.4199 18.0993 38.1199C18.226 37.8199 18.2893 37.4699 18.2893 37.0699ZM25.5519 37.0699C25.5519 37.6566 25.4385 38.1799 25.2119 38.6399C24.9919 39.0933 24.6885 39.4499 24.3019 39.7099C23.9219 39.9699 23.4852 40.0999 22.9919 40.0999C22.5052 40.0999 22.0685 39.9699 21.6819 39.7099C21.2952 39.4499 20.9885 39.0933 20.7619 38.6399C20.5419 38.1799 20.4319 37.6566 20.4319 37.0699C20.4319 36.4833 20.5419 35.9633 20.7619 35.5099C20.9885 35.0499 21.2952 34.6899 21.6819 34.4299C22.0685 34.1633 22.5052 34.0299 22.9919 34.0299C23.4852 34.0299 23.9219 34.1633 24.3019 34.4299C24.6885 34.6899 24.9919 35.0499 25.2119 35.5099C25.4385 35.9633 25.5519 36.4833 25.5519 37.0699ZM24.4319 37.0699C24.4319 36.6699 24.3719 36.3199 24.2519 36.0199C24.1319 35.7133 23.9619 35.4766 23.7419 35.3099C23.5219 35.1366 23.2719 35.0499 22.9919 35.0499C22.7052 35.0499 22.4519 35.1366 22.2319 35.3099C22.0119 35.4766 21.8385 35.7133 21.7119 36.0199C21.5919 36.3199 21.5319 36.6699 21.5319 37.0699C21.5319 37.4699 21.5919 37.8199 21.7119 38.1199C21.8385 38.4199 22.0119 38.6566 22.2319 38.8299C22.4519 38.9966 22.7052 39.0799 22.9919 39.0799C23.2719 39.0799 23.5185 38.9966 23.7319 38.8299C23.9519 38.6566 24.1219 38.4199 24.2419 38.1199C24.3685 37.8199 24.4319 37.4699 24.4319 37.0699ZM31.6945 37.0699C31.6945 37.6566 31.5811 38.1799 31.3545 38.6399C31.1345 39.0933 30.8311 39.4499 30.4445 39.7099C30.0645 39.9699 29.6278 40.0999 29.1345 40.0999C28.6478 40.0999 28.2111 39.9699 27.8245 39.7099C27.4378 39.4499 27.1311 39.0933 26.9045 38.6399C26.6845 38.1799 26.5745 37.6566 26.5745 37.0699C26.5745 36.4833 26.6845 35.9633 26.9045 35.5099C27.1311 35.0499 27.4378 34.6899 27.8245 34.4299C28.2111 34.1633 28.6478 34.0299 29.1345 34.0299C29.6278 34.0299 30.0645 34.1633 30.4445 34.4299C30.8311 34.6899 31.1345 35.0499 31.3545 35.5099C31.5811 35.9633 31.6945 36.4833 31.6945 37.0699ZM30.5745 37.0699C30.5745 36.6699 30.5145 36.3199 30.3945 36.0199C30.2745 35.7133 30.1045 35.4766 29.8845 35.3099C29.6645 35.1366 29.4145 35.0499 29.1345 35.0499C28.8478 35.0499 28.5945 35.1366 28.3745 35.3099C28.1545 35.4766 27.9811 35.7133 27.8545 36.0199C27.7345 36.3199 27.6745 36.6699 27.6745 37.0699C27.6745 37.4699 27.7345 37.8199 27.8545 38.1199C27.9811 38.4199 28.1545 38.6566 28.3745 38.8299C28.5945 38.9966 28.8478 39.0799 29.1345 39.0799C29.4145 39.0799 29.6611 38.9966 29.8745 38.8299C30.0945 38.6566 30.2645 38.4199 30.3845 38.1199C30.5111 37.8199 30.5745 37.4699 30.5745 37.0699Z" fill="#00B4D8"/>
<path opacity="0.5" d="M4.47 175.01V176H0.65V175.01H2.07V171.52C2.01 171.6 1.91667 171.683 1.79 171.77C1.66333 171.857 1.52 171.94 1.36 172.02C1.20667 172.093 1.05 172.153 0.89 172.2C0.73 172.247 0.583333 172.27 0.45 172.27V171.24C0.583333 171.24 0.736667 171.2 0.91 171.12C1.08333 171.04 1.25333 170.947 1.42 170.84C1.59333 170.727 1.74 170.62 1.86 170.52C1.98 170.413 2.05 170.337 2.07 170.29H3.2V175.01H4.47ZM10.337 173.07C10.337 173.657 10.2237 174.18 9.99703 174.64C9.77703 175.093 9.4737 175.45 9.08703 175.71C8.70703 175.97 8.27036 176.1 7.77703 176.1C7.29036 176.1 6.8537 175.97 6.46703 175.71C6.08036 175.45 5.7737 175.093 5.54703 174.64C5.32703 174.18 5.21703 173.657 5.21703 173.07C5.21703 172.483 5.32703 171.963 5.54703 171.51C5.7737 171.05 6.08036 170.69 6.46703 170.43C6.8537 170.163 7.29036 170.03 7.77703 170.03C8.27036 170.03 8.70703 170.163 9.08703 170.43C9.4737 170.69 9.77703 171.05 9.99703 171.51C10.2237 171.963 10.337 172.483 10.337 173.07ZM9.21703 173.07C9.21703 172.67 9.15703 172.32 9.03703 172.02C8.91703 171.713 8.74703 171.477 8.52703 171.31C8.30703 171.137 8.05703 171.05 7.77703 171.05C7.49036 171.05 7.23703 171.137 7.01703 171.31C6.79703 171.477 6.6237 171.713 6.49703 172.02C6.37703 172.32 6.31703 172.67 6.31703 173.07C6.31703 173.47 6.37703 173.82 6.49703 174.12C6.6237 174.42 6.79703 174.657 7.01703 174.83C7.23703 174.997 7.49036 175.08 7.77703 175.08C8.05703 175.08 8.3037 174.997 8.51703 174.83C8.73703 174.657 8.90703 174.42 9.02703 174.12C9.1537 173.82 9.21703 173.47 9.21703 173.07ZM11.4596 176V174.72H12.3696V176H11.4596ZM18.6085 173.07C18.6085 173.657 18.4952 174.18 18.2685 174.64C18.0485 175.093 17.7452 175.45 17.3585 175.71C16.9785 175.97 16.5418 176.1 16.0485 176.1C15.5618 176.1 15.1252 175.97 14.7385 175.71C14.3518 175.45 14.0452 175.093 13.8185 174.64C13.5985 174.18 13.4885 173.657 13.4885 173.07C13.4885 172.483 13.5985 171.963 13.8185 171.51C14.0452 171.05 14.3518 170.69 14.7385 170.43C15.1252 170.163 15.5618 170.03 16.0485 170.03C16.5418 170.03 16.9785 170.163 17.3585 170.43C17.7452 170.69 18.0485 171.05 18.2685 171.51C18.4952 171.963 18.6085 172.483 18.6085 173.07ZM17.4885 173.07C17.4885 172.67 17.4285 172.32 17.3085 172.02C17.1885 171.713 17.0185 171.477 16.7985 171.31C16.5785 171.137 16.3285 171.05 16.0485 171.05C15.7618 171.05 15.5085 171.137 15.2885 171.31C15.0685 171.477 14.8952 171.713 14.7685 172.02C14.6485 172.32 14.5885 172.67 14.5885 173.07C14.5885 173.47 14.6485 173.82 14.7685 174.12C14.8952 174.42 15.0685 174.657 15.2885 174.83C15.5085 174.997 15.7618 175.08 16.0485 175.08C16.3285 175.08 16.5752 174.997 16.7885 174.83C17.0085 174.657 17.1785 174.42 17.2985 174.12C17.4252 173.82 17.4885 173.47 17.4885 173.07ZM24.7511 173.07C24.7511 173.657 24.6378 174.18 24.4111 174.64C24.1911 175.093 23.8878 175.45 23.5011 175.71C23.1211 175.97 22.6844 176.1 22.1911 176.1C21.7044 176.1 21.2678 175.97 20.8811 175.71C20.4944 175.45 20.1878 175.093 19.9611 174.64C19.7411 174.18 19.6311 173.657 19.6311 173.07C19.6311 172.483 19.7411 171.963 19.9611 171.51C20.1878 171.05 20.4944 170.69 20.8811 170.43C21.2678 170.163 21.7044 170.03 22.1911 170.03C22.6844 170.03 23.1211 170.163 23.5011 170.43C23.8878 170.69 24.1911 171.05 24.4111 171.51C24.6378 171.963 24.7511 172.483 24.7511 173.07ZM23.6311 173.07C23.6311 172.67 23.5711 172.32 23.4511 172.02C23.3311 171.713 23.1611 171.477 22.9411 171.31C22.7211 171.137 22.4711 171.05 22.1911 171.05C21.9044 171.05 21.6511 171.137 21.4311 171.31C21.2111 171.477 21.0378 171.713 20.9111 172.02C20.7911 172.32 20.7311 172.67 20.7311 173.07C20.7311 173.47 20.7911 173.82 20.9111 174.12C21.0378 174.42 21.2111 174.657 21.4311 174.83C21.6511 174.997 21.9044 175.08 22.1911 175.08C22.4711 175.08 22.7178 174.997 22.9311 174.83C23.1511 174.657 23.3211 174.42 23.4411 174.12C23.5678 173.82 23.6311 173.47 23.6311 173.07ZM30.8937 173.07C30.8937 173.657 30.7803 174.18 30.5537 174.64C30.3337 175.093 30.0303 175.45 29.6437 175.71C29.2637 175.97 28.827 176.1 28.3337 176.1C27.847 176.1 27.4103 175.97 27.0237 175.71C26.637 175.45 26.3303 175.093 26.1037 174.64C25.8837 174.18 25.7737 173.657 25.7737 173.07C25.7737 172.483 25.8837 171.963 26.1037 171.51C26.3303 171.05 26.637 170.69 27.0237 170.43C27.4103 170.163 27.847 170.03 28.3337 170.03C28.827 170.03 29.2637 170.163 29.6437 170.43C30.0303 170.69 30.3337 171.05 30.5537 171.51C30.7803 171.963 30.8937 172.483 30.8937 173.07ZM29.7737 173.07C29.7737 172.67 29.7137 172.32 29.5937 172.02C29.4737 171.713 29.3037 171.477 29.0837 171.31C28.8637 171.137 28.6137 171.05 28.3337 171.05C28.047 171.05 27.7937 171.137 27.5737 171.31C27.3537 171.477 27.1803 171.713 27.0537 172.02C26.9337 172.32 26.8737 172.67 26.8737 173.07C26.8737 173.47 26.9337 173.82 27.0537 174.12C27.1803 174.42 27.3537 174.657 27.5737 174.83C27.7937 174.997 28.047 175.08 28.3337 175.08C28.6137 175.08 28.8603 174.997 29.0737 174.83C29.2937 174.657 29.4637 174.42 29.5837 174.12C29.7103 173.82 29.7737 173.47 29.7737 173.07Z" fill="#00B4D8"/>
<path opacity="0.5" d="M0.4 142C0.4 141.72 0.423333 141.463 0.47 141.23C0.516667 140.99 0.596667 140.763 0.71 140.55C0.83 140.337 0.993333 140.137 1.2 139.95C1.41333 139.757 1.68333 139.573 2.01 139.4C2.24333 139.267 2.46333 139.15 2.67 139.05C2.87667 138.943 3.06 138.84 3.22 138.74C3.38 138.633 3.50333 138.52 3.59 138.4C3.68333 138.28 3.73 138.143 3.73 137.99C3.73 137.843 3.69 137.707 3.61 137.58C3.53 137.453 3.41 137.353 3.25 137.28C3.09 137.2 2.89667 137.16 2.67 137.16C2.49 137.16 2.32333 137.183 2.17 137.23C2.02333 137.277 1.88667 137.34 1.76 137.42C1.64 137.493 1.53 137.577 1.43 137.67C1.33 137.757 1.24333 137.843 1.17 137.93L0.48 137.14C0.546667 137.06 0.65 136.97 0.79 136.87C0.936667 136.763 1.11 136.66 1.31 136.56C1.51667 136.453 1.75 136.367 2.01 136.3C2.27 136.227 2.55333 136.19 2.86 136.19C3.29333 136.19 3.66333 136.263 3.97 136.41C4.27667 136.55 4.51 136.747 4.67 137C4.83667 137.247 4.92 137.527 4.92 137.84C4.92 138.087 4.87 138.303 4.77 138.49C4.67667 138.677 4.55333 138.843 4.4 138.99C4.24667 139.13 4.08333 139.253 3.91 139.36C3.74333 139.46 3.58667 139.55 3.44 139.63C3.18 139.757 2.95333 139.873 2.76 139.98C2.57333 140.087 2.41333 140.193 2.28 140.3C2.14667 140.4 2.03667 140.507 1.95 140.62C1.86333 140.727 1.79 140.857 1.73 141.01H5.03V142H0.4ZM11.1183 139.07C11.1183 139.657 11.0049 140.18 10.7783 140.64C10.5583 141.093 10.2549 141.45 9.86828 141.71C9.48828 141.97 9.05161 142.1 8.55828 142.1C8.07161 142.1 7.63495 141.97 7.24828 141.71C6.86161 141.45 6.55495 141.093 6.32828 140.64C6.10828 140.18 5.99828 139.657 5.99828 139.07C5.99828 138.483 6.10828 137.963 6.32828 137.51C6.55495 137.05 6.86161 136.69 7.24828 136.43C7.63495 136.163 8.07161 136.03 8.55828 136.03C9.05161 136.03 9.48828 136.163 9.86828 136.43C10.2549 136.69 10.5583 137.05 10.7783 137.51C11.0049 137.963 11.1183 138.483 11.1183 139.07ZM9.99828 139.07C9.99828 138.67 9.93828 138.32 9.81828 138.02C9.69828 137.713 9.52828 137.477 9.30828 137.31C9.08828 137.137 8.83828 137.05 8.55828 137.05C8.27161 137.05 8.01828 137.137 7.79828 137.31C7.57828 137.477 7.40495 137.713 7.27828 138.02C7.15828 138.32 7.09828 138.67 7.09828 139.07C7.09828 139.47 7.15828 139.82 7.27828 140.12C7.40495 140.42 7.57828 140.657 7.79828 140.83C8.01828 140.997 8.27161 141.08 8.55828 141.08C8.83828 141.08 9.08495 140.997 9.29828 140.83C9.51828 140.657 9.68828 140.42 9.80828 140.12C9.93495 139.82 9.99828 139.47 9.99828 139.07ZM12.2409 142V140.72H13.1509V142H12.2409ZM19.3898 139.07C19.3898 139.657 19.2764 140.18 19.0498 140.64C18.8298 141.093 18.5264 141.45 18.1398 141.71C17.7598 141.97 17.3231 142.1 16.8298 142.1C16.3431 142.1 15.9064 141.97 15.5198 141.71C15.1331 141.45 14.8264 141.093 14.5998 140.64C14.3798 140.18 14.2698 139.657 14.2698 139.07C14.2698 138.483 14.3798 137.963 14.5998 137.51C14.8264 137.05 15.1331 136.69 15.5198 136.43C15.9064 136.163 16.3431 136.03 16.8298 136.03C17.3231 136.03 17.7598 136.163 18.1398 136.43C18.5264 136.69 18.8298 137.05 19.0498 137.51C19.2764 137.963 19.3898 138.483 19.3898 139.07ZM18.2698 139.07C18.2698 138.67 18.2098 138.32 18.0898 138.02C17.9698 137.713 17.7998 137.477 17.5798 137.31C17.3598 137.137 17.1098 137.05 16.8298 137.05C16.5431 137.05 16.2898 137.137 16.0698 137.31C15.8498 137.477 15.6764 137.713 15.5498 138.02C15.4298 138.32 15.3698 138.67 15.3698 139.07C15.3698 139.47 15.4298 139.82 15.5498 140.12C15.6764 140.42 15.8498 140.657 16.0698 140.83C16.2898 140.997 16.5431 141.08 16.8298 141.08C17.1098 141.08 17.3564 140.997 17.5698 140.83C17.7898 140.657 17.9598 140.42 18.0798 140.12C18.2064 139.82 18.2698 139.47 18.2698 139.07ZM25.5323 139.07C25.5323 139.657 25.419 140.18 25.1923 140.64C24.9723 141.093 24.669 141.45 24.2823 141.71C23.9023 141.97 23.4657 142.1 22.9723 142.1C22.4857 142.1 22.049 141.97 21.6623 141.71C21.2757 141.45 20.969 141.093 20.7423 140.64C20.5223 140.18 20.4123 139.657 20.4123 139.07C20.4123 138.483 20.5223 137.963 20.7423 137.51C20.969 137.05 21.2757 136.69 21.6623 136.43C22.049 136.163 22.4857 136.03 22.9723 136.03C23.4657 136.03 23.9023 136.163 24.2823 136.43C24.669 136.69 24.9723 137.05 25.1923 137.51C25.419 137.963 25.5323 138.483 25.5323 139.07ZM24.4123 139.07C24.4123 138.67 24.3523 138.32 24.2323 138.02C24.1123 137.713 23.9423 137.477 23.7223 137.31C23.5023 137.137 23.2523 137.05 22.9723 137.05C22.6857 137.05 22.4323 137.137 22.2123 137.31C21.9923 137.477 21.819 137.713 21.6923 138.02C21.5723 138.32 21.5123 138.67 21.5123 139.07C21.5123 139.47 21.5723 139.82 21.6923 140.12C21.819 140.42 21.9923 140.657 22.2123 140.83C22.4323 140.997 22.6857 141.08 22.9723 141.08C23.2523 141.08 23.499 140.997 23.7123 140.83C23.9323 140.657 24.1023 140.42 24.2223 140.12C24.349 139.82 24.4123 139.47 24.4123 139.07ZM31.6749 139.07C31.6749 139.657 31.5616 140.18 31.3349 140.64C31.1149 141.093 30.8116 141.45 30.4249 141.71C30.0449 141.97 29.6083 142.1 29.1149 142.1C28.6283 142.1 28.1916 141.97 27.8049 141.71C27.4183 141.45 27.1116 141.093 26.8849 140.64C26.6649 140.18 26.5549 139.657 26.5549 139.07C26.5549 138.483 26.6649 137.963 26.8849 137.51C27.1116 137.05 27.4183 136.69 27.8049 136.43C28.1916 136.163 28.6283 136.03 29.1149 136.03C29.6083 136.03 30.0449 136.163 30.4249 136.43C30.8116 136.69 31.1149 137.05 31.3349 137.51C31.5616 137.963 31.6749 138.483 31.6749 139.07ZM30.5549 139.07C30.5549 138.67 30.4949 138.32 30.3749 138.02C30.2549 137.713 30.0849 137.477 29.8649 137.31C29.6449 137.137 29.3949 137.05 29.1149 137.05C28.8283 137.05 28.5749 137.137 28.3549 137.31C28.1349 137.477 27.9616 137.713 27.8349 138.02C27.7149 138.32 27.6549 138.67 27.6549 139.07C27.6549 139.47 27.7149 139.82 27.8349 140.12C27.9616 140.42 28.1349 140.657 28.3549 140.83C28.5749 140.997 28.8283 141.08 29.1149 141.08C29.3949 141.08 29.6416 140.997 29.8549 140.83C30.0749 140.657 30.2449 140.42 30.3649 140.12C30.4916 139.82 30.5549 139.47 30.5549 139.07Z" fill="#00B4D8"/>
<path opacity="0.5" d="M3.69 105.64C3.97 105.687 4.21333 105.793 4.42 105.96C4.63333 106.12 4.79667 106.327 4.91 106.58C5.02333 106.827 5.08 107.107 5.08 107.42C5.08 107.833 4.97667 108.193 4.77 108.5C4.57 108.807 4.28333 109.043 3.91 109.21C3.53667 109.383 3.09667 109.47 2.59 109.47C2.08333 109.47 1.63667 109.38 1.25 109.2C0.863333 109.027 0.553333 108.773 0.32 108.44L0.99 107.68C1.15 107.92 1.35667 108.11 1.61 108.25C1.86333 108.397 2.18333 108.47 2.57 108.47C3.00333 108.47 3.34 108.377 3.58 108.19C3.82 108.003 3.94 107.723 3.94 107.35C3.94 106.963 3.80667 106.66 3.54 106.44C3.28 106.22 2.88667 106.11 2.36 106.11H2.09V105.25H2.39C2.83667 105.25 3.18 105.147 3.42 104.94C3.66 104.727 3.78 104.46 3.78 104.14C3.78 103.927 3.73 103.753 3.63 103.62C3.53667 103.48 3.40333 103.377 3.23 103.31C3.05667 103.243 2.85667 103.21 2.63 103.21C2.29 103.21 1.99 103.283 1.73 103.43C1.47 103.577 1.26333 103.787 1.11 104.06L0.42 103.31C0.553333 103.097 0.736667 102.91 0.97 102.75C1.20333 102.59 1.47 102.467 1.77 102.38C2.07667 102.287 2.4 102.24 2.74 102.24C3.18 102.24 3.56667 102.313 3.9 102.46C4.23333 102.607 4.49 102.813 4.67 103.08C4.85667 103.347 4.95 103.66 4.95 104.02C4.95 104.28 4.9 104.527 4.8 104.76C4.7 104.987 4.55333 105.18 4.36 105.34C4.16667 105.493 3.94333 105.593 3.69 105.64ZM11.1183 105.07C11.1183 105.657 11.0049 106.18 10.7783 106.64C10.5583 107.093 10.2549 107.45 9.86828 107.71C9.48828 107.97 9.05161 108.1 8.55828 108.1C8.07161 108.1 7.63495 107.97 7.24828 107.71C6.86161 107.45 6.55495 107.093 6.32828 106.64C6.10828 106.18 5.99828 105.657 5.99828 105.07C5.99828 104.483 6.10828 103.963 6.32828 103.51C6.55495 103.05 6.86161 102.69 7.24828 102.43C7.63495 102.163 8.07161 102.03 8.55828 102.03C9.05161 102.03 9.48828 102.163 9.86828 102.43C10.2549 102.69 10.5583 103.05 10.7783 103.51C11.0049 103.963 11.1183 104.483 11.1183 105.07ZM9.99828 105.07C9.99828 104.67 9.93828 104.32 9.81828 104.02C9.69828 103.713 9.52828 103.477 9.30828 103.31C9.08828 103.137 8.83828 103.05 8.55828 103.05C8.27161 103.05 8.01828 103.137 7.79828 103.31C7.57828 103.477 7.40495 103.713 7.27828 104.02C7.15828 104.32 7.09828 104.67 7.09828 105.07C7.09828 105.47 7.15828 105.82 7.27828 106.12C7.40495 106.42 7.57828 106.657 7.79828 106.83C8.01828 106.997 8.27161 107.08 8.55828 107.08C8.83828 107.08 9.08495 106.997 9.29828 106.83C9.51828 106.657 9.68828 106.42 9.80828 106.12C9.93495 105.82 9.99828 105.47 9.99828 105.07ZM12.2409 108V106.72H13.1509V108H12.2409ZM19.3898 105.07C19.3898 105.657 19.2764 106.18 19.0498 106.64C18.8298 107.093 18.5264 107.45 18.1398 107.71C17.7598 107.97 17.3231 108.1 16.8298 108.1C16.3431 108.1 15.9064 107.97 15.5198 107.71C15.1331 107.45 14.8264 107.093 14.5998 106.64C14.3798 106.18 14.2698 105.657 14.2698 105.07C14.2698 104.483 14.3798 103.963 14.5998 103.51C14.8264 103.05 15.1331 102.69 15.5198 102.43C15.9064 102.163 16.3431 102.03 16.8298 102.03C17.3231 102.03 17.7598 102.163 18.1398 102.43C18.5264 102.69 18.8298 103.05 19.0498 103.51C19.2764 103.963 19.3898 104.483 19.3898 105.07ZM18.2698 105.07C18.2698 104.67 18.2098 104.32 18.0898 104.02C17.9698 103.713 17.7998 103.477 17.5798 103.31C17.3598 103.137 17.1098 103.05 16.8298 103.05C16.5431 103.05 16.2898 103.137 16.0698 103.31C15.8498 103.477 15.6764 103.713 15.5498 104.02C15.4298 104.32 15.3698 104.67 15.3698 105.07C15.3698 105.47 15.4298 105.82 15.5498 106.12C15.6764 106.42 15.8498 106.657 16.0698 106.83C16.2898 106.997 16.5431 107.08 16.8298 107.08C17.1098 107.08 17.3564 106.997 17.5698 106.83C17.7898 106.657 17.9598 106.42 18.0798 106.12C18.2064 105.82 18.2698 105.47 18.2698 105.07ZM25.5323 105.07C25.5323 105.657 25.419 106.18 25.1923 106.64C24.9723 107.093 24.669 107.45 24.2823 107.71C23.9023 107.97 23.4657 108.1 22.9723 108.1C22.4857 108.1 22.049 107.97 21.6623 107.71C21.2757 107.45 20.969 107.093 20.7423 106.64C20.5223 106.18 20.4123 105.657 20.4123 105.07C20.4123 104.483 20.5223 103.963 20.7423 103.51C20.969 103.05 21.2757 102.69 21.6623 102.43C22.049 102.163 22.4857 102.03 22.9723 102.03C23.4657 102.03 23.9023 102.163 24.2823 102.43C24.669 102.69 24.9723 103.05 25.1923 103.51C25.419 103.963 25.5323 104.483 25.5323 105.07ZM24.4123 105.07C24.4123 104.67 24.3523 104.32 24.2323 104.02C24.1123 103.713 23.9423 103.477 23.7223 103.31C23.5023 103.137 23.2523 103.05 22.9723 103.05C22.6857 103.05 22.4323 103.137 22.2123 103.31C21.9923 103.477 21.819 103.713 21.6923 104.02C21.5723 104.32 21.5123 104.67 21.5123 105.07C21.5123 105.47 21.5723 105.82 21.6923 106.12C21.819 106.42 21.9923 106.657 22.2123 106.83C22.4323 106.997 22.6857 107.08 22.9723 107.08C23.2523 107.08 23.499 106.997 23.7123 106.83C23.9323 106.657 24.1023 106.42 24.2223 106.12C24.349 105.82 24.4123 105.47 24.4123 105.07ZM31.6749 105.07C31.6749 105.657 31.5616 106.18 31.3349 106.64C31.1149 107.093 30.8116 107.45 30.4249 107.71C30.0449 107.97 29.6083 108.1 29.1149 108.1C28.6283 108.1 28.1916 107.97 27.8049 107.71C27.4183 107.45 27.1116 107.093 26.8849 106.64C26.6649 106.18 26.5549 105.657 26.5549 105.07C26.5549 104.483 26.6649 103.963 26.8849 103.51C27.1116 103.05 27.4183 102.69 27.8049 102.43C28.1916 102.163 28.6283 102.03 29.1149 102.03C29.6083 102.03 30.0449 102.163 30.4249 102.43C30.8116 102.69 31.1149 103.05 31.3349 103.51C31.5616 103.963 31.6749 104.483 31.6749 105.07ZM30.5549 105.07C30.5549 104.67 30.4949 104.32 30.3749 104.02C30.2549 103.713 30.0849 103.477 29.8649 103.31C29.6449 103.137 29.3949 103.05 29.1149 103.05C28.8283 103.05 28.5749 103.137 28.3549 103.31C28.1349 103.477 27.9616 103.713 27.8349 104.02C27.7149 104.32 27.6549 104.67 27.6549 105.07C27.6549 105.47 27.7149 105.82 27.8349 106.12C27.9616 106.42 28.1349 106.657 28.3549 106.83C28.5749 106.997 28.8283 107.08 29.1149 107.08C29.3949 107.08 29.6416 106.997 29.8549 106.83C30.0749 106.657 30.2449 106.42 30.3649 106.12C30.4916 105.82 30.5549 105.47 30.5549 105.07Z" fill="#00B4D8"/>
<path opacity="0.5" d="M3.29 75.2699V73.6799H0.22V72.6999L3.64 68.2899H4.39V72.6799H5.27V73.6799H4.39V75.2699H3.29ZM1.34 72.6799H3.41V69.9699L1.34 72.6799ZM11.2745 71.0699C11.2745 71.6566 11.1612 72.1799 10.9345 72.6399C10.7145 73.0933 10.4112 73.4499 10.0245 73.7099C9.64453 73.9699 9.20786 74.0999 8.71453 74.0999C8.22786 74.0999 7.7912 73.9699 7.40453 73.7099C7.01786 73.4499 6.7112 73.0933 6.48453 72.6399C6.26453 72.1799 6.15453 71.6566 6.15453 71.0699C6.15453 70.4833 6.26453 69.9633 6.48453 69.5099C6.7112 69.0499 7.01786 68.6899 7.40453 68.4299C7.7912 68.1633 8.22786 68.0299 8.71453 68.0299C9.20786 68.0299 9.64453 68.1633 10.0245 68.4299C10.4112 68.6899 10.7145 69.0499 10.9345 69.5099C11.1612 69.9633 11.2745 70.4833 11.2745 71.0699ZM10.1545 71.0699C10.1545 70.6699 10.0945 70.3199 9.97453 70.0199C9.85453 69.7133 9.68453 69.4766 9.46453 69.3099C9.24453 69.1366 8.99453 69.0499 8.71453 69.0499C8.42786 69.0499 8.17453 69.1366 7.95453 69.3099C7.73453 69.4766 7.5612 69.7133 7.43453 70.0199C7.31453 70.3199 7.25453 70.6699 7.25453 71.0699C7.25453 71.4699 7.31453 71.8199 7.43453 72.1199C7.5612 72.4199 7.73453 72.6566 7.95453 72.8299C8.17453 72.9966 8.42786 73.0799 8.71453 73.0799C8.99453 73.0799 9.2412 72.9966 9.45453 72.8299C9.67453 72.6566 9.84453 72.4199 9.96453 72.1199C10.0912 71.8199 10.1545 71.4699 10.1545 71.0699ZM12.3971 73.9999V72.7199H13.3071V73.9999H12.3971ZM19.546 71.0699C19.546 71.6566 19.4327 72.1799 19.206 72.6399C18.986 73.0933 18.6827 73.4499 18.296 73.7099C17.916 73.9699 17.4793 74.0999 16.986 74.0999C16.4993 74.0999 16.0627 73.9699 15.676 73.7099C15.2893 73.4499 14.9827 73.0933 14.756 72.6399C14.536 72.1799 14.426 71.6566 14.426 71.0699C14.426 70.4833 14.536 69.9633 14.756 69.5099C14.9827 69.0499 15.2893 68.6899 15.676 68.4299C16.0627 68.1633 16.4993 68.0299 16.986 68.0299C17.4793 68.0299 17.916 68.1633 18.296 68.4299C18.6827 68.6899 18.986 69.0499 19.206 69.5099C19.4327 69.9633 19.546 70.4833 19.546 71.0699ZM18.426 71.0699C18.426 70.6699 18.366 70.3199 18.246 70.0199C18.126 69.7133 17.956 69.4766 17.736 69.3099C17.516 69.1366 17.266 69.0499 16.986 69.0499C16.6993 69.0499 16.446 69.1366 16.226 69.3099C16.006 69.4766 15.8327 69.7133 15.706 70.0199C15.586 70.3199 15.526 70.6699 15.526 71.0699C15.526 71.4699 15.586 71.8199 15.706 72.1199C15.8327 72.4199 16.006 72.6566 16.226 72.8299C16.446 72.9966 16.6993 73.0799 16.986 73.0799C17.266 73.0799 17.5127 72.9966 17.726 72.8299C17.946 72.6566 18.116 72.4199 18.236 72.1199C18.3627 71.8199 18.426 71.4699 18.426 71.0699ZM25.6886 71.0699C25.6886 71.6566 25.5753 72.1799 25.3486 72.6399C25.1286 73.0933 24.8253 73.4499 24.4386 73.7099C24.0586 73.9699 23.6219 74.0999 23.1286 74.0999C22.6419 74.0999 22.2053 73.9699 21.8186 73.7099C21.4319 73.4499 21.1253 73.0933 20.8986 72.6399C20.6786 72.1799 20.5686 71.6566 20.5686 71.0699C20.5686 70.4833 20.6786 69.9633 20.8986 69.5099C21.1253 69.0499 21.4319 68.6899 21.8186 68.4299C22.2053 68.1633 22.6419 68.0299 23.1286 68.0299C23.6219 68.0299 24.0586 68.1633 24.4386 68.4299C24.8253 68.6899 25.1286 69.0499 25.3486 69.5099C25.5753 69.9633 25.6886 70.4833 25.6886 71.0699ZM24.5686 71.0699C24.5686 70.6699 24.5086 70.3199 24.3886 70.0199C24.2686 69.7133 24.0986 69.4766 23.8786 69.3099C23.6586 69.1366 23.4086 69.0499 23.1286 69.0499C22.8419 69.0499 22.5886 69.1366 22.3686 69.3099C22.1486 69.4766 21.9753 69.7133 21.8486 70.0199C21.7286 70.3199 21.6686 70.6699 21.6686 71.0699C21.6686 71.4699 21.7286 71.8199 21.8486 72.1199C21.9753 72.4199 22.1486 72.6566 22.3686 72.8299C22.5886 72.9966 22.8419 73.0799 23.1286 73.0799C23.4086 73.0799 23.6553 72.9966 23.8686 72.8299C24.0886 72.6566 24.2586 72.4199 24.3786 72.1199C24.5053 71.8199 24.5686 71.4699 24.5686 71.0699ZM31.8312 71.0699C31.8312 71.6566 31.7178 72.1799 31.4912 72.6399C31.2712 73.0933 30.9678 73.4499 30.5812 73.7099C30.2012 73.9699 29.7645 74.0999 29.2712 74.0999C28.7845 74.0999 28.3478 73.9699 27.9612 73.7099C27.5745 73.4499 27.2678 73.0933 27.0412 72.6399C26.8212 72.1799 26.7112 71.6566 26.7112 71.0699C26.7112 70.4833 26.8212 69.9633 27.0412 69.5099C27.2678 69.0499 27.5745 68.6899 27.9612 68.4299C28.3478 68.1633 28.7845 68.0299 29.2712 68.0299C29.7645 68.0299 30.2012 68.1633 30.5812 68.4299C30.9678 68.6899 31.2712 69.0499 31.4912 69.5099C31.7178 69.9633 31.8312 70.4833 31.8312 71.0699ZM30.7112 71.0699C30.7112 70.6699 30.6512 70.3199 30.5312 70.0199C30.4112 69.7133 30.2412 69.4766 30.0212 69.3099C29.8012 69.1366 29.5512 69.0499 29.2712 69.0499C28.9845 69.0499 28.7312 69.1366 28.5112 69.3099C28.2912 69.4766 28.1178 69.7133 27.9912 70.0199C27.8712 70.3199 27.8112 70.6699 27.8112 71.0699C27.8112 71.4699 27.8712 71.8199 27.9912 72.1199C28.1178 72.4199 28.2912 72.6566 28.5112 72.8299C28.7312 72.9966 28.9845 73.0799 29.2712 73.0799C29.5512 73.0799 29.7978 72.9966 30.0112 72.8299C30.2312 72.6566 30.4012 72.4199 30.5212 72.1199C30.6478 71.8199 30.7112 71.4699 30.7112 71.0699Z" fill="#00B4D8"/>
<path opacity="0.5" d="M60.7628 231.01V232H56.9428V231.01H58.3628V227.52C58.3028 227.6 58.2095 227.683 58.0828 227.77C57.9562 227.857 57.8128 227.94 57.6528 228.02C57.4995 228.093 57.3428 228.153 57.1828 228.2C57.0228 228.247 56.8762 228.27 56.7428 228.27V227.24C56.8762 227.24 57.0295 227.2 57.2028 227.12C57.3762 227.04 57.5462 226.947 57.7128 226.84C57.8862 226.727 58.0328 226.62 58.1528 226.52C58.2728 226.413 58.3428 226.337 58.3628 226.29H59.4928V231.01H60.7628ZM65.4699 231.01V232H61.6499V231.01H63.0699V227.52C63.0099 227.6 62.9165 227.683 62.7899 227.77C62.6632 227.857 62.5199 227.94 62.3599 228.02C62.2065 228.093 62.0499 228.153 61.8899 228.2C61.7299 228.247 61.5832 228.27 61.4499 228.27V227.24C61.5832 227.24 61.7365 227.2 61.9099 227.12C62.0832 227.04 62.2532 226.947 62.4199 226.84C62.5932 226.727 62.7399 226.62 62.8599 226.52C62.9799 226.413 63.0499 226.337 63.0699 226.29H64.1999V231.01H65.4699Z" fill="#00B4D8"/>
<path opacity="0.5" d="M96.4699 231.01V232H92.6499V231.01H94.0699V227.52C94.0099 227.6 93.9165 227.683 93.7899 227.77C93.6632 227.857 93.5199 227.94 93.3599 228.02C93.2065 228.093 93.0499 228.153 92.8899 228.2C92.7299 228.247 92.5832 228.27 92.4499 228.27V227.24C92.5832 227.24 92.7365 227.2 92.9099 227.12C93.0832 227.04 93.2532 226.947 93.4199 226.84C93.5932 226.727 93.7399 226.62 93.8599 226.52C93.9799 226.413 94.0499 226.337 94.0699 226.29H95.1999V231.01H96.4699ZM97.1069 232C97.1069 231.72 97.1302 231.463 97.1769 231.23C97.2236 230.99 97.3036 230.763 97.4169 230.55C97.5369 230.337 97.7002 230.137 97.9069 229.95C98.1202 229.757 98.3902 229.573 98.7169 229.4C98.9502 229.267 99.1702 229.15 99.3769 229.05C99.5836 228.943 99.7669 228.84 99.9269 228.74C100.087 228.633 100.21 228.52 100.297 228.4C100.39 228.28 100.437 228.143 100.437 227.99C100.437 227.843 100.397 227.707 100.317 227.58C100.237 227.453 100.117 227.353 99.9569 227.28C99.7969 227.2 99.6036 227.16 99.3769 227.16C99.1969 227.16 99.0302 227.183 98.8769 227.23C98.7302 227.277 98.5936 227.34 98.4669 227.42C98.3469 227.493 98.2369 227.577 98.1369 227.67C98.0369 227.757 97.9502 227.843 97.8769 227.93L97.1869 227.14C97.2536 227.06 97.3569 226.97 97.4969 226.87C97.6436 226.763 97.8169 226.66 98.0169 226.56C98.2236 226.453 98.4569 226.367 98.7169 226.3C98.9769 226.227 99.2602 226.19 99.5669 226.19C100 226.19 100.37 226.263 100.677 226.41C100.984 226.55 101.217 226.747 101.377 227C101.544 227.247 101.627 227.527 101.627 227.84C101.627 228.087 101.577 228.303 101.477 228.49C101.384 228.677 101.26 228.843 101.107 228.99C100.954 229.13 100.79 229.253 100.617 229.36C100.45 229.46 100.294 229.55 100.147 229.63C99.8869 229.757 99.6602 229.873 99.4669 229.98C99.2802 230.087 99.1202 230.193 98.9869 230.3C98.8536 230.4 98.7436 230.507 98.6569 230.62C98.5702 230.727 98.4969 230.857 98.4369 231.01H101.737V232H97.1069Z" fill="#00B4D8"/>
<path opacity="0.5" d="M132.47 231.01V232H128.65V231.01H130.07V227.52C130.01 227.6 129.917 227.683 129.79 227.77C129.663 227.857 129.52 227.94 129.36 228.02C129.207 228.093 129.05 228.153 128.89 228.2C128.73 228.247 128.583 228.27 128.45 228.27V227.24C128.583 227.24 128.737 227.2 128.91 227.12C129.083 227.04 129.253 226.947 129.42 226.84C129.593 226.727 129.74 226.62 129.86 226.52C129.98 226.413 130.05 226.337 130.07 226.29H131.2V231.01H132.47ZM136.397 229.64C136.677 229.687 136.92 229.793 137.127 229.96C137.34 230.12 137.504 230.327 137.617 230.58C137.73 230.827 137.787 231.107 137.787 231.42C137.787 231.833 137.684 232.193 137.477 232.5C137.277 232.807 136.99 233.043 136.617 233.21C136.244 233.383 135.804 233.47 135.297 233.47C134.79 233.47 134.344 233.38 133.957 233.2C133.57 233.027 133.26 232.773 133.027 232.44L133.697 231.68C133.857 231.92 134.064 232.11 134.317 232.25C134.57 232.397 134.89 232.47 135.277 232.47C135.71 232.47 136.047 232.377 136.287 232.19C136.527 232.003 136.647 231.723 136.647 231.35C136.647 230.963 136.514 230.66 136.247 230.44C135.987 230.22 135.594 230.11 135.067 230.11H134.797V229.25H135.097C135.544 229.25 135.887 229.147 136.127 228.94C136.367 228.727 136.487 228.46 136.487 228.14C136.487 227.927 136.437 227.753 136.337 227.62C136.244 227.48 136.11 227.377 135.937 227.31C135.764 227.243 135.564 227.21 135.337 227.21C134.997 227.21 134.697 227.283 134.437 227.43C134.177 227.577 133.97 227.787 133.817 228.06L133.127 227.31C133.26 227.097 133.444 226.91 133.677 226.75C133.91 226.59 134.177 226.467 134.477 226.38C134.784 226.287 135.107 226.24 135.447 226.24C135.887 226.24 136.274 226.313 136.607 226.46C136.94 226.607 137.197 226.813 137.377 227.08C137.564 227.347 137.657 227.66 137.657 228.02C137.657 228.28 137.607 228.527 137.507 228.76C137.407 228.987 137.26 229.18 137.067 229.34C136.874 229.493 136.65 229.593 136.397 229.64Z" fill="#00B4D8"/>
<path opacity="0.5" d="M168.47 231.01V232H164.65V231.01H166.07V227.52C166.01 227.6 165.917 227.683 165.79 227.77C165.663 227.857 165.52 227.94 165.36 228.02C165.207 228.093 165.05 228.153 164.89 228.2C164.73 228.247 164.583 228.27 164.45 228.27V227.24C164.583 227.24 164.737 227.2 164.91 227.12C165.083 227.04 165.253 226.947 165.42 226.84C165.593 226.727 165.74 226.62 165.86 226.52C165.98 226.413 166.05 226.337 166.07 226.29H167.2V231.01H168.47ZM171.997 233.27V231.68H168.927V230.7L172.347 226.29H173.097V230.68H173.977V231.68H173.097V233.27H171.997ZM170.047 230.68H172.117V227.97L170.047 230.68Z" fill="#00B4D8"/>
<path opacity="0.5" d="M204.47 231.01V232H200.65V231.01H202.07V227.52C202.01 227.6 201.917 227.683 201.79 227.77C201.663 227.857 201.52 227.94 201.36 228.02C201.207 228.093 201.05 228.153 200.89 228.2C200.73 228.247 200.583 228.27 200.45 228.27V227.24C200.583 227.24 200.737 227.2 200.91 227.12C201.083 227.04 201.253 226.947 201.42 226.84C201.593 226.727 201.74 226.62 201.86 226.52C201.98 226.413 202.05 226.337 202.07 226.29H203.2V231.01H204.47ZM207.327 233.49C206.814 233.49 206.354 233.373 205.947 233.14C205.54 232.913 205.23 232.603 205.017 232.21L205.677 231.58C205.864 231.867 206.104 232.093 206.397 232.26C206.69 232.433 207.004 232.52 207.337 232.52C207.61 232.52 207.854 232.46 208.067 232.34C208.28 232.227 208.447 232.067 208.567 231.86C208.694 231.647 208.757 231.403 208.757 231.13C208.757 230.863 208.697 230.63 208.577 230.43C208.457 230.223 208.297 230.067 208.097 229.96C207.897 229.847 207.667 229.79 207.407 229.79C207.154 229.79 206.917 229.847 206.697 229.96C206.477 230.073 206.297 230.233 206.157 230.44H205.187L205.997 226.29H209.467V227.3H206.797L206.437 229.24C206.55 229.12 206.704 229.023 206.897 228.95C207.09 228.87 207.31 228.83 207.557 228.83C208.004 228.83 208.4 228.93 208.747 229.13C209.1 229.323 209.377 229.59 209.577 229.93C209.784 230.27 209.887 230.663 209.887 231.11C209.887 231.583 209.774 231.997 209.547 232.35C209.32 232.71 209.014 232.99 208.627 233.19C208.24 233.39 207.807 233.49 207.327 233.49Z" fill="#00B4D8"/>
<path opacity="0.5" d="M241.47 231.01V232H237.65V231.01H239.07V227.52C239.01 227.6 238.917 227.683 238.79 227.77C238.663 227.857 238.52 227.94 238.36 228.02C238.207 228.093 238.05 228.153 237.89 228.2C237.73 228.247 237.583 228.27 237.45 228.27V227.24C237.583 227.24 237.737 227.2 237.91 227.12C238.083 227.04 238.253 226.947 238.42 226.84C238.593 226.727 238.74 226.62 238.86 226.52C238.98 226.413 239.05 226.337 239.07 226.29H240.2V231.01H241.47ZM247.347 229.64C247.347 229.193 247.237 228.793 247.017 228.44C246.804 228.08 246.51 227.793 246.137 227.58C245.77 227.367 245.354 227.26 244.887 227.26C244.64 227.26 244.407 227.3 244.187 227.38C243.967 227.46 243.774 227.573 243.607 227.72C243.447 227.86 243.317 228.03 243.217 228.23C243.224 227.717 243.294 227.28 243.427 226.92C243.567 226.56 243.76 226.287 244.007 226.1C244.26 225.907 244.55 225.81 244.877 225.81C245.204 225.81 245.5 225.893 245.767 226.06C246.04 226.22 246.254 226.44 246.407 226.72L247.057 226.04C246.824 225.667 246.517 225.377 246.137 225.17C245.764 224.957 245.35 224.85 244.897 224.85C244.35 224.85 243.874 225.003 243.467 225.31C243.06 225.617 242.744 226.073 242.517 226.68C242.297 227.287 242.187 228.043 242.187 228.95C242.187 229.603 242.294 230.167 242.507 230.64C242.727 231.113 243.03 231.477 243.417 231.73C243.81 231.977 244.267 232.1 244.787 232.1C245.267 232.1 245.7 231.99 246.087 231.77C246.48 231.55 246.787 231.253 247.007 230.88C247.234 230.507 247.347 230.093 247.347 229.64ZM244.787 231.16C244.52 231.16 244.27 231.09 244.037 230.95C243.81 230.81 243.627 230.627 243.487 230.4C243.347 230.167 243.277 229.913 243.277 229.64C243.277 229.367 243.344 229.117 243.477 228.89C243.617 228.663 243.804 228.483 244.037 228.35C244.27 228.21 244.52 228.14 244.787 228.14C245.067 228.14 245.32 228.21 245.547 228.35C245.774 228.483 245.954 228.663 246.087 228.89C246.227 229.117 246.297 229.367 246.297 229.64C246.297 229.913 246.227 230.167 246.087 230.4C245.954 230.633 245.77 230.82 245.537 230.96C245.31 231.093 245.06 231.16 244.787 231.16Z" fill="#00B4D8"/>
<g opacity="0.1" filter="url(#filter0_f_83_529)">
<line x1="40.2417" y1="36.5" x2="285.983" y2="36.5" stroke="#040404" stroke-miterlimit="16" stroke-linecap="round" stroke-dasharray="3 3"/>
<line x1="40.2417" y1="70.5" x2="285.983" y2="70.5" stroke="#040404" stroke-miterlimit="16" stroke-linecap="round" stroke-dasharray="3 3"/>
<line x1="40.2417" y1="104.5" x2="285.983" y2="104.5" stroke="#040404" stroke-miterlimit="16" stroke-linecap="round" stroke-dasharray="3 3"/>
<line x1="40.2417" y1="138.5" x2="285.983" y2="138.5" stroke="#040404" stroke-miterlimit="16" stroke-linecap="round" stroke-dasharray="3 3"/>
<line x1="40.2417" y1="172.5" x2="285.983" y2="172.5" stroke="#040404" stroke-miterlimit="16" stroke-linecap="round" stroke-dasharray="3 3"/>
<line x1="40.2417" y1="206.5" x2="285.983" y2="206.5" stroke="#040404" stroke-miterlimit="16" stroke-linecap="round" stroke-dasharray="3 3"/>
</g>
<path d="M75.8879 11V2.48H79.4999C79.8919 2.48 80.2519 2.56 80.5799 2.72C80.9079 2.88 81.1919 3.096 81.4319 3.368C81.6799 3.64 81.8719 3.944 82.0079 4.28C82.1439 4.616 82.2119 4.96 82.2119 5.312C82.2119 5.792 82.0999 6.248 81.8759 6.68C81.6519 7.112 81.3439 7.464 80.9519 7.736C80.5599 8.008 80.0959 8.144 79.5599 8.144H77.5439V11H75.8879ZM77.5439 6.692H79.4639C79.6639 6.692 79.8439 6.636 80.0039 6.524C80.1639 6.412 80.2919 6.252 80.3879 6.044C80.4839 5.828 80.5319 5.584 80.5319 5.312C80.5319 5.016 80.4759 4.764 80.3639 4.556C80.2599 4.348 80.1199 4.192 79.9439 4.088C79.7759 3.984 79.5919 3.932 79.3919 3.932H77.5439V6.692ZM85.9955 11.12C85.4915 11.12 85.0355 11.036 84.6275 10.868C84.2195 10.692 83.8715 10.456 83.5835 10.16C83.2955 9.856 83.0715 9.512 82.9115 9.128C82.7595 8.736 82.6835 8.324 82.6835 7.892C82.6835 7.292 82.8155 6.744 83.0795 6.248C83.3515 5.752 83.7355 5.356 84.2315 5.06C84.7355 4.756 85.3275 4.604 86.0075 4.604C86.6955 4.604 87.2835 4.756 87.7715 5.06C88.2595 5.356 88.6315 5.752 88.8875 6.248C89.1515 6.736 89.2835 7.264 89.2835 7.832C89.2835 7.928 89.2795 8.028 89.2715 8.132C89.2635 8.228 89.2555 8.308 89.2475 8.372H84.3875C84.4195 8.692 84.5115 8.972 84.6635 9.212C84.8235 9.452 85.0235 9.636 85.2635 9.764C85.5115 9.884 85.7755 9.944 86.0555 9.944C86.3755 9.944 86.6755 9.868 86.9555 9.716C87.2435 9.556 87.4395 9.348 87.5435 9.092L88.9235 9.476C88.7715 9.796 88.5515 10.08 88.2635 10.328C87.9835 10.576 87.6515 10.772 87.2675 10.916C86.8835 11.052 86.4595 11.12 85.9955 11.12ZM84.3515 7.352H87.6395C87.6075 7.032 87.5155 6.756 87.3635 6.524C87.2195 6.284 87.0275 6.1 86.7875 5.972C86.5475 5.836 86.2795 5.768 85.9835 5.768C85.6955 5.768 85.4315 5.836 85.1915 5.972C84.9595 6.1 84.7675 6.284 84.6155 6.524C84.4715 6.756 84.3835 7.032 84.3515 7.352ZM94.0071 6.104C93.5191 6.104 93.0831 6.2 92.6991 6.392C92.3151 6.576 92.0391 6.844 91.8711 7.196V11H90.2631V4.712H91.7391V6.056C91.9631 5.624 92.2471 5.284 92.5911 5.036C92.9351 4.788 93.2991 4.652 93.6831 4.628C93.7711 4.628 93.8391 4.628 93.8871 4.628C93.9351 4.628 93.9751 4.632 94.0071 4.64V6.104ZM99.1998 11L97.3638 8.288L96.5118 9.128V11H94.9038V2.24H96.5118V7.544L99.0438 4.724H100.748L98.4078 7.388L100.916 11H99.1998ZM104.183 11.12C103.679 11.12 103.223 11.036 102.815 10.868C102.407 10.692 102.059 10.456 101.771 10.16C101.483 9.856 101.259 9.512 101.099 9.128C100.947 8.736 100.871 8.324 100.871 7.892C100.871 7.292 101.003 6.744 101.267 6.248C101.539 5.752 101.923 5.356 102.419 5.06C102.923 4.756 103.515 4.604 104.195 4.604C104.883 4.604 105.471 4.756 105.959 5.06C106.447 5.356 106.819 5.752 107.075 6.248C107.339 6.736 107.471 7.264 107.471 7.832C107.471 7.928 107.467 8.028 107.459 8.132C107.451 8.228 107.443 8.308 107.435 8.372H102.575C102.607 8.692 102.699 8.972 102.851 9.212C103.011 9.452 103.211 9.636 103.451 9.764C103.699 9.884 103.963 9.944 104.243 9.944C104.563 9.944 104.863 9.868 105.143 9.716C105.431 9.556 105.627 9.348 105.731 9.092L107.111 9.476C106.959 9.796 106.739 10.08 106.451 10.328C106.171 10.576 105.839 10.772 105.455 10.916C105.071 11.052 104.647 11.12 104.183 11.12ZM102.539 7.352H105.827C105.795 7.032 105.703 6.756 105.551 6.524C105.407 6.284 105.215 6.1 104.975 5.972C104.735 5.836 104.467 5.768 104.171 5.768C103.883 5.768 103.619 5.836 103.379 5.972C103.147 6.1 102.955 6.284 102.803 6.524C102.659 6.756 102.571 7.032 102.539 7.352ZM118.219 11H116.611V7.472C116.611 6.976 116.523 6.612 116.347 6.38C116.179 6.14 115.943 6.02 115.639 6.02C115.327 6.02 115.027 6.144 114.739 6.392C114.459 6.632 114.259 6.948 114.139 7.34V11H112.531V7.472C112.531 6.968 112.443 6.6 112.267 6.368C112.099 6.136 111.863 6.02 111.559 6.02C111.247 6.02 110.947 6.14 110.659 6.38C110.379 6.62 110.179 6.936 110.059 7.328V11H108.451V4.712H109.903V5.876C110.143 5.468 110.463 5.156 110.863 4.94C111.263 4.716 111.723 4.604 112.243 4.604C112.763 4.604 113.167 4.732 113.455 4.988C113.751 5.244 113.939 5.56 114.019 5.936C114.275 5.504 114.599 5.176 114.991 4.952C115.391 4.72 115.839 4.604 116.335 4.604C116.727 4.604 117.043 4.676 117.283 4.82C117.531 4.956 117.723 5.144 117.859 5.384C117.995 5.616 118.087 5.88 118.135 6.176C118.191 6.472 118.219 6.772 118.219 7.076V11ZM123.195 11.12C122.715 11.12 122.287 11.012 121.911 10.796C121.535 10.58 121.239 10.284 121.023 9.908V11H119.619V2.24H121.227V5.816C121.451 5.44 121.743 5.144 122.103 4.928C122.471 4.712 122.899 4.604 123.387 4.604C123.795 4.604 124.167 4.692 124.503 4.868C124.839 5.036 125.127 5.272 125.367 5.576C125.615 5.88 125.803 6.228 125.931 6.62C126.067 7.012 126.135 7.432 126.135 7.88C126.135 8.328 126.059 8.748 125.907 9.14C125.763 9.532 125.559 9.88 125.295 10.184C125.031 10.48 124.719 10.712 124.359 10.88C124.007 11.04 123.619 11.12 123.195 11.12ZM122.751 9.752C123.007 9.752 123.239 9.704 123.447 9.608C123.663 9.504 123.847 9.368 123.999 9.2C124.159 9.032 124.279 8.836 124.359 8.612C124.447 8.38 124.491 8.14 124.491 7.892C124.491 7.548 124.419 7.232 124.275 6.944C124.139 6.648 123.947 6.412 123.699 6.236C123.459 6.06 123.175 5.972 122.847 5.972C122.615 5.972 122.391 6.028 122.175 6.14C121.967 6.244 121.779 6.388 121.611 6.572C121.451 6.756 121.323 6.964 121.227 7.196V8.696C121.275 8.856 121.351 9 121.455 9.128C121.567 9.256 121.695 9.368 121.839 9.464C121.983 9.552 122.131 9.624 122.283 9.68C122.443 9.728 122.599 9.752 122.751 9.752ZM126.792 9.14C126.792 8.732 126.904 8.376 127.128 8.072C127.36 7.76 127.68 7.52 128.088 7.352C128.496 7.184 128.964 7.1 129.492 7.1C129.756 7.1 130.024 7.12 130.296 7.16C130.568 7.2 130.804 7.264 131.004 7.352V7.016C131.004 6.616 130.884 6.308 130.644 6.092C130.412 5.876 130.064 5.768 129.6 5.768C129.256 5.768 128.928 5.828 128.616 5.948C128.304 6.068 127.976 6.244 127.632 6.476L127.116 5.42C127.532 5.148 127.956 4.944 128.388 4.808C128.828 4.672 129.288 4.604 129.768 4.604C130.664 4.604 131.36 4.828 131.856 5.276C132.36 5.724 132.612 6.364 132.612 7.196V9.2C132.612 9.368 132.64 9.488 132.696 9.56C132.76 9.632 132.86 9.676 132.996 9.692V11C132.852 11.024 132.72 11.044 132.6 11.06C132.488 11.076 132.392 11.084 132.312 11.084C131.992 11.084 131.748 11.012 131.58 10.868C131.42 10.724 131.32 10.548 131.28 10.34L131.244 10.016C130.972 10.368 130.632 10.64 130.224 10.832C129.816 11.024 129.4 11.12 128.976 11.12C128.56 11.12 128.184 11.036 127.848 10.868C127.52 10.692 127.26 10.456 127.068 10.16C126.884 9.856 126.792 9.516 126.792 9.14ZM130.704 9.464C130.792 9.368 130.864 9.272 130.92 9.176C130.976 9.08 131.004 8.992 131.004 8.912V8.276C130.812 8.196 130.604 8.136 130.38 8.096C130.156 8.048 129.944 8.024 129.744 8.024C129.328 8.024 128.984 8.116 128.712 8.3C128.448 8.476 128.316 8.712 128.316 9.008C128.316 9.168 128.36 9.32 128.448 9.464C128.536 9.608 128.664 9.724 128.832 9.812C129 9.9 129.2 9.944 129.432 9.944C129.672 9.944 129.908 9.9 130.14 9.812C130.372 9.716 130.56 9.6 130.704 9.464ZM139.959 11H138.351V7.472C138.351 6.968 138.263 6.6 138.087 6.368C137.911 6.136 137.667 6.02 137.355 6.02C137.139 6.02 136.919 6.076 136.695 6.188C136.479 6.3 136.283 6.456 136.107 6.656C135.931 6.848 135.803 7.072 135.723 7.328V11H134.115V4.712H135.567V5.876C135.727 5.604 135.931 5.376 136.179 5.192C136.427 5 136.711 4.856 137.031 4.76C137.359 4.656 137.703 4.604 138.063 4.604C138.455 4.604 138.775 4.676 139.023 4.82C139.279 4.956 139.471 5.144 139.599 5.384C139.735 5.616 139.827 5.88 139.875 6.176C139.931 6.472 139.959 6.772 139.959 7.076V11ZM143.817 11.036C143.401 11.036 143.017 10.956 142.665 10.796C142.321 10.628 142.021 10.396 141.765 10.1C141.517 9.804 141.325 9.464 141.189 9.08C141.053 8.696 140.985 8.288 140.985 7.856C140.985 7.4 141.057 6.976 141.201 6.584C141.345 6.192 141.545 5.848 141.801 5.552C142.065 5.248 142.373 5.016 142.725 4.856C143.085 4.688 143.481 4.604 143.913 4.604C144.401 4.604 144.829 4.716 145.197 4.94C145.565 5.156 145.869 5.448 146.109 5.816V4.712H147.513V10.7C147.513 11.324 147.361 11.856 147.057 12.296C146.761 12.744 146.349 13.084 145.821 13.316C145.293 13.556 144.693 13.676 144.021 13.676C143.341 13.676 142.765 13.56 142.293 13.328C141.821 13.104 141.417 12.784 141.081 12.368L141.957 11.516C142.197 11.812 142.497 12.044 142.857 12.212C143.225 12.38 143.613 12.464 144.021 12.464C144.365 12.464 144.677 12.4 144.957 12.272C145.245 12.152 145.473 11.96 145.641 11.696C145.817 11.44 145.905 11.108 145.905 10.7V9.908C145.697 10.268 145.401 10.548 145.017 10.748C144.641 10.94 144.241 11.036 143.817 11.036ZM144.357 9.752C144.533 9.752 144.701 9.724 144.861 9.668C145.021 9.612 145.169 9.536 145.305 9.44C145.441 9.344 145.561 9.232 145.665 9.104C145.769 8.968 145.849 8.832 145.905 8.696V7.196C145.809 6.948 145.673 6.732 145.497 6.548C145.329 6.364 145.137 6.224 144.921 6.128C144.713 6.024 144.493 5.972 144.261 5.972C144.013 5.972 143.789 6.024 143.589 6.128C143.389 6.232 143.217 6.38 143.073 6.572C142.929 6.756 142.817 6.964 142.737 7.196C142.665 7.42 142.629 7.656 142.629 7.904C142.629 8.16 142.673 8.4 142.761 8.624C142.849 8.848 142.969 9.044 143.121 9.212C143.281 9.38 143.465 9.512 143.673 9.608C143.889 9.704 144.117 9.752 144.357 9.752ZM148.53 9.14C148.53 8.732 148.642 8.376 148.866 8.072C149.098 7.76 149.418 7.52 149.826 7.352C150.234 7.184 150.702 7.1 151.23 7.1C151.494 7.1 151.762 7.12 152.034 7.16C152.306 7.2 152.542 7.264 152.742 7.352V7.016C152.742 6.616 152.622 6.308 152.382 6.092C152.15 5.876 151.802 5.768 151.338 5.768C150.994 5.768 150.666 5.828 150.354 5.948C150.042 6.068 149.714 6.244 149.37 6.476L148.854 5.42C149.27 5.148 149.694 4.944 150.126 4.808C150.566 4.672 151.026 4.604 151.506 4.604C152.402 4.604 153.098 4.828 153.594 5.276C154.098 5.724 154.35 6.364 154.35 7.196V9.2C154.35 9.368 154.378 9.488 154.434 9.56C154.498 9.632 154.598 9.676 154.734 9.692V11C154.59 11.024 154.458 11.044 154.338 11.06C154.226 11.076 154.13 11.084 154.05 11.084C153.73 11.084 153.486 11.012 153.318 10.868C153.158 10.724 153.058 10.548 153.018 10.34L152.982 10.016C152.71 10.368 152.37 10.64 151.962 10.832C151.554 11.024 151.138 11.12 150.714 11.12C150.298 11.12 149.922 11.036 149.586 10.868C149.258 10.692 148.998 10.456 148.806 10.16C148.622 9.856 148.53 9.516 148.53 9.14ZM152.442 9.464C152.53 9.368 152.602 9.272 152.658 9.176C152.714 9.08 152.742 8.992 152.742 8.912V8.276C152.55 8.196 152.342 8.136 152.118 8.096C151.894 8.048 151.682 8.024 151.482 8.024C151.066 8.024 150.722 8.116 150.45 8.3C150.186 8.476 150.054 8.712 150.054 9.008C150.054 9.168 150.098 9.32 150.186 9.464C150.274 9.608 150.402 9.724 150.57 9.812C150.738 9.9 150.938 9.944 151.17 9.944C151.41 9.944 151.646 9.9 151.878 9.812C152.11 9.716 152.298 9.6 152.442 9.464ZM161.697 11H160.089V7.472C160.089 6.968 160.001 6.6 159.825 6.368C159.649 6.136 159.405 6.02 159.093 6.02C158.877 6.02 158.657 6.076 158.433 6.188C158.217 6.3 158.021 6.456 157.845 6.656C157.669 6.848 157.541 7.072 157.461 7.328V11H155.853V4.712H157.305V5.876C157.465 5.604 157.669 5.376 157.917 5.192C158.165 5 158.449 4.856 158.769 4.76C159.097 4.656 159.441 4.604 159.801 4.604C160.193 4.604 160.513 4.676 160.761 4.82C161.017 4.956 161.209 5.144 161.337 5.384C161.473 5.616 161.565 5.88 161.613 6.176C161.669 6.472 161.697 6.772 161.697 7.076V11ZM173.082 11V5.408L170.898 9.572H169.974L167.79 5.408V11H166.134V2.48H167.91L170.43 7.328L172.974 2.48H174.738V11H173.082ZM176.361 11V4.712H177.969V11H176.361ZM176.361 3.836V2.24H177.969V3.836H176.361ZM185.263 11H183.655V7.472C183.655 6.968 183.567 6.6 183.391 6.368C183.215 6.136 182.971 6.02 182.659 6.02C182.443 6.02 182.223 6.076 181.999 6.188C181.783 6.3 181.587 6.456 181.411 6.656C181.235 6.848 181.107 7.072 181.027 7.328V11H179.419V4.712H180.871V5.876C181.031 5.604 181.235 5.376 181.483 5.192C181.731 5 182.015 4.856 182.335 4.76C182.663 4.656 183.007 4.604 183.367 4.604C183.759 4.604 184.079 4.676 184.327 4.82C184.583 4.956 184.775 5.144 184.903 5.384C185.039 5.616 185.131 5.88 185.179 6.176C185.235 6.472 185.263 6.772 185.263 7.076V11ZM189.122 11.036C188.706 11.036 188.322 10.956 187.97 10.796C187.626 10.628 187.326 10.396 187.07 10.1C186.822 9.804 186.63 9.464 186.494 9.08C186.358 8.696 186.29 8.288 186.29 7.856C186.29 7.4 186.362 6.976 186.506 6.584C186.65 6.192 186.85 5.848 187.106 5.552C187.37 5.248 187.678 5.016 188.03 4.856C188.39 4.688 188.786 4.604 189.218 4.604C189.706 4.604 190.134 4.716 190.502 4.94C190.87 5.156 191.174 5.448 191.414 5.816V4.712H192.818V10.7C192.818 11.324 192.666 11.856 192.362 12.296C192.066 12.744 191.654 13.084 191.126 13.316C190.598 13.556 189.998 13.676 189.326 13.676C188.646 13.676 188.07 13.56 187.598 13.328C187.126 13.104 186.722 12.784 186.386 12.368L187.262 11.516C187.502 11.812 187.802 12.044 188.162 12.212C188.53 12.38 188.918 12.464 189.326 12.464C189.67 12.464 189.982 12.4 190.262 12.272C190.55 12.152 190.778 11.96 190.946 11.696C191.122 11.44 191.21 11.108 191.21 10.7V9.908C191.002 10.268 190.706 10.548 190.322 10.748C189.946 10.94 189.546 11.036 189.122 11.036ZM189.662 9.752C189.838 9.752 190.006 9.724 190.166 9.668C190.326 9.612 190.474 9.536 190.61 9.44C190.746 9.344 190.866 9.232 190.97 9.104C191.074 8.968 191.154 8.832 191.21 8.696V7.196C191.114 6.948 190.978 6.732 190.802 6.548C190.634 6.364 190.442 6.224 190.226 6.128C190.018 6.024 189.798 5.972 189.566 5.972C189.318 5.972 189.094 6.024 188.894 6.128C188.694 6.232 188.522 6.38 188.378 6.572C188.234 6.756 188.122 6.964 188.042 7.196C187.97 7.42 187.934 7.656 187.934 7.904C187.934 8.16 187.978 8.4 188.066 8.624C188.154 8.848 188.274 9.044 188.426 9.212C188.586 9.38 188.77 9.512 188.978 9.608C189.194 9.704 189.422 9.752 189.662 9.752ZM196.727 11.036C196.311 11.036 195.927 10.956 195.575 10.796C195.231 10.628 194.931 10.396 194.675 10.1C194.427 9.804 194.235 9.464 194.099 9.08C193.963 8.696 193.895 8.288 193.895 7.856C193.895 7.4 193.967 6.976 194.111 6.584C194.255 6.192 194.455 5.848 194.711 5.552C194.975 5.248 195.283 5.016 195.635 4.856C195.995 4.688 196.391 4.604 196.823 4.604C197.311 4.604 197.739 4.716 198.107 4.94C198.475 5.156 198.779 5.448 199.019 5.816V4.712H200.423V10.7C200.423 11.324 200.271 11.856 199.967 12.296C199.671 12.744 199.259 13.084 198.731 13.316C198.203 13.556 197.603 13.676 196.931 13.676C196.251 13.676 195.675 13.56 195.203 13.328C194.731 13.104 194.327 12.784 193.991 12.368L194.867 11.516C195.107 11.812 195.407 12.044 195.767 12.212C196.135 12.38 196.523 12.464 196.931 12.464C197.275 12.464 197.587 12.4 197.867 12.272C198.155 12.152 198.383 11.96 198.551 11.696C198.727 11.44 198.815 11.108 198.815 10.7V9.908C198.607 10.268 198.311 10.548 197.927 10.748C197.551 10.94 197.151 11.036 196.727 11.036ZM197.267 9.752C197.443 9.752 197.611 9.724 197.771 9.668C197.931 9.612 198.079 9.536 198.215 9.44C198.351 9.344 198.471 9.232 198.575 9.104C198.679 8.968 198.759 8.832 198.815 8.696V7.196C198.719 6.948 198.583 6.732 198.407 6.548C198.239 6.364 198.047 6.224 197.831 6.128C197.623 6.024 197.403 5.972 197.171 5.972C196.923 5.972 196.699 6.024 196.499 6.128C196.299 6.232 196.127 6.38 195.983 6.572C195.839 6.756 195.727 6.964 195.647 7.196C195.575 7.42 195.539 7.656 195.539 7.904C195.539 8.16 195.583 8.4 195.671 8.624C195.759 8.848 195.879 9.044 196.031 9.212C196.191 9.38 196.375 9.512 196.583 9.608C196.799 9.704 197.027 9.752 197.267 9.752ZM201.813 8.648V4.712H203.421V8.3C203.421 8.78 203.509 9.144 203.685 9.392C203.861 9.632 204.121 9.752 204.465 9.752C204.673 9.752 204.877 9.712 205.077 9.632C205.285 9.544 205.473 9.416 205.641 9.248C205.817 9.08 205.965 8.868 206.085 8.612V4.712H207.693V9.2C207.693 9.368 207.721 9.488 207.777 9.56C207.841 9.632 207.941 9.676 208.077 9.692V11C207.917 11.024 207.781 11.04 207.669 11.048C207.565 11.064 207.469 11.072 207.381 11.072C207.093 11.072 206.857 11.008 206.673 10.88C206.497 10.744 206.393 10.56 206.361 10.328L206.325 9.824C206.045 10.248 205.685 10.572 205.245 10.796C204.805 11.012 204.321 11.12 203.793 11.12C203.145 11.12 202.653 10.912 202.317 10.496C201.981 10.072 201.813 9.456 201.813 8.648ZM212.329 11V2.48H213.985V11H212.329ZM221.451 11H219.843V7.472C219.843 6.968 219.755 6.6 219.579 6.368C219.403 6.136 219.159 6.02 218.847 6.02C218.631 6.02 218.411 6.076 218.187 6.188C217.971 6.3 217.775 6.456 217.599 6.656C217.423 6.848 217.295 7.072 217.215 7.328V11H215.607V4.712H217.059V5.876C217.219 5.604 217.423 5.376 217.671 5.192C217.919 5 218.203 4.856 218.523 4.76C218.851 4.656 219.195 4.604 219.555 4.604C219.947 4.604 220.267 4.676 220.515 4.82C220.771 4.956 220.963 5.144 221.091 5.384C221.227 5.616 221.319 5.88 221.367 6.176C221.423 6.472 221.451 6.772 221.451 7.076V11ZM222.849 11V4.712H224.457V11H222.849ZM222.849 3.836V2.24H224.457V3.836H222.849Z" fill="#070707"/>
<rect x="54.9999" y="178" width="12.1348" height="29" rx="6.06742" fill="#FF7A00"/>
<rect x="90.9999" y="151" width="12.1348" height="56" rx="6.06742" fill="#FF7A00"/>
<rect x="127" y="155" width="12.1348" height="52" rx="6.06742" fill="#FF7A00"/>
<rect x="163" y="84" width="12.1348" height="123" rx="6.06742" fill="#FF7A00"/>
<rect x="199" y="124" width="12.1348" height="83" rx="6.06742" fill="#FF7A00"/>
<rect x="235" y="99" width="12.1348" height="108" rx="6.06742" fill="#FF7A00"/>
<defs>
<filter id="filter0_f_83_529" x="38.7417" y="35" width="248.742" height="173" filterUnits="userSpaceOnUse" color-interpolation-filters="sRGB">
<feFlood flood-opacity="0" result="BackgroundImageFix"/>
<feBlend mode="normal" in="SourceGraphic" in2="BackgroundImageFix" result="shape"/>
<feGaussianBlur stdDeviation="0.5" result="effect1_foregroundBlur_83_529"/>
</filter>
</defs>
</svg>
