<svg width="76" height="86" viewBox="0 0 76 86" fill="none" xmlns="http://www.w3.org/2000/svg">
<g filter="url(#filter0_d_83_660)">
<path d="M52.1667 22H23.8333C22.2693 22 21 21.104 21 20V4C21 1.794 23.5415 0 26.6667 0H49.3333C52.4585 0 55 1.794 55 4V20C55 21.104 53.7307 22 52.1667 22ZM26.6667 18H49.3333V4H26.6667V18Z" fill="#607D8B"/>
<path d="M57.8332 78C60.9628 78 63.4998 76.2091 63.4998 74C63.4998 71.7909 60.9628 70 57.8332 70C54.7036 70 52.1665 71.7909 52.1665 74C52.1665 76.2091 54.7036 78 57.8332 78Z" fill="#37474F"/>
<path d="M18.1667 78C21.2963 78 23.8333 76.2091 23.8333 74C23.8333 71.7909 21.2963 70 18.1667 70C15.0371 70 12.5 71.7909 12.5 74C12.5 76.2091 15.0371 78 18.1667 78Z" fill="#37474F"/>
<path d="M63.5 18H12.5C7.80517 18 4 20.686 4 24V68C4 71.314 7.80517 74 12.5 74H63.5C68.1948 74 72 71.314 72 68V24C72 20.686 68.1948 18 63.5 18Z" fill="#00B4D8"/>
<path d="M32.3332 70C30.7692 70 29.4998 69.104 29.4998 68V24C29.4998 22.896 30.7692 22 32.3332 22C33.8972 22 35.1665 22.896 35.1665 24V68C35.1665 69.104 33.8972 70 32.3332 70ZM20.9998 70C19.4358 70 18.1665 69.104 18.1665 68V24C18.1665 22.896 19.4358 22 20.9998 22C22.5638 22 23.8332 22.896 23.8332 24V68C23.8332 69.104 22.5638 70 20.9998 70ZM54.9998 70C53.4358 70 52.1665 69.104 52.1665 68V24C52.1665 22.896 53.4358 22 54.9998 22C56.5638 22 57.8332 22.896 57.8332 24V68C57.8332 69.104 56.5638 70 54.9998 70ZM43.6665 70C42.1025 70 40.8332 69.104 40.8332 68V24C40.8332 22.896 42.1025 22 43.6665 22C45.2305 22 46.4998 22.896 46.4998 24V68C46.4998 69.104 45.2305 70 43.6665 70Z" fill="white"/>
<path d="M43.6667 6H32.3333C30.7693 6 29.5 5.104 29.5 4V0H46.5V4C46.5 5.104 45.2307 6 43.6667 6Z" fill="#00B4D8"/>
</g>
<defs>
<filter id="filter0_d_83_660" x="0" y="0" width="76" height="86" filterUnits="userSpaceOnUse" color-interpolation-filters="sRGB">
<feFlood flood-opacity="0" result="BackgroundImageFix"/>
<feColorMatrix in="SourceAlpha" type="matrix" values="0 0 0 0 0 0 0 0 0 0 0 0 0 0 0 0 0 0 127 0" result="hardAlpha"/>
<feOffset dy="4"/>
<feGaussianBlur stdDeviation="2"/>
<feComposite in2="hardAlpha" operator="out"/>
<feColorMatrix type="matrix" values="0 0 0 0 0 0 0 0 0 0 0 0 0 0 0 0 0 0 0.25 0"/>
<feBlend mode="normal" in2="BackgroundImageFix" result="effect1_dropShadow_83_660"/>
<feBlend mode="normal" in="SourceGraphic" in2="effect1_dropShadow_83_660" result="shape"/>
</filter>
</defs>
</svg>
