<svg width="78" height="88" viewBox="0 0 78 88" fill="none" xmlns="http://www.w3.org/2000/svg">
<g filter="url(#filter0_d_83_640)">
<path d="M69.021 44.2835V48.4916" stroke="#0A72A0" stroke-width="2" stroke-linecap="round" stroke-linejoin="round"/>
<path d="M67.0315 46.3875H71.0105" stroke="#0A72A0" stroke-width="2" stroke-linecap="round" stroke-linejoin="round"/>
<path d="M17.2939 43.2315V47.4396" stroke="#0A72A0" stroke-width="2" stroke-linecap="round" stroke-linejoin="round"/>
<path d="M15.3044 45.3355H19.2834" stroke="#0A72A0" stroke-width="2" stroke-linecap="round" stroke-linejoin="round"/>
<path d="M54.0999 67.4279V71.6359" stroke="#0A72A0" stroke-width="2" stroke-linecap="round" stroke-linejoin="round"/>
<path d="M52.1104 69.5319H56.0894" stroke="#0A72A0" stroke-width="2" stroke-linecap="round" stroke-linejoin="round"/>
<path d="M69.5183 20.0872V27.4513" stroke="#0A72A0" stroke-width="2" stroke-linecap="round" stroke-linejoin="round"/>
<path d="M66.0369 23.7693H73.0001" stroke="#0A72A0" stroke-width="2" stroke-linecap="round" stroke-linejoin="round"/>
<path d="M52.1104 9.56708V15.8792" stroke="#0A72A0" stroke-width="2" stroke-linecap="round" stroke-linejoin="round"/>
<path d="M49.126 12.7231H55.0945" stroke="#0A72A0" stroke-width="2" stroke-linecap="round" stroke-linejoin="round"/>
<path d="M23.2625 63.2198V69.5319" stroke="#0A72A0" stroke-width="2" stroke-linecap="round" stroke-linejoin="round"/>
<path d="M20.2783 66.3759H26.2468" stroke="#0A72A0" stroke-width="2" stroke-linecap="round" stroke-linejoin="round"/>
<path d="M52.9855 41.8429L43.8736 51.4793L21.4121 27.7354L21.5215 27.6196H39.5464L52.9855 41.8429Z" fill="#37ABDD" stroke="#0A72A0" stroke-width="2" stroke-linecap="round" stroke-linejoin="round"/>
<path d="M16.6304 27.0972L29.6854 13.2907L54.4378 39.4681C55.0068 40.0698 55.3265 40.8859 55.3265 41.7369C55.3265 42.5879 55.0068 43.404 54.4378 44.0058L45.6735 53.2746C45.1045 53.8763 44.3328 54.2144 43.5282 54.2144C42.7235 54.2144 41.9518 53.8763 41.3828 53.2746L16.6304 27.0972Z" stroke="#0A72A0" stroke-width="2" stroke-linecap="round" stroke-linejoin="round"/>
<path d="M27.9408 4.99766L8.79443 25.2462L13.5775 30.3047L32.7239 10.0561L27.9408 4.99766Z" fill="#37ABDD" stroke="#0A72A0" stroke-width="2" stroke-linecap="round" stroke-linejoin="round"/>
<path d="M16.7186 2.10839L6.04806 13.3931C5.46923 14.0053 5.46923 14.9978 6.04806 15.6099L6.77255 16.3761C7.35138 16.9883 8.28984 16.9883 8.86867 16.3761L19.5392 5.09138C20.118 4.47923 20.118 3.48674 19.5392 2.8746L18.8147 2.10839C18.2358 1.49625 17.2974 1.49625 16.7186 2.10839Z" fill="#37ABDD" stroke="#0A72A0" stroke-width="2" stroke-linecap="round" stroke-linejoin="round"/>
<path d="M17.5722 7.53673L11.1924 14.2838L15.1806 18.5016L21.5604 11.7546L17.5722 7.53673Z" stroke="#0A72A0" stroke-width="2" stroke-linecap="round" stroke-linejoin="round"/>
<path d="M51.0755 53.0994L48.6881 55.6348L46.2908 53.0994L54.2587 44.6623L56.6561 47.1871L54.2587 49.7224L57.4618 53.0994L55.8702 54.7826L54.2587 56.4659L51.0755 53.0994Z" stroke="#0A72A0" stroke-width="2" stroke-linecap="round" stroke-linejoin="round"/>
<path d="M67.0316 66.5968L55.8606 54.7827" stroke="#0A72A0" stroke-width="2" stroke-linecap="round" stroke-linejoin="round"/>
<path d="M27.4404 37.6033L33.021 31.6909" stroke="#0A72A0" stroke-width="2" stroke-linecap="round" stroke-linejoin="round"/>
<path d="M33.021 43.505L36.2141 40.1281" stroke="#0A72A0" stroke-width="2" stroke-linecap="round" stroke-linejoin="round"/>
<path d="M38.6113 49.4068L44.1919 43.505" stroke="#0A72A0" stroke-width="2" stroke-linecap="round" stroke-linejoin="round"/>
<path d="M66.0369 76.1596C66.0369 76.9129 66.3198 77.6354 66.8235 78.1681C67.3272 78.7008 68.0104 79 68.7227 79C69.435 79 70.1182 78.7008 70.6219 78.1681C71.1255 77.6354 71.4085 76.9129 71.4085 76.1596C71.4085 74.5921 68.9714 68.1222 68.9714 69.7002C69.0211 71.7622 66.0369 74.5921 66.0369 76.1596Z" fill="#37ABDD" stroke="#0A72A0" stroke-width="2" stroke-linecap="round" stroke-linejoin="round"/>
</g>
<defs>
<filter id="filter0_d_83_640" x="0.642334" y="0.621704" width="77.3578" height="87.3783" filterUnits="userSpaceOnUse" color-interpolation-filters="sRGB">
<feFlood flood-opacity="0" result="BackgroundImageFix"/>
<feColorMatrix in="SourceAlpha" type="matrix" values="0 0 0 0 0 0 0 0 0 0 0 0 0 0 0 0 0 0 127 0" result="hardAlpha"/>
<feOffset dy="4"/>
<feGaussianBlur stdDeviation="2"/>
<feComposite in2="hardAlpha" operator="out"/>
<feColorMatrix type="matrix" values="0 0 0 0 0 0 0 0 0 0 0 0 0 0 0 0 0 0 0.25 0"/>
<feBlend mode="normal" in2="BackgroundImageFix" result="effect1_dropShadow_83_640"/>
<feBlend mode="normal" in="SourceGraphic" in2="effect1_dropShadow_83_640" result="shape"/>
</filter>
</defs>
</svg>
